<?xml version="1.0" encoding="UTF-8" standalone="no"?>
<!-- Created with Inkscape (http://www.inkscape.org/) -->

<svg
   version="1.1"
   id="svg1"
   width="225.08"
   height="194.70667"
   viewBox="0 0 225.08 194.70667"
   sodipodi:docname="DDGDic4.pdf"
   xmlns:inkscape="http://www.inkscape.org/namespaces/inkscape"
   xmlns:sodipodi="http://sodipodi.sourceforge.net/DTD/sodipodi-0.dtd"
   xmlns="http://www.w3.org/2000/svg"
   xmlns:svg="http://www.w3.org/2000/svg">
  <defs
     id="defs1">
    <clipPath
       clipPathUnits="userSpaceOnUse"
       id="clipPath3">
      <path
         d="M -1,0.99999977 H 11.163 V -9.1100005 H -1 Z"
         id="path3" />
    </clipPath>
    <clipPath
       clipPathUnits="userSpaceOnUse"
       id="clipPath21">
      <path
         d="M -0.99999978,2.9370026 H 16.405001 V -9.1099977 H -0.99999978 Z"
         id="path21" />
    </clipPath>
    <clipPath
       clipPathUnits="userSpaceOnUse"
       id="clipPath27">
      <path
         d="M -0.99999752,2.9369976 H 16.405003 V -9.1100027 H -0.99999752 Z"
         id="path27" />
    </clipPath>
    <clipPath
       clipPathUnits="userSpaceOnUse"
       id="clipPath74">
      <path
         d="M -0.99999752,0.99999752 H 11.163003 V -9.1100027 H -0.99999752 Z"
         id="path74" />
    </clipPath>
    <clipPath
       clipPathUnits="userSpaceOnUse"
       id="clipPath99">
      <path
         d="M -1,0.99999752 H 11.163 V -9.1100027 H -1 Z"
         id="path99" />
    </clipPath>
    <clipPath
       clipPathUnits="userSpaceOnUse"
       id="clipPath102">
      <path
         d="M -1,1.0000025 H 11.163 V -9.1099977 H -1 Z"
         id="path102" />
    </clipPath>
    <clipPath
       clipPathUnits="userSpaceOnUse"
       id="clipPath107">
      <path
         d="M -1,2.9370001 H 16.405 V -9.1100002 H -1 Z"
         id="path107" />
    </clipPath>
    <clipPath
       clipPathUnits="userSpaceOnUse"
       id="clipPath114">
      <path
         d="M -1.0000025,2.9370001 H 16.404998 V -9.1100002 H -1.0000025 Z"
         id="path114" />
    </clipPath>
  </defs>
  <sodipodi:namedview
     id="namedview1"
     pagecolor="#ffffff"
     bordercolor="#666666"
     borderopacity="1.0"
     inkscape:showpageshadow="2"
     inkscape:pageopacity="0.0"
     inkscape:pagecheckerboard="0"
     inkscape:deskcolor="#d1d1d1">
    <inkscape:page
       x="0"
       y="0"
       inkscape:label="1"
       id="page1"
       width="225.08"
       height="194.70667"
       margin="0"
       bleed="0" />
  </sodipodi:namedview>
  <g
     id="g1"
     inkscape:groupmode="layer"
     inkscape:label="1">
    <path
       id="path1"
       d="m 289.8,700 c 0,0.994 -0.806,1.8 -1.8,1.8 -0.994,0 -1.8,-0.806 -1.8,-1.8 0,-0.994 0.806,-1.8 1.8,-1.8 0.994,0 1.8,0.806 1.8,1.8"
       style="fill:#000000;fill-opacity:1;fill-rule:evenodd;stroke:none"
       transform="matrix(1.3333333,0,0,-1.3333333,-250.12667,951.264)" />
    <path
       id="path2"
       d="m 257.8,700 c 0,0.994 -0.806,1.8 -1.8,1.8 -0.994,0 -1.8,-0.806 -1.8,-1.8 0,-0.994 0.806,-1.8 1.8,-1.8 0.994,0 1.8,0.806 1.8,1.8"
       style="fill:#000000;fill-opacity:1;fill-rule:evenodd;stroke:none"
       transform="matrix(1.3333333,0,0,-1.3333333,-250.12667,951.264)" />
    <g
       id="g6">
      <g
         aria-label="x&#10;2"
         transform="matrix(1.3333333,0,0,1.3333333,84.8,12.146667)"
         clip-path="url(#clipPath3)"
         id="g5">
        <path
           d="m 3.3287109,-3.0103906 c 0.058594,-0.2578125 0.2929688,-1.171875 0.984375,-1.171875 0.046875,0 0.2929688,0 0.5039063,0.1289062 -0.28125,0.046875 -0.4804688,0.3046875 -0.4804688,0.5390625 0,0.1640625 0.1054688,0.3515625 0.375,0.3515625 0.2226563,0 0.5390625,-0.1875 0.5390625,-0.5859375 0,-0.515625 -0.5859375,-0.65625 -0.9257812,-0.65625 -0.5742188,0 -0.9257813,0.5273438 -1.0429688,0.7617188 -0.2578125,-0.65625 -0.7851562,-0.7617188 -1.078125,-0.7617188 -1.0429687,0 -1.60546871,1.2890625 -1.60546871,1.5351563 0,0.1054687 0.10546875,0.1054687 0.1171875,0.1054687 0.0820313,0 0.1171875,-0.023437 0.12890625,-0.1171875 0.33984376,-1.0546875 0.99609376,-1.3007812 1.33593746,-1.3007812 0.1875,0 0.5390625,0.09375 0.5390625,0.6679687 0,0.3046875 -0.1640625,0.9726563 -0.5390625,2.3671875 -0.1523437,0.62109378 -0.5039062,1.04296878 -0.9492187,1.04296878 -0.058594,0 -0.28125001,0 -0.49218751,-0.12890625 0.24609375,-0.0585938 0.46875001,-0.26953125 0.46875001,-0.5390625 0,-0.26953123 -0.22265626,-0.35156253 -0.37500001,-0.35156253 -0.29296875,0 -0.5390625,0.25781253 -0.5390625,0.57421878 0,0.45703125 0.4921875,0.65625 0.93750001,0.65625 0.65625,0 1.0078125,-0.69140625 1.0429687,-0.75 0.1171875,0.36328125 0.4804688,0.75 1.078125,0.75 1.0195313,0 1.59375,-1.27734378 1.59375,-1.53515628 0,-0.09375 -0.09375,-0.09375 -0.1289062,-0.09375 -0.082031,0 -0.1054688,0.035156 -0.1289063,0.1054688 -0.328125,1.06640623 -0.9960937,1.31249998 -1.3242187,1.31249998 -0.3867188,0 -0.5390625,-0.328125 -0.5390625,-0.65625 0,-0.22265625 0.058594,-0.44531248 0.1640625,-0.87890628 z m 0,0"
           style="fill:#000000;fill-opacity:1;fill-rule:nonzero;stroke:none"
           id="path4" />
        <path
           d="m 9.2085938,-4.8795312 h -0.234375 c -0.023437,0.1523437 -0.082031,0.5625 -0.1757813,0.6328125 -0.058594,0.035156 -0.5976562,0.035156 -0.6914062,0.035156 H 6.8179688 c 0.7382812,-0.6445312 0.984375,-0.84375 1.3945312,-1.171875 0.515625,-0.4101562 0.9960938,-0.84375 0.9960938,-1.5 0,-0.84375 -0.7382813,-1.359375 -1.6289063,-1.359375 -0.8671875,0 -1.453125,0.609375 -1.453125,1.2421875 0,0.3632813 0.3046875,0.3984375 0.375,0.3984375 0.1640625,0 0.375,-0.1171875 0.375,-0.375 0,-0.1289062 -0.058594,-0.3632812 -0.421875,-0.3632812 0.2226563,-0.5039063 0.6914063,-0.65625 1.0195313,-0.65625 0.703125,0 1.0664062,0.5507812 1.0664062,1.1132812 0,0.609375 -0.4335937,1.0898438 -0.65625,1.3359375 l -1.6875,1.6640625 c -0.070312,0.058594 -0.070312,0.070312 -0.070312,0.2695313 h 2.882812 z m 0,0"
           style="fill:#000000;fill-opacity:1;fill-rule:nonzero;stroke:none"
           id="path5" />
      </g>
    </g>
    <path
       id="path6"
       d="M 288,700 276,660"
       style="fill:none;stroke:#000000;stroke-width:0.4;stroke-linecap:butt;stroke-linejoin:round;stroke-miterlimit:10;stroke-dasharray:none;stroke-opacity:1"
       transform="matrix(1.3333333,0,0,-1.3333333,-250.12667,951.264)" />
    <path
       id="path7"
       d="m 276,660 4.244,6.035 -2.635,-0.671 -1.83,2.011 z"
       style="fill:#000000;fill-opacity:1;fill-rule:evenodd;stroke:#000000;stroke-width:0.4;stroke-linecap:butt;stroke-linejoin:round;stroke-miterlimit:10;stroke-dasharray:none;stroke-opacity:1"
       transform="matrix(1.3333333,0,0,-1.3333333,-250.12667,951.264)" />
    <path
       id="path8"
       d="m 256,700 12,-40"
       style="fill:none;stroke:#000000;stroke-width:0.4;stroke-linecap:butt;stroke-linejoin:round;stroke-miterlimit:10;stroke-dasharray:none;stroke-opacity:1"
       transform="matrix(1.3333333,0,0,-1.3333333,-250.12667,951.264)" />
    <path
       id="path9"
       d="m 268,660 0.221,7.375 -1.83,-2.011 -2.635,0.671 z"
       style="fill:#000000;fill-opacity:1;fill-rule:evenodd;stroke:#000000;stroke-width:0.4;stroke-linecap:butt;stroke-linejoin:round;stroke-miterlimit:10;stroke-dasharray:none;stroke-opacity:1"
       transform="matrix(1.3333333,0,0,-1.3333333,-250.12667,951.264)" />
    <path
       id="path10"
       d="m 256,700 h 32"
       style="fill:none;stroke:#000000;stroke-width:0.4;stroke-linecap:butt;stroke-linejoin:round;stroke-miterlimit:10;stroke-dasharray:none;stroke-opacity:1"
       transform="matrix(1.3333333,0,0,-1.3333333,-250.12667,951.264)" />
    <g
       id="g13">
      <g
         aria-label="x&#10;6"
         transform="matrix(1.3333333,0,0,1.3333333,132.8,12.146667)"
         clip-path="url(#clipPath3)"
         id="g12">
        <path
           d="m 3.3287109,-3.0103906 c 0.058594,-0.2578125 0.2929688,-1.171875 0.984375,-1.171875 0.046875,0 0.2929688,0 0.5039063,0.1289062 -0.28125,0.046875 -0.4804688,0.3046875 -0.4804688,0.5390625 0,0.1640625 0.1054688,0.3515625 0.375,0.3515625 0.2226563,0 0.5390625,-0.1875 0.5390625,-0.5859375 0,-0.515625 -0.5859375,-0.65625 -0.9257812,-0.65625 -0.5742188,0 -0.9257813,0.5273438 -1.0429688,0.7617188 -0.2578125,-0.65625 -0.7851562,-0.7617188 -1.078125,-0.7617188 -1.0429687,0 -1.60546871,1.2890625 -1.60546871,1.5351563 0,0.1054687 0.10546875,0.1054687 0.1171875,0.1054687 0.0820313,0 0.1171875,-0.023437 0.12890625,-0.1171875 0.33984376,-1.0546875 0.99609376,-1.3007812 1.33593746,-1.3007812 0.1875,0 0.5390625,0.09375 0.5390625,0.6679687 0,0.3046875 -0.1640625,0.9726563 -0.5390625,2.3671875 -0.1523437,0.62109378 -0.5039062,1.04296878 -0.9492187,1.04296878 -0.058594,0 -0.28125001,0 -0.49218751,-0.12890625 0.24609375,-0.0585938 0.46875001,-0.26953125 0.46875001,-0.5390625 0,-0.26953123 -0.22265626,-0.35156253 -0.37500001,-0.35156253 -0.29296875,0 -0.5390625,0.25781253 -0.5390625,0.57421878 0,0.45703125 0.4921875,0.65625 0.93750001,0.65625 0.65625,0 1.0078125,-0.69140625 1.0429687,-0.75 0.1171875,0.36328125 0.4804688,0.75 1.078125,0.75 1.0195313,0 1.59375,-1.27734378 1.59375,-1.53515628 0,-0.09375 -0.09375,-0.09375 -0.1289062,-0.09375 -0.082031,0 -0.1054688,0.035156 -0.1289063,0.1054688 -0.328125,1.06640623 -0.9960937,1.31249998 -1.3242187,1.31249998 -0.3867188,0 -0.5390625,-0.328125 -0.5390625,-0.65625 0,-0.22265625 0.058594,-0.44531248 0.1640625,-0.87890628 z m 0,0"
           style="fill:#000000;fill-opacity:1;fill-rule:nonzero;stroke:none"
           id="path11" />
        <path
           d="m 6.7359375,-5.8990625 c 0,-0.5625 0.046875,-1.078125 0.3164063,-1.5117187 0.234375,-0.375 0.609375,-0.6328125 1.0546875,-0.6328125 0.2109375,0 0.4921875,0.058594 0.6328125,0.2460937 -0.1757813,0.011719 -0.3164063,0.1289063 -0.3164063,0.3398438 0,0.1640625 0.1171875,0.328125 0.328125,0.328125 0.1992188,0 0.328125,-0.140625 0.328125,-0.3515625 0,-0.3984375 -0.2929687,-0.7617188 -0.984375,-0.7617188 -0.9960937,0 -2.0273437,0.9140625 -2.0273437,2.4140625 0,1.8046875 0.8554687,2.3554688 1.6171875,2.3554688 0.8554687,0 1.59375,-0.6445313 1.59375,-1.5585938 0,-0.890625 -0.703125,-1.546875 -1.5234375,-1.546875 -0.5507813,0 -0.8671875,0.375 -1.0195313,0.6796875 z m 0.9492188,2.203125 c -0.3515625,0 -0.6210938,-0.1992187 -0.7617188,-0.515625 C 6.8179688,-4.4107812 6.759375,-4.7623437 6.759375,-5.1842187 c 0,-0.6796875 0.4101563,-1.1953125 0.9609375,-1.1953125 0.328125,0 0.5390625,0.1171875 0.7148438,0.3867187 0.1640625,0.2578125 0.1757812,0.5507813 0.1757812,0.9609375 0,0.3984375 0,0.6914063 -0.1875,0.9609375 -0.1757812,0.2460938 -0.3984375,0.375 -0.7382812,0.375 z m 0,0"
           style="fill:#000000;fill-opacity:1;fill-rule:nonzero;stroke:none"
           id="path12" />
      </g>
    </g>
    <path
       id="path13"
       d="m 321.8,664 c 0,0.994 -0.806,1.8 -1.8,1.8 -0.994,0 -1.8,-0.806 -1.8,-1.8 0,-0.994 0.806,-1.8 1.8,-1.8 0.994,0 1.8,0.806 1.8,1.8"
       style="fill:#000000;fill-opacity:1;fill-rule:evenodd;stroke:none"
       transform="matrix(1.3333333,0,0,-1.3333333,-250.12667,951.264)" />
    <path
       d="m 3.3272344,-3.0126094 c 0.058594,-0.2578125 0.2929687,-1.171875 0.984375,-1.171875 0.046875,0 0.2929687,0 0.5039062,0.1289063 -0.28125,0.046875 -0.4804687,0.3046875 -0.4804687,0.5390625 0,0.1640625 0.1054687,0.3515625 0.375,0.3515625 0.2226562,0 0.5390625,-0.1875 0.5390625,-0.5859375 0,-0.515625 -0.5859375,-0.65625 -0.9257813,-0.65625 -0.5742187,0 -0.9257812,0.5273437 -1.0429687,0.7617187 -0.2578125,-0.65625 -0.7851563,-0.7617187 -1.078125,-0.7617187 -1.0429688,0 -1.60546877,1.2890625 -1.60546877,1.5351562 0,0.1054688 0.10546875,0.1054688 0.1171875,0.1054688 0.0820313,0 0.1171875,-0.023437 0.12890625,-0.1171875 0.33984372,-1.0546875 0.99609372,-1.3007813 1.33593752,-1.3007813 0.1875,0 0.5390625,0.09375 0.5390625,0.6679688 0,0.3046875 -0.1640625,0.9726562 -0.5390625,2.3671875 -0.1523438,0.62109372 -0.5039063,1.04296872 -0.9492188,1.04296872 -0.058594,0 -0.28124997,0 -0.49218747,-0.12890625 0.24609375,-0.0585938 0.46874997,-0.26953125 0.46874997,-0.5390625 0,-0.26953127 -0.22265622,-0.35156247 -0.37499997,-0.35156247 -0.29296875,0 -0.5390625,0.25781247 -0.5390625,0.57421872 0,0.45703125 0.4921875,0.65625 0.93749997,0.65625 0.65625,0 1.0078125,-0.69140625 1.0429688,-0.75 0.1171875,0.36328125 0.4804687,0.75 1.078125,0.75 1.0195312,0 1.59375,-1.27734372 1.59375,-1.53515622 0,-0.09375 -0.09375,-0.09375 -0.1289063,-0.09375 -0.082031,0 -0.1054687,0.035156 -0.1289062,0.1054687 -0.328125,1.06640627 -0.9960938,1.31250002 -1.3242188,1.31250002 -0.3867187,0 -0.5390625,-0.328125 -0.5390625,-0.65625 0,-0.22265625 0.058594,-0.44531252 0.1640625,-0.87890622 z m 7.2070316,-0.7851562 c 0.04687,-0.140625 0.04687,-0.1523438 0.04687,-0.2226563 0,-0.1875 -0.140625,-0.2695312 -0.292969,-0.2695312 -0.105469,0 -0.257813,0.058594 -0.3515626,0.1992187 -0.023437,0.058594 -0.09375,0.3632813 -0.140625,0.5390625 -0.070312,0.2578125 -0.140625,0.5273438 -0.1992188,0.796875 l -0.4453125,1.79296877 c -0.035156,0.15234375 -0.46875,0.85546875 -1.125,0.85546875 -0.5039062,0 -0.6210937,-0.4453125 -0.6210937,-0.80859375 0,-0.45703127 0.1757812,-1.07812497 0.515625,-1.95703127 0.1523437,-0.4101562 0.1992187,-0.515625 0.1992187,-0.7148437 0,-0.4453125 -0.328125,-0.8203125 -0.8203125,-0.8203125 -0.9492187,0 -1.3125,1.453125 -1.3125,1.5351562 0,0.1054688 0.09375,0.1054688 0.1171875,0.1054688 0.09375,0 0.1054688,-0.023437 0.1523438,-0.1875 0.2695312,-0.9375 0.6679687,-1.2304688 1.0078125,-1.2304688 0.082031,0 0.2578125,0 0.2578125,0.3164063 0,0.2460937 -0.1054688,0.515625 -0.1757813,0.703125 -0.3984375,1.0546875 -0.5742187,1.6171875 -0.5742187,2.0859375 0,0.89062497 0.6210937,1.18359372 1.21875,1.18359372 0.3867187,0 0.7265625,-0.1640625 0.9960937,-0.4453125 -0.1289062,0.515625 -0.2460937,1.0078125 -0.6445312,1.53515628 -0.2578125,0.3398437 -0.6328125,0.6328125 -1.0898438,0.6328125 -0.140625,0 -0.5976562,-0.035156 -0.7617187,-0.421875 0.1640625,0 0.2929687,0 0.4335937,-0.1171875 0.09375,-0.09375 0.1992188,-0.2226563 0.1992188,-0.41015628 0,-0.31640625 -0.2695313,-0.3515625 -0.375,-0.3515625 -0.2226563,0 -0.5507813,0.1640625 -0.5507813,0.64453128 0,0.5039062 0.4335938,0.8671875 1.0546875,0.8671875 1.0195313,0 2.0507813,-0.9023438 2.3320313,-2.02734378 z m 0,0"
       style="fill:#000000;fill-opacity:1;fill-rule:nonzero;stroke:none"
       aria-label="xy"
       transform="matrix(1.3333333,0,0,1.3333333,169.884,59.884)"
       opacity="1"
       id="path14" />
    <path
       d="m 2.9301719,-6.3745312 c 0,-0.234375 0,-0.2578125 -0.234375,-0.2578125 -0.609375,0.6328125 -1.4882813,0.6328125 -1.80468752,0.6328125 v 0.3164062 c 0.19921872,0 0.78515622,0 1.30078122,-0.2578125 v 5.15625 c 0,0.3515625 -0.035156,0.48046875 -0.9257812,0.48046875 H 0.94970313 V 4.6875e-4 C 1.3012656,-0.0346875 2.1567344,-0.0346875 2.5551719,-0.0346875 c 0.3984375,0 1.265625,0 1.6171875,0.03515625 v -0.3046875 H 3.8559531 c -0.9023437,0 -0.9257812,-0.1171875 -0.9257812,-0.48046875 z m 0,0"
       style="fill:#000000;fill-opacity:1;fill-rule:nonzero;stroke:none"
       aria-label="1"
       transform="matrix(1.3333333,0,0,1.3333333,109.69467,69.64)"
       opacity="1"
       id="path15" />
    <path
       id="path16"
       d="m 209.8,628 c 0,0.994 -0.806,1.8 -1.8,1.8 -0.994,0 -1.8,-0.806 -1.8,-1.8 0,-0.994 0.806,-1.8 1.8,-1.8 0.994,0 1.8,0.806 1.8,1.8"
       style="fill:#000000;fill-opacity:1;fill-rule:evenodd;stroke:none"
       transform="matrix(1.3333333,0,0,-1.3333333,-250.12667,951.264)" />
    <path
       id="path17"
       d="m 209.8,652 c 0,0.994 -0.806,1.8 -1.8,1.8 -0.994,0 -1.8,-0.806 -1.8,-1.8 0,-0.994 0.806,-1.8 1.8,-1.8 0.994,0 1.8,0.806 1.8,1.8"
       style="fill:#000000;fill-opacity:1;fill-rule:evenodd;stroke:none"
       transform="matrix(1.3333333,0,0,-1.3333333,-250.12667,951.264)" />
    <path
       id="path18"
       d="m 225.8,664 c 0,0.994 -0.806,1.8 -1.8,1.8 -0.994,0 -1.8,-0.806 -1.8,-1.8 0,-0.994 0.806,-1.8 1.8,-1.8 0.994,0 1.8,0.806 1.8,1.8"
       style="fill:#000000;fill-opacity:1;fill-rule:evenodd;stroke:none"
       transform="matrix(1.3333333,0,0,-1.3333333,-250.12667,951.264)" />
    <path
       d="m 4.8396094,-3.7977656 c 0.046875,-0.140625 0.046875,-0.1523438 0.046875,-0.2226563 0,-0.1875 -0.140625,-0.2695312 -0.2929688,-0.2695312 -0.1054687,0 -0.2578125,0.058594 -0.3515625,0.1992187 -0.023437,0.058594 -0.09375,0.3632813 -0.140625,0.5390625 -0.070312,0.2578125 -0.140625,0.5273438 -0.1992187,0.796875 l -0.4453125,1.79296877 c -0.035156,0.15234375 -0.46875,0.85546875 -1.125,0.85546875 -0.5039063,0 -0.6210938,-0.4453125 -0.6210938,-0.80859375 0,-0.45703127 0.1757813,-1.07812497 0.515625,-1.95703127 0.1523438,-0.4101562 0.1992188,-0.515625 0.1992188,-0.7148437 0,-0.4453125 -0.328125,-0.8203125 -0.8203125,-0.8203125 -0.94921878,0 -1.31250003,1.453125 -1.31250003,1.5351562 0,0.1054688 0.09375,0.1054688 0.1171875,0.1054688 0.09375,0 0.10546875,-0.023437 0.15234375,-0.1875 0.26953125,-0.9375 0.66796878,-1.2304688 1.00781248,-1.2304688 0.082031,0 0.2578125,0 0.2578125,0.3164063 0,0.2460937 -0.1054687,0.515625 -0.1757812,0.703125 -0.3984375,1.0546875 -0.5742188,1.6171875 -0.5742188,2.0859375 0,0.89062497 0.6210938,1.18359372 1.21875,1.18359372 0.3867188,0 0.7265625,-0.1640625 0.9960938,-0.4453125 -0.1289063,0.515625 -0.2460938,1.0078125 -0.6445313,1.53515628 -0.2578125,0.3398437 -0.6328125,0.6328125 -1.0898437,0.6328125 -0.140625,0 -0.59765628,-0.035156 -0.76171878,-0.421875 0.1640625,0 0.29296878,0 0.43359378,-0.1171875 0.09375,-0.09375 0.1992187,-0.2226563 0.1992187,-0.41015628 0,-0.31640625 -0.2695312,-0.3515625 -0.375,-0.3515625 -0.22265623,0 -0.55078123,0.1640625 -0.55078123,0.64453128 0,0.5039062 0.43359375,0.8671875 1.05468753,0.8671875 1.0195312,0 2.0507812,-0.9023438 2.3320312,-2.02734378 z m 0,0"
       style="fill:#000000;fill-opacity:1;fill-rule:nonzero;stroke:none"
       aria-label="y"
       transform="matrix(1.3333333,0,0,1.3333333,45.68,59.884)"
       opacity="1"
       id="path19" />
    <path
       id="path20"
       d="m 225.8,616 c 0,0.994 -0.806,1.8 -1.8,1.8 -0.994,0 -1.8,-0.806 -1.8,-1.8 0,-0.994 0.806,-1.8 1.8,-1.8 0.994,0 1.8,0.806 1.8,1.8"
       style="fill:#000000;fill-opacity:1;fill-rule:evenodd;stroke:none"
       transform="matrix(1.3333333,0,0,-1.3333333,-250.12667,951.264)" />
    <g
       id="g25">
      <g
         aria-label="x&#10;6&#10;y"
         transform="matrix(1.3333333,0,0,1.3333333,38.905333,145.37333)"
         clip-path="url(#clipPath21)"
         id="g24">
        <path
           d="m 3.3288125,-3.0104687 c 0.058594,-0.2578125 0.2929688,-1.171875 0.984375,-1.171875 0.046875,0 0.2929688,0 0.5039063,0.1289062 -0.28125,0.046875 -0.4804688,0.3046875 -0.4804688,0.5390625 0,0.1640625 0.1054688,0.3515625 0.375,0.3515625 0.2226563,0 0.5390625,-0.1875 0.5390625,-0.5859375 0,-0.515625 -0.5859375,-0.65625 -0.9257812,-0.65625 -0.5742188,0 -0.9257813,0.5273438 -1.0429688,0.7617188 C 3.024125,-4.2995312 2.4967813,-4.405 2.2038125,-4.405 c -1.0429687,0 -1.60546875,1.2890625 -1.60546875,1.5351563 0,0.1054687 0.10546875,0.1054687 0.1171875,0.1054687 0.0820313,0 0.1171875,-0.023437 0.12890625,-0.1171875 0.3398438,-1.0546875 0.9960938,-1.3007812 1.3359375,-1.3007812 0.1875,0 0.5390625,0.09375 0.5390625,0.6679687 0,0.3046875 -0.1640625,0.9726563 -0.5390625,2.3671875 -0.1523437,0.62109375 -0.5039062,1.04296875 -0.9492187,1.04296875 -0.058594,0 -0.28125005,0 -0.49218755,-0.12890625 0.24609375,-0.0585938 0.46875005,-0.26953125 0.46875005,-0.5390625 0,-0.2695312 -0.2226563,-0.3515625 -0.37500005,-0.3515625 -0.29296875,0 -0.5390625,0.2578125 -0.5390625,0.57421875 0,0.45703125 0.4921875,0.65625 0.93750005,0.65625 0.65625,0 1.0078125,-0.69140625 1.0429687,-0.75 0.1171875,0.36328125 0.4804688,0.75 1.078125,0.75 1.0195313,0 1.59375,-1.27734375 1.59375,-1.53515625 0,-0.09375 -0.09375,-0.09375 -0.1289062,-0.09375 -0.082031,0 -0.1054688,0.035156 -0.1289063,0.1054688 -0.328125,1.0664062 -0.9960937,1.31249995 -1.3242187,1.31249995 -0.3867188,0 -0.5390625,-0.328125 -0.5390625,-0.65625 0,-0.22265625 0.058594,-0.44531245 0.1640625,-0.87890625 z m 0,0"
           style="fill:#000000;fill-opacity:1;fill-rule:nonzero;stroke:none"
           id="path22" />
        <path
           d="m 6.7360391,-5.9020703 c 0,-0.5625 0.046875,-1.078125 0.3164062,-1.5117188 0.234375,-0.375 0.609375,-0.6328125 1.0546875,-0.6328125 0.2109375,0 0.4921875,0.058594 0.6328125,0.2460938 -0.1757812,0.011719 -0.3164062,0.1289062 -0.3164062,0.3398437 0,0.1640625 0.1171875,0.328125 0.328125,0.328125 0.1992187,0 0.328125,-0.140625 0.328125,-0.3515625 0,-0.3984375 -0.2929688,-0.7617187 -0.984375,-0.7617187 -0.9960938,0 -2.0273438,0.9140625 -2.0273438,2.4140625 0,1.8046875 0.8554688,2.3554687 1.6171875,2.3554687 0.8554688,0 1.59375,-0.6445312 1.59375,-1.5585937 0,-0.890625 -0.703125,-1.546875 -1.5234375,-1.546875 -0.5507812,0 -0.8671875,0.375 -1.0195312,0.6796875 z m 0.9492187,2.203125 c -0.3515625,0 -0.6210937,-0.1992188 -0.7617187,-0.515625 -0.1054688,-0.1992188 -0.1640625,-0.5507813 -0.1640625,-0.9726563 0,-0.6796875 0.4101562,-1.1953125 0.9609375,-1.1953125 0.328125,0 0.5390625,0.1171875 0.7148437,0.3867188 0.1640625,0.2578125 0.1757813,0.5507812 0.1757813,0.9609375 0,0.3984375 0,0.6914062 -0.1875,0.9609375 -0.1757813,0.2460937 -0.3984375,0.375 -0.7382813,0.375 z m 0,0"
           style="fill:#000000;fill-opacity:1;fill-rule:nonzero;stroke:none"
           id="path23" />
        <path
           d="m 15.003617,-3.795625 c 0.04687,-0.140625 0.04687,-0.1523437 0.04687,-0.2226562 0,-0.1875 -0.140625,-0.2695313 -0.292969,-0.2695313 -0.105468,0 -0.257812,0.058594 -0.351562,0.1992188 -0.02344,0.058594 -0.09375,0.3632812 -0.140625,0.5390625 -0.07031,0.2578125 -0.140625,0.5273437 -0.199219,0.796875 L 13.6208,-0.9596875 c -0.03516,0.15234375 -0.46875,0.85546875 -1.125,0.85546875 -0.503907,0 -0.621094,-0.4453125 -0.621094,-0.80859375 0,-0.4570312 0.175781,-1.078125 0.515625,-1.9570312 C 12.54268,-3.28 12.589555,-3.3854687 12.589555,-3.5846875 12.589555,-4.03 12.26143,-4.405 11.769242,-4.405 c -0.949219,0 -1.3125,1.453125 -1.3125,1.5351563 0,0.1054687 0.09375,0.1054687 0.117188,0.1054687 0.09375,0 0.105468,-0.023437 0.152343,-0.1875 0.269532,-0.9375 0.667969,-1.2304687 1.007813,-1.2304687 0.08203,0 0.257812,0 0.257812,0.3164062 0,0.2460938 -0.105468,0.515625 -0.175781,0.703125 -0.398437,1.0546875 -0.574219,1.6171875 -0.574219,2.0859375 0,0.890625 0.621094,1.18359375 1.21875,1.18359375 0.386719,0 0.726563,-0.1640625 0.996094,-0.4453125 -0.128906,0.515625 -0.246094,1.0078125 -0.644531,1.53515625 -0.257813,0.3398438 -0.632813,0.6328125 -1.089844,0.6328125 -0.140625,0 -0.597656,-0.035156 -0.761719,-0.421875 0.164063,0 0.292969,0 0.433594,-0.1171875 0.09375,-0.09375 0.199219,-0.2226562 0.199219,-0.41015625 0,-0.31640625 -0.269531,-0.3515625 -0.375,-0.3515625 -0.222656,0 -0.550781,0.1640625 -0.550781,0.64453125 0,0.5039063 0.433593,0.8671875 1.054687,0.8671875 1.019531,0 2.050781,-0.9023437 2.332031,-2.02734375 z m 0,0"
           style="fill:#000000;fill-opacity:1;fill-rule:nonzero;stroke:none"
           id="path24" />
      </g>
    </g>
    <path
       id="path25"
       d="m 337.8,628 c 0,0.994 -0.806,1.8 -1.8,1.8 -0.994,0 -1.8,-0.806 -1.8,-1.8 0,-0.994 0.806,-1.8 1.8,-1.8 0.994,0 1.8,0.806 1.8,1.8"
       style="fill:#000000;fill-opacity:1;fill-rule:evenodd;stroke:none"
       transform="matrix(1.3333333,0,0,-1.3333333,-250.12667,951.264)" />
    <path
       id="path26"
       d="m 321.8,612 c 0,0.994 -0.806,1.8 -1.8,1.8 -0.994,0 -1.8,-0.806 -1.8,-1.8 0,-0.994 0.806,-1.8 1.8,-1.8 0.994,0 1.8,0.806 1.8,1.8"
       style="fill:#000000;fill-opacity:1;fill-rule:evenodd;stroke:none"
       transform="matrix(1.3333333,0,0,-1.3333333,-250.12667,951.264)" />
    <g
       id="g31">
      <g
         aria-label="x&#10;7&#10;y"
         transform="matrix(1.3333333,0,0,1.3333333,166.90533,150.70667)"
         clip-path="url(#clipPath27)"
         id="g30">
        <path
           d="m 3.3288125,-3.0114453 c 0.058594,-0.2578125 0.2929688,-1.171875 0.984375,-1.171875 0.046875,0 0.2929688,0 0.5039063,0.1289062 -0.28125,0.046875 -0.4804688,0.3046875 -0.4804688,0.5390625 0,0.1640625 0.1054688,0.3515625 0.375,0.3515625 0.2226563,0 0.5390625,-0.1875 0.5390625,-0.5859375 0,-0.515625 -0.5859375,-0.65625 -0.9257812,-0.65625 -0.5742188,0 -0.9257813,0.5273438 -1.0429688,0.7617188 -0.2578125,-0.65625 -0.7851562,-0.7617188 -1.078125,-0.7617188 -1.0429687,0 -1.60546875,1.2890625 -1.60546875,1.5351563 0,0.1054687 0.10546875,0.1054687 0.1171875,0.1054687 0.0820313,0 0.1171875,-0.023437 0.12890625,-0.1171875 0.3398438,-1.0546875 0.9960938,-1.3007812 1.3359375,-1.3007812 0.1875,0 0.5390625,0.09375 0.5390625,0.6679687 0,0.3046875 -0.1640625,0.9726563 -0.5390625,2.3671875 -0.1523437,0.62109379 -0.5039062,1.04296879 -0.9492187,1.04296879 -0.058594,0 -0.28125005,0 -0.49218755,-0.12890625 0.24609375,-0.0585938 0.46875005,-0.26953125 0.46875005,-0.5390625 0,-0.26953124 -0.2226563,-0.35156254 -0.37500005,-0.35156254 -0.29296875,0 -0.5390625,0.25781254 -0.5390625,0.57421879 0,0.45703125 0.4921875,0.65625 0.93750005,0.65625 0.65625,0 1.0078125,-0.69140625 1.0429687,-0.75 0.1171875,0.36328125 0.4804688,0.75 1.078125,0.75 1.0195313,0 1.59375,-1.27734379 1.59375,-1.53515629 0,-0.09375 -0.09375,-0.09375 -0.1289062,-0.09375 -0.082031,0 -0.1054688,0.035156 -0.1289063,0.1054688 -0.328125,1.06640624 -0.9960937,1.31249999 -1.3242187,1.31249999 -0.3867188,0 -0.5390625,-0.328125 -0.5390625,-0.65625 0,-0.22265625 0.058594,-0.44531249 0.1640625,-0.87890629 z m 0,0"
           style="fill:#000000;fill-opacity:1;fill-rule:nonzero;stroke:none"
           id="path28" />
        <path
           d="m 9.4196328,-7.8219922 c 0.070312,-0.09375 0.070312,-0.1054687 0.070312,-0.28125 h -1.828125 c -0.2695312,0 -0.3515625,-0.011719 -0.5976562,-0.035156 -0.3632813,-0.023437 -0.3867188,-0.070312 -0.3984375,-0.1875 H 6.4196328 l -0.234375,1.4882812 h 0.234375 c 0.011719,-0.1054687 0.082031,-0.5625 0.1992188,-0.6328125 0.046875,-0.046875 0.609375,-0.046875 0.7148437,-0.046875 h 1.5234375 c -0.2226562,0.2929688 -0.5742187,0.7265625 -0.7265625,0.9257813 -0.9140625,1.1953125 -0.9960937,2.3085937 -0.9960937,2.71875 0,0.082031 0,0.3984375 0.328125,0.3984375 0.3398437,0 0.3398437,-0.3164063 0.3398437,-0.4101563 v -0.2695312 c 0,-1.359375 0.2695313,-1.9804688 0.5742188,-2.3554688 z m 0,0"
           style="fill:#000000;fill-opacity:1;fill-rule:nonzero;stroke:none"
           id="path29" />
        <path
           d="m 15.003617,-3.7966016 c 0.04687,-0.140625 0.04687,-0.1523437 0.04687,-0.2226562 0,-0.1875 -0.140625,-0.2695313 -0.292969,-0.2695313 -0.105468,0 -0.257812,0.058594 -0.351562,0.1992188 -0.02344,0.058594 -0.09375,0.3632812 -0.140625,0.5390625 -0.07031,0.2578125 -0.140625,0.5273437 -0.199219,0.796875 L 13.6208,-0.96066406 c -0.03516,0.15234375 -0.46875,0.85546875 -1.125,0.85546875 -0.503907,0 -0.621094,-0.4453125 -0.621094,-0.80859375 0,-0.45703124 0.175781,-1.07812504 0.515625,-1.95703124 0.152344,-0.4101563 0.199219,-0.515625 0.199219,-0.7148438 0,-0.4453125 -0.328125,-0.8203125 -0.820313,-0.8203125 -0.949219,0 -1.3125,1.453125 -1.3125,1.5351563 0,0.1054687 0.09375,0.1054687 0.117188,0.1054687 0.09375,0 0.105468,-0.023437 0.152343,-0.1875 0.269532,-0.9375 0.667969,-1.2304687 1.007813,-1.2304687 0.08203,0 0.257812,0 0.257812,0.3164062 0,0.2460938 -0.105468,0.515625 -0.175781,0.703125 -0.398437,1.0546875 -0.574219,1.6171875 -0.574219,2.0859375 0,0.89062504 0.621094,1.18359379 1.21875,1.18359379 0.386719,0 0.726563,-0.1640625 0.996094,-0.4453125 -0.128906,0.515625 -0.246094,1.0078125 -0.644531,1.53515621 -0.257813,0.3398438 -0.632813,0.6328125 -1.089844,0.6328125 -0.140625,0 -0.597656,-0.035156 -0.761719,-0.421875 0.164063,0 0.292969,0 0.433594,-0.1171875 0.09375,-0.09375 0.199219,-0.2226562 0.199219,-0.41015621 0,-0.31640625 -0.269531,-0.3515625 -0.375,-0.3515625 -0.222656,0 -0.550781,0.1640625 -0.550781,0.64453121 0,0.5039063 0.433593,0.8671875 1.054687,0.8671875 1.019531,0 2.050781,-0.9023437 2.332031,-2.02734371 z m 0,0"
           style="fill:#000000;fill-opacity:1;fill-rule:nonzero;stroke:none"
           id="path30" />
      </g>
    </g>
    <path
       id="path31"
       d="m 337.8,652 c 0,0.994 -0.806,1.8 -1.8,1.8 -0.994,0 -1.8,-0.806 -1.8,-1.8 0,-0.994 0.806,-1.8 1.8,-1.8 0.994,0 1.8,0.806 1.8,1.8"
       style="fill:#000000;fill-opacity:1;fill-rule:evenodd;stroke:none"
       transform="matrix(1.3333333,0,0,-1.3333333,-250.12667,951.264)" />
    <path
       id="path32"
       d="m 224,664 44,-8"
       style="fill:none;stroke:#000000;stroke-width:0.4;stroke-linecap:butt;stroke-linejoin:round;stroke-miterlimit:10;stroke-dasharray:none;stroke-opacity:1"
       transform="matrix(1.3333333,0,0,-1.3333333,-250.12667,951.264)" />
    <path
       id="path33"
       d="m 268,656 -6.47,3.546 0.96,-2.544 -1.794,-2.043 z"
       style="fill:#000000;fill-opacity:1;fill-rule:evenodd;stroke:#000000;stroke-width:0.4;stroke-linecap:butt;stroke-linejoin:round;stroke-miterlimit:10;stroke-dasharray:none;stroke-opacity:1"
       transform="matrix(1.3333333,0,0,-1.3333333,-250.12667,951.264)" />
    <path
       id="path34"
       d="m 208,628 60,20"
       style="fill:none;stroke:#000000;stroke-width:0.4;stroke-linecap:butt;stroke-linejoin:round;stroke-miterlimit:10;stroke-dasharray:none;stroke-opacity:1"
       transform="matrix(1.3333333,0,0,-1.3333333,-250.12667,951.264)" />
    <path
       id="path35"
       d="m 268,648 -7.378,-0.002 2.065,-1.769 -0.591,-2.654 z"
       style="fill:#000000;fill-opacity:1;fill-rule:evenodd;stroke:#000000;stroke-width:0.4;stroke-linecap:butt;stroke-linejoin:round;stroke-miterlimit:10;stroke-dasharray:none;stroke-opacity:1"
       transform="matrix(1.3333333,0,0,-1.3333333,-250.12667,951.264)" />
    <path
       id="path36"
       d="m 208,652 h 60"
       style="fill:none;stroke:#000000;stroke-width:0.4;stroke-linecap:butt;stroke-linejoin:round;stroke-miterlimit:10;stroke-dasharray:none;stroke-opacity:1"
       transform="matrix(1.3333333,0,0,-1.3333333,-250.12667,951.264)" />
    <path
       id="path37"
       d="m 268,652 -7,2.331 1.4,-2.331 -1.4,-2.331 z"
       style="fill:#000000;fill-opacity:1;fill-rule:evenodd;stroke:#000000;stroke-width:0.4;stroke-linecap:butt;stroke-linejoin:round;stroke-miterlimit:10;stroke-dasharray:none;stroke-opacity:1"
       transform="matrix(1.3333333,0,0,-1.3333333,-250.12667,951.264)" />
    <path
       id="path38"
       d="m 273.8,652 c 0,0.994 -0.806,1.8 -1.8,1.8 -0.994,0 -1.8,-0.806 -1.8,-1.8 0,-0.994 0.806,-1.8 1.8,-1.8 0.994,0 1.8,0.806 1.8,1.8"
       style="fill:#000000;fill-opacity:1;fill-rule:evenodd;stroke:none"
       transform="matrix(1.3333333,0,0,-1.3333333,-250.12667,951.264)" />
    <path
       id="path39"
       d="m 273.8,628 c 0,0.994 -0.806,1.8 -1.8,1.8 -0.994,0 -1.8,-0.806 -1.8,-1.8 0,-0.994 0.806,-1.8 1.8,-1.8 0.994,0 1.8,0.806 1.8,1.8"
       style="fill:#000000;fill-opacity:1;fill-rule:evenodd;stroke:none"
       transform="matrix(1.3333333,0,0,-1.3333333,-250.12667,951.264)" />
    <path
       id="path40"
       d="m 224,616 48,32"
       style="fill:none;stroke:#000000;stroke-width:0.4;stroke-linecap:butt;stroke-linejoin:round;stroke-miterlimit:10;stroke-dasharray:none;stroke-opacity:1"
       transform="matrix(1.3333333,0,0,-1.3333333,-250.12667,951.264)" />
    <path
       id="path41"
       d="m 272,648 -7.117,-1.943 2.458,-1.163 0.128,-2.716 z"
       style="fill:#000000;fill-opacity:1;fill-rule:evenodd;stroke:#000000;stroke-width:0.4;stroke-linecap:butt;stroke-linejoin:round;stroke-miterlimit:10;stroke-dasharray:none;stroke-opacity:1"
       transform="matrix(1.3333333,0,0,-1.3333333,-250.12667,951.264)" />
    <path
       id="path42"
       d="m 320,664 -44,-8"
       style="fill:none;stroke:#000000;stroke-width:0.4;stroke-linecap:butt;stroke-linejoin:round;stroke-miterlimit:10;stroke-dasharray:none;stroke-opacity:1"
       transform="matrix(1.3333333,0,0,-1.3333333,-250.12667,951.264)" />
    <path
       id="path43"
       d="m 276,656 7.304,-1.041 -1.794,2.043 0.96,2.544 z"
       style="fill:#000000;fill-opacity:1;fill-rule:evenodd;stroke:#000000;stroke-width:0.4;stroke-linecap:butt;stroke-linejoin:round;stroke-miterlimit:10;stroke-dasharray:none;stroke-opacity:1"
       transform="matrix(1.3333333,0,0,-1.3333333,-250.12667,951.264)" />
    <path
       id="path44"
       d="M 336,652 H 276"
       style="fill:none;stroke:#000000;stroke-width:0.4;stroke-linecap:butt;stroke-linejoin:round;stroke-miterlimit:10;stroke-dasharray:none;stroke-opacity:1"
       transform="matrix(1.3333333,0,0,-1.3333333,-250.12667,951.264)" />
    <path
       id="path45"
       d="m 276,652 7,-2.331 -1.4,2.331 1.4,2.331 z"
       style="fill:#000000;fill-opacity:1;fill-rule:evenodd;stroke:#000000;stroke-width:0.4;stroke-linecap:butt;stroke-linejoin:round;stroke-miterlimit:10;stroke-dasharray:none;stroke-opacity:1"
       transform="matrix(1.3333333,0,0,-1.3333333,-250.12667,951.264)" />
    <path
       id="path46"
       d="m 336,628 -60,20"
       style="fill:none;stroke:#000000;stroke-width:0.4;stroke-linecap:butt;stroke-linejoin:round;stroke-miterlimit:10;stroke-dasharray:none;stroke-opacity:1"
       transform="matrix(1.3333333,0,0,-1.3333333,-250.12667,951.264)" />
    <path
       id="path47"
       d="m 276,648 5.904,-4.425 -0.591,2.654 2.065,1.769 z"
       style="fill:#000000;fill-opacity:1;fill-rule:evenodd;stroke:#000000;stroke-width:0.4;stroke-linecap:butt;stroke-linejoin:round;stroke-miterlimit:10;stroke-dasharray:none;stroke-opacity:1"
       transform="matrix(1.3333333,0,0,-1.3333333,-250.12667,951.264)" />
    <path
       id="path48"
       d="m 320,612 -48,36"
       style="fill:none;stroke:#000000;stroke-width:0.4;stroke-linecap:butt;stroke-linejoin:round;stroke-miterlimit:10;stroke-dasharray:none;stroke-opacity:1"
       transform="matrix(1.3333333,0,0,-1.3333333,-250.12667,951.264)" />
    <path
       id="path49"
       d="m 272,648 4.201,-6.065 0.279,2.705 2.519,1.025 z"
       style="fill:#000000;fill-opacity:1;fill-rule:evenodd;stroke:#000000;stroke-width:0.4;stroke-linecap:butt;stroke-linejoin:round;stroke-miterlimit:10;stroke-dasharray:none;stroke-opacity:1"
       transform="matrix(1.3333333,0,0,-1.3333333,-250.12667,951.264)" />
    <path
       id="path50"
       d="m 272,628 v 20"
       style="fill:none;stroke:#000000;stroke-width:0.4;stroke-linecap:butt;stroke-linejoin:round;stroke-miterlimit:10;stroke-dasharray:none;stroke-opacity:1"
       transform="matrix(1.3333333,0,0,-1.3333333,-250.12667,951.264)" />
    <path
       id="path51"
       d="m 272,648 -2.331,-7 2.331,1.4 2.331,-1.4 z"
       style="fill:#000000;fill-opacity:1;fill-rule:evenodd;stroke:#000000;stroke-width:0.4;stroke-linecap:butt;stroke-linejoin:round;stroke-miterlimit:10;stroke-dasharray:none;stroke-opacity:1"
       transform="matrix(1.3333333,0,0,-1.3333333,-250.12667,951.264)" />
    <path
       id="path52"
       d="m 224,616 44,8"
       style="fill:none;stroke:#000000;stroke-width:0.4;stroke-linecap:butt;stroke-linejoin:round;stroke-miterlimit:10;stroke-dasharray:none;stroke-opacity:1"
       transform="matrix(1.3333333,0,0,-1.3333333,-250.12667,951.264)" />
    <path
       id="path53"
       d="m 268,624 -7.304,1.041 1.794,-2.043 -0.96,-2.544 z"
       style="fill:#000000;fill-opacity:1;fill-rule:evenodd;stroke:#000000;stroke-width:0.4;stroke-linecap:butt;stroke-linejoin:round;stroke-miterlimit:10;stroke-dasharray:none;stroke-opacity:1"
       transform="matrix(1.3333333,0,0,-1.3333333,-250.12667,951.264)" />
    <path
       id="path54"
       d="m 208,628 h 60"
       style="fill:none;stroke:#000000;stroke-width:0.4;stroke-linecap:butt;stroke-linejoin:round;stroke-miterlimit:10;stroke-dasharray:none;stroke-opacity:1"
       transform="matrix(1.3333333,0,0,-1.3333333,-250.12667,951.264)" />
    <path
       id="path55"
       d="m 268,628 -7,2.331 1.4,-2.331 -1.4,-2.331 z"
       style="fill:#000000;fill-opacity:1;fill-rule:evenodd;stroke:#000000;stroke-width:0.4;stroke-linecap:butt;stroke-linejoin:round;stroke-miterlimit:10;stroke-dasharray:none;stroke-opacity:1"
       transform="matrix(1.3333333,0,0,-1.3333333,-250.12667,951.264)" />
    <path
       id="path56"
       d="m 208,652 60,-20"
       style="fill:none;stroke:#000000;stroke-width:0.4;stroke-linecap:butt;stroke-linejoin:round;stroke-miterlimit:10;stroke-dasharray:none;stroke-opacity:1"
       transform="matrix(1.3333333,0,0,-1.3333333,-250.12667,951.264)" />
    <path
       id="path57"
       d="m 268,632 -5.904,4.425 0.591,-2.654 -2.065,-1.769 z"
       style="fill:#000000;fill-opacity:1;fill-rule:evenodd;stroke:#000000;stroke-width:0.4;stroke-linecap:butt;stroke-linejoin:round;stroke-miterlimit:10;stroke-dasharray:none;stroke-opacity:1"
       transform="matrix(1.3333333,0,0,-1.3333333,-250.12667,951.264)" />
    <path
       id="path58"
       d="m 224,664 48,-32"
       style="fill:none;stroke:#000000;stroke-width:0.4;stroke-linecap:butt;stroke-linejoin:round;stroke-miterlimit:10;stroke-dasharray:none;stroke-opacity:1"
       transform="matrix(1.3333333,0,0,-1.3333333,-250.12667,951.264)" />
    <path
       id="path59"
       d="m 272,632 -4.531,5.822 -0.128,-2.716 -2.458,-1.163 z"
       style="fill:#000000;fill-opacity:1;fill-rule:evenodd;stroke:#000000;stroke-width:0.4;stroke-linecap:butt;stroke-linejoin:round;stroke-miterlimit:10;stroke-dasharray:none;stroke-opacity:1"
       transform="matrix(1.3333333,0,0,-1.3333333,-250.12667,951.264)" />
    <path
       id="path60"
       d="m 320,612 -44,12"
       style="fill:none;stroke:#000000;stroke-width:0.4;stroke-linecap:butt;stroke-linejoin:round;stroke-miterlimit:10;stroke-dasharray:none;stroke-opacity:1"
       transform="matrix(1.3333333,0,0,-1.3333333,-250.12667,951.264)" />
    <path
       id="path61"
       d="m 276,624 6.14,-4.091 -0.737,2.618 1.964,1.88 z"
       style="fill:#000000;fill-opacity:1;fill-rule:evenodd;stroke:#000000;stroke-width:0.4;stroke-linecap:butt;stroke-linejoin:round;stroke-miterlimit:10;stroke-dasharray:none;stroke-opacity:1"
       transform="matrix(1.3333333,0,0,-1.3333333,-250.12667,951.264)" />
    <path
       id="path62"
       d="M 336,628 H 276"
       style="fill:none;stroke:#000000;stroke-width:0.4;stroke-linecap:butt;stroke-linejoin:round;stroke-miterlimit:10;stroke-dasharray:none;stroke-opacity:1"
       transform="matrix(1.3333333,0,0,-1.3333333,-250.12667,951.264)" />
    <path
       id="path63"
       d="m 276,628 7,-2.331 -1.4,2.331 1.4,2.331 z"
       style="fill:#000000;fill-opacity:1;fill-rule:evenodd;stroke:#000000;stroke-width:0.4;stroke-linecap:butt;stroke-linejoin:round;stroke-miterlimit:10;stroke-dasharray:none;stroke-opacity:1"
       transform="matrix(1.3333333,0,0,-1.3333333,-250.12667,951.264)" />
    <path
       id="path64"
       d="M 336,652 276,632"
       style="fill:none;stroke:#000000;stroke-width:0.4;stroke-linecap:butt;stroke-linejoin:round;stroke-miterlimit:10;stroke-dasharray:none;stroke-opacity:1"
       transform="matrix(1.3333333,0,0,-1.3333333,-250.12667,951.264)" />
    <path
       id="path65"
       d="m 276,632 7.378,0.002 -2.065,1.769 0.591,2.654 z"
       style="fill:#000000;fill-opacity:1;fill-rule:evenodd;stroke:#000000;stroke-width:0.4;stroke-linecap:butt;stroke-linejoin:round;stroke-miterlimit:10;stroke-dasharray:none;stroke-opacity:1"
       transform="matrix(1.3333333,0,0,-1.3333333,-250.12667,951.264)" />
    <path
       id="path66"
       d="M 320,664 272,632"
       style="fill:none;stroke:#000000;stroke-width:0.4;stroke-linecap:butt;stroke-linejoin:round;stroke-miterlimit:10;stroke-dasharray:none;stroke-opacity:1"
       transform="matrix(1.3333333,0,0,-1.3333333,-250.12667,951.264)" />
    <path
       id="path67"
       d="m 272,632 7.117,1.943 -2.458,1.163 -0.128,2.716 z"
       style="fill:#000000;fill-opacity:1;fill-rule:evenodd;stroke:#000000;stroke-width:0.4;stroke-linecap:butt;stroke-linejoin:round;stroke-miterlimit:10;stroke-dasharray:none;stroke-opacity:1"
       transform="matrix(1.3333333,0,0,-1.3333333,-250.12667,951.264)" />
    <path
       id="path68"
       d="m 224,616 -16,12 v 24 l 16,12 v -48 l -16,36"
       style="fill:none;stroke:#000000;stroke-width:0.4;stroke-linecap:butt;stroke-linejoin:round;stroke-miterlimit:10;stroke-dasharray:none;stroke-opacity:1"
       transform="matrix(1.3333333,0,0,-1.3333333,-250.12667,951.264)" />
    <path
       id="path69"
       d="m 208,628 16,36"
       style="fill:none;stroke:#000000;stroke-width:0.4;stroke-linecap:butt;stroke-linejoin:round;stroke-miterlimit:10;stroke-dasharray:none;stroke-opacity:1"
       transform="matrix(1.3333333,0,0,-1.3333333,-250.12667,951.264)" />
    <path
       id="path70"
       d="m 320,664 16,-12 v -24 l -16,-16 v 52 l 16,-36"
       style="fill:none;stroke:#000000;stroke-width:0.4;stroke-linecap:butt;stroke-linejoin:round;stroke-miterlimit:10;stroke-dasharray:none;stroke-opacity:1"
       transform="matrix(1.3333333,0,0,-1.3333333,-250.12667,951.264)" />
    <path
       id="path71"
       d="m 320,612 16,40"
       style="fill:none;stroke:#000000;stroke-width:0.4;stroke-linecap:butt;stroke-linejoin:round;stroke-miterlimit:10;stroke-dasharray:none;stroke-opacity:1"
       transform="matrix(1.3333333,0,0,-1.3333333,-250.12667,951.264)" />
    <path
       id="path72"
       d="m 249.8,592 c 0,0.994 -0.806,1.8 -1.8,1.8 -0.994,0 -1.8,-0.806 -1.8,-1.8 0,-0.994 0.806,-1.8 1.8,-1.8 0.994,0 1.8,0.806 1.8,1.8"
       style="fill:#000000;fill-opacity:1;fill-rule:evenodd;stroke:none"
       transform="matrix(1.3333333,0,0,-1.3333333,-250.12667,951.264)" />
    <path
       d="m 3.3294063,-3.0118359 c 0.058594,-0.2578125 0.2929687,-1.171875 0.984375,-1.171875 0.046875,0 0.2929687,0 0.5039062,0.1289062 -0.28125,0.046875 -0.4804687,0.3046875 -0.4804687,0.5390625 0,0.1640625 0.1054687,0.3515625 0.375,0.3515625 0.2226562,0 0.5390625,-0.1875 0.5390625,-0.5859375 0,-0.515625 -0.5859375,-0.65625 -0.9257813,-0.65625 -0.5742187,0 -0.9257812,0.5273438 -1.0429687,0.7617188 -0.2578125,-0.65625 -0.7851563,-0.7617188 -1.078125,-0.7617188 -1.0429688,0 -1.6054688,1.2890625 -1.6054688,1.5351563 0,0.1054687 0.10546875,0.1054687 0.1171875,0.1054687 0.0820313,0 0.1171875,-0.023437 0.12890625,-0.1171875 C 1.184875,-3.9376172 1.841125,-4.1837109 2.1809688,-4.1837109 c 0.1875,0 0.5390625,0.09375 0.5390625,0.6679687 0,0.3046875 -0.1640625,0.9726563 -0.5390625,2.3671875 -0.1523438,0.62109376 -0.5039063,1.04296876 -0.9492188,1.04296876 -0.058594,0 -0.28125,0 -0.4921875,-0.12890625 0.24609375,-0.0585938 0.46875,-0.26953125 0.46875,-0.5390625 0,-0.26953121 -0.22265625,-0.35156251 -0.375,-0.35156251 -0.29296875,0 -0.5390625,0.25781251 -0.5390625,0.57421876 0,0.45703125 0.4921875,0.65625 0.9375,0.65625 0.65625,0 1.0078125,-0.69140625 1.0429688,-0.75 0.1171875,0.36328125 0.4804687,0.75 1.078125,0.75 1.0195312,0 1.59375,-1.27734376 1.59375,-1.53515626 0,-0.09375 -0.09375,-0.09375 -0.1289063,-0.09375 -0.082031,0 -0.1054687,0.035156 -0.1289062,0.1054688 -0.328125,1.06640621 -0.9960938,1.31249996 -1.3242188,1.31249996 -0.3867187,0 -0.5390625,-0.328125 -0.5390625,-0.65625 0,-0.22265625 0.058594,-0.44531246 0.1640625,-0.87890626 z m 0,0"
       style="fill:#000000;fill-opacity:1;fill-rule:nonzero;stroke:none"
       aria-label="x"
       transform="matrix(1.3333333,0,0,1.3333333,67.982667,164.34)"
       opacity="1"
       id="path73" />
    <g
       id="g77">
      <g
         aria-label="x&#10;7"
         transform="matrix(1.3333333,0,0,1.3333333,150.66933,166.76667)"
         clip-path="url(#clipPath74)"
         id="g76">
        <path
           d="m 3.3271016,-3.0125 c 0.058594,-0.2578125 0.2929687,-1.171875 0.984375,-1.171875 0.046875,0 0.2929687,0 0.5039062,0.1289063 -0.28125,0.046875 -0.4804687,0.3046875 -0.4804687,0.5390625 0,0.1640625 0.1054687,0.3515625 0.375,0.3515625 0.2226562,0 0.5390625,-0.1875 0.5390625,-0.5859375 0,-0.515625 -0.5859375,-0.65625 -0.9257813,-0.65625 -0.5742187,0 -0.9257812,0.5273437 -1.0429687,0.7617187 -0.2578125,-0.65625 -0.7851563,-0.7617187 -1.078125,-0.7617187 -1.0429688,0 -1.60546879,1.2890625 -1.60546879,1.5351562 0,0.1054688 0.10546875,0.1054688 0.1171875,0.1054688 0.0820313,0 0.1171875,-0.023437 0.12890625,-0.1171875 C 1.1825703,-3.9382812 1.8388203,-4.184375 2.1786641,-4.184375 c 0.1875,0 0.5390625,0.09375 0.5390625,0.6679688 0,0.3046875 -0.1640625,0.9726562 -0.5390625,2.3671875 C 2.0263203,-0.528125 1.6747578,-0.10625 1.2294453,-0.10625 c -0.058594,0 -0.28124999,0 -0.49218749,-0.12890625 0.24609375,-0.0585938 0.46874999,-0.26953125 0.46874999,-0.5390625 0,-0.26953125 -0.22265624,-0.35156245 -0.37499999,-0.35156245 -0.29296875,0 -0.5390625,0.25781245 -0.5390625,0.5742187 0,0.45703125 0.4921875,0.65625 0.93749999,0.65625 0.65625,0 1.0078125,-0.69140625 1.0429688,-0.75 0.1171875,0.36328125 0.4804687,0.75 1.078125,0.75 1.0195312,0 1.59375,-1.2773437 1.59375,-1.5351562 0,-0.09375 -0.09375,-0.09375 -0.1289063,-0.09375 -0.082031,0 -0.1054687,0.035156 -0.1289062,0.1054687 -0.328125,1.06640625 -0.9960938,1.3125 -1.3242188,1.3125 -0.3867187,0 -0.5390625,-0.328125 -0.5390625,-0.65625 0,-0.22265625 0.058594,-0.4453125 0.1640625,-0.8789062 z m 0,0"
           style="fill:#000000;fill-opacity:1;fill-rule:nonzero;stroke:none"
           id="path75" />
        <path
           d="m 9.4208516,-7.8230469 c 0.070312,-0.09375 0.070312,-0.1054687 0.070312,-0.28125 h -1.828125 c -0.2695313,0 -0.3515625,-0.011719 -0.5976563,-0.035156 -0.3632812,-0.023437 -0.3867187,-0.070312 -0.3984375,-0.1875 H 6.4208516 l -0.234375,1.4882812 h 0.234375 c 0.011719,-0.1054687 0.082031,-0.5625 0.1992187,-0.6328125 0.046875,-0.046875 0.609375,-0.046875 0.7148438,-0.046875 h 1.5234375 c -0.2226563,0.2929688 -0.5742188,0.7265625 -0.7265625,0.9257813 -0.9140625,1.1953125 -0.9960938,2.3085937 -0.9960938,2.71875 0,0.082031 0,0.3984375 0.328125,0.3984375 0.3398438,0 0.3398438,-0.3164063 0.3398438,-0.4101563 v -0.2695312 c 0,-1.359375 0.2695312,-1.9804688 0.5742187,-2.3554688 z m 0,0"
           style="fill:#000000;fill-opacity:1;fill-rule:nonzero;stroke:none"
           id="path76" />
      </g>
    </g>
    <path
       id="path77"
       d="m 297.8,592 c 0,0.994 -0.806,1.8 -1.8,1.8 -0.994,0 -1.8,-0.806 -1.8,-1.8 0,-0.994 0.806,-1.8 1.8,-1.8 0.994,0 1.8,0.806 1.8,1.8"
       style="fill:#000000;fill-opacity:1;fill-rule:evenodd;stroke:none"
       transform="matrix(1.3333333,0,0,-1.3333333,-250.12667,951.264)" />
    <path
       id="path78"
       d="m 261.8,580 c 0,0.994 -0.806,1.8 -1.8,1.8 -0.994,0 -1.8,-0.806 -1.8,-1.8 0,-0.994 0.806,-1.8 1.8,-1.8 0.994,0 1.8,0.806 1.8,1.8"
       style="fill:#000000;fill-opacity:1;fill-rule:evenodd;stroke:none"
       transform="matrix(1.3333333,0,0,-1.3333333,-250.12667,951.264)" />
    <path
       id="path79"
       d="m 285.8,580 c 0,0.994 -0.806,1.8 -1.8,1.8 -0.994,0 -1.8,-0.806 -1.8,-1.8 0,-0.994 0.806,-1.8 1.8,-1.8 0.994,0 1.8,0.806 1.8,1.8"
       style="fill:#000000;fill-opacity:1;fill-rule:evenodd;stroke:none"
       transform="matrix(1.3333333,0,0,-1.3333333,-250.12667,951.264)" />
    <path
       id="path80"
       d="m 248,592 20,32"
       style="fill:none;stroke:#000000;stroke-width:0.4;stroke-linecap:butt;stroke-linejoin:round;stroke-miterlimit:10;stroke-dasharray:none;stroke-opacity:1"
       transform="matrix(1.3333333,0,0,-1.3333333,-250.12667,951.264)" />
    <path
       id="path81"
       d="m 268,624 -5.687,-4.701 2.719,-0.048 1.235,-2.422 z"
       style="fill:#000000;fill-opacity:1;fill-rule:evenodd;stroke:#000000;stroke-width:0.4;stroke-linecap:butt;stroke-linejoin:round;stroke-miterlimit:10;stroke-dasharray:none;stroke-opacity:1"
       transform="matrix(1.3333333,0,0,-1.3333333,-250.12667,951.264)" />
    <path
       id="path82"
       d="m 296,592 -20,32"
       style="fill:none;stroke:#000000;stroke-width:0.4;stroke-linecap:butt;stroke-linejoin:round;stroke-miterlimit:10;stroke-dasharray:none;stroke-opacity:1"
       transform="matrix(1.3333333,0,0,-1.3333333,-250.12667,951.264)" />
    <path
       id="path83"
       d="m 276,624 1.733,-7.171 1.235,2.422 2.719,0.048 z"
       style="fill:#000000;fill-opacity:1;fill-rule:evenodd;stroke:#000000;stroke-width:0.4;stroke-linecap:butt;stroke-linejoin:round;stroke-miterlimit:10;stroke-dasharray:none;stroke-opacity:1"
       transform="matrix(1.3333333,0,0,-1.3333333,-250.12667,951.264)" />
    <path
       id="path84"
       d="m 248,592 20,56"
       style="fill:none;stroke:#000000;stroke-width:0.4;stroke-linecap:butt;stroke-linejoin:round;stroke-miterlimit:10;stroke-dasharray:none;stroke-opacity:1"
       transform="matrix(1.3333333,0,0,-1.3333333,-250.12667,951.264)" />
    <path
       id="path85"
       d="m 268,648 -4.55,-5.808 2.667,0.534 1.724,-2.102 z"
       style="fill:#000000;fill-opacity:1;fill-rule:evenodd;stroke:#000000;stroke-width:0.4;stroke-linecap:butt;stroke-linejoin:round;stroke-miterlimit:10;stroke-dasharray:none;stroke-opacity:1"
       transform="matrix(1.3333333,0,0,-1.3333333,-250.12667,951.264)" />
    <path
       id="path86"
       d="m 260,580 8,64"
       style="fill:none;stroke:#000000;stroke-width:0.4;stroke-linecap:butt;stroke-linejoin:round;stroke-miterlimit:10;stroke-dasharray:none;stroke-opacity:1"
       transform="matrix(1.3333333,0,0,-1.3333333,-250.12667,951.264)" />
    <path
       id="path87"
       d="m 268,644 -3.181,-6.657 2.486,1.1 2.14,-1.678 z"
       style="fill:#000000;fill-opacity:1;fill-rule:evenodd;stroke:#000000;stroke-width:0.4;stroke-linecap:butt;stroke-linejoin:round;stroke-miterlimit:10;stroke-dasharray:none;stroke-opacity:1"
       transform="matrix(1.3333333,0,0,-1.3333333,-250.12667,951.264)" />
    <path
       id="path88"
       d="m 296,592 -20,56"
       style="fill:none;stroke:#000000;stroke-width:0.4;stroke-linecap:butt;stroke-linejoin:round;stroke-miterlimit:10;stroke-dasharray:none;stroke-opacity:1"
       transform="matrix(1.3333333,0,0,-1.3333333,-250.12667,951.264)" />
    <path
       id="path89"
       d="m 276,648 0.159,-7.376 1.724,2.102 2.667,-0.534 z"
       style="fill:#000000;fill-opacity:1;fill-rule:evenodd;stroke:#000000;stroke-width:0.4;stroke-linecap:butt;stroke-linejoin:round;stroke-miterlimit:10;stroke-dasharray:none;stroke-opacity:1"
       transform="matrix(1.3333333,0,0,-1.3333333,-250.12667,951.264)" />
    <path
       id="path90"
       d="m 284,580 -8,64"
       style="fill:none;stroke:#000000;stroke-width:0.4;stroke-linecap:butt;stroke-linejoin:round;stroke-miterlimit:10;stroke-dasharray:none;stroke-opacity:1"
       transform="matrix(1.3333333,0,0,-1.3333333,-250.12667,951.264)" />
    <path
       id="path91"
       d="m 276,644 -1.445,-7.235 2.14,1.678 2.486,-1.1 z"
       style="fill:#000000;fill-opacity:1;fill-rule:evenodd;stroke:#000000;stroke-width:0.4;stroke-linecap:butt;stroke-linejoin:round;stroke-miterlimit:10;stroke-dasharray:none;stroke-opacity:1"
       transform="matrix(1.3333333,0,0,-1.3333333,-250.12667,951.264)" />
    <path
       id="path92"
       d="m 248,592 12,-12 h 24 l 12,12 h -48"
       style="fill:none;stroke:#000000;stroke-width:0.4;stroke-linecap:butt;stroke-linejoin:round;stroke-miterlimit:10;stroke-dasharray:none;stroke-opacity:1"
       transform="matrix(1.3333333,0,0,-1.3333333,-250.12667,951.264)" />
    <path
       id="path93"
       d="m 260,580 36,12"
       style="fill:none;stroke:#000000;stroke-width:0.4;stroke-linecap:butt;stroke-linejoin:round;stroke-miterlimit:10;stroke-dasharray:none;stroke-opacity:1"
       transform="matrix(1.3333333,0,0,-1.3333333,-250.12667,951.264)" />
    <path
       id="path94"
       d="m 284,580 -36,12"
       style="fill:none;stroke:#000000;stroke-width:0.4;stroke-linecap:butt;stroke-linejoin:round;stroke-miterlimit:10;stroke-dasharray:none;stroke-opacity:1"
       transform="matrix(1.3333333,0,0,-1.3333333,-250.12667,951.264)" />
    <path
       id="path95"
       d="m 260,580 8,40"
       style="fill:none;stroke:#000000;stroke-width:0.4;stroke-linecap:butt;stroke-linejoin:round;stroke-miterlimit:10;stroke-dasharray:none;stroke-opacity:1"
       transform="matrix(1.3333333,0,0,-1.3333333,-250.12667,951.264)" />
    <path
       id="path96"
       d="m 268,620 -3.659,-6.407 2.561,0.916 2.011,-1.83 z"
       style="fill:#000000;fill-opacity:1;fill-rule:evenodd;stroke:#000000;stroke-width:0.4;stroke-linecap:butt;stroke-linejoin:round;stroke-miterlimit:10;stroke-dasharray:none;stroke-opacity:1"
       transform="matrix(1.3333333,0,0,-1.3333333,-250.12667,951.264)" />
    <path
       id="path97"
       d="m 284,580 -8,40"
       style="fill:none;stroke:#000000;stroke-width:0.4;stroke-linecap:butt;stroke-linejoin:round;stroke-miterlimit:10;stroke-dasharray:none;stroke-opacity:1"
       transform="matrix(1.3333333,0,0,-1.3333333,-250.12667,951.264)" />
    <path
       id="path98"
       d="m 276,620 -0.913,-7.321 2.011,1.83 2.561,-0.916 z"
       style="fill:#000000;fill-opacity:1;fill-rule:evenodd;stroke:#000000;stroke-width:0.4;stroke-linecap:butt;stroke-linejoin:round;stroke-miterlimit:10;stroke-dasharray:none;stroke-opacity:1"
       transform="matrix(1.3333333,0,0,-1.3333333,-250.12667,951.264)" />
    <g
       id="g102">
      <g
         aria-label="x&#10;4"
         transform="matrix(1.3333333,0,0,1.3333333,105.764,145.93067)"
         clip-path="url(#clipPath99)"
         id="g101">
        <path
           d="m 3.3293438,-3.0124531 c 0.058594,-0.2578125 0.2929687,-1.171875 0.984375,-1.171875 0.046875,0 0.2929687,0 0.5039062,0.1289062 -0.28125,0.046875 -0.4804687,0.3046875 -0.4804687,0.5390625 0,0.1640625 0.1054687,0.3515625 0.375,0.3515625 0.2226562,0 0.5390625,-0.1875 0.5390625,-0.5859375 0,-0.515625 -0.5859375,-0.65625 -0.9257813,-0.65625 -0.5742187,0 -0.9257812,0.5273438 -1.0429687,0.7617188 -0.2578125,-0.65625 -0.7851563,-0.7617188 -1.078125,-0.7617188 -1.0429688,0 -1.6054688,1.2890625 -1.6054688,1.5351563 0,0.1054687 0.10546875,0.1054687 0.1171875,0.1054687 0.0820313,0 0.1171875,-0.023437 0.12890625,-0.1171875 0.33984375,-1.0546875 0.99609375,-1.3007812 1.33593755,-1.3007812 0.1875,0 0.5390625,0.09375 0.5390625,0.6679687 0,0.3046875 -0.1640625,0.9726563 -0.5390625,2.3671875 -0.1523438,0.62109378 -0.5039063,1.04296878 -0.9492188,1.04296878 -0.058594,0 -0.28125,0 -0.4921875,-0.12890625 0.24609375,-0.0585937 0.46875,-0.26953125 0.46875,-0.5390625 0,-0.26953123 -0.22265625,-0.35156253 -0.375,-0.35156253 -0.29296875,0 -0.5390625,0.25781253 -0.5390625,0.57421878 0,0.45703125 0.4921875,0.65625 0.9375,0.65625 0.65625,0 1.0078125,-0.69140625 1.0429688,-0.75 0.1171875,0.36328125 0.4804687,0.75 1.078125,0.75 1.0195312,0 1.59375,-1.27734378 1.59375,-1.53515628 0,-0.09375 -0.09375,-0.09375 -0.1289063,-0.09375 -0.082031,0 -0.1054687,0.035156 -0.1289062,0.1054688 -0.328125,1.06640623 -0.9960938,1.31249998 -1.3242188,1.31249998 -0.3867187,0 -0.5390625,-0.328125 -0.5390625,-0.65625 0,-0.22265625 0.058594,-0.44531248 0.1640625,-0.87890628 z m 0,0"
           style="fill:#000000;fill-opacity:1;fill-rule:nonzero;stroke:none"
           id="path100" />
        <path
           d="M 9.3850078,-4.7644062 V -5.0105 H 8.6115703 v -3.1054687 c 0,-0.1523438 0,-0.1992188 -0.1523437,-0.1992188 -0.09375,0 -0.1171875,0 -0.1875,0.09375 L 5.9631328,-5.0105 v 0.2460938 h 2.0507813 v 0.5742187 c 0,0.234375 0,0.328125 -0.5625,0.328125 h -0.1875 v 0.2460938 c 0.3515625,-0.011719 0.796875,-0.023437 1.0429687,-0.023437 0.2578125,0 0.703125,0.011719 1.0546875,0.023437 v -0.2460938 h -0.1875 c -0.5625,0 -0.5625,-0.09375 -0.5625,-0.328125 V -4.7644062 Z M 8.0607891,-7.5651875 V -5.0105 H 6.2209453 Z m 0,0"
           style="fill:#000000;fill-opacity:1;fill-rule:nonzero;stroke:none"
           id="path101" />
      </g>
    </g>
    <g
       id="g105">
      <g
         aria-label="x&#10;3"
         transform="matrix(1.3333333,0,0,1.3333333,90.4,193.37333)"
         clip-path="url(#clipPath102)"
         id="g104">
        <path
           d="m 3.3269531,-3.0104687 c 0.058594,-0.2578125 0.2929688,-1.171875 0.984375,-1.171875 0.046875,0 0.2929688,0 0.5039063,0.1289062 -0.28125,0.046875 -0.4804688,0.3046875 -0.4804688,0.5390625 0,0.1640625 0.1054688,0.3515625 0.375,0.3515625 0.2226563,0 0.5390625,-0.1875 0.5390625,-0.5859375 0,-0.515625 -0.5859375,-0.65625 -0.9257812,-0.65625 -0.5742188,0 -0.9257813,0.5273438 -1.0429688,0.7617188 C 3.0222656,-4.2995312 2.4949219,-4.405 2.2019531,-4.405 c -1.0429687,0 -1.60546872,1.2890625 -1.60546872,1.5351563 0,0.1054687 0.10546875,0.1054687 0.1171875,0.1054687 0.0820313,0 0.1171875,-0.023437 0.12890625,-0.1171875 C 1.1824219,-3.93625 1.8386719,-4.1823437 2.1785156,-4.1823437 c 0.1875,0 0.5390625,0.09375 0.5390625,0.6679687 0,0.3046875 -0.1640625,0.9726563 -0.5390625,2.3671875 -0.1523437,0.62109375 -0.5039062,1.04296875 -0.9492187,1.04296875 -0.058594,0 -0.28125002,0 -0.49218752,-0.12890625 0.24609375,-0.0585938 0.46875002,-0.26953125 0.46875002,-0.5390625 0,-0.2695312 -0.22265627,-0.3515625 -0.37500002,-0.3515625 -0.29296875,0 -0.5390625,0.2578125 -0.5390625,0.57421875 0,0.45703125 0.4921875,0.65625 0.93750002,0.65625 0.65625,0 1.0078125,-0.69140625 1.0429687,-0.75 0.1171875,0.36328125 0.4804688,0.75 1.078125,0.75 1.0195313,0 1.59375,-1.27734375 1.59375,-1.53515625 0,-0.09375 -0.09375,-0.09375 -0.1289062,-0.09375 -0.082031,0 -0.1054688,0.035156 -0.1289063,0.1054688 -0.328125,1.0664062 -0.9960937,1.31249995 -1.3242187,1.31249995 -0.3867188,0 -0.5390625,-0.328125 -0.5390625,-0.65625 0,-0.22265625 0.058594,-0.44531245 0.1640625,-0.87890625 z m 0,0"
           style="fill:#000000;fill-opacity:1;fill-rule:nonzero;stroke:none"
           id="path103" />
        <path
           d="m 7.5925781,-5.9460156 c 0.5507813,0 0.9375,0.375 0.9375,1.125 0,0.8671875 -0.5039062,1.125 -0.9023437,1.125 -0.28125,0 -0.890625,-0.082031 -1.1835938,-0.4921875 0.328125,-0.011719 0.3984375,-0.2460938 0.3984375,-0.3867188 0,-0.2226562 -0.1640625,-0.3867187 -0.3867187,-0.3867187 -0.1875,0 -0.3867188,0.1171875 -0.3867188,0.4101562 0,0.65625 0.7265625,1.078125 1.5703125,1.078125 0.9726563,0 1.640625,-0.6445312 1.640625,-1.3476562 0,-0.5390625 -0.4453125,-1.0898438 -1.21875,-1.2421875 0.7382813,-0.2695313 0.9960938,-0.796875 0.9960938,-1.21875 0,-0.5507813 -0.6328125,-0.9609375 -1.40625,-0.9609375 -0.7734375,0 -1.359375,0.375 -1.359375,0.9375 0,0.234375 0.1523437,0.3632812 0.3632812,0.3632812 0.2109375,0 0.3515625,-0.1640625 0.3515625,-0.3515625 0,-0.1992187 -0.140625,-0.3515625 -0.3515625,-0.3632812 0.234375,-0.3046875 0.7148438,-0.3867188 0.9726563,-0.3867188 0.3164062,0 0.7617187,0.1523438 0.7617187,0.7617188 0,0.2929687 -0.1054687,0.609375 -0.28125,0.8320312 -0.234375,0.2578125 -0.421875,0.28125 -0.7734375,0.2929688 -0.1757812,0.023437 -0.1875,0.023437 -0.2226562,0.023437 -0.011719,0 -0.070312,0.011719 -0.070312,0.09375 0,0.09375 0.058594,0.09375 0.1757812,0.09375 z m 0,0"
           style="fill:#000000;fill-opacity:1;fill-rule:nonzero;stroke:none"
           id="path104" />
      </g>
    </g>
    <g
       id="g107">
      <g
         aria-label="x&#10;5"
         transform="matrix(1.3333333,0,0,1.3333333,122.4,193.37333)"
         clip-path="url(#clipPath102)"
         id="g106">
        <path
           d="m 3.3269531,-3.0104687 c 0.058594,-0.2578125 0.2929688,-1.171875 0.984375,-1.171875 0.046875,0 0.2929688,0 0.5039063,0.1289062 -0.28125,0.046875 -0.4804688,0.3046875 -0.4804688,0.5390625 0,0.1640625 0.1054688,0.3515625 0.375,0.3515625 0.2226563,0 0.5390625,-0.1875 0.5390625,-0.5859375 0,-0.515625 -0.5859375,-0.65625 -0.9257812,-0.65625 -0.5742188,0 -0.9257813,0.5273438 -1.0429688,0.7617188 C 3.0222656,-4.2995312 2.4949219,-4.405 2.2019531,-4.405 c -1.0429687,0 -1.60546872,1.2890625 -1.60546872,1.5351563 0,0.1054687 0.10546875,0.1054687 0.1171875,0.1054687 0.0820313,0 0.1171875,-0.023437 0.12890625,-0.1171875 C 1.1824219,-3.93625 1.8386719,-4.1823437 2.1785156,-4.1823437 c 0.1875,0 0.5390625,0.09375 0.5390625,0.6679687 0,0.3046875 -0.1640625,0.9726563 -0.5390625,2.3671875 -0.1523437,0.62109375 -0.5039062,1.04296875 -0.9492187,1.04296875 -0.058594,0 -0.28125002,0 -0.49218752,-0.12890625 0.24609375,-0.0585938 0.46875002,-0.26953125 0.46875002,-0.5390625 0,-0.2695312 -0.22265627,-0.3515625 -0.37500002,-0.3515625 -0.29296875,0 -0.5390625,0.2578125 -0.5390625,0.57421875 0,0.45703125 0.4921875,0.65625 0.93750002,0.65625 0.65625,0 1.0078125,-0.69140625 1.0429687,-0.75 0.1171875,0.36328125 0.4804688,0.75 1.078125,0.75 1.0195313,0 1.59375,-1.27734375 1.59375,-1.53515625 0,-0.09375 -0.09375,-0.09375 -0.1289062,-0.09375 -0.082031,0 -0.1054688,0.035156 -0.1289063,0.1054688 -0.328125,1.0664062 -0.9960937,1.31249995 -1.3242187,1.31249995 -0.3867188,0 -0.5390625,-0.328125 -0.5390625,-0.65625 0,-0.22265625 0.058594,-0.44531245 0.1640625,-0.87890625 z m 0,0"
           style="fill:#000000;fill-opacity:1;fill-rule:nonzero;stroke:none"
           id="path105" />
        <path
           d="m 6.7722656,-7.5046094 c 0.3632813,0.09375 0.5625,0.09375 0.6796875,0.09375 0.9140625,0 1.4648438,-0.6328125 1.4648438,-0.7382812 0,-0.070312 -0.046875,-0.09375 -0.082031,-0.09375 -0.011719,0 -0.035156,0 -0.058594,0.023437 -0.1640625,0.058594 -0.5390625,0.1992187 -1.0546875,0.1992187 -0.1992188,0 -0.5625,-0.011719 -1.0195313,-0.1875 -0.070312,-0.035156 -0.082031,-0.035156 -0.082031,-0.035156 -0.09375,0 -0.09375,0.070312 -0.09375,0.1875 v 2.0625 c 0,0.1171875 0,0.1992187 0.1054687,0.1992187 0.070312,0 0.070312,-0.011719 0.140625,-0.1054687 0.3046875,-0.375 0.7265625,-0.4335938 0.9726563,-0.4335938 0.421875,0 0.609375,0.3398438 0.6445312,0.3867188 0.1171875,0.234375 0.1640625,0.5039062 0.1640625,0.9023437 0,0.2109375 0,0.6210938 -0.2109375,0.9257813 -0.1757812,0.2578125 -0.46875,0.421875 -0.8203125,0.421875 -0.4453125,0 -0.9140625,-0.2578125 -1.0898437,-0.7148438 0.2695312,0.023437 0.3984375,-0.1523437 0.3984375,-0.3398437 0,-0.3046875 -0.2578125,-0.3515625 -0.3515625,-0.3515625 -0.011719,0 -0.3515625,0 -0.3515625,0.375 0,0.6210937 0.5742187,1.2539062 1.4179687,1.2539062 0.890625,0 1.6640625,-0.6679687 1.6640625,-1.546875 0,-0.7851562 -0.5976562,-1.5117187 -1.453125,-1.5117187 -0.3164062,0 -0.6796875,0.082031 -0.984375,0.3398437 z m 0,0"
           style="fill:#000000;fill-opacity:1;fill-rule:nonzero;stroke:none"
           id="path106" />
      </g>
    </g>
    <g
       id="g111">
      <g
         aria-label="x&#10;2&#10;y"
         transform="matrix(1.3333333,0,0,1.3333333,1.3333333,86.072)"
         clip-path="url(#clipPath107)"
         id="g110">
        <path
           d="m 3.3271484,-3.0129844 c 0.058594,-0.2578125 0.2929688,-1.171875 0.984375,-1.171875 0.046875,0 0.2929688,0 0.5039063,0.1289063 -0.28125,0.046875 -0.4804688,0.3046875 -0.4804688,0.5390625 0,0.1640625 0.1054688,0.3515625 0.375,0.3515625 0.2226563,0 0.5390625,-0.1875 0.5390625,-0.5859375 0,-0.515625 -0.5859375,-0.65625 -0.9257812,-0.65625 -0.5742188,0 -0.9257813,0.5273437 -1.0429688,0.7617187 -0.2578125,-0.65625 -0.7851562,-0.7617187 -1.078125,-0.7617187 -1.0429687,0 -1.60546871,1.2890625 -1.60546871,1.5351562 0,0.1054688 0.10546875,0.1054688 0.1171875,0.1054688 0.0820313,0 0.1171875,-0.023437 0.12890625,-0.1171875 0.33984376,-1.0546875 0.99609376,-1.3007813 1.33593746,-1.3007813 0.1875,0 0.5390625,0.09375 0.5390625,0.6679688 0,0.3046875 -0.1640625,0.9726562 -0.5390625,2.3671875 -0.1523437,0.62109372 -0.5039062,1.04296872 -0.9492187,1.04296872 -0.058594,0 -0.28125001,0 -0.49218751,-0.12890625 0.24609375,-0.0585938 0.46875001,-0.26953125 0.46875001,-0.5390625 0,-0.26953127 -0.22265626,-0.35156247 -0.37500001,-0.35156247 -0.29296875,0 -0.5390625,0.25781247 -0.5390625,0.57421872 0,0.45703125 0.4921875,0.65625 0.93750001,0.65625 0.65625,0 1.0078125,-0.69140625 1.0429687,-0.75 0.1171875,0.36328125 0.4804688,0.75 1.078125,0.75 1.0195313,0 1.59375,-1.27734372 1.59375,-1.53515622 0,-0.09375 -0.09375,-0.09375 -0.1289062,-0.09375 -0.082031,0 -0.1054688,0.035156 -0.1289063,0.1054687 -0.328125,1.06640627 -0.9960937,1.31250002 -1.3242187,1.31250002 -0.3867188,0 -0.5390625,-0.328125 -0.5390625,-0.65625 0,-0.22265625 0.058594,-0.44531252 0.1640625,-0.87890622 z m 0,0"
           style="fill:#000000;fill-opacity:1;fill-rule:nonzero;stroke:none"
           id="path108" />
        <path
           d="m 9.2099609,-4.882125 h -0.234375 c -0.023437,0.1523437 -0.082031,0.5625 -0.1757812,0.6328125 -0.058594,0.035156 -0.5976563,0.035156 -0.6914063,0.035156 H 6.8193359 c 0.7382813,-0.6445312 0.984375,-0.84375 1.3945313,-1.171875 0.515625,-0.4101562 0.9960937,-0.84375 0.9960937,-1.5 0,-0.84375 -0.7382812,-1.359375 -1.6289062,-1.359375 -0.8671875,0 -1.453125,0.609375 -1.453125,1.2421875 0,0.3632813 0.3046875,0.3984375 0.375,0.3984375 0.1640625,0 0.375,-0.1171875 0.375,-0.375 0,-0.1289062 -0.058594,-0.3632812 -0.421875,-0.3632812 0.2226562,-0.5039063 0.6914062,-0.65625 1.0195312,-0.65625 0.703125,0 1.0664063,0.5507812 1.0664063,1.1132812 0,0.609375 -0.4335938,1.0898438 -0.65625,1.3359375 l -1.6875,1.6640625 c -0.070312,0.058594 -0.070312,0.070312 -0.070312,0.2695313 h 2.8828125 z m 0,0"
           style="fill:#000000;fill-opacity:1;fill-rule:nonzero;stroke:none"
           id="path109" />
        <path
           d="m 15.001953,-3.7981406 c 0.04687,-0.140625 0.04687,-0.1523438 0.04687,-0.2226563 0,-0.1875 -0.140625,-0.2695312 -0.292969,-0.2695312 -0.105468,0 -0.257812,0.058594 -0.351562,0.1992187 -0.02344,0.058594 -0.09375,0.3632813 -0.140625,0.5390625 -0.07031,0.2578125 -0.140625,0.5273438 -0.199219,0.796875 l -0.445312,1.79296877 c -0.03516,0.15234375 -0.46875,0.85546875 -1.125,0.85546875 -0.503907,0 -0.621094,-0.4453125 -0.621094,-0.80859375 0,-0.45703127 0.175781,-1.07812497 0.515625,-1.95703127 0.152344,-0.4101562 0.199219,-0.515625 0.199219,-0.7148437 0,-0.4453125 -0.328125,-0.8203125 -0.820313,-0.8203125 -0.949219,0 -1.3125,1.453125 -1.3125,1.5351562 0,0.1054688 0.09375,0.1054688 0.117188,0.1054688 0.09375,0 0.105468,-0.023437 0.152343,-0.1875 0.269532,-0.9375 0.667969,-1.2304688 1.007813,-1.2304688 0.08203,0 0.257812,0 0.257812,0.3164063 0,0.2460937 -0.105468,0.515625 -0.175781,0.703125 -0.398437,1.0546875 -0.574219,1.6171875 -0.574219,2.0859375 0,0.89062497 0.621094,1.18359372 1.21875,1.18359372 0.386719,0 0.726563,-0.1640625 0.996094,-0.4453125 -0.128906,0.515625 -0.246094,1.0078125 -0.644531,1.53515628 -0.257813,0.3398437 -0.632813,0.6328125 -1.089844,0.6328125 -0.140625,0 -0.597656,-0.035156 -0.761719,-0.421875 0.164063,0 0.292969,0 0.433594,-0.1171875 0.09375,-0.09375 0.199219,-0.2226563 0.199219,-0.41015628 0,-0.31640625 -0.269531,-0.3515625 -0.375,-0.3515625 -0.222656,0 -0.550781,0.1640625 -0.550781,0.64453128 0,0.5039062 0.433593,0.8671875 1.054687,0.8671875 1.019531,0 2.050781,-0.9023438 2.332031,-2.02734378 z m 0,0"
           style="fill:#000000;fill-opacity:1;fill-rule:nonzero;stroke:none"
           id="path110" />
      </g>
    </g>
    <g
       id="g114">
      <g
         aria-label="x&#10;4&#10;y"
         transform="matrix(1.3333333,0,0,1.3333333,1.3333333,118.072)"
         clip-path="url(#clipPath107)"
         id="g113">
        <path
           d="m 3.3271484,-3.0129844 c 0.058594,-0.2578125 0.2929688,-1.171875 0.984375,-1.171875 0.046875,0 0.2929688,0 0.5039063,0.1289063 -0.28125,0.046875 -0.4804688,0.3046875 -0.4804688,0.5390625 0,0.1640625 0.1054688,0.3515625 0.375,0.3515625 0.2226563,0 0.5390625,-0.1875 0.5390625,-0.5859375 0,-0.515625 -0.5859375,-0.65625 -0.9257812,-0.65625 -0.5742188,0 -0.9257813,0.5273437 -1.0429688,0.7617187 -0.2578125,-0.65625 -0.7851562,-0.7617187 -1.078125,-0.7617187 -1.0429687,0 -1.60546871,1.2890625 -1.60546871,1.5351562 0,0.1054688 0.10546875,0.1054688 0.1171875,0.1054688 0.0820313,0 0.1171875,-0.023437 0.12890625,-0.1171875 0.33984376,-1.0546875 0.99609376,-1.3007813 1.33593746,-1.3007813 0.1875,0 0.5390625,0.09375 0.5390625,0.6679688 0,0.3046875 -0.1640625,0.9726562 -0.5390625,2.3671875 -0.1523437,0.62109372 -0.5039062,1.04296872 -0.9492187,1.04296872 -0.058594,0 -0.28125001,0 -0.49218751,-0.12890625 0.24609375,-0.0585938 0.46875001,-0.26953125 0.46875001,-0.5390625 0,-0.26953127 -0.22265626,-0.35156247 -0.37500001,-0.35156247 -0.29296875,0 -0.5390625,0.25781247 -0.5390625,0.57421872 0,0.45703125 0.4921875,0.65625 0.93750001,0.65625 0.65625,0 1.0078125,-0.69140625 1.0429687,-0.75 0.1171875,0.36328125 0.4804688,0.75 1.078125,0.75 1.0195313,0 1.59375,-1.27734372 1.59375,-1.53515622 0,-0.09375 -0.09375,-0.09375 -0.1289062,-0.09375 -0.082031,0 -0.1054688,0.035156 -0.1289063,0.1054687 -0.328125,1.06640627 -0.9960937,1.31250002 -1.3242187,1.31250002 -0.3867188,0 -0.5390625,-0.328125 -0.5390625,-0.65625 0,-0.22265625 0.058594,-0.44531252 0.1640625,-0.87890622 z m 0,0"
           style="fill:#000000;fill-opacity:1;fill-rule:nonzero;stroke:none"
           id="path111" />
        <path
           d="M 9.3857422,-4.7649375 V -5.0110313 H 8.6123047 V -8.1165 c 0,-0.1523438 0,-0.1992188 -0.1523438,-0.1992188 -0.09375,0 -0.1171875,0 -0.1875,0.09375 l -2.3085937,3.2109375 v 0.2460938 h 2.0507812 v 0.5742187 c 0,0.234375 0,0.328125 -0.5625,0.328125 h -0.1875 V -3.6165 c 0.3515625,-0.011719 0.796875,-0.023437 1.0429688,-0.023437 0.2578125,0 0.703125,0.011719 1.0546875,0.023437 v -0.2460938 h -0.1875 c -0.5625,0 -0.5625,-0.09375 -0.5625,-0.328125 V -4.7649375 Z M 8.0615234,-7.5657188 v 2.5546875 H 6.2216797 Z m 0,0"
           style="fill:#000000;fill-opacity:1;fill-rule:nonzero;stroke:none"
           id="path112" />
        <path
           d="m 15.001953,-3.7981406 c 0.04687,-0.140625 0.04687,-0.1523438 0.04687,-0.2226563 0,-0.1875 -0.140625,-0.2695312 -0.292969,-0.2695312 -0.105468,0 -0.257812,0.058594 -0.351562,0.1992187 -0.02344,0.058594 -0.09375,0.3632813 -0.140625,0.5390625 -0.07031,0.2578125 -0.140625,0.5273438 -0.199219,0.796875 l -0.445312,1.79296877 c -0.03516,0.15234375 -0.46875,0.85546875 -1.125,0.85546875 -0.503907,0 -0.621094,-0.4453125 -0.621094,-0.80859375 0,-0.45703127 0.175781,-1.07812497 0.515625,-1.95703127 0.152344,-0.4101562 0.199219,-0.515625 0.199219,-0.7148437 0,-0.4453125 -0.328125,-0.8203125 -0.820313,-0.8203125 -0.949219,0 -1.3125,1.453125 -1.3125,1.5351562 0,0.1054688 0.09375,0.1054688 0.117188,0.1054688 0.09375,0 0.105468,-0.023437 0.152343,-0.1875 0.269532,-0.9375 0.667969,-1.2304688 1.007813,-1.2304688 0.08203,0 0.257812,0 0.257812,0.3164063 0,0.2460937 -0.105468,0.515625 -0.175781,0.703125 -0.398437,1.0546875 -0.574219,1.6171875 -0.574219,2.0859375 0,0.89062497 0.621094,1.18359372 1.21875,1.18359372 0.386719,0 0.726563,-0.1640625 0.996094,-0.4453125 -0.128906,0.515625 -0.246094,1.0078125 -0.644531,1.53515628 -0.257813,0.3398437 -0.632813,0.6328125 -1.089844,0.6328125 -0.140625,0 -0.597656,-0.035156 -0.761719,-0.421875 0.164063,0 0.292969,0 0.433594,-0.1171875 0.09375,-0.09375 0.199219,-0.2226563 0.199219,-0.41015628 0,-0.31640625 -0.269531,-0.3515625 -0.375,-0.3515625 -0.222656,0 -0.550781,0.1640625 -0.550781,0.64453128 0,0.5039062 0.433593,0.8671875 1.054687,0.8671875 1.019531,0 2.050781,-0.9023438 2.332031,-2.02734378 z m 0,0"
           style="fill:#000000;fill-opacity:1;fill-rule:nonzero;stroke:none"
           id="path113" />
      </g>
    </g>
    <g
       id="g118">
      <g
         aria-label="x&#10;3&#10;y"
         transform="matrix(1.3333333,0,0,1.3333333,203.20667,86.072)"
         clip-path="url(#clipPath114)"
         id="g117">
        <path
           d="m 3.3283984,-3.0129844 c 0.058594,-0.2578125 0.2929688,-1.171875 0.984375,-1.171875 0.046875,0 0.2929688,0 0.5039063,0.1289063 -0.28125,0.046875 -0.4804688,0.3046875 -0.4804688,0.5390625 0,0.1640625 0.1054688,0.3515625 0.375,0.3515625 0.2226563,0 0.5390625,-0.1875 0.5390625,-0.5859375 0,-0.515625 -0.5859375,-0.65625 -0.9257812,-0.65625 -0.5742188,0 -0.9257813,0.5273437 -1.0429688,0.7617187 -0.2578125,-0.65625 -0.7851562,-0.7617187 -1.078125,-0.7617187 -1.0429687,0 -1.60546871,1.2890625 -1.60546871,1.5351562 0,0.1054688 0.10546875,0.1054688 0.1171875,0.1054688 0.0820313,0 0.1171875,-0.023437 0.12890625,-0.1171875 0.33984376,-1.0546875 0.99609376,-1.3007813 1.33593746,-1.3007813 0.1875,0 0.5390625,0.09375 0.5390625,0.6679688 0,0.3046875 -0.1640625,0.9726562 -0.5390625,2.3671875 -0.1523437,0.62109372 -0.5039062,1.04296872 -0.9492187,1.04296872 -0.058594,0 -0.28125001,0 -0.49218751,-0.12890625 0.24609375,-0.0585938 0.46875001,-0.26953125 0.46875001,-0.5390625 0,-0.26953127 -0.22265626,-0.35156247 -0.37500001,-0.35156247 -0.29296875,0 -0.5390625,0.25781247 -0.5390625,0.57421872 0,0.45703125 0.4921875,0.65625 0.93750001,0.65625 0.65625,0 1.0078125,-0.69140625 1.0429687,-0.75 0.1171875,0.36328125 0.4804688,0.75 1.078125,0.75 1.0195313,0 1.59375,-1.27734372 1.59375,-1.53515622 0,-0.09375 -0.09375,-0.09375 -0.1289062,-0.09375 -0.082031,0 -0.1054688,0.035156 -0.1289063,0.1054687 -0.328125,1.06640627 -0.9960937,1.31250002 -1.3242187,1.31250002 -0.3867188,0 -0.5390625,-0.328125 -0.5390625,-0.65625 0,-0.22265625 0.058594,-0.44531252 0.1640625,-0.87890622 z m 0,0"
           style="fill:#000000;fill-opacity:1;fill-rule:nonzero;stroke:none"
           id="path115" />
        <path
           d="m 7.5910938,-5.9485313 c 0.5507812,0 0.9375,0.375 0.9375,1.125 0,0.8671875 -0.5039063,1.125 -0.9023438,1.125 -0.28125,0 -0.890625,-0.082031 -1.1835937,-0.4921875 0.328125,-0.011719 0.3984375,-0.2460937 0.3984375,-0.3867187 0,-0.2226563 -0.1640625,-0.3867188 -0.3867188,-0.3867188 -0.1875,0 -0.3867187,0.1171875 -0.3867187,0.4101563 0,0.65625 0.7265625,1.078125 1.5703125,1.078125 0.9726562,0 1.640625,-0.6445313 1.640625,-1.3476563 0,-0.5390625 -0.4453125,-1.0898437 -1.21875,-1.2421875 0.7382812,-0.2695312 0.9960937,-0.796875 0.9960937,-1.21875 0,-0.5507812 -0.6328125,-0.9609375 -1.40625,-0.9609375 -0.7734375,0 -1.359375,0.375 -1.359375,0.9375 0,0.234375 0.1523438,0.3632813 0.3632813,0.3632813 0.2109375,0 0.3515625,-0.1640625 0.3515625,-0.3515625 0,-0.1992188 -0.140625,-0.3515625 -0.3515625,-0.3632813 0.234375,-0.3046875 0.7148437,-0.3867187 0.9726562,-0.3867187 0.3164063,0 0.7617188,0.1523437 0.7617188,0.7617187 0,0.2929688 -0.1054688,0.609375 -0.28125,0.8320313 -0.234375,0.2578125 -0.421875,0.28125 -0.7734375,0.2929687 -0.1757813,0.023437 -0.1875,0.023437 -0.2226563,0.023437 -0.011719,0 -0.070312,0.011719 -0.070312,0.09375 0,0.09375 0.058594,0.09375 0.1757813,0.09375 z m 0,0"
           style="fill:#000000;fill-opacity:1;fill-rule:nonzero;stroke:none"
           id="path116" />
        <path
           d="m 15.003203,-3.7981406 c 0.04687,-0.140625 0.04687,-0.1523438 0.04687,-0.2226563 0,-0.1875 -0.140625,-0.2695312 -0.292969,-0.2695312 -0.105468,0 -0.257812,0.058594 -0.351562,0.1992187 -0.02344,0.058594 -0.09375,0.3632813 -0.140625,0.5390625 -0.07031,0.2578125 -0.140625,0.5273438 -0.199219,0.796875 l -0.445312,1.79296877 c -0.03516,0.15234375 -0.46875,0.85546875 -1.125,0.85546875 -0.503907,0 -0.621094,-0.4453125 -0.621094,-0.80859375 0,-0.45703127 0.175781,-1.07812497 0.515625,-1.95703127 0.152344,-0.4101562 0.199219,-0.515625 0.199219,-0.7148437 0,-0.4453125 -0.328125,-0.8203125 -0.820313,-0.8203125 -0.949219,0 -1.3125,1.453125 -1.3125,1.5351562 0,0.1054688 0.09375,0.1054688 0.117188,0.1054688 0.09375,0 0.105468,-0.023437 0.152343,-0.1875 0.269532,-0.9375 0.667969,-1.2304688 1.007813,-1.2304688 0.08203,0 0.257812,0 0.257812,0.3164063 0,0.2460937 -0.105468,0.515625 -0.175781,0.703125 -0.398437,1.0546875 -0.574219,1.6171875 -0.574219,2.0859375 0,0.89062497 0.621094,1.18359372 1.21875,1.18359372 0.386719,0 0.726563,-0.1640625 0.996094,-0.4453125 -0.128906,0.515625 -0.246094,1.0078125 -0.644531,1.53515628 -0.257813,0.3398437 -0.632813,0.6328125 -1.089844,0.6328125 -0.140625,0 -0.597656,-0.035156 -0.761719,-0.421875 0.164063,0 0.292969,0 0.433594,-0.1171875 0.09375,-0.09375 0.199219,-0.2226563 0.199219,-0.41015628 0,-0.31640625 -0.269531,-0.3515625 -0.375,-0.3515625 -0.222656,0 -0.550781,0.1640625 -0.550781,0.64453128 0,0.5039062 0.433593,0.8671875 1.054687,0.8671875 1.019531,0 2.050781,-0.9023438 2.332031,-2.02734378 z m 0,0"
           style="fill:#000000;fill-opacity:1;fill-rule:nonzero;stroke:none"
           id="path117" />
      </g>
    </g>
    <g
       id="g121">
      <g
         aria-label="x&#10;5&#10;y"
         transform="matrix(1.3333333,0,0,1.3333333,203.20667,118.072)"
         clip-path="url(#clipPath114)"
         id="g120">
        <path
           d="m 3.3283984,-3.0129844 c 0.058594,-0.2578125 0.2929688,-1.171875 0.984375,-1.171875 0.046875,0 0.2929688,0 0.5039063,0.1289063 -0.28125,0.046875 -0.4804688,0.3046875 -0.4804688,0.5390625 0,0.1640625 0.1054688,0.3515625 0.375,0.3515625 0.2226563,0 0.5390625,-0.1875 0.5390625,-0.5859375 0,-0.515625 -0.5859375,-0.65625 -0.9257812,-0.65625 -0.5742188,0 -0.9257813,0.5273437 -1.0429688,0.7617187 -0.2578125,-0.65625 -0.7851562,-0.7617187 -1.078125,-0.7617187 -1.0429687,0 -1.60546871,1.2890625 -1.60546871,1.5351562 0,0.1054688 0.10546875,0.1054688 0.1171875,0.1054688 0.0820313,0 0.1171875,-0.023437 0.12890625,-0.1171875 0.33984376,-1.0546875 0.99609376,-1.3007813 1.33593746,-1.3007813 0.1875,0 0.5390625,0.09375 0.5390625,0.6679688 0,0.3046875 -0.1640625,0.9726562 -0.5390625,2.3671875 -0.1523437,0.62109372 -0.5039062,1.04296872 -0.9492187,1.04296872 -0.058594,0 -0.28125001,0 -0.49218751,-0.12890625 0.24609375,-0.0585938 0.46875001,-0.26953125 0.46875001,-0.5390625 0,-0.26953127 -0.22265626,-0.35156247 -0.37500001,-0.35156247 -0.29296875,0 -0.5390625,0.25781247 -0.5390625,0.57421872 0,0.45703125 0.4921875,0.65625 0.93750001,0.65625 0.65625,0 1.0078125,-0.69140625 1.0429687,-0.75 0.1171875,0.36328125 0.4804688,0.75 1.078125,0.75 1.0195313,0 1.59375,-1.27734372 1.59375,-1.53515622 0,-0.09375 -0.09375,-0.09375 -0.1289062,-0.09375 -0.082031,0 -0.1054688,0.035156 -0.1289063,0.1054687 -0.328125,1.06640627 -0.9960937,1.31250002 -1.3242187,1.31250002 -0.3867188,0 -0.5390625,-0.328125 -0.5390625,-0.65625 0,-0.22265625 0.058594,-0.44531252 0.1640625,-0.87890622 z m 0,0"
           style="fill:#000000;fill-opacity:1;fill-rule:nonzero;stroke:none"
           id="path118" />
        <path
           d="m 6.7707813,-7.507125 c 0.3632812,0.09375 0.5625,0.09375 0.6796875,0.09375 0.9140625,0 1.4648437,-0.6328125 1.4648437,-0.7382813 0,-0.070312 -0.046875,-0.09375 -0.082031,-0.09375 -0.011719,0 -0.035156,0 -0.058594,0.023437 C 8.610625,-8.163375 8.235625,-8.02275 7.72,-8.02275 c -0.1992187,0 -0.5625,-0.011719 -1.0195312,-0.1875 -0.070312,-0.035156 -0.082031,-0.035156 -0.082031,-0.035156 -0.09375,0 -0.09375,0.070312 -0.09375,0.1875 v 2.0625 c 0,0.1171875 0,0.1992188 0.1054688,0.1992188 0.070312,0 0.070312,-0.011719 0.140625,-0.1054688 0.3046875,-0.375 0.7265625,-0.4335937 0.9726562,-0.4335937 0.421875,0 0.609375,0.3398437 0.6445313,0.3867187 0.1171875,0.234375 0.1640625,0.5039063 0.1640625,0.9023438 0,0.2109375 0,0.6210937 -0.2109375,0.9257812 -0.1757813,0.2578125 -0.46875,0.421875 -0.8203125,0.421875 -0.4453125,0 -0.9140625,-0.2578125 -1.0898438,-0.7148437 0.2695313,0.023437 0.3984375,-0.1523438 0.3984375,-0.3398438 0,-0.3046875 -0.2578125,-0.3515625 -0.3515625,-0.3515625 -0.011719,0 -0.3515625,0 -0.3515625,0.375 0,0.6210938 0.5742188,1.2539063 1.4179688,1.2539063 0.890625,0 1.6640625,-0.6679688 1.6640625,-1.546875 0,-0.7851563 -0.5976563,-1.5117188 -1.453125,-1.5117188 -0.3164063,0 -0.6796875,0.082031 -0.984375,0.3398438 z m 0,0"
           style="fill:#000000;fill-opacity:1;fill-rule:nonzero;stroke:none"
           id="path119" />
        <path
           d="m 15.003203,-3.7981406 c 0.04687,-0.140625 0.04687,-0.1523438 0.04687,-0.2226563 0,-0.1875 -0.140625,-0.2695312 -0.292969,-0.2695312 -0.105468,0 -0.257812,0.058594 -0.351562,0.1992187 -0.02344,0.058594 -0.09375,0.3632813 -0.140625,0.5390625 -0.07031,0.2578125 -0.140625,0.5273438 -0.199219,0.796875 l -0.445312,1.79296877 c -0.03516,0.15234375 -0.46875,0.85546875 -1.125,0.85546875 -0.503907,0 -0.621094,-0.4453125 -0.621094,-0.80859375 0,-0.45703127 0.175781,-1.07812497 0.515625,-1.95703127 0.152344,-0.4101562 0.199219,-0.515625 0.199219,-0.7148437 0,-0.4453125 -0.328125,-0.8203125 -0.820313,-0.8203125 -0.949219,0 -1.3125,1.453125 -1.3125,1.5351562 0,0.1054688 0.09375,0.1054688 0.117188,0.1054688 0.09375,0 0.105468,-0.023437 0.152343,-0.1875 0.269532,-0.9375 0.667969,-1.2304688 1.007813,-1.2304688 0.08203,0 0.257812,0 0.257812,0.3164063 0,0.2460937 -0.105468,0.515625 -0.175781,0.703125 -0.398437,1.0546875 -0.574219,1.6171875 -0.574219,2.0859375 0,0.89062497 0.621094,1.18359372 1.21875,1.18359372 0.386719,0 0.726563,-0.1640625 0.996094,-0.4453125 -0.128906,0.515625 -0.246094,1.0078125 -0.644531,1.53515628 -0.257813,0.3398437 -0.632813,0.6328125 -1.089844,0.6328125 -0.140625,0 -0.597656,-0.035156 -0.761719,-0.421875 0.164063,0 0.292969,0 0.433594,-0.1171875 0.09375,-0.09375 0.199219,-0.2226563 0.199219,-0.41015628 0,-0.31640625 -0.269531,-0.3515625 -0.375,-0.3515625 -0.222656,0 -0.550781,0.1640625 -0.550781,0.64453128 0,0.5039062 0.433593,0.8671875 1.054687,0.8671875 1.019531,0 2.050781,-0.9023438 2.332031,-2.02734378 z m 0,0"
           style="fill:#000000;fill-opacity:1;fill-rule:nonzero;stroke:none"
           id="path120" />
      </g>
    </g>
  </g>
</svg>
