<?xml version="1.0" encoding="utf-8" standalone="no"?>
<!DOCTYPE svg PUBLIC "-//W3C//DTD SVG 1.1//EN"
  "http://www.w3.org/Graphics/SVG/1.1/DTD/svg11.dtd">
<!-- Created with matplotlib (https://matplotlib.org/) -->
<svg height="50%" version="1.1" viewBox="0 0 504 216" width="50%" xmlns="http://www.w3.org/2000/svg" xmlns:xlink="http://www.w3.org/1999/xlink">
 <defs>
  <style type="text/css">
*{stroke-linecap:butt;stroke-linejoin:round;}
  </style>
 </defs>
 <g id="figure_1">
  <g id="patch_1">
   <path d="M 0 216 
L 504 216 
L 504 0 
L 0 0 
z
" style="fill:none;"/>
  </g>
  <g id="axes_1">
   <g id="patch_2">
    <path d="M 27.762671 189.344323 
L 493.2 189.344323 
L 493.2 14.259249 
L 27.762671 14.259249 
z
" style="fill:none;"/>
   </g>
   <g id="matplotlib.axis_1">
    <g id="xtick_1">
     <g id="line2d_1">
      <defs>
       <path d="M 0 0 
L 0 3.5 
" id="m53064f832f" style="stroke:#000000;stroke-width:0.8;"/>
      </defs>
      <g>
       <use style="stroke:#000000;stroke-width:0.8;" x="27.762671" xlink:href="#m53064f832f" y="189.344323"/>
      </g>
     </g>
     <g id="text_1">
      <!-- $0$ -->
      <defs>
       <path d="M 42 31.640625 
C 42 37.75 41.90625 48.125 37.703125 56.109375 
C 34 63.109375 28.09375 65.59375 22.90625 65.59375 
C 18.09375 65.59375 12 63.40625 8.203125 56.203125 
C 4.203125 48.71875 3.796875 39.4375 3.796875 31.640625 
C 3.796875 25.953125 3.90625 17.28125 7 9.671875 
C 11.296875 -0.609375 19 -2 22.90625 -2 
C 27.5 -2 34.5 -0.109375 38.59375 9.375 
C 41.59375 16.28125 42 24.359375 42 31.640625 
z
M 22.90625 -0.40625 
C 16.5 -0.40625 12.703125 5.078125 11.296875 12.6875 
C 10.203125 18.5625 10.203125 27.15625 10.203125 32.75 
C 10.203125 40.4375 10.203125 46.828125 11.5 52.921875 
C 13.40625 61.390625 19 64 22.90625 64 
C 27 64 32.296875 61.296875 34.203125 53.125 
C 35.5 47.4375 35.59375 40.734375 35.59375 32.75 
C 35.59375 26.25 35.59375 18.265625 34.40625 12.375 
C 32.296875 1.484375 26.40625 -0.40625 22.90625 -0.40625 
z
" id="CMR17-48"/>
      </defs>
      <g transform="translate(25.272003 203.262822)scale(0.1 -0.1)">
       <use transform="scale(0.996264)" xlink:href="#CMR17-48"/>
      </g>
     </g>
    </g>
    <g id="xtick_2">
     <g id="line2d_2">
      <g>
       <use style="stroke:#000000;stroke-width:0.8;" x="101.839322" xlink:href="#m53064f832f" y="189.344323"/>
      </g>
     </g>
     <g id="text_2">
      <!-- $1$ -->
      <defs>
       <path d="M 26.59375 63.40625 
C 26.59375 65.5 26.5 65.5 25.09375 65.5 
C 21.203125 61.1875 15.296875 59.796875 9.703125 59.796875 
C 9.40625 59.796875 8.90625 59.796875 8.796875 59.5 
C 8.703125 59.296875 8.703125 59.09375 8.703125 57 
C 11.796875 57 17 57.59375 21 59.984375 
L 21 7.203125 
C 21 3.6875 20.796875 2.5 12.203125 2.5 
L 9.203125 2.5 
L 9.203125 0 
C 14 0 19 0 23.796875 0 
C 28.59375 0 33.59375 0 38.40625 0 
L 38.40625 2.5 
L 35.40625 2.5 
C 26.796875 2.5 26.59375 3.59375 26.59375 7.15625 
z
" id="CMR17-49"/>
      </defs>
      <g transform="translate(99.348655 203.262822)scale(0.1 -0.1)">
       <use transform="scale(0.996264)" xlink:href="#CMR17-49"/>
      </g>
     </g>
    </g>
    <g id="xtick_3">
     <g id="line2d_3">
      <g>
       <use style="stroke:#000000;stroke-width:0.8;" x="175.915974" xlink:href="#m53064f832f" y="189.344323"/>
      </g>
     </g>
     <g id="text_3">
      <!-- $2$ -->
      <defs>
       <path d="M 41.703125 15.453125 
L 39.90625 15.453125 
C 38.90625 8.375 38.09375 7.171875 37.703125 6.5625 
C 37.203125 5.765625 30 5.765625 28.59375 5.765625 
L 9.40625 5.765625 
C 13 9.671875 20 16.75 28.5 24.953125 
C 34.59375 30.734375 41.703125 37.53125 41.703125 47.421875 
C 41.703125 59.21875 32.296875 66 21.796875 66 
C 10.796875 66 4.09375 56.3125 4.09375 47.34375 
C 4.09375 43.4375 7 42.9375 8.203125 42.9375 
C 9.203125 42.9375 12.203125 43.546875 12.203125 47.03125 
C 12.203125 50.109375 9.59375 51 8.203125 51 
C 7.59375 51 7 50.90625 6.59375 50.703125 
C 8.5 59.21875 14.296875 63.40625 20.40625 63.40625 
C 29.09375 63.40625 34.796875 56.515625 34.796875 47.421875 
C 34.796875 38.734375 29.703125 31.25 24 24.75 
L 4.09375 2.28125 
L 4.09375 0 
L 39.296875 0 
z
" id="CMR17-50"/>
      </defs>
      <g transform="translate(173.425306 203.262822)scale(0.1 -0.1)">
       <use transform="scale(0.996264)" xlink:href="#CMR17-50"/>
      </g>
     </g>
    </g>
    <g id="xtick_4">
     <g id="line2d_4">
      <g>
       <use style="stroke:#000000;stroke-width:0.8;" x="249.992626" xlink:href="#m53064f832f" y="189.344323"/>
      </g>
     </g>
     <g id="text_4">
      <!-- $3$ -->
      <defs>
       <path d="M 22.09375 33.703125 
C 31 33.703125 34.90625 25.96875 34.90625 17.03125 
C 34.90625 5 28.5 0.390625 22.703125 0.390625 
C 17.40625 0.390625 8.796875 3.03125 6.09375 10.828125 
C 6.59375 10.625 7.09375 10.625 7.59375 10.625 
C 10 10.625 11.796875 12.21875 11.796875 14.8125 
C 11.796875 17.703125 9.59375 19 7.59375 19 
C 5.90625 19 3.296875 18.203125 3.296875 14.46875 
C 3.296875 5.234375 12.296875 -2 22.90625 -2 
C 34 -2 42.5 6.71875 42.5 16.953125 
C 42.5 26.671875 34.5 33.703125 25 34.796875 
C 32.59375 36.375 39.90625 43.0625 39.90625 52.015625 
C 39.90625 59.6875 32 65.296875 23 65.296875 
C 13.90625 65.296875 5.90625 59.828125 5.90625 52.015625 
C 5.90625 48.59375 8.5 48 9.796875 48 
C 11.90625 48 13.703125 49.296875 13.703125 51.890625 
C 13.703125 54.46875 11.90625 55.765625 9.796875 55.765625 
C 9.40625 55.765625 8.90625 55.765625 8.5 55.578125 
C 11.40625 61.859375 19.296875 63 22.796875 63 
C 26.296875 63 32.90625 61.328125 32.90625 51.875 
C 32.90625 49.109375 32.5 44.1875 29.09375 39.84375 
C 26.09375 36 22.703125 36 19.40625 35.6875 
C 18.90625 35.6875 16.59375 35.453125 16.203125 35.453125 
C 15.5 35.359375 15.09375 35.265625 15.09375 34.5 
C 15.09375 33.796875 15.203125 33.703125 17.203125 33.703125 
z
" id="CMR17-51"/>
      </defs>
      <g transform="translate(247.501958 203.262822)scale(0.1 -0.1)">
       <use transform="scale(0.996264)" xlink:href="#CMR17-51"/>
      </g>
     </g>
    </g>
    <g id="xtick_5">
     <g id="line2d_5">
      <g>
       <use style="stroke:#000000;stroke-width:0.8;" x="324.069277" xlink:href="#m53064f832f" y="189.344323"/>
      </g>
     </g>
     <g id="text_5">
      <!-- $4$ -->
      <defs>
       <path d="M 33.59375 64.40625 
C 33.59375 66.5 33.5 66.5 31.703125 66.5 
L 2 19.59375 
L 2 17 
L 27.796875 17 
L 27.796875 7.140625 
C 27.796875 3.5 27.59375 2.5 20.59375 2.5 
L 18.703125 2.5 
L 18.703125 0 
C 21.90625 0 27.296875 0 30.703125 0 
C 34.09375 0 39.5 0 42.703125 0 
L 42.703125 2.5 
L 40.796875 2.5 
C 33.796875 2.5 33.59375 3.5 33.59375 7.140625 
L 33.59375 17 
L 43.796875 17 
L 43.796875 19.59375 
L 33.59375 19.59375 
z
M 28.09375 57.859375 
L 28.09375 19.59375 
L 4 19.59375 
z
" id="CMR17-52"/>
      </defs>
      <g transform="translate(321.57861 203.262822)scale(0.1 -0.1)">
       <use transform="scale(0.996264)" xlink:href="#CMR17-52"/>
      </g>
     </g>
    </g>
    <g id="xtick_6">
     <g id="line2d_6">
      <g>
       <use style="stroke:#000000;stroke-width:0.8;" x="398.145929" xlink:href="#m53064f832f" y="189.344323"/>
      </g>
     </g>
     <g id="text_6">
      <!-- $5$ -->
      <defs>
       <path d="M 11.40625 57.6875 
C 12.40625 57.28125 16.5 56 20.703125 56 
C 30 56 35.09375 61.109375 38 64.0625 
C 38 64.953125 38 65.5 37.40625 65.5 
C 37.296875 65.5 37.09375 65.5 36.296875 65.046875 
C 32.796875 63.40625 28.703125 62.078125 23.703125 62.078125 
C 20.703125 62.078125 16.203125 62.484375 11.296875 64.671875 
C 10.203125 65.171875 10 65.171875 9.90625 65.171875 
C 9.40625 65.171875 9.296875 65.0625 9.296875 63.078125 
L 9.296875 34.421875 
C 9.296875 32.640625 9.296875 32.140625 10.296875 32.140625 
C 10.796875 32.140625 11 32.34375 11.5 33.03125 
C 14.703125 37.515625 19.09375 39.40625 24.09375 39.40625 
C 27.59375 39.40625 35.09375 37.21875 35.09375 20.140625 
C 35.09375 16.953125 35.09375 11.171875 32.09375 6.578125 
C 29.59375 2.484375 25.703125 0.390625 21.40625 0.390625 
C 14.796875 0.390625 8.09375 5 6.296875 12.71875 
C 6.703125 12.609375 7.5 12.421875 7.90625 12.421875 
C 9.203125 12.421875 11.703125 13.125 11.703125 16.21875 
C 11.703125 18.90625 9.796875 20 7.90625 20 
C 5.59375 20 4.09375 18.59375 4.09375 15.796875 
C 4.09375 7.09375 11 -2 21.59375 -2 
C 31.90625 -2 41.703125 6.875 41.703125 19.75 
C 41.703125 31.71875 33.90625 41 24.203125 41 
C 19.09375 41 14.796875 39.109375 11.40625 35.53125 
z
" id="CMR17-53"/>
      </defs>
      <g transform="translate(395.655261 203.262822)scale(0.1 -0.1)">
       <use transform="scale(0.996264)" xlink:href="#CMR17-53"/>
      </g>
     </g>
    </g>
    <g id="xtick_7">
     <g id="line2d_7">
      <g>
       <use style="stroke:#000000;stroke-width:0.8;" x="472.222581" xlink:href="#m53064f832f" y="189.344323"/>
      </g>
     </g>
     <g id="text_7">
      <!-- $6$ -->
      <defs>
       <path d="M 10.59375 34 
C 10.59375 57.65625 21.796875 63 28.296875 63 
C 30.40625 63 35.5 62.640625 37.5 59 
C 35.90625 59 32.90625 59 32.90625 55.515625 
C 32.90625 52.828125 35.09375 51.921875 36.5 51.921875 
C 37.40625 51.921875 40.09375 52.3125 40.09375 55.625 
C 40.09375 61.78125 35.09375 65.296875 28.203125 65.296875 
C 16.296875 65.296875 3.796875 52.96875 3.796875 31 
C 3.796875 3.953125 15.09375 -2 23.09375 -2 
C 32.796875 -2 42 6.671875 42 20.046875 
C 42 32.515625 33.90625 41.59375 23.703125 41.59375 
C 17.59375 41.59375 13.09375 37.609375 10.59375 30.625 
z
M 23.09375 0.390625 
C 10.796875 0.390625 10.796875 18.75 10.796875 22.4375 
C 10.796875 29.625 14.203125 40 23.5 40 
C 25.203125 40 30.09375 40 33.40625 33.125 
C 35.203125 29.21875 35.203125 25.140625 35.203125 20.140625 
C 35.203125 14.75 35.203125 10.78125 33.09375 6.78125 
C 30.90625 2.671875 27.703125 0.390625 23.09375 0.390625 
z
" id="CMR17-54"/>
      </defs>
      <g transform="translate(469.731913 203.262822)scale(0.1 -0.1)">
       <use transform="scale(0.996264)" xlink:href="#CMR17-54"/>
      </g>
     </g>
    </g>
   </g>
   <g id="matplotlib.axis_2">
    <g id="ytick_1">
     <g id="line2d_8">
      <defs>
       <path d="M 0 0 
L -3.5 0 
" id="mc1b703ea12" style="stroke:#000000;stroke-width:0.8;"/>
      </defs>
      <g>
       <use style="stroke:#000000;stroke-width:0.8;" x="27.762671" xlink:href="#mc1b703ea12" y="189.344323"/>
      </g>
     </g>
     <g id="text_8">
      <!-- $0$ -->
      <g transform="translate(15.781335 192.803572)scale(0.1 -0.1)">
       <use transform="scale(0.996264)" xlink:href="#CMR17-48"/>
      </g>
     </g>
    </g>
    <g id="ytick_2">
     <g id="line2d_9">
      <g>
       <use style="stroke:#000000;stroke-width:0.8;" x="27.762671" xlink:href="#mc1b703ea12" y="154.327308"/>
      </g>
     </g>
     <g id="text_9">
      <!-- $2$ -->
      <g transform="translate(15.781335 157.786558)scale(0.1 -0.1)">
       <use transform="scale(0.996264)" xlink:href="#CMR17-50"/>
      </g>
     </g>
    </g>
    <g id="ytick_3">
     <g id="line2d_10">
      <g>
       <use style="stroke:#000000;stroke-width:0.8;" x="27.762671" xlink:href="#mc1b703ea12" y="119.310294"/>
      </g>
     </g>
     <g id="text_10">
      <!-- $4$ -->
      <g transform="translate(15.781335 122.769543)scale(0.1 -0.1)">
       <use transform="scale(0.996264)" xlink:href="#CMR17-52"/>
      </g>
     </g>
    </g>
    <g id="ytick_4">
     <g id="line2d_11">
      <g>
       <use style="stroke:#000000;stroke-width:0.8;" x="27.762671" xlink:href="#mc1b703ea12" y="84.293279"/>
      </g>
     </g>
     <g id="text_11">
      <!-- $6$ -->
      <g transform="translate(15.781335 87.752528)scale(0.1 -0.1)">
       <use transform="scale(0.996264)" xlink:href="#CMR17-54"/>
      </g>
     </g>
    </g>
    <g id="ytick_5">
     <g id="line2d_12">
      <g>
       <use style="stroke:#000000;stroke-width:0.8;" x="27.762671" xlink:href="#mc1b703ea12" y="49.276264"/>
      </g>
     </g>
     <g id="text_12">
      <!-- $8$ -->
      <defs>
       <path d="M 27.203125 35.375 
C 33.5 38.546875 39.90625 43.328125 39.90625 50.984375 
C 39.90625 60.015625 31.09375 65.296875 23 65.296875 
C 13.90625 65.296875 5.90625 58.734375 5.90625 49.6875 
C 5.90625 47.203125 6.5 42.921875 10.40625 39.140625 
C 11.40625 38.15625 15.59375 35.171875 18.296875 33.28125 
C 13.796875 30.984375 3.296875 25.53125 3.296875 14.59375 
C 3.296875 4.359375 13.09375 -2 22.796875 -2 
C 33.5 -2 42.5 5.65625 42.5 15.78125 
C 42.5 24.84375 36.40625 29.015625 32.40625 31.703125 
z
M 14.09375 44.09375 
C 13.296875 44.59375 9.296875 47.671875 9.296875 52.359375 
C 9.296875 58.421875 15.59375 63 22.796875 63 
C 30.703125 63 36.5 57.4375 36.5 50.96875 
C 36.5 41.703125 26.09375 36.421875 25.59375 36.421875 
C 25.5 36.421875 25.40625 36.421875 24.59375 37.03125 
z
M 32.5 23.734375 
C 34 22.640625 38.796875 19.375 38.796875 13.296875 
C 38.796875 5.953125 31.40625 0.390625 23 0.390625 
C 13.90625 0.390625 7 6.84375 7 14.6875 
C 7 22.546875 13.09375 29.09375 20 32.1875 
z
" id="CMR17-56"/>
      </defs>
      <g transform="translate(15.781335 52.735513)scale(0.1 -0.1)">
       <use transform="scale(0.996264)" xlink:href="#CMR17-56"/>
      </g>
     </g>
    </g>
    <g id="ytick_6">
     <g id="line2d_13">
      <g>
       <use style="stroke:#000000;stroke-width:0.8;" x="27.762671" xlink:href="#mc1b703ea12" y="14.259249"/>
      </g>
     </g>
     <g id="text_13">
      <!-- $10$ -->
      <g transform="translate(10.8 17.718498)scale(0.1 -0.1)">
       <use transform="scale(0.996264)" xlink:href="#CMR17-49"/>
       <use transform="translate(45.690477 0)scale(0.996264)" xlink:href="#CMR17-48"/>
      </g>
     </g>
    </g>
   </g>
   <g id="line2d_14">
    <path clip-path="url(#p55a3a10a46)" d="M 27.762671 144.225144 
L 33.580637 143.33924 
L 39.398604 142.45333 
L 45.21657 141.567419 
L 51.034537 140.681507 
L 56.852504 139.795594 
L 62.67047 138.909682 
L 68.488437 138.023769 
L 74.306403 137.137856 
L 80.12437 136.251943 
L 85.942337 135.366031 
L 91.760303 134.480118 
L 97.57827 133.594205 
L 103.396237 132.708292 
L 109.214203 131.82238 
L 115.03217 130.936467 
L 120.850136 130.050554 
L 126.668103 129.164641 
L 132.48607 128.278729 
L 138.304036 127.392816 
L 144.122003 126.506903 
L 149.939969 125.62099 
L 155.757936 124.735078 
L 161.575903 123.849165 
L 167.393869 122.963252 
L 173.211836 122.07734 
L 179.029803 121.191427 
L 184.847769 120.305514 
L 190.665736 119.419601 
L 196.483702 118.533689 
L 202.301669 117.647776 
L 208.119636 116.761863 
L 213.937602 115.87595 
L 219.755569 114.990038 
L 225.573536 114.104125 
L 231.391502 113.218212 
L 237.209469 112.332299 
L 243.027435 111.446387 
L 248.845402 110.560474 
L 254.663369 109.674561 
L 260.481335 108.788649 
L 266.299302 107.902736 
L 272.117268 107.016823 
L 277.935235 106.130911 
L 283.753202 105.245 
L 289.571168 104.35909 
L 295.389135 103.473186 
L 301.207102 102.587294 
L 307.025068 101.701431 
L 312.843035 100.81564 
L 318.661001 99.93002 
L 324.478968 99.044812 
L 330.296935 98.160585 
L 336.114901 97.278686 
L 341.932868 96.402298 
L 347.750835 95.53891 
L 353.568801 94.706081 
L 359.386768 93.944807 
L 365.204734 93.350102 
L 371.022701 93.139186 
L 376.840668 93.794144 
L 382.658634 96.313789 
L 388.476601 102.439837 
L 394.294567 113.949049 
L 400.112534 129.37474 
L 405.930501 142.618522 
L 411.748467 150.076343 
L 417.566434 153.072746 
L 423.384401 153.800891 
L 429.202367 153.556889 
L 435.020334 152.922571 
L 440.8383 152.134988 
L 446.656267 151.287557 
L 452.474234 150.416743 
L 458.2922 149.536769 
L 464.110167 148.653197 
L 469.928134 147.768208 
L 475.7461 146.88266 
L 481.564067 145.996891 
L 487.382033 145.111034 
L 493.2 144.225144 
" style="fill:none;stroke:#1f77b4;stroke-linecap:square;stroke-width:2;"/>
    <defs>
     <path d="M 0 3 
C 0.795609 3 1.55874 2.683901 2.12132 2.12132 
C 2.683901 1.55874 3 0.795609 3 0 
C 3 -0.795609 2.683901 -1.55874 2.12132 -2.12132 
C 1.55874 -2.683901 0.795609 -3 0 -3 
C -0.795609 -3 -1.55874 -2.683901 -2.12132 -2.12132 
C -2.683901 -1.55874 -3 -0.795609 -3 0 
C -3 0.795609 -2.683901 1.55874 -2.12132 2.12132 
C -1.55874 2.683901 -0.795609 3 0 3 
z
" id="m5d8cdeeb00" style="stroke:#1f77b4;"/>
    </defs>
    <g clip-path="url(#p55a3a10a46)">
     <use style="fill:#1f77b4;stroke:#1f77b4;" x="27.762671" xlink:href="#m5d8cdeeb00" y="144.225144"/>
     <use style="fill:#1f77b4;stroke:#1f77b4;" x="33.580637" xlink:href="#m5d8cdeeb00" y="143.33924"/>
     <use style="fill:#1f77b4;stroke:#1f77b4;" x="39.398604" xlink:href="#m5d8cdeeb00" y="142.45333"/>
     <use style="fill:#1f77b4;stroke:#1f77b4;" x="45.21657" xlink:href="#m5d8cdeeb00" y="141.567419"/>
     <use style="fill:#1f77b4;stroke:#1f77b4;" x="51.034537" xlink:href="#m5d8cdeeb00" y="140.681507"/>
     <use style="fill:#1f77b4;stroke:#1f77b4;" x="56.852504" xlink:href="#m5d8cdeeb00" y="139.795594"/>
     <use style="fill:#1f77b4;stroke:#1f77b4;" x="62.67047" xlink:href="#m5d8cdeeb00" y="138.909682"/>
     <use style="fill:#1f77b4;stroke:#1f77b4;" x="68.488437" xlink:href="#m5d8cdeeb00" y="138.023769"/>
     <use style="fill:#1f77b4;stroke:#1f77b4;" x="74.306403" xlink:href="#m5d8cdeeb00" y="137.137856"/>
     <use style="fill:#1f77b4;stroke:#1f77b4;" x="80.12437" xlink:href="#m5d8cdeeb00" y="136.251943"/>
     <use style="fill:#1f77b4;stroke:#1f77b4;" x="85.942337" xlink:href="#m5d8cdeeb00" y="135.366031"/>
     <use style="fill:#1f77b4;stroke:#1f77b4;" x="91.760303" xlink:href="#m5d8cdeeb00" y="134.480118"/>
     <use style="fill:#1f77b4;stroke:#1f77b4;" x="97.57827" xlink:href="#m5d8cdeeb00" y="133.594205"/>
     <use style="fill:#1f77b4;stroke:#1f77b4;" x="103.396237" xlink:href="#m5d8cdeeb00" y="132.708292"/>
     <use style="fill:#1f77b4;stroke:#1f77b4;" x="109.214203" xlink:href="#m5d8cdeeb00" y="131.82238"/>
     <use style="fill:#1f77b4;stroke:#1f77b4;" x="115.03217" xlink:href="#m5d8cdeeb00" y="130.936467"/>
     <use style="fill:#1f77b4;stroke:#1f77b4;" x="120.850136" xlink:href="#m5d8cdeeb00" y="130.050554"/>
     <use style="fill:#1f77b4;stroke:#1f77b4;" x="126.668103" xlink:href="#m5d8cdeeb00" y="129.164641"/>
     <use style="fill:#1f77b4;stroke:#1f77b4;" x="132.48607" xlink:href="#m5d8cdeeb00" y="128.278729"/>
     <use style="fill:#1f77b4;stroke:#1f77b4;" x="138.304036" xlink:href="#m5d8cdeeb00" y="127.392816"/>
     <use style="fill:#1f77b4;stroke:#1f77b4;" x="144.122003" xlink:href="#m5d8cdeeb00" y="126.506903"/>
     <use style="fill:#1f77b4;stroke:#1f77b4;" x="149.939969" xlink:href="#m5d8cdeeb00" y="125.62099"/>
     <use style="fill:#1f77b4;stroke:#1f77b4;" x="155.757936" xlink:href="#m5d8cdeeb00" y="124.735078"/>
     <use style="fill:#1f77b4;stroke:#1f77b4;" x="161.575903" xlink:href="#m5d8cdeeb00" y="123.849165"/>
     <use style="fill:#1f77b4;stroke:#1f77b4;" x="167.393869" xlink:href="#m5d8cdeeb00" y="122.963252"/>
     <use style="fill:#1f77b4;stroke:#1f77b4;" x="173.211836" xlink:href="#m5d8cdeeb00" y="122.07734"/>
     <use style="fill:#1f77b4;stroke:#1f77b4;" x="179.029803" xlink:href="#m5d8cdeeb00" y="121.191427"/>
     <use style="fill:#1f77b4;stroke:#1f77b4;" x="184.847769" xlink:href="#m5d8cdeeb00" y="120.305514"/>
     <use style="fill:#1f77b4;stroke:#1f77b4;" x="190.665736" xlink:href="#m5d8cdeeb00" y="119.419601"/>
     <use style="fill:#1f77b4;stroke:#1f77b4;" x="196.483702" xlink:href="#m5d8cdeeb00" y="118.533689"/>
     <use style="fill:#1f77b4;stroke:#1f77b4;" x="202.301669" xlink:href="#m5d8cdeeb00" y="117.647776"/>
     <use style="fill:#1f77b4;stroke:#1f77b4;" x="208.119636" xlink:href="#m5d8cdeeb00" y="116.761863"/>
     <use style="fill:#1f77b4;stroke:#1f77b4;" x="213.937602" xlink:href="#m5d8cdeeb00" y="115.87595"/>
     <use style="fill:#1f77b4;stroke:#1f77b4;" x="219.755569" xlink:href="#m5d8cdeeb00" y="114.990038"/>
     <use style="fill:#1f77b4;stroke:#1f77b4;" x="225.573536" xlink:href="#m5d8cdeeb00" y="114.104125"/>
     <use style="fill:#1f77b4;stroke:#1f77b4;" x="231.391502" xlink:href="#m5d8cdeeb00" y="113.218212"/>
     <use style="fill:#1f77b4;stroke:#1f77b4;" x="237.209469" xlink:href="#m5d8cdeeb00" y="112.332299"/>
     <use style="fill:#1f77b4;stroke:#1f77b4;" x="243.027435" xlink:href="#m5d8cdeeb00" y="111.446387"/>
     <use style="fill:#1f77b4;stroke:#1f77b4;" x="248.845402" xlink:href="#m5d8cdeeb00" y="110.560474"/>
     <use style="fill:#1f77b4;stroke:#1f77b4;" x="254.663369" xlink:href="#m5d8cdeeb00" y="109.674561"/>
     <use style="fill:#1f77b4;stroke:#1f77b4;" x="260.481335" xlink:href="#m5d8cdeeb00" y="108.788649"/>
     <use style="fill:#1f77b4;stroke:#1f77b4;" x="266.299302" xlink:href="#m5d8cdeeb00" y="107.902736"/>
     <use style="fill:#1f77b4;stroke:#1f77b4;" x="272.117268" xlink:href="#m5d8cdeeb00" y="107.016823"/>
     <use style="fill:#1f77b4;stroke:#1f77b4;" x="277.935235" xlink:href="#m5d8cdeeb00" y="106.130911"/>
     <use style="fill:#1f77b4;stroke:#1f77b4;" x="283.753202" xlink:href="#m5d8cdeeb00" y="105.245"/>
     <use style="fill:#1f77b4;stroke:#1f77b4;" x="289.571168" xlink:href="#m5d8cdeeb00" y="104.35909"/>
     <use style="fill:#1f77b4;stroke:#1f77b4;" x="295.389135" xlink:href="#m5d8cdeeb00" y="103.473186"/>
     <use style="fill:#1f77b4;stroke:#1f77b4;" x="301.207102" xlink:href="#m5d8cdeeb00" y="102.587294"/>
     <use style="fill:#1f77b4;stroke:#1f77b4;" x="307.025068" xlink:href="#m5d8cdeeb00" y="101.701431"/>
     <use style="fill:#1f77b4;stroke:#1f77b4;" x="312.843035" xlink:href="#m5d8cdeeb00" y="100.81564"/>
     <use style="fill:#1f77b4;stroke:#1f77b4;" x="318.661001" xlink:href="#m5d8cdeeb00" y="99.93002"/>
     <use style="fill:#1f77b4;stroke:#1f77b4;" x="324.478968" xlink:href="#m5d8cdeeb00" y="99.044812"/>
     <use style="fill:#1f77b4;stroke:#1f77b4;" x="330.296935" xlink:href="#m5d8cdeeb00" y="98.160585"/>
     <use style="fill:#1f77b4;stroke:#1f77b4;" x="336.114901" xlink:href="#m5d8cdeeb00" y="97.278686"/>
     <use style="fill:#1f77b4;stroke:#1f77b4;" x="341.932868" xlink:href="#m5d8cdeeb00" y="96.402298"/>
     <use style="fill:#1f77b4;stroke:#1f77b4;" x="347.750835" xlink:href="#m5d8cdeeb00" y="95.53891"/>
     <use style="fill:#1f77b4;stroke:#1f77b4;" x="353.568801" xlink:href="#m5d8cdeeb00" y="94.706081"/>
     <use style="fill:#1f77b4;stroke:#1f77b4;" x="359.386768" xlink:href="#m5d8cdeeb00" y="93.944807"/>
     <use style="fill:#1f77b4;stroke:#1f77b4;" x="365.204734" xlink:href="#m5d8cdeeb00" y="93.350102"/>
     <use style="fill:#1f77b4;stroke:#1f77b4;" x="371.022701" xlink:href="#m5d8cdeeb00" y="93.139186"/>
     <use style="fill:#1f77b4;stroke:#1f77b4;" x="376.840668" xlink:href="#m5d8cdeeb00" y="93.794144"/>
     <use style="fill:#1f77b4;stroke:#1f77b4;" x="382.658634" xlink:href="#m5d8cdeeb00" y="96.313789"/>
     <use style="fill:#1f77b4;stroke:#1f77b4;" x="388.476601" xlink:href="#m5d8cdeeb00" y="102.439837"/>
     <use style="fill:#1f77b4;stroke:#1f77b4;" x="394.294567" xlink:href="#m5d8cdeeb00" y="113.949049"/>
     <use style="fill:#1f77b4;stroke:#1f77b4;" x="400.112534" xlink:href="#m5d8cdeeb00" y="129.37474"/>
     <use style="fill:#1f77b4;stroke:#1f77b4;" x="405.930501" xlink:href="#m5d8cdeeb00" y="142.618522"/>
     <use style="fill:#1f77b4;stroke:#1f77b4;" x="411.748467" xlink:href="#m5d8cdeeb00" y="150.076343"/>
     <use style="fill:#1f77b4;stroke:#1f77b4;" x="417.566434" xlink:href="#m5d8cdeeb00" y="153.072746"/>
     <use style="fill:#1f77b4;stroke:#1f77b4;" x="423.384401" xlink:href="#m5d8cdeeb00" y="153.800891"/>
     <use style="fill:#1f77b4;stroke:#1f77b4;" x="429.202367" xlink:href="#m5d8cdeeb00" y="153.556889"/>
     <use style="fill:#1f77b4;stroke:#1f77b4;" x="435.020334" xlink:href="#m5d8cdeeb00" y="152.922571"/>
     <use style="fill:#1f77b4;stroke:#1f77b4;" x="440.8383" xlink:href="#m5d8cdeeb00" y="152.134988"/>
     <use style="fill:#1f77b4;stroke:#1f77b4;" x="446.656267" xlink:href="#m5d8cdeeb00" y="151.287557"/>
     <use style="fill:#1f77b4;stroke:#1f77b4;" x="452.474234" xlink:href="#m5d8cdeeb00" y="150.416743"/>
     <use style="fill:#1f77b4;stroke:#1f77b4;" x="458.2922" xlink:href="#m5d8cdeeb00" y="149.536769"/>
     <use style="fill:#1f77b4;stroke:#1f77b4;" x="464.110167" xlink:href="#m5d8cdeeb00" y="148.653197"/>
     <use style="fill:#1f77b4;stroke:#1f77b4;" x="469.928134" xlink:href="#m5d8cdeeb00" y="147.768208"/>
     <use style="fill:#1f77b4;stroke:#1f77b4;" x="475.7461" xlink:href="#m5d8cdeeb00" y="146.88266"/>
     <use style="fill:#1f77b4;stroke:#1f77b4;" x="481.564067" xlink:href="#m5d8cdeeb00" y="145.996891"/>
     <use style="fill:#1f77b4;stroke:#1f77b4;" x="487.382033" xlink:href="#m5d8cdeeb00" y="145.111034"/>
     <use style="fill:#1f77b4;stroke:#1f77b4;" x="493.2" xlink:href="#m5d8cdeeb00" y="144.225144"/>
    </g>
   </g>
   <g id="line2d_15">
    <path clip-path="url(#p55a3a10a46)" d="M 27.762671 144.154627 
L 33.580637 143.267329 
L 39.398604 142.380032 
L 45.21657 141.492734 
L 51.034537 140.605436 
L 56.852504 139.718139 
L 62.67047 138.830841 
L 68.488437 137.943544 
L 74.306403 137.056246 
L 80.12437 136.168948 
L 85.942337 135.281651 
L 91.760303 134.394353 
L 97.57827 133.507055 
L 103.396237 132.619758 
L 109.214203 131.73246 
L 115.03217 130.845163 
L 120.850136 129.957865 
L 126.668103 129.070567 
L 132.48607 128.18327 
L 138.304036 127.295972 
L 144.122003 126.408675 
L 149.939969 125.521377 
L 155.757936 124.634079 
L 161.575903 123.746782 
L 167.393869 122.859484 
L 173.211836 121.972186 
L 179.029803 121.084889 
L 184.847769 120.197591 
L 190.665736 119.310294 
L 196.483702 118.422996 
L 202.301669 117.535698 
L 208.119636 116.648401 
L 213.937602 115.761103 
L 219.755569 114.873806 
L 225.573536 113.986508 
L 231.391502 113.09921 
L 237.209469 112.211913 
L 243.027435 111.324615 
L 248.845402 110.437318 
L 254.663369 109.55002 
L 260.481335 108.662722 
L 266.299302 107.775425 
L 272.117268 106.888127 
L 277.935235 106.000829 
L 283.753202 105.113532 
L 289.571168 104.226234 
L 295.389135 103.338937 
L 301.207102 102.451639 
L 307.025068 101.564341 
L 312.843035 100.677044 
L 318.661001 99.789746 
L 324.478968 98.902449 
L 330.296935 98.015151 
L 336.114901 97.127853 
L 341.932868 96.240556 
L 347.750835 95.353258 
L 353.568801 94.46596 
L 359.386768 93.578663 
L 365.204734 92.691365 
L 371.022701 91.804068 
L 376.840668 90.916771 
L 382.658634 90.029481 
L 388.476601 89.142259 
L 394.294567 88.255694 
L 400.112534 87.375523 
L 405.930501 86.557439 
L 411.748467 86.336083 
L 417.566434 91.325861 
L 423.384401 119.310294 
L 429.202367 147.294726 
L 435.020334 152.284504 
L 440.8383 152.063149 
L 446.656267 151.245064 
L 452.474234 150.364893 
L 458.2922 149.478328 
L 464.110167 148.591106 
L 469.928134 147.703816 
L 475.7461 146.81652 
L 481.564067 145.929222 
L 487.382033 145.041924 
L 493.2 144.154627 
" style="fill:none;stroke:#ff7f0e;stroke-linecap:square;stroke-width:1.5;"/>
   </g>
   <g id="patch_3">
    <path d="M 27.762671 189.344323 
L 27.762671 14.259249 
" style="fill:none;stroke:#000000;stroke-linecap:square;stroke-linejoin:miter;stroke-width:0.8;"/>
   </g>
   <g id="patch_4">
    <path d="M 493.2 189.344323 
L 493.2 14.259249 
" style="fill:none;stroke:#000000;stroke-linecap:square;stroke-linejoin:miter;stroke-width:0.8;"/>
   </g>
   <g id="patch_5">
    <path d="M 27.762671 189.344323 
L 493.2 189.344323 
" style="fill:none;stroke:#000000;stroke-linecap:square;stroke-linejoin:miter;stroke-width:0.8;"/>
   </g>
   <g id="patch_6">
    <path d="M 27.762671 14.259249 
L 493.2 14.259249 
" style="fill:none;stroke:#000000;stroke-linecap:square;stroke-linejoin:miter;stroke-width:0.8;"/>
   </g>
   <g id="legend_1">
    <g id="patch_7">
     <path d="M 388.889175 50.133606 
L 486.2 50.133606 
Q 488.2 50.133606 488.2 48.133606 
L 488.2 21.259249 
Q 488.2 19.259249 486.2 19.259249 
L 388.889175 19.259249 
Q 386.889175 19.259249 386.889175 21.259249 
L 386.889175 48.133606 
Q 386.889175 50.133606 388.889175 50.133606 
z
" style="fill:#ffffff;opacity:0.8;stroke:#cccccc;stroke-linejoin:miter;"/>
    </g>
    <g id="line2d_16">
     <path d="M 390.889175 26.759249 
L 410.889175 26.759249 
" style="fill:none;stroke:#1f77b4;stroke-linecap:square;stroke-width:2;"/>
    </g>
    <g id="line2d_17">
     <g>
      <use style="fill:#1f77b4;stroke:#1f77b4;" x="400.889175" xlink:href="#m5d8cdeeb00" y="26.759249"/>
     </g>
    </g>
    <g id="text_14">
     <!-- Computational -->
     <defs>
      <path d="M 62.09375 67.015625 
C 62.09375 68.796875 62 68.90625 61.40625 68.90625 
C 61 68.90625 60.90625 68.796875 60.203125 67.609375 
L 55.796875 59.25 
C 50.90625 65.421875 44.90625 69 37.203125 69 
C 20.09375 69 4.59375 54 4.59375 33.5625 
C 4.59375 12.90625 20.09375 -2 37.296875 -2 
C 52.59375 -2 62.09375 11.40625 62.09375 22.828125 
C 62.09375 23.8125 62.09375 24.21875 61.203125 24.21875 
C 60.40625 24.21875 60.40625 23.921875 60.296875 23.03125 
C 59.5 9.140625 49.5 0.59375 38.703125 0.59375 
C 28.5 0.59375 12.203125 7.734375 12.203125 33.546875 
C 12.203125 59.453125 28.796875 66.40625 38.5 66.40625 
C 49.796875 66.40625 58 56.6875 59.90625 42.890625 
C 60.09375 41.6875 60.09375 41.484375 61 41.484375 
C 62.09375 41.484375 62.09375 41.6875 62.09375 43.484375 
z
" id="CMR17-67"/>
      <path d="M 43.09375 21.1875 
C 43.09375 34 33.796875 44 22.90625 44 
C 12 44 2.703125 34 2.703125 21.1875 
C 2.703125 8.609375 12 -1 22.90625 -1 
C 33.796875 -1 43.09375 8.609375 43.09375 21.1875 
z
M 22.90625 0.796875 
C 18.203125 0.796875 14.203125 3.59375 11.90625 7.5 
C 9.40625 11.984375 9.09375 17.59375 9.09375 22 
C 9.09375 26.203125 9.296875 31.40625 11.90625 35.90625 
C 13.90625 39.203125 17.796875 42.40625 22.90625 42.40625 
C 27.40625 42.40625 31.203125 39.90625 33.59375 36.40625 
C 36.703125 31.703125 36.703125 25.109375 36.703125 22 
C 36.703125 18.09375 36.5 12.109375 33.796875 7.296875 
C 31 2.703125 26.703125 0.796875 22.90625 0.796875 
z
" id="CMR17-111"/>
      <path d="M 67.59375 30.203125 
C 67.59375 35.1875 66.703125 43.59375 54.796875 43.59375 
C 48 43.59375 43.296875 39 41.5 33.609375 
L 41.40625 33.609375 
C 40.203125 41.8125 34.296875 43.59375 28.703125 43.59375 
C 20.796875 43.59375 16.703125 37.5 15.203125 33.5 
L 15.09375 33.5 
L 15.09375 43.59375 
L 3.296875 42.5 
L 3.296875 39.90625 
C 9.203125 39.90625 10.09375 39.296875 10.09375 34.5 
L 10.09375 6.6875 
C 10.09375 2.875 9.703125 2.390625 3.296875 2.390625 
L 3.296875 -0.203125 
C 5.703125 0 10.09375 0 12.703125 0 
C 15.296875 0 19.796875 0 22.203125 -0.203125 
L 22.203125 2.390625 
C 15.796875 2.390625 15.40625 2.78125 15.40625 6.6875 
L 15.40625 25.90625 
C 15.40625 35.109375 21 42 28 42 
C 35.40625 42 36.203125 35.40625 36.203125 30.59375 
L 36.203125 6.6875 
C 36.203125 2.875 35.796875 2.390625 29.40625 2.390625 
L 29.40625 -0.203125 
C 31.796875 0 36.203125 0 38.796875 0 
C 41.40625 0 45.90625 0 48.296875 -0.203125 
L 48.296875 2.390625 
C 41.90625 2.390625 41.5 2.78125 41.5 6.6875 
L 41.5 25.90625 
C 41.5 35.109375 47.09375 42 54.09375 42 
C 61.5 42 62.296875 35.40625 62.296875 30.59375 
L 62.296875 6.6875 
C 62.296875 2.875 61.90625 2.390625 55.5 2.390625 
L 55.5 -0.203125 
C 57.90625 0 62.296875 0 64.90625 0 
C 67.5 0 72 0 74.40625 -0.203125 
L 74.40625 2.390625 
C 68 2.390625 67.59375 2.78125 67.59375 6.6875 
z
" id="CMR17-109"/>
      <path d="M 22 -16.609375 
C 15.59375 -16.609375 15.203125 -16.203125 15.203125 -12.328125 
L 15.203125 6.28125 
C 18.09375 2.09375 22.296875 -0.59375 27.59375 -0.59375 
C 37.59375 -0.59375 47.703125 8.171875 47.703125 21.6875 
C 47.703125 34.234375 39 43.78125 28.703125 43.78125 
C 22.703125 43.78125 17.796875 40.5 15 36.53125 
L 15 43.78125 
L 3.09375 42.6875 
L 3.09375 40.109375 
C 9 40.109375 9.90625 39.5 9.90625 34.734375 
L 9.90625 -12.328125 
C 9.90625 -16.109375 9.5 -16.609375 3.09375 -16.609375 
L 3.09375 -19.1875 
C 5.5 -19 9.90625 -19 12.5 -19 
C 15.09375 -19 19.59375 -19 22 -19.1875 
z
M 15.203125 31.4375 
C 15.203125 32.84375 15.203125 34.921875 19.09375 38.609375 
C 19.59375 39.015625 23 42 28 42 
C 35.296875 42 41.296875 32.9375 41.296875 21.59375 
C 41.296875 10.25 34.90625 1 27 1 
C 23.40625 1 19.5 2.6875 16.5 7.375 
C 15.203125 9.5625 15.203125 10.15625 15.203125 11.75 
z
" id="CMR17-112"/>
      <path d="M 29.40625 42.078125 
L 29.40625 39.5 
C 35.296875 39.5 36.203125 38.890625 36.203125 34.15625 
L 36.203125 16.125 
C 36.203125 7.8125 31.703125 0.59375 24.296875 0.59375 
C 16.09375 0.59375 15.40625 5.4375 15.40625 10.59375 
L 15.40625 43.171875 
L 3.296875 42.078125 
L 3.296875 39.5 
C 7.296875 39.5 10 39.5 10.09375 35.53125 
L 10.09375 16.53125 
C 10.09375 9.890625 10.09375 5.640625 12.703125 2.859375 
C 14 1.578125 16.5 -1 23.703125 -1 
C 32.203125 -1 35.5 5.890625 36.296875 7.90625 
L 36.40625 7.90625 
L 36.40625 -0.984375 
L 48.296875 -0.984375 
L 48.296875 2 
C 42.40625 2 41.5 2.59375 41.5 7.390625 
L 41.5 43.171875 
z
" id="CMR17-117"/>
      <path d="M 15.09375 40 
L 29.09375 40 
L 29.09375 42.578125 
L 15.09375 42.578125 
L 15.09375 61 
L 13.296875 61 
C 13.09375 50.703125 9.59375 41.6875 1.09375 41.6875 
L 1.09375 40 
L 9.796875 40 
L 9.796875 12.046875 
C 9.796875 10.15625 9.796875 -1 21.40625 -1 
C 27.296875 -1 30.703125 4.78125 30.703125 12.140625 
L 30.703125 17.8125 
L 28.90625 17.8125 
L 28.90625 12.234375 
C 28.90625 5.375 26.203125 0.796875 22 0.796875 
C 19.09375 0.796875 15.09375 2.78125 15.09375 11.84375 
z
" id="CMR17-116"/>
      <path d="M 36 25.828125 
C 36 32.375 36 35.84375 31.796875 39.734375 
C 28.09375 43 23.796875 44 20.40625 44 
C 12.5 44 6.796875 37.609375 6.796875 30.796875 
C 6.796875 27 9.796875 27 10.40625 27 
C 11.703125 27 14 27.78125 14 30.53125 
C 14 33 12.09375 34.078125 10.40625 34.078125 
C 10 34.078125 9.5 33.96875 9.203125 33.875 
C 11.296875 40.5 16.703125 42.40625 20.203125 42.40625 
C 25.203125 42.40625 30.703125 37.953125 30.703125 29.453125 
L 30.703125 25 
C 24.796875 25 17.703125 24.203125 12.09375 21.203125 
C 5.796875 17.703125 4 12.703125 4 8.90625 
C 4 1.203125 13 -1 18.296875 -1 
C 23.796875 -1 28.90625 2.171875 31.09375 7.984375 
C 31.296875 3.640625 34.09375 -0.28125 38.5 -0.28125 
C 40.59375 -0.28125 45.90625 1.09375 45.90625 8.859375 
L 45.90625 14.375 
L 44.09375 14.375 
L 44.09375 8.78125 
C 44.09375 2.78125 41.40625 2 40.09375 2 
C 36 2 36 7.15625 36 11.53125 
z
M 30.703125 13.59375 
C 30.703125 4.953125 24.5 0.59375 19 0.59375 
C 14 0.59375 10.09375 4.296875 10.09375 8.90625 
C 10.09375 11.890625 11.40625 17.1875 17.203125 20.390625 
C 22 23.09375 27.5 23.5 30.703125 23.5 
z
" id="CMR17-97"/>
      <path d="M 15.5 61.078125 
C 15.5 63.265625 13.703125 65.15625 11.40625 65.15625 
C 9.203125 65.15625 7.296875 63.375 7.296875 61.078125 
C 7.296875 58.890625 9.09375 57 11.40625 57 
C 13.59375 57 15.5 58.796875 15.5 61.078125 
z
M 3.796875 42.28125 
L 3.796875 39.703125 
C 9.40625 39.703125 10.203125 39.09375 10.203125 34.328125 
L 10.203125 6.671875 
C 10.203125 2.875 9.796875 2.390625 3.40625 2.390625 
L 3.40625 -0.203125 
C 5.796875 0 10.09375 0 12.59375 0 
C 15 0 19.09375 0 21.40625 -0.203125 
L 21.40625 2.390625 
C 15.5 2.390625 15.296875 2.984375 15.296875 6.5625 
L 15.296875 43.375 
z
" id="CMR17-105"/>
      <path d="M 41.5 30.203125 
C 41.5 35.296875 40.5 43.59375 28.703125 43.59375 
C 20.796875 43.59375 16.703125 37.5 15.203125 33.5 
L 15.09375 33.5 
L 15.09375 43.59375 
L 3.296875 42.5 
L 3.296875 39.90625 
C 9.203125 39.90625 10.09375 39.296875 10.09375 34.5 
L 10.09375 6.6875 
C 10.09375 2.875 9.703125 2.390625 3.296875 2.390625 
L 3.296875 -0.203125 
C 5.703125 0 10.09375 0 12.703125 0 
C 15.296875 0 19.796875 0 22.203125 -0.203125 
L 22.203125 2.390625 
C 15.796875 2.390625 15.40625 2.78125 15.40625 6.6875 
L 15.40625 25.90625 
C 15.40625 35.109375 21 42 28 42 
C 35.40625 42 36.203125 35.40625 36.203125 30.59375 
L 36.203125 6.6875 
C 36.203125 2.875 35.796875 2.390625 29.40625 2.390625 
L 29.40625 -0.203125 
C 31.796875 0 36.203125 0 38.796875 0 
C 41.40625 0 45.90625 0 48.296875 -0.203125 
L 48.296875 2.390625 
C 41.90625 2.390625 41.5 2.78125 41.5 6.6875 
z
" id="CMR17-110"/>
      <path d="M 15.296875 68.6875 
L 3.40625 67.59375 
L 3.40625 65 
C 9.296875 65 10.203125 64.40625 10.203125 59.640625 
L 10.203125 6.65625 
C 10.203125 2.875 9.796875 2.390625 3.40625 2.390625 
L 3.40625 -0.203125 
C 5.796875 0 10.203125 0 12.703125 0 
C 15.296875 0 19.703125 0 22.09375 -0.203125 
L 22.09375 2.390625 
C 15.703125 2.390625 15.296875 2.78125 15.296875 6.65625 
z
" id="CMR17-108"/>
     </defs>
     <g transform="translate(418.889175 30.259249)scale(0.1 -0.1)">
      <use transform="scale(0.996264)" xlink:href="#CMR17-67"/>
      <use transform="translate(66.509881 0)scale(0.996264)" xlink:href="#CMR17-111"/>
      <use transform="translate(112.200358 0)scale(0.996264)" xlink:href="#CMR17-109"/>
      <use transform="translate(189.119948 0)scale(0.996264)" xlink:href="#CMR17-112"/>
      <use transform="translate(240.015317 0)scale(0.996264)" xlink:href="#CMR17-117"/>
      <use transform="translate(290.910687 0)scale(0.996264)" xlink:href="#CMR17-116"/>
      <use transform="translate(326.191455 0)scale(0.996264)" xlink:href="#CMR17-97"/>
      <use transform="translate(371.881932 0)scale(0.996264)" xlink:href="#CMR17-116"/>
      <use transform="translate(407.1627 0)scale(0.996264)" xlink:href="#CMR17-105"/>
      <use transform="translate(432.033758 0)scale(0.996264)" xlink:href="#CMR17-111"/>
      <use transform="translate(477.724235 0)scale(0.996264)" xlink:href="#CMR17-110"/>
      <use transform="translate(528.619605 0)scale(0.996264)" xlink:href="#CMR17-97"/>
      <use transform="translate(574.310082 0)scale(0.996264)" xlink:href="#CMR17-108"/>
     </g>
    </g>
    <g id="line2d_18">
     <path d="M 390.889175 40.696428 
L 410.889175 40.696428 
" style="fill:none;stroke:#ff7f0e;stroke-linecap:square;stroke-width:1.5;"/>
    </g>
    <g id="line2d_19"/>
    <g id="text_15">
     <!-- Analytical -->
     <defs>
      <path d="M 36.296875 68.40625 
C 35.796875 69.703125 35.59375 70 34.59375 70 
C 33.59375 70 33.40625 69.703125 32.90625 68.40625 
L 11.703125 8.84375 
C 9.796875 3.484375 5.796875 2.390625 2.296875 2.390625 
L 2.296875 -0.203125 
C 4.09375 0 8.09375 0 10 0 
C 12.5 0 16.5 0 18.90625 -0.203125 
L 18.90625 2.390625 
C 14.203125 2.390625 13.5 5.640625 13.5 6.859375 
C 13.5 7.765625 13.703125 8.28125 13.90625 8.890625 
L 19.203125 24 
L 45.40625 24 
L 51.40625 6.90625 
C 51.90625 5.703125 51.90625 5.5 51.90625 5.109375 
C 51.90625 2.390625 47.59375 2.390625 45.703125 2.390625 
L 45.703125 0 
C 48.59375 0 53.796875 0 56.90625 0 
C 59.5 0 64.5 0 66.90625 -0.203125 
L 66.90625 2.390625 
C 61.59375 2.390625 59.796875 2.390625 58.5 6.046875 
z
M 32.296875 60.828125 
L 44.5 26.59375 
L 20.09375 26.59375 
z
" id="CMR17-65"/>
      <path d="M 39 34.328125 
C 41.5 40.40625 46 40.40625 47.40625 40.40625 
L 47.40625 43 
C 45.5 43 43 43 41.09375 43 
C 39 43 35.703125 43 33.703125 43.09375 
L 33.703125 40.5 
C 37.5 40.203125 37.59375 37.40625 37.59375 36.609375 
C 37.59375 35.625 37.40625 35.125 36.90625 33.921875 
L 26 7.015625 
L 14.09375 36.03125 
C 13.59375 37.21875 13.59375 37.90625 13.59375 38.015625 
C 13.59375 40.203125 15.90625 40.40625 18.296875 40.40625 
L 18.296875 43.09375 
C 15.90625 43 11.59375 43 9.09375 43 
C 6.40625 43 3.203125 43 1 43.09375 
L 1 40.40625 
C 6.40625 40.40625 7 39.90625 8.296875 36.71875 
L 23.203125 0.234375 
C 18.703125 -11.53125 16.09375 -18.40625 9.796875 -18.40625 
C 8.703125 -18.40625 6.203125 -18.109375 4.40625 -16.3125 
C 6.703125 -16.109375 7.703125 -14.71875 7.703125 -13.015625 
C 7.703125 -11.328125 6.5 -9.828125 4.5 -9.828125 
C 2.296875 -9.828125 1.203125 -11.328125 1.203125 -13.125 
C 1.203125 -17.109375 5.296875 -20 9.796875 -20 
C 15.59375 -20 19.203125 -14.40625 21.203125 -9.4375 
z
" id="CMR17-121"/>
      <path d="M 34.90625 35 
C 33 35 30.203125 35 30.203125 31.515625 
C 30.203125 28.71875 32.5 27.921875 33.796875 27.921875 
C 34.5 27.921875 37.40625 28.234375 37.40625 31.625 
C 37.40625 38.546875 30.59375 43.796875 22.90625 43.796875 
C 12.296875 43.796875 3.296875 34.03125 3.296875 21.296875 
C 3.296875 8.0625 12.703125 -1 22.90625 -1 
C 35.296875 -1 38.40625 10.578125 38.40625 11.6875 
C 38.40625 12.09375 38.296875 12.390625 37.59375 12.390625 
C 36.90625 12.390625 36.796875 12.296875 36.40625 10.984375 
C 33.796875 2.8125 28.09375 0.796875 23.796875 0.796875 
C 17.40625 0.796875 9.703125 6.671875 9.703125 21.390625 
C 9.703125 36.53125 17.09375 42 23 42 
C 26.90625 42 32.703125 40.203125 34.90625 35 
z
" id="CMR17-99"/>
     </defs>
     <g transform="translate(418.889175 44.196428)scale(0.1 -0.1)">
      <use transform="scale(0.996264)" xlink:href="#CMR17-65"/>
      <use transform="translate(69.07243 0)scale(0.996264)" xlink:href="#CMR17-110"/>
      <use transform="translate(119.9678 0)scale(0.996264)" xlink:href="#CMR17-97"/>
      <use transform="translate(165.658277 0)scale(0.996264)" xlink:href="#CMR17-108"/>
      <use transform="translate(190.529335 0)scale(0.996264)" xlink:href="#CMR17-121"/>
      <use transform="translate(238.822251 0)scale(0.996264)" xlink:href="#CMR17-116"/>
      <use transform="translate(274.103019 0)scale(0.996264)" xlink:href="#CMR17-105"/>
      <use transform="translate(298.974077 0)scale(0.996264)" xlink:href="#CMR17-99"/>
      <use transform="translate(339.459738 0)scale(0.996264)" xlink:href="#CMR17-97"/>
      <use transform="translate(385.150215 0)scale(0.996264)" xlink:href="#CMR17-108"/>
     </g>
    </g>
   </g>
  </g>
 </g>
 <defs>
  <clipPath id="p55a3a10a46">
   <rect height="100%" width="100%" x="27.762671" y="14.259249"/>
  </clipPath>
 </defs>
</svg>
