<?xml version="1.0" encoding="utf-8" standalone="no"?>
<!DOCTYPE svg PUBLIC "-//W3C//DTD SVG 1.1//EN"
  "http://www.w3.org/Graphics/SVG/1.1/DTD/svg11.dtd">
<!-- Created with matplotlib (https://matplotlib.org/) -->
<svg height="50%" version="1.1" viewBox="0 0 504 216" width="50%" xmlns="http://www.w3.org/2000/svg" xmlns:xlink="http://www.w3.org/1999/xlink">
 <defs>
  <style type="text/css">
*{stroke-linecap:butt;stroke-linejoin:round;}
  </style>
 </defs>
 <g id="figure_1">
  <g id="patch_1">
   <path d="M 0 216 
L 504 216 
L 504 0 
L 0 0 
z
" style="fill:none;"/>
  </g>
  <g id="axes_1">
   <g id="patch_2">
    <path d="M 41.725311 175.381683 
L 493.2 175.381683 
L 493.2 25.10218 
L 41.725311 25.10218 
z
" style="fill:none;"/>
   </g>
   <g id="matplotlib.axis_1">
    <g id="xtick_1">
     <g id="line2d_1">
      <path clip-path="url(#p6818747435)" d="M 41.725311 175.381683 
L 41.725311 25.10218 
" style="fill:none;stroke:#b0b0b0;stroke-linecap:square;stroke-width:0.8;"/>
     </g>
     <g id="line2d_2">
      <defs>
       <path d="M 0 0 
L 0 3.5 
" id="m87ad974ccc" style="stroke:#000000;stroke-width:0.8;"/>
      </defs>
      <g>
       <use style="stroke:#000000;stroke-width:0.8;" x="41.725311" xlink:href="#m87ad974ccc" y="175.381683"/>
      </g>
     </g>
     <g id="text_1">
      <!-- $0$ -->
      <defs>
       <path d="M 42 31.640625 
C 42 37.75 41.90625 48.125 37.703125 56.109375 
C 34 63.109375 28.09375 65.59375 22.90625 65.59375 
C 18.09375 65.59375 12 63.40625 8.203125 56.203125 
C 4.203125 48.71875 3.796875 39.4375 3.796875 31.640625 
C 3.796875 25.953125 3.90625 17.28125 7 9.671875 
C 11.296875 -0.609375 19 -2 22.90625 -2 
C 27.5 -2 34.5 -0.109375 38.59375 9.375 
C 41.59375 16.28125 42 24.359375 42 31.640625 
z
M 22.90625 -0.40625 
C 16.5 -0.40625 12.703125 5.078125 11.296875 12.6875 
C 10.203125 18.5625 10.203125 27.15625 10.203125 32.75 
C 10.203125 40.4375 10.203125 46.828125 11.5 52.921875 
C 13.40625 61.390625 19 64 22.90625 64 
C 27 64 32.296875 61.296875 34.203125 53.125 
C 35.5 47.4375 35.59375 40.734375 35.59375 32.75 
C 35.59375 26.25 35.59375 18.265625 34.40625 12.375 
C 32.296875 1.484375 26.40625 -0.40625 22.90625 -0.40625 
z
" id="CMR17-48"/>
      </defs>
      <g transform="translate(39.234643 189.300182)scale(0.1 -0.1)">
       <use transform="scale(0.996264)" xlink:href="#CMR17-48"/>
      </g>
     </g>
    </g>
    <g id="xtick_2">
     <g id="line2d_3">
      <path clip-path="url(#p6818747435)" d="M 113.579739 175.381683 
L 113.579739 25.10218 
" style="fill:none;stroke:#b0b0b0;stroke-linecap:square;stroke-width:0.8;"/>
     </g>
     <g id="line2d_4">
      <g>
       <use style="stroke:#000000;stroke-width:0.8;" x="113.579739" xlink:href="#m87ad974ccc" y="175.381683"/>
      </g>
     </g>
     <g id="text_2">
      <!-- $1$ -->
      <defs>
       <path d="M 26.59375 63.40625 
C 26.59375 65.5 26.5 65.5 25.09375 65.5 
C 21.203125 61.1875 15.296875 59.796875 9.703125 59.796875 
C 9.40625 59.796875 8.90625 59.796875 8.796875 59.5 
C 8.703125 59.296875 8.703125 59.09375 8.703125 57 
C 11.796875 57 17 57.59375 21 59.984375 
L 21 7.203125 
C 21 3.6875 20.796875 2.5 12.203125 2.5 
L 9.203125 2.5 
L 9.203125 0 
C 14 0 19 0 23.796875 0 
C 28.59375 0 33.59375 0 38.40625 0 
L 38.40625 2.5 
L 35.40625 2.5 
C 26.796875 2.5 26.59375 3.59375 26.59375 7.15625 
z
" id="CMR17-49"/>
      </defs>
      <g transform="translate(111.089071 189.300182)scale(0.1 -0.1)">
       <use transform="scale(0.996264)" xlink:href="#CMR17-49"/>
      </g>
     </g>
    </g>
    <g id="xtick_3">
     <g id="line2d_5">
      <path clip-path="url(#p6818747435)" d="M 185.434168 175.381683 
L 185.434168 25.10218 
" style="fill:none;stroke:#b0b0b0;stroke-linecap:square;stroke-width:0.8;"/>
     </g>
     <g id="line2d_6">
      <g>
       <use style="stroke:#000000;stroke-width:0.8;" x="185.434168" xlink:href="#m87ad974ccc" y="175.381683"/>
      </g>
     </g>
     <g id="text_3">
      <!-- $2$ -->
      <defs>
       <path d="M 41.703125 15.453125 
L 39.90625 15.453125 
C 38.90625 8.375 38.09375 7.171875 37.703125 6.5625 
C 37.203125 5.765625 30 5.765625 28.59375 5.765625 
L 9.40625 5.765625 
C 13 9.671875 20 16.75 28.5 24.953125 
C 34.59375 30.734375 41.703125 37.53125 41.703125 47.421875 
C 41.703125 59.21875 32.296875 66 21.796875 66 
C 10.796875 66 4.09375 56.3125 4.09375 47.34375 
C 4.09375 43.4375 7 42.9375 8.203125 42.9375 
C 9.203125 42.9375 12.203125 43.546875 12.203125 47.03125 
C 12.203125 50.109375 9.59375 51 8.203125 51 
C 7.59375 51 7 50.90625 6.59375 50.703125 
C 8.5 59.21875 14.296875 63.40625 20.40625 63.40625 
C 29.09375 63.40625 34.796875 56.515625 34.796875 47.421875 
C 34.796875 38.734375 29.703125 31.25 24 24.75 
L 4.09375 2.28125 
L 4.09375 0 
L 39.296875 0 
z
" id="CMR17-50"/>
      </defs>
      <g transform="translate(182.9435 189.300182)scale(0.1 -0.1)">
       <use transform="scale(0.996264)" xlink:href="#CMR17-50"/>
      </g>
     </g>
    </g>
    <g id="xtick_4">
     <g id="line2d_7">
      <path clip-path="url(#p6818747435)" d="M 257.288596 175.381683 
L 257.288596 25.10218 
" style="fill:none;stroke:#b0b0b0;stroke-linecap:square;stroke-width:0.8;"/>
     </g>
     <g id="line2d_8">
      <g>
       <use style="stroke:#000000;stroke-width:0.8;" x="257.288596" xlink:href="#m87ad974ccc" y="175.381683"/>
      </g>
     </g>
     <g id="text_4">
      <!-- $3$ -->
      <defs>
       <path d="M 22.09375 33.703125 
C 31 33.703125 34.90625 25.96875 34.90625 17.03125 
C 34.90625 5 28.5 0.390625 22.703125 0.390625 
C 17.40625 0.390625 8.796875 3.03125 6.09375 10.828125 
C 6.59375 10.625 7.09375 10.625 7.59375 10.625 
C 10 10.625 11.796875 12.21875 11.796875 14.8125 
C 11.796875 17.703125 9.59375 19 7.59375 19 
C 5.90625 19 3.296875 18.203125 3.296875 14.46875 
C 3.296875 5.234375 12.296875 -2 22.90625 -2 
C 34 -2 42.5 6.71875 42.5 16.953125 
C 42.5 26.671875 34.5 33.703125 25 34.796875 
C 32.59375 36.375 39.90625 43.0625 39.90625 52.015625 
C 39.90625 59.6875 32 65.296875 23 65.296875 
C 13.90625 65.296875 5.90625 59.828125 5.90625 52.015625 
C 5.90625 48.59375 8.5 48 9.796875 48 
C 11.90625 48 13.703125 49.296875 13.703125 51.890625 
C 13.703125 54.46875 11.90625 55.765625 9.796875 55.765625 
C 9.40625 55.765625 8.90625 55.765625 8.5 55.578125 
C 11.40625 61.859375 19.296875 63 22.796875 63 
C 26.296875 63 32.90625 61.328125 32.90625 51.875 
C 32.90625 49.109375 32.5 44.1875 29.09375 39.84375 
C 26.09375 36 22.703125 36 19.40625 35.6875 
C 18.90625 35.6875 16.59375 35.453125 16.203125 35.453125 
C 15.5 35.359375 15.09375 35.265625 15.09375 34.5 
C 15.09375 33.796875 15.203125 33.703125 17.203125 33.703125 
z
" id="CMR17-51"/>
      </defs>
      <g transform="translate(254.797928 189.300182)scale(0.1 -0.1)">
       <use transform="scale(0.996264)" xlink:href="#CMR17-51"/>
      </g>
     </g>
    </g>
    <g id="xtick_5">
     <g id="line2d_9">
      <path clip-path="url(#p6818747435)" d="M 329.143025 175.381683 
L 329.143025 25.10218 
" style="fill:none;stroke:#b0b0b0;stroke-linecap:square;stroke-width:0.8;"/>
     </g>
     <g id="line2d_10">
      <g>
       <use style="stroke:#000000;stroke-width:0.8;" x="329.143025" xlink:href="#m87ad974ccc" y="175.381683"/>
      </g>
     </g>
     <g id="text_5">
      <!-- $4$ -->
      <defs>
       <path d="M 33.59375 64.40625 
C 33.59375 66.5 33.5 66.5 31.703125 66.5 
L 2 19.59375 
L 2 17 
L 27.796875 17 
L 27.796875 7.140625 
C 27.796875 3.5 27.59375 2.5 20.59375 2.5 
L 18.703125 2.5 
L 18.703125 0 
C 21.90625 0 27.296875 0 30.703125 0 
C 34.09375 0 39.5 0 42.703125 0 
L 42.703125 2.5 
L 40.796875 2.5 
C 33.796875 2.5 33.59375 3.5 33.59375 7.140625 
L 33.59375 17 
L 43.796875 17 
L 43.796875 19.59375 
L 33.59375 19.59375 
z
M 28.09375 57.859375 
L 28.09375 19.59375 
L 4 19.59375 
z
" id="CMR17-52"/>
      </defs>
      <g transform="translate(326.652357 189.300182)scale(0.1 -0.1)">
       <use transform="scale(0.996264)" xlink:href="#CMR17-52"/>
      </g>
     </g>
    </g>
    <g id="xtick_6">
     <g id="line2d_11">
      <path clip-path="url(#p6818747435)" d="M 400.997453 175.381683 
L 400.997453 25.10218 
" style="fill:none;stroke:#b0b0b0;stroke-linecap:square;stroke-width:0.8;"/>
     </g>
     <g id="line2d_12">
      <g>
       <use style="stroke:#000000;stroke-width:0.8;" x="400.997453" xlink:href="#m87ad974ccc" y="175.381683"/>
      </g>
     </g>
     <g id="text_6">
      <!-- $5$ -->
      <defs>
       <path d="M 11.40625 57.6875 
C 12.40625 57.28125 16.5 56 20.703125 56 
C 30 56 35.09375 61.109375 38 64.0625 
C 38 64.953125 38 65.5 37.40625 65.5 
C 37.296875 65.5 37.09375 65.5 36.296875 65.046875 
C 32.796875 63.40625 28.703125 62.078125 23.703125 62.078125 
C 20.703125 62.078125 16.203125 62.484375 11.296875 64.671875 
C 10.203125 65.171875 10 65.171875 9.90625 65.171875 
C 9.40625 65.171875 9.296875 65.0625 9.296875 63.078125 
L 9.296875 34.421875 
C 9.296875 32.640625 9.296875 32.140625 10.296875 32.140625 
C 10.796875 32.140625 11 32.34375 11.5 33.03125 
C 14.703125 37.515625 19.09375 39.40625 24.09375 39.40625 
C 27.59375 39.40625 35.09375 37.21875 35.09375 20.140625 
C 35.09375 16.953125 35.09375 11.171875 32.09375 6.578125 
C 29.59375 2.484375 25.703125 0.390625 21.40625 0.390625 
C 14.796875 0.390625 8.09375 5 6.296875 12.71875 
C 6.703125 12.609375 7.5 12.421875 7.90625 12.421875 
C 9.203125 12.421875 11.703125 13.125 11.703125 16.21875 
C 11.703125 18.90625 9.796875 20 7.90625 20 
C 5.59375 20 4.09375 18.59375 4.09375 15.796875 
C 4.09375 7.09375 11 -2 21.59375 -2 
C 31.90625 -2 41.703125 6.875 41.703125 19.75 
C 41.703125 31.71875 33.90625 41 24.203125 41 
C 19.09375 41 14.796875 39.109375 11.40625 35.53125 
z
" id="CMR17-53"/>
      </defs>
      <g transform="translate(398.506785 189.300182)scale(0.1 -0.1)">
       <use transform="scale(0.996264)" xlink:href="#CMR17-53"/>
      </g>
     </g>
    </g>
    <g id="xtick_7">
     <g id="line2d_13">
      <path clip-path="url(#p6818747435)" d="M 472.851882 175.381683 
L 472.851882 25.10218 
" style="fill:none;stroke:#b0b0b0;stroke-linecap:square;stroke-width:0.8;"/>
     </g>
     <g id="line2d_14">
      <g>
       <use style="stroke:#000000;stroke-width:0.8;" x="472.851882" xlink:href="#m87ad974ccc" y="175.381683"/>
      </g>
     </g>
     <g id="text_7">
      <!-- $6$ -->
      <defs>
       <path d="M 10.59375 34 
C 10.59375 57.65625 21.796875 63 28.296875 63 
C 30.40625 63 35.5 62.640625 37.5 59 
C 35.90625 59 32.90625 59 32.90625 55.515625 
C 32.90625 52.828125 35.09375 51.921875 36.5 51.921875 
C 37.40625 51.921875 40.09375 52.3125 40.09375 55.625 
C 40.09375 61.78125 35.09375 65.296875 28.203125 65.296875 
C 16.296875 65.296875 3.796875 52.96875 3.796875 31 
C 3.796875 3.953125 15.09375 -2 23.09375 -2 
C 32.796875 -2 42 6.671875 42 20.046875 
C 42 32.515625 33.90625 41.59375 23.703125 41.59375 
C 17.59375 41.59375 13.09375 37.609375 10.59375 30.625 
z
M 23.09375 0.390625 
C 10.796875 0.390625 10.796875 18.75 10.796875 22.4375 
C 10.796875 29.625 14.203125 40 23.5 40 
C 25.203125 40 30.09375 40 33.40625 33.125 
C 35.203125 29.21875 35.203125 25.140625 35.203125 20.140625 
C 35.203125 14.75 35.203125 10.78125 33.09375 6.78125 
C 30.90625 2.671875 27.703125 0.390625 23.09375 0.390625 
z
" id="CMR17-54"/>
      </defs>
      <g transform="translate(470.361214 189.300182)scale(0.1 -0.1)">
       <use transform="scale(0.996264)" xlink:href="#CMR17-54"/>
      </g>
     </g>
    </g>
    <g id="text_8">
     <!-- Position (m) -->
     <defs>
      <path d="M 19.796875 31.90625 
L 35.796875 31.90625 
C 48.703125 31.90625 58.09375 40.28125 58.09375 49.75 
C 58.09375 59.234375 48.90625 68 35.796875 68 
L 5.203125 68 
L 5.203125 65.40625 
C 12.09375 65.40625 13.203125 65.40625 13.203125 60.921875 
L 13.203125 6.96875 
C 13.203125 2.5 12.09375 2.5 5.203125 2.5 
L 5.203125 0 
C 8.09375 0 13.40625 0 16.5 0 
C 19.59375 0 24.90625 0 27.796875 0 
L 27.796875 2.5 
C 20.90625 2.5 19.796875 2.5 19.796875 6.96875 
z
M 19.59375 34 
L 19.59375 61.53125 
C 19.59375 64.921875 19.796875 65.40625 23.796875 65.40625 
L 33.90625 65.40625 
C 46.796875 65.40625 50.5 58.03125 50.5 49.75 
C 50.5 40.6875 46.09375 34 33.90625 34 
z
" id="CMR17-80"/>
      <path d="M 43.09375 21.1875 
C 43.09375 34 33.796875 44 22.90625 44 
C 12 44 2.703125 34 2.703125 21.1875 
C 2.703125 8.609375 12 -1 22.90625 -1 
C 33.796875 -1 43.09375 8.609375 43.09375 21.1875 
z
M 22.90625 0.796875 
C 18.203125 0.796875 14.203125 3.59375 11.90625 7.5 
C 9.40625 11.984375 9.09375 17.59375 9.09375 22 
C 9.09375 26.203125 9.296875 31.40625 11.90625 35.90625 
C 13.90625 39.203125 17.796875 42.40625 22.90625 42.40625 
C 27.40625 42.40625 31.203125 39.90625 33.59375 36.40625 
C 36.703125 31.703125 36.703125 25.109375 36.703125 22 
C 36.703125 18.09375 36.5 12.109375 33.796875 7.296875 
C 31 2.703125 26.703125 0.796875 22.90625 0.796875 
z
" id="CMR17-111"/>
      <path d="M 30.90625 42.140625 
C 30.90625 43.953125 30.796875 44.046875 30.203125 44.046875 
C 29.796875 44.046875 29.703125 43.953125 28.5 42.453125 
C 28.203125 42.046875 27.296875 41.03125 27 40.640625 
C 23.796875 44.046875 19.296875 44.046875 17.59375 44.046875 
C 6.5 44.046875 2.5 38.234375 2.5 32.4375 
C 2.5 23.40625 12.703125 21.328125 15.59375 20.703125 
C 21.90625 19.421875 24.09375 19.015625 26.203125 17.203125 
C 27.5 16.015625 29.703125 13.8125 29.703125 10.21875 
C 29.703125 6 27.296875 0.59375 18.09375 0.59375 
C 9.40625 0.59375 6.296875 7.1875 4.5 15.953125 
C 4.203125 17.34375 4.203125 17.453125 3.40625 17.453125 
C 2.59375 17.453125 2.5 17.34375 2.5 15.359375 
L 2.5 0.984375 
C 2.5 -0.796875 2.59375 -0.90625 3.203125 -0.90625 
C 3.703125 -0.90625 3.796875 -0.796875 4.296875 0 
C 4.90625 0.890625 6.40625 3.296875 7 4.3125 
C 9 1.609375 12.5 -1 18.09375 -1 
C 28 -1 33.296875 4.421875 33.296875 12.25 
C 33.296875 17.375 30.59375 20.078125 29.296875 21.28125 
C 26.296875 24.390625 22.796875 25.09375 18.59375 25.890625 
C 13.09375 27.109375 6.09375 28.515625 6.09375 34.640625 
C 6.09375 37.234375 7.5 42.765625 17.59375 42.765625 
C 28.296875 42.765625 28.90625 32.71875 29.09375 29.5 
C 29.203125 29 29.703125 28.890625 30 28.890625 
C 30.90625 28.890625 30.90625 29.203125 30.90625 30.90625 
z
" id="CMR17-115"/>
      <path d="M 15.5 61.078125 
C 15.5 63.265625 13.703125 65.15625 11.40625 65.15625 
C 9.203125 65.15625 7.296875 63.375 7.296875 61.078125 
C 7.296875 58.890625 9.09375 57 11.40625 57 
C 13.59375 57 15.5 58.796875 15.5 61.078125 
z
M 3.796875 42.28125 
L 3.796875 39.703125 
C 9.40625 39.703125 10.203125 39.09375 10.203125 34.328125 
L 10.203125 6.671875 
C 10.203125 2.875 9.796875 2.390625 3.40625 2.390625 
L 3.40625 -0.203125 
C 5.796875 0 10.09375 0 12.59375 0 
C 15 0 19.09375 0 21.40625 -0.203125 
L 21.40625 2.390625 
C 15.5 2.390625 15.296875 2.984375 15.296875 6.5625 
L 15.296875 43.375 
z
" id="CMR17-105"/>
      <path d="M 15.09375 40 
L 29.09375 40 
L 29.09375 42.578125 
L 15.09375 42.578125 
L 15.09375 61 
L 13.296875 61 
C 13.09375 50.703125 9.59375 41.6875 1.09375 41.6875 
L 1.09375 40 
L 9.796875 40 
L 9.796875 12.046875 
C 9.796875 10.15625 9.796875 -1 21.40625 -1 
C 27.296875 -1 30.703125 4.78125 30.703125 12.140625 
L 30.703125 17.8125 
L 28.90625 17.8125 
L 28.90625 12.234375 
C 28.90625 5.375 26.203125 0.796875 22 0.796875 
C 19.09375 0.796875 15.09375 2.78125 15.09375 11.84375 
z
" id="CMR17-116"/>
      <path d="M 41.5 30.203125 
C 41.5 35.296875 40.5 43.59375 28.703125 43.59375 
C 20.796875 43.59375 16.703125 37.5 15.203125 33.5 
L 15.09375 33.5 
L 15.09375 43.59375 
L 3.296875 42.5 
L 3.296875 39.90625 
C 9.203125 39.90625 10.09375 39.296875 10.09375 34.5 
L 10.09375 6.6875 
C 10.09375 2.875 9.703125 2.390625 3.296875 2.390625 
L 3.296875 -0.203125 
C 5.703125 0 10.09375 0 12.703125 0 
C 15.296875 0 19.796875 0 22.203125 -0.203125 
L 22.203125 2.390625 
C 15.796875 2.390625 15.40625 2.78125 15.40625 6.6875 
L 15.40625 25.90625 
C 15.40625 35.109375 21 42 28 42 
C 35.40625 42 36.203125 35.40625 36.203125 30.59375 
L 36.203125 6.6875 
C 36.203125 2.875 35.796875 2.390625 29.40625 2.390625 
L 29.40625 -0.203125 
C 31.796875 0 36.203125 0 38.796875 0 
C 41.40625 0 45.90625 0 48.296875 -0.203125 
L 48.296875 2.390625 
C 41.90625 2.390625 41.5 2.78125 41.5 6.6875 
z
" id="CMR17-110"/>
      <path d="M 30.59375 -24.390625 
C 30.59375 -24.296875 30.59375 -24.09375 30.296875 -23.796875 
C 25.703125 -19.125 13.40625 -6.359375 13.40625 24.703125 
C 13.40625 55.765625 25.5 68.421875 30.40625 73.390625 
C 30.40625 73.5 30.59375 73.703125 30.59375 74 
C 30.59375 74.296875 30.296875 74.5 29.90625 74.5 
C 28.796875 74.5 20.296875 67.125 15.40625 56.15625 
C 10.40625 45.109375 9 34.359375 9 24.8125 
C 9 17.625 9.703125 5.484375 15.703125 -7.359375 
C 20.5 -17.734375 28.703125 -25 29.90625 -25 
C 30.40625 -25 30.59375 -24.796875 30.59375 -24.390625 
z
" id="CMR17-40"/>
      <path d="M 67.59375 30.203125 
C 67.59375 35.1875 66.703125 43.59375 54.796875 43.59375 
C 48 43.59375 43.296875 39 41.5 33.609375 
L 41.40625 33.609375 
C 40.203125 41.8125 34.296875 43.59375 28.703125 43.59375 
C 20.796875 43.59375 16.703125 37.5 15.203125 33.5 
L 15.09375 33.5 
L 15.09375 43.59375 
L 3.296875 42.5 
L 3.296875 39.90625 
C 9.203125 39.90625 10.09375 39.296875 10.09375 34.5 
L 10.09375 6.6875 
C 10.09375 2.875 9.703125 2.390625 3.296875 2.390625 
L 3.296875 -0.203125 
C 5.703125 0 10.09375 0 12.703125 0 
C 15.296875 0 19.796875 0 22.203125 -0.203125 
L 22.203125 2.390625 
C 15.796875 2.390625 15.40625 2.78125 15.40625 6.6875 
L 15.40625 25.90625 
C 15.40625 35.109375 21 42 28 42 
C 35.40625 42 36.203125 35.40625 36.203125 30.59375 
L 36.203125 6.6875 
C 36.203125 2.875 35.796875 2.390625 29.40625 2.390625 
L 29.40625 -0.203125 
C 31.796875 0 36.203125 0 38.796875 0 
C 41.40625 0 45.90625 0 48.296875 -0.203125 
L 48.296875 2.390625 
C 41.90625 2.390625 41.5 2.78125 41.5 6.6875 
L 41.5 25.90625 
C 41.5 35.109375 47.09375 42 54.09375 42 
C 61.5 42 62.296875 35.40625 62.296875 30.59375 
L 62.296875 6.6875 
C 62.296875 2.875 61.90625 2.390625 55.5 2.390625 
L 55.5 -0.203125 
C 57.90625 0 62.296875 0 64.90625 0 
C 67.5 0 72 0 74.40625 -0.203125 
L 74.40625 2.390625 
C 68 2.390625 67.59375 2.78125 67.59375 6.6875 
z
" id="CMR17-109"/>
      <path d="M 26.296875 24.703125 
C 26.296875 31.875 25.59375 44.015625 19.59375 56.859375 
C 14.796875 67.234375 6.59375 74.5 5.40625 74.5 
C 5.09375 74.5 4.703125 74.390625 4.703125 73.890625 
C 4.703125 73.703125 4.796875 73.59375 4.90625 73.390625 
C 9.703125 68.40625 21.90625 55.75 21.90625 24.75 
C 21.90625 -6.359375 9.796875 -19.015625 4.90625 -24.015625 
C 4.796875 -24.203125 4.703125 -24.3125 4.703125 -24.5 
C 4.703125 -25 5.09375 -25 5.40625 -25 
C 6.5 -25 15 -17.625 19.90625 -6.65625 
C 24.90625 4.390625 26.296875 15.140625 26.296875 24.703125 
z
" id="CMR17-41"/>
     </defs>
     <g transform="translate(240.106843 202.70934)scale(0.1 -0.1)">
      <use transform="scale(0.996264)" xlink:href="#CMR17-80"/>
      <use transform="translate(59.983847 0)scale(0.996264)" xlink:href="#CMR17-111"/>
      <use transform="translate(105.674324 0)scale(0.996264)" xlink:href="#CMR17-115"/>
      <use transform="translate(141.475661 0)scale(0.996264)" xlink:href="#CMR17-105"/>
      <use transform="translate(166.34672 0)scale(0.996264)" xlink:href="#CMR17-116"/>
      <use transform="translate(201.627488 0)scale(0.996264)" xlink:href="#CMR17-105"/>
      <use transform="translate(226.498546 0)scale(0.996264)" xlink:href="#CMR17-111"/>
      <use transform="translate(272.189023 0)scale(0.996264)" xlink:href="#CMR17-110"/>
      <use transform="translate(353.160359 0)scale(0.996264)" xlink:href="#CMR17-40"/>
      <use transform="translate(388.441127 0)scale(0.996264)" xlink:href="#CMR17-109"/>
      <use transform="translate(465.360717 0)scale(0.996264)" xlink:href="#CMR17-41"/>
     </g>
    </g>
   </g>
   <g id="matplotlib.axis_2">
    <g id="ytick_1">
     <g id="line2d_15">
      <path clip-path="url(#p6818747435)" d="M 41.725311 175.381683 
L 493.2 175.381683 
" style="fill:none;stroke:#b0b0b0;stroke-linecap:square;stroke-width:0.8;"/>
     </g>
     <g id="line2d_16">
      <defs>
       <path d="M 0 0 
L -3.5 0 
" id="m3e2218131b" style="stroke:#000000;stroke-width:0.8;"/>
      </defs>
      <g>
       <use style="stroke:#000000;stroke-width:0.8;" x="41.725311" xlink:href="#m3e2218131b" y="175.381683"/>
      </g>
     </g>
     <g id="text_9">
      <!-- $0$ -->
      <g transform="translate(29.743975 178.840932)scale(0.1 -0.1)">
       <use transform="scale(0.996264)" xlink:href="#CMR17-48"/>
      </g>
     </g>
    </g>
    <g id="ytick_2">
     <g id="line2d_17">
      <path clip-path="url(#p6818747435)" d="M 41.725311 145.325783 
L 493.2 145.325783 
" style="fill:none;stroke:#b0b0b0;stroke-linecap:square;stroke-width:0.8;"/>
     </g>
     <g id="line2d_18">
      <g>
       <use style="stroke:#000000;stroke-width:0.8;" x="41.725311" xlink:href="#m3e2218131b" y="145.325783"/>
      </g>
     </g>
     <g id="text_10">
      <!-- $2$ -->
      <g transform="translate(29.743975 148.785032)scale(0.1 -0.1)">
       <use transform="scale(0.996264)" xlink:href="#CMR17-50"/>
      </g>
     </g>
    </g>
    <g id="ytick_3">
     <g id="line2d_19">
      <path clip-path="url(#p6818747435)" d="M 41.725311 115.269882 
L 493.2 115.269882 
" style="fill:none;stroke:#b0b0b0;stroke-linecap:square;stroke-width:0.8;"/>
     </g>
     <g id="line2d_20">
      <g>
       <use style="stroke:#000000;stroke-width:0.8;" x="41.725311" xlink:href="#m3e2218131b" y="115.269882"/>
      </g>
     </g>
     <g id="text_11">
      <!-- $4$ -->
      <g transform="translate(29.743975 118.729131)scale(0.1 -0.1)">
       <use transform="scale(0.996264)" xlink:href="#CMR17-52"/>
      </g>
     </g>
    </g>
    <g id="ytick_4">
     <g id="line2d_21">
      <path clip-path="url(#p6818747435)" d="M 41.725311 85.213981 
L 493.2 85.213981 
" style="fill:none;stroke:#b0b0b0;stroke-linecap:square;stroke-width:0.8;"/>
     </g>
     <g id="line2d_22">
      <g>
       <use style="stroke:#000000;stroke-width:0.8;" x="41.725311" xlink:href="#m3e2218131b" y="85.213981"/>
      </g>
     </g>
     <g id="text_12">
      <!-- $6$ -->
      <g transform="translate(29.743975 88.67323)scale(0.1 -0.1)">
       <use transform="scale(0.996264)" xlink:href="#CMR17-54"/>
      </g>
     </g>
    </g>
    <g id="ytick_5">
     <g id="line2d_23">
      <path clip-path="url(#p6818747435)" d="M 41.725311 55.15808 
L 493.2 55.15808 
" style="fill:none;stroke:#b0b0b0;stroke-linecap:square;stroke-width:0.8;"/>
     </g>
     <g id="line2d_24">
      <g>
       <use style="stroke:#000000;stroke-width:0.8;" x="41.725311" xlink:href="#m3e2218131b" y="55.15808"/>
      </g>
     </g>
     <g id="text_13">
      <!-- $8$ -->
      <defs>
       <path d="M 27.203125 35.375 
C 33.5 38.546875 39.90625 43.328125 39.90625 50.984375 
C 39.90625 60.015625 31.09375 65.296875 23 65.296875 
C 13.90625 65.296875 5.90625 58.734375 5.90625 49.6875 
C 5.90625 47.203125 6.5 42.921875 10.40625 39.140625 
C 11.40625 38.15625 15.59375 35.171875 18.296875 33.28125 
C 13.796875 30.984375 3.296875 25.53125 3.296875 14.59375 
C 3.296875 4.359375 13.09375 -2 22.796875 -2 
C 33.5 -2 42.5 5.65625 42.5 15.78125 
C 42.5 24.84375 36.40625 29.015625 32.40625 31.703125 
z
M 14.09375 44.09375 
C 13.296875 44.59375 9.296875 47.671875 9.296875 52.359375 
C 9.296875 58.421875 15.59375 63 22.796875 63 
C 30.703125 63 36.5 57.4375 36.5 50.96875 
C 36.5 41.703125 26.09375 36.421875 25.59375 36.421875 
C 25.5 36.421875 25.40625 36.421875 24.59375 37.03125 
z
M 32.5 23.734375 
C 34 22.640625 38.796875 19.375 38.796875 13.296875 
C 38.796875 5.953125 31.40625 0.390625 23 0.390625 
C 13.90625 0.390625 7 6.84375 7 14.6875 
C 7 22.546875 13.09375 29.09375 20 32.1875 
z
" id="CMR17-56"/>
      </defs>
      <g transform="translate(29.743975 58.61733)scale(0.1 -0.1)">
       <use transform="scale(0.996264)" xlink:href="#CMR17-56"/>
      </g>
     </g>
    </g>
    <g id="ytick_6">
     <g id="line2d_25">
      <path clip-path="url(#p6818747435)" d="M 41.725311 25.10218 
L 493.2 25.10218 
" style="fill:none;stroke:#b0b0b0;stroke-linecap:square;stroke-width:0.8;"/>
     </g>
     <g id="line2d_26">
      <g>
       <use style="stroke:#000000;stroke-width:0.8;" x="41.725311" xlink:href="#m3e2218131b" y="25.10218"/>
      </g>
     </g>
     <g id="text_14">
      <!-- $10$ -->
      <g transform="translate(24.76264 28.561429)scale(0.1 -0.1)">
       <use transform="scale(0.996264)" xlink:href="#CMR17-49"/>
       <use transform="translate(45.690477 0)scale(0.996264)" xlink:href="#CMR17-48"/>
      </g>
     </g>
    </g>
    <g id="text_15">
     <!-- Velocity (m/s) -->
     <defs>
      <path d="M 59 58.515625 
C 59.90625 60.71875 61.5 65 68.203125 65 
L 68.203125 67.6875 
C 65.90625 67.484375 63.296875 67.484375 60.796875 67.484375 
C 58.40625 67.484375 54.296875 67.484375 52 67.6875 
L 52 65 
C 57 65 57.203125 61.5 57.203125 60.90625 
C 57.203125 59.796875 56.90625 59.109375 56.59375 58.3125 
L 36.90625 6.96875 
L 16.296875 60.71875 
C 16 61.421875 15.796875 61.921875 15.796875 62.40625 
C 15.796875 65 19.796875 65 21.90625 65 
L 21.90625 67.484375 
C 18.703125 67.484375 14 67.484375 10.703125 67.484375 
C 8.09375 67.484375 3.40625 67.484375 1 67.6875 
L 1 65 
C 6.796875 65 7.90625 64.609375 9.09375 61.421875 
L 32.90625 -0.40625 
C 33.40625 -1.796875 33.5 -2 34.59375 -2 
C 35.703125 -2 35.796875 -1.796875 36.296875 -0.40625 
z
" id="CMR17-86"/>
      <path d="M 38.09375 23 
C 38.5 23.40625 38.5 23.609375 38.5 24.625 
C 38.5 34.96875 33.09375 44 21.703125 44 
C 11.09375 44 2.703125 33.890625 2.703125 21.609375 
C 2.703125 8.609375 12.203125 -1 22.796875 -1 
C 34 -1 38.40625 9.484375 38.40625 11.5625 
C 38.40625 12.25 37.796875 12.25 37.59375 12.25 
C 36.90625 12.25 36.796875 12.046875 36.40625 10.875 
C 34.203125 4.140625 28.703125 0.796875 23.5 0.796875 
C 19.203125 0.796875 14.90625 3.171875 12.203125 7.5 
C 9.09375 12.546875 9.09375 18.375 9.09375 23 
z
M 9.203125 24.5 
C 9.90625 39.140625 17.59375 42.40625 21.59375 42.40625 
C 28.40625 42.40625 33 35.890625 33.09375 24.5 
z
" id="CMR17-101"/>
      <path d="M 15.296875 68.6875 
L 3.40625 67.59375 
L 3.40625 65 
C 9.296875 65 10.203125 64.40625 10.203125 59.640625 
L 10.203125 6.65625 
C 10.203125 2.875 9.796875 2.390625 3.40625 2.390625 
L 3.40625 -0.203125 
C 5.796875 0 10.203125 0 12.703125 0 
C 15.296875 0 19.703125 0 22.09375 -0.203125 
L 22.09375 2.390625 
C 15.703125 2.390625 15.296875 2.78125 15.296875 6.65625 
z
" id="CMR17-108"/>
      <path d="M 34.90625 35 
C 33 35 30.203125 35 30.203125 31.515625 
C 30.203125 28.71875 32.5 27.921875 33.796875 27.921875 
C 34.5 27.921875 37.40625 28.234375 37.40625 31.625 
C 37.40625 38.546875 30.59375 43.796875 22.90625 43.796875 
C 12.296875 43.796875 3.296875 34.03125 3.296875 21.296875 
C 3.296875 8.0625 12.703125 -1 22.90625 -1 
C 35.296875 -1 38.40625 10.578125 38.40625 11.6875 
C 38.40625 12.09375 38.296875 12.390625 37.59375 12.390625 
C 36.90625 12.390625 36.796875 12.296875 36.40625 10.984375 
C 33.796875 2.8125 28.09375 0.796875 23.796875 0.796875 
C 17.40625 0.796875 9.703125 6.671875 9.703125 21.390625 
C 9.703125 36.53125 17.09375 42 23 42 
C 26.90625 42 32.703125 40.203125 34.90625 35 
z
" id="CMR17-99"/>
      <path d="M 39 34.328125 
C 41.5 40.40625 46 40.40625 47.40625 40.40625 
L 47.40625 43 
C 45.5 43 43 43 41.09375 43 
C 39 43 35.703125 43 33.703125 43.09375 
L 33.703125 40.5 
C 37.5 40.203125 37.59375 37.40625 37.59375 36.609375 
C 37.59375 35.625 37.40625 35.125 36.90625 33.921875 
L 26 7.015625 
L 14.09375 36.03125 
C 13.59375 37.21875 13.59375 37.90625 13.59375 38.015625 
C 13.59375 40.203125 15.90625 40.40625 18.296875 40.40625 
L 18.296875 43.09375 
C 15.90625 43 11.59375 43 9.09375 43 
C 6.40625 43 3.203125 43 1 43.09375 
L 1 40.40625 
C 6.40625 40.40625 7 39.90625 8.296875 36.71875 
L 23.203125 0.234375 
C 18.703125 -11.53125 16.09375 -18.40625 9.796875 -18.40625 
C 8.703125 -18.40625 6.203125 -18.109375 4.40625 -16.3125 
C 6.703125 -16.109375 7.703125 -14.71875 7.703125 -13.015625 
C 7.703125 -11.328125 6.5 -9.828125 4.5 -9.828125 
C 2.296875 -9.828125 1.203125 -11.328125 1.203125 -13.125 
C 1.203125 -17.109375 5.296875 -20 9.796875 -20 
C 15.59375 -20 19.203125 -14.40625 21.203125 -9.4375 
z
" id="CMR17-121"/>
      <path d="M 40.703125 71.015625 
C 41.203125 72.296875 41.203125 72.5 41.203125 72.703125 
C 41.203125 73.890625 40.296875 74.5 39.5 74.5 
C 38.296875 74.5 37.90625 73.703125 37.5 72.5 
L 5.09375 -21.515625 
C 4.59375 -22.8125 4.59375 -23.015625 4.59375 -23.21875 
C 4.59375 -24.40625 5.5 -25 6.296875 -25 
C 7.5 -25 7.90625 -24.203125 8.296875 -23.015625 
z
" id="CMR17-47"/>
     </defs>
     <g transform="translate(18.27198 131.956399)rotate(-90)scale(0.1 -0.1)">
      <use transform="scale(0.996264)" xlink:href="#CMR17-86"/>
      <use transform="translate(61.265174 0)scale(0.996264)" xlink:href="#CMR17-101"/>
      <use transform="translate(101.750835 0)scale(0.996264)" xlink:href="#CMR17-108"/>
      <use transform="translate(126.621893 0)scale(0.996264)" xlink:href="#CMR17-111"/>
      <use transform="translate(174.914809 0)scale(0.996264)" xlink:href="#CMR17-99"/>
      <use transform="translate(215.40047 0)scale(0.996264)" xlink:href="#CMR17-105"/>
      <use transform="translate(240.271528 0)scale(0.996264)" xlink:href="#CMR17-116"/>
      <use transform="translate(272.949842 0)scale(0.996264)" xlink:href="#CMR17-121"/>
      <use transform="translate(351.318724 0)scale(0.996264)" xlink:href="#CMR17-40"/>
      <use transform="translate(386.599492 0)scale(0.996264)" xlink:href="#CMR17-109"/>
      <use transform="translate(463.519082 0)scale(0.996264)" xlink:href="#CMR17-47"/>
      <use transform="translate(509.209559 0)scale(0.996264)" xlink:href="#CMR17-115"/>
      <use transform="translate(545.010897 0)scale(0.996264)" xlink:href="#CMR17-41"/>
     </g>
    </g>
   </g>
   <g id="line2d_27">
    <path clip-path="url(#p6818747435)" d="M 41.725311 115.269882 
L 46.240057 114.325648 
L 50.754804 113.381414 
L 55.269551 112.43718 
L 59.784298 111.492946 
L 64.299045 110.548712 
L 68.813792 109.604478 
L 73.328539 108.660244 
L 77.843286 107.71601 
L 82.358033 106.771776 
L 86.87278 105.827542 
L 91.387526 104.883308 
L 95.902273 103.939074 
L 100.41702 102.99484 
L 104.931767 102.050606 
L 109.446514 101.106372 
L 113.961261 100.162138 
L 118.476008 99.217904 
L 122.990755 98.27367 
L 127.505502 97.329436 
L 132.020248 96.385202 
L 136.534995 95.440969 
L 141.049742 94.496735 
L 145.564489 93.552501 
L 150.079236 92.608267 
L 154.593983 91.664033 
L 159.10873 90.719799 
L 163.623477 89.775565 
L 168.138224 88.831331 
L 172.652971 87.887097 
L 177.167717 86.942863 
L 181.682464 85.998629 
L 186.197211 85.054395 
L 190.711958 84.110161 
L 195.226705 83.165927 
L 199.741452 82.221693 
L 204.256199 81.277459 
L 208.770946 80.333225 
L 213.285693 79.388991 
L 217.800439 78.444757 
L 222.315186 77.500523 
L 226.829933 76.556289 
L 231.34468 75.612055 
L 235.859427 74.667821 
L 240.374174 73.723592 
L 244.888921 72.779424 
L 249.403668 71.836312 
L 253.918415 70.910884 
L 258.433162 70.281013 
L 262.947908 74.314577 
L 267.462655 115.269882 
L 271.977402 156.225187 
L 276.492149 160.258751 
L 281.006896 159.62888 
L 285.521643 158.703452 
L 290.03639 157.760339 
L 294.551137 156.816172 
L 299.065884 155.871942 
L 303.58063 154.927708 
L 308.095377 153.983475 
L 312.610124 153.039241 
L 317.124871 152.095007 
L 321.639618 151.150773 
L 326.154365 150.206539 
L 330.669112 149.262305 
L 335.183859 148.318071 
L 339.698606 147.373837 
L 344.213352 146.429603 
L 348.728099 145.485369 
L 353.242846 144.541135 
L 357.757593 143.596901 
L 362.27234 142.652667 
L 366.787087 141.708433 
L 371.301834 140.764199 
L 375.816581 139.819965 
L 380.331328 138.875731 
L 384.846075 137.931497 
L 389.360821 136.987263 
L 393.875568 136.043029 
L 398.390315 135.098795 
L 402.905062 134.154561 
L 407.419809 133.210327 
L 411.934556 132.266093 
L 416.449303 131.321859 
L 420.96405 130.377625 
L 425.478797 129.433391 
L 429.993543 128.489157 
L 434.50829 127.544923 
L 439.023037 126.600689 
L 443.537784 125.656455 
L 448.052531 124.712222 
L 452.567278 123.767988 
L 457.082025 122.823754 
L 461.596772 121.87952 
L 466.111519 120.935286 
L 470.626266 119.991052 
L 475.141012 119.046818 
L 479.655759 118.102584 
L 484.170506 117.15835 
L 488.685253 116.214116 
L 493.2 115.269882 
" style="fill:none;stroke:#1f77b4;stroke-linecap:square;stroke-width:1.5;"/>
    <defs>
     <path d="M 0 1.5 
C 0.397805 1.5 0.77937 1.341951 1.06066 1.06066 
C 1.341951 0.77937 1.5 0.397805 1.5 0 
C 1.5 -0.397805 1.341951 -0.77937 1.06066 -1.06066 
C 0.77937 -1.341951 0.397805 -1.5 0 -1.5 
C -0.397805 -1.5 -0.77937 -1.341951 -1.06066 -1.06066 
C -1.341951 -0.77937 -1.5 -0.397805 -1.5 0 
C -1.5 0.397805 -1.341951 0.77937 -1.06066 1.06066 
C -0.77937 1.341951 -0.397805 1.5 0 1.5 
z
" id="m55f36fa046" style="stroke:#1f77b4;"/>
    </defs>
    <g clip-path="url(#p6818747435)">
     <use style="fill:#1f77b4;stroke:#1f77b4;" x="41.725311" xlink:href="#m55f36fa046" y="115.269882"/>
     <use style="fill:#1f77b4;stroke:#1f77b4;" x="46.240057" xlink:href="#m55f36fa046" y="114.325648"/>
     <use style="fill:#1f77b4;stroke:#1f77b4;" x="50.754804" xlink:href="#m55f36fa046" y="113.381414"/>
     <use style="fill:#1f77b4;stroke:#1f77b4;" x="55.269551" xlink:href="#m55f36fa046" y="112.43718"/>
     <use style="fill:#1f77b4;stroke:#1f77b4;" x="59.784298" xlink:href="#m55f36fa046" y="111.492946"/>
     <use style="fill:#1f77b4;stroke:#1f77b4;" x="64.299045" xlink:href="#m55f36fa046" y="110.548712"/>
     <use style="fill:#1f77b4;stroke:#1f77b4;" x="68.813792" xlink:href="#m55f36fa046" y="109.604478"/>
     <use style="fill:#1f77b4;stroke:#1f77b4;" x="73.328539" xlink:href="#m55f36fa046" y="108.660244"/>
     <use style="fill:#1f77b4;stroke:#1f77b4;" x="77.843286" xlink:href="#m55f36fa046" y="107.71601"/>
     <use style="fill:#1f77b4;stroke:#1f77b4;" x="82.358033" xlink:href="#m55f36fa046" y="106.771776"/>
     <use style="fill:#1f77b4;stroke:#1f77b4;" x="86.87278" xlink:href="#m55f36fa046" y="105.827542"/>
     <use style="fill:#1f77b4;stroke:#1f77b4;" x="91.387526" xlink:href="#m55f36fa046" y="104.883308"/>
     <use style="fill:#1f77b4;stroke:#1f77b4;" x="95.902273" xlink:href="#m55f36fa046" y="103.939074"/>
     <use style="fill:#1f77b4;stroke:#1f77b4;" x="100.41702" xlink:href="#m55f36fa046" y="102.99484"/>
     <use style="fill:#1f77b4;stroke:#1f77b4;" x="104.931767" xlink:href="#m55f36fa046" y="102.050606"/>
     <use style="fill:#1f77b4;stroke:#1f77b4;" x="109.446514" xlink:href="#m55f36fa046" y="101.106372"/>
     <use style="fill:#1f77b4;stroke:#1f77b4;" x="113.961261" xlink:href="#m55f36fa046" y="100.162138"/>
     <use style="fill:#1f77b4;stroke:#1f77b4;" x="118.476008" xlink:href="#m55f36fa046" y="99.217904"/>
     <use style="fill:#1f77b4;stroke:#1f77b4;" x="122.990755" xlink:href="#m55f36fa046" y="98.27367"/>
     <use style="fill:#1f77b4;stroke:#1f77b4;" x="127.505502" xlink:href="#m55f36fa046" y="97.329436"/>
     <use style="fill:#1f77b4;stroke:#1f77b4;" x="132.020248" xlink:href="#m55f36fa046" y="96.385202"/>
     <use style="fill:#1f77b4;stroke:#1f77b4;" x="136.534995" xlink:href="#m55f36fa046" y="95.440969"/>
     <use style="fill:#1f77b4;stroke:#1f77b4;" x="141.049742" xlink:href="#m55f36fa046" y="94.496735"/>
     <use style="fill:#1f77b4;stroke:#1f77b4;" x="145.564489" xlink:href="#m55f36fa046" y="93.552501"/>
     <use style="fill:#1f77b4;stroke:#1f77b4;" x="150.079236" xlink:href="#m55f36fa046" y="92.608267"/>
     <use style="fill:#1f77b4;stroke:#1f77b4;" x="154.593983" xlink:href="#m55f36fa046" y="91.664033"/>
     <use style="fill:#1f77b4;stroke:#1f77b4;" x="159.10873" xlink:href="#m55f36fa046" y="90.719799"/>
     <use style="fill:#1f77b4;stroke:#1f77b4;" x="163.623477" xlink:href="#m55f36fa046" y="89.775565"/>
     <use style="fill:#1f77b4;stroke:#1f77b4;" x="168.138224" xlink:href="#m55f36fa046" y="88.831331"/>
     <use style="fill:#1f77b4;stroke:#1f77b4;" x="172.652971" xlink:href="#m55f36fa046" y="87.887097"/>
     <use style="fill:#1f77b4;stroke:#1f77b4;" x="177.167717" xlink:href="#m55f36fa046" y="86.942863"/>
     <use style="fill:#1f77b4;stroke:#1f77b4;" x="181.682464" xlink:href="#m55f36fa046" y="85.998629"/>
     <use style="fill:#1f77b4;stroke:#1f77b4;" x="186.197211" xlink:href="#m55f36fa046" y="85.054395"/>
     <use style="fill:#1f77b4;stroke:#1f77b4;" x="190.711958" xlink:href="#m55f36fa046" y="84.110161"/>
     <use style="fill:#1f77b4;stroke:#1f77b4;" x="195.226705" xlink:href="#m55f36fa046" y="83.165927"/>
     <use style="fill:#1f77b4;stroke:#1f77b4;" x="199.741452" xlink:href="#m55f36fa046" y="82.221693"/>
     <use style="fill:#1f77b4;stroke:#1f77b4;" x="204.256199" xlink:href="#m55f36fa046" y="81.277459"/>
     <use style="fill:#1f77b4;stroke:#1f77b4;" x="208.770946" xlink:href="#m55f36fa046" y="80.333225"/>
     <use style="fill:#1f77b4;stroke:#1f77b4;" x="213.285693" xlink:href="#m55f36fa046" y="79.388991"/>
     <use style="fill:#1f77b4;stroke:#1f77b4;" x="217.800439" xlink:href="#m55f36fa046" y="78.444757"/>
     <use style="fill:#1f77b4;stroke:#1f77b4;" x="222.315186" xlink:href="#m55f36fa046" y="77.500523"/>
     <use style="fill:#1f77b4;stroke:#1f77b4;" x="226.829933" xlink:href="#m55f36fa046" y="76.556289"/>
     <use style="fill:#1f77b4;stroke:#1f77b4;" x="231.34468" xlink:href="#m55f36fa046" y="75.612055"/>
     <use style="fill:#1f77b4;stroke:#1f77b4;" x="235.859427" xlink:href="#m55f36fa046" y="74.667821"/>
     <use style="fill:#1f77b4;stroke:#1f77b4;" x="240.374174" xlink:href="#m55f36fa046" y="73.723592"/>
     <use style="fill:#1f77b4;stroke:#1f77b4;" x="244.888921" xlink:href="#m55f36fa046" y="72.779424"/>
     <use style="fill:#1f77b4;stroke:#1f77b4;" x="249.403668" xlink:href="#m55f36fa046" y="71.836312"/>
     <use style="fill:#1f77b4;stroke:#1f77b4;" x="253.918415" xlink:href="#m55f36fa046" y="70.910884"/>
     <use style="fill:#1f77b4;stroke:#1f77b4;" x="258.433162" xlink:href="#m55f36fa046" y="70.281013"/>
     <use style="fill:#1f77b4;stroke:#1f77b4;" x="262.947908" xlink:href="#m55f36fa046" y="74.314577"/>
     <use style="fill:#1f77b4;stroke:#1f77b4;" x="267.462655" xlink:href="#m55f36fa046" y="115.269882"/>
     <use style="fill:#1f77b4;stroke:#1f77b4;" x="271.977402" xlink:href="#m55f36fa046" y="156.225187"/>
     <use style="fill:#1f77b4;stroke:#1f77b4;" x="276.492149" xlink:href="#m55f36fa046" y="160.258751"/>
     <use style="fill:#1f77b4;stroke:#1f77b4;" x="281.006896" xlink:href="#m55f36fa046" y="159.62888"/>
     <use style="fill:#1f77b4;stroke:#1f77b4;" x="285.521643" xlink:href="#m55f36fa046" y="158.703452"/>
     <use style="fill:#1f77b4;stroke:#1f77b4;" x="290.03639" xlink:href="#m55f36fa046" y="157.760339"/>
     <use style="fill:#1f77b4;stroke:#1f77b4;" x="294.551137" xlink:href="#m55f36fa046" y="156.816172"/>
     <use style="fill:#1f77b4;stroke:#1f77b4;" x="299.065884" xlink:href="#m55f36fa046" y="155.871942"/>
     <use style="fill:#1f77b4;stroke:#1f77b4;" x="303.58063" xlink:href="#m55f36fa046" y="154.927708"/>
     <use style="fill:#1f77b4;stroke:#1f77b4;" x="308.095377" xlink:href="#m55f36fa046" y="153.983475"/>
     <use style="fill:#1f77b4;stroke:#1f77b4;" x="312.610124" xlink:href="#m55f36fa046" y="153.039241"/>
     <use style="fill:#1f77b4;stroke:#1f77b4;" x="317.124871" xlink:href="#m55f36fa046" y="152.095007"/>
     <use style="fill:#1f77b4;stroke:#1f77b4;" x="321.639618" xlink:href="#m55f36fa046" y="151.150773"/>
     <use style="fill:#1f77b4;stroke:#1f77b4;" x="326.154365" xlink:href="#m55f36fa046" y="150.206539"/>
     <use style="fill:#1f77b4;stroke:#1f77b4;" x="330.669112" xlink:href="#m55f36fa046" y="149.262305"/>
     <use style="fill:#1f77b4;stroke:#1f77b4;" x="335.183859" xlink:href="#m55f36fa046" y="148.318071"/>
     <use style="fill:#1f77b4;stroke:#1f77b4;" x="339.698606" xlink:href="#m55f36fa046" y="147.373837"/>
     <use style="fill:#1f77b4;stroke:#1f77b4;" x="344.213352" xlink:href="#m55f36fa046" y="146.429603"/>
     <use style="fill:#1f77b4;stroke:#1f77b4;" x="348.728099" xlink:href="#m55f36fa046" y="145.485369"/>
     <use style="fill:#1f77b4;stroke:#1f77b4;" x="353.242846" xlink:href="#m55f36fa046" y="144.541135"/>
     <use style="fill:#1f77b4;stroke:#1f77b4;" x="357.757593" xlink:href="#m55f36fa046" y="143.596901"/>
     <use style="fill:#1f77b4;stroke:#1f77b4;" x="362.27234" xlink:href="#m55f36fa046" y="142.652667"/>
     <use style="fill:#1f77b4;stroke:#1f77b4;" x="366.787087" xlink:href="#m55f36fa046" y="141.708433"/>
     <use style="fill:#1f77b4;stroke:#1f77b4;" x="371.301834" xlink:href="#m55f36fa046" y="140.764199"/>
     <use style="fill:#1f77b4;stroke:#1f77b4;" x="375.816581" xlink:href="#m55f36fa046" y="139.819965"/>
     <use style="fill:#1f77b4;stroke:#1f77b4;" x="380.331328" xlink:href="#m55f36fa046" y="138.875731"/>
     <use style="fill:#1f77b4;stroke:#1f77b4;" x="384.846075" xlink:href="#m55f36fa046" y="137.931497"/>
     <use style="fill:#1f77b4;stroke:#1f77b4;" x="389.360821" xlink:href="#m55f36fa046" y="136.987263"/>
     <use style="fill:#1f77b4;stroke:#1f77b4;" x="393.875568" xlink:href="#m55f36fa046" y="136.043029"/>
     <use style="fill:#1f77b4;stroke:#1f77b4;" x="398.390315" xlink:href="#m55f36fa046" y="135.098795"/>
     <use style="fill:#1f77b4;stroke:#1f77b4;" x="402.905062" xlink:href="#m55f36fa046" y="134.154561"/>
     <use style="fill:#1f77b4;stroke:#1f77b4;" x="407.419809" xlink:href="#m55f36fa046" y="133.210327"/>
     <use style="fill:#1f77b4;stroke:#1f77b4;" x="411.934556" xlink:href="#m55f36fa046" y="132.266093"/>
     <use style="fill:#1f77b4;stroke:#1f77b4;" x="416.449303" xlink:href="#m55f36fa046" y="131.321859"/>
     <use style="fill:#1f77b4;stroke:#1f77b4;" x="420.96405" xlink:href="#m55f36fa046" y="130.377625"/>
     <use style="fill:#1f77b4;stroke:#1f77b4;" x="425.478797" xlink:href="#m55f36fa046" y="129.433391"/>
     <use style="fill:#1f77b4;stroke:#1f77b4;" x="429.993543" xlink:href="#m55f36fa046" y="128.489157"/>
     <use style="fill:#1f77b4;stroke:#1f77b4;" x="434.50829" xlink:href="#m55f36fa046" y="127.544923"/>
     <use style="fill:#1f77b4;stroke:#1f77b4;" x="439.023037" xlink:href="#m55f36fa046" y="126.600689"/>
     <use style="fill:#1f77b4;stroke:#1f77b4;" x="443.537784" xlink:href="#m55f36fa046" y="125.656455"/>
     <use style="fill:#1f77b4;stroke:#1f77b4;" x="448.052531" xlink:href="#m55f36fa046" y="124.712222"/>
     <use style="fill:#1f77b4;stroke:#1f77b4;" x="452.567278" xlink:href="#m55f36fa046" y="123.767988"/>
     <use style="fill:#1f77b4;stroke:#1f77b4;" x="457.082025" xlink:href="#m55f36fa046" y="122.823754"/>
     <use style="fill:#1f77b4;stroke:#1f77b4;" x="461.596772" xlink:href="#m55f36fa046" y="121.87952"/>
     <use style="fill:#1f77b4;stroke:#1f77b4;" x="466.111519" xlink:href="#m55f36fa046" y="120.935286"/>
     <use style="fill:#1f77b4;stroke:#1f77b4;" x="470.626266" xlink:href="#m55f36fa046" y="119.991052"/>
     <use style="fill:#1f77b4;stroke:#1f77b4;" x="475.141012" xlink:href="#m55f36fa046" y="119.046818"/>
     <use style="fill:#1f77b4;stroke:#1f77b4;" x="479.655759" xlink:href="#m55f36fa046" y="118.102584"/>
     <use style="fill:#1f77b4;stroke:#1f77b4;" x="484.170506" xlink:href="#m55f36fa046" y="117.15835"/>
     <use style="fill:#1f77b4;stroke:#1f77b4;" x="488.685253" xlink:href="#m55f36fa046" y="116.214116"/>
     <use style="fill:#1f77b4;stroke:#1f77b4;" x="493.2" xlink:href="#m55f36fa046" y="115.269882"/>
    </g>
   </g>
   <g id="line2d_28">
    <path clip-path="url(#p6818747435)" d="M 41.725311 135.156216 
L 46.240057 134.524356 
L 50.754804 133.892496 
L 55.269551 133.260636 
L 59.784298 132.628775 
L 64.299045 131.996915 
L 68.813792 131.365055 
L 73.328539 130.733195 
L 77.843286 130.101335 
L 82.358033 129.469475 
L 86.87278 128.837614 
L 91.387526 128.205754 
L 95.902273 127.573894 
L 100.41702 126.942034 
L 104.931767 126.310174 
L 109.446514 125.678314 
L 113.961261 125.046453 
L 118.476008 124.414593 
L 122.990755 123.782733 
L 127.505502 123.150873 
L 132.020248 122.519013 
L 136.534995 121.887153 
L 141.049742 121.255292 
L 145.564489 120.623432 
L 150.079236 119.991572 
L 154.593983 119.359712 
L 159.10873 118.727852 
L 163.623477 118.095992 
L 168.138224 117.464131 
L 172.652971 116.832271 
L 177.167717 116.200411 
L 181.682464 115.568551 
L 186.197211 114.936691 
L 190.711958 114.304831 
L 195.226705 113.672971 
L 199.741452 113.04111 
L 204.256199 112.40925 
L 208.770946 111.77739 
L 213.285693 111.14553 
L 217.800439 110.51367 
L 222.315186 109.88181 
L 226.829933 109.249949 
L 231.34468 108.618089 
L 235.859427 107.986229 
L 240.374174 107.354369 
L 244.888921 106.722509 
L 249.403668 106.090649 
L 253.918415 105.458788 
L 258.433162 104.826928 
L 262.947908 104.195068 
L 267.462655 103.563208 
L 271.977402 102.931348 
L 276.492149 102.299488 
L 281.006896 101.667628 
L 285.521643 101.035768 
L 290.03639 100.403908 
L 294.551137 99.77205 
L 299.065884 99.140193 
L 303.58063 98.508341 
L 308.095377 97.8765 
L 312.610124 97.244683 
L 317.124871 96.61292 
L 321.639618 95.981278 
L 326.154365 95.349906 
L 330.669112 94.719138 
L 335.183859 94.089711 
L 339.698606 93.46326 
L 344.213352 92.8434 
L 348.728099 92.2381 
L 353.242846 91.664893 
L 357.757593 91.162192 
L 362.27234 90.813601 
L 366.787087 90.798663 
L 371.301834 91.492244 
L 375.816581 93.629649 
L 380.331328 98.455533 
L 384.846075 107.364296 
L 389.360821 120.002748 
L 393.875568 132.357981 
L 398.390315 140.482644 
L 402.905062 144.362982 
L 407.419809 145.743452 
L 411.934556 145.953246 
L 416.449303 145.664709 
L 420.96405 145.171743 
L 425.478797 144.595986 
L 429.993543 143.986806 
L 434.50829 143.364129 
L 439.023037 142.735993 
L 443.537784 142.105645 
L 448.052531 141.474398 
L 452.567278 140.842788 
L 457.082025 140.211029 
L 461.596772 139.579209 
L 466.111519 138.947366 
L 470.626266 138.315512 
L 475.141012 137.683655 
L 479.655759 137.051796 
L 484.170506 136.419936 
L 488.685253 135.788076 
L 493.2 135.156216 
" style="fill:none;stroke:#ff7f0e;stroke-linecap:square;stroke-width:1.5;"/>
    <defs>
     <path d="M 0 1.5 
C 0.397805 1.5 0.77937 1.341951 1.06066 1.06066 
C 1.341951 0.77937 1.5 0.397805 1.5 0 
C 1.5 -0.397805 1.341951 -0.77937 1.06066 -1.06066 
C 0.77937 -1.341951 0.397805 -1.5 0 -1.5 
C -0.397805 -1.5 -0.77937 -1.341951 -1.06066 -1.06066 
C -1.341951 -0.77937 -1.5 -0.397805 -1.5 0 
C -1.5 0.397805 -1.341951 0.77937 -1.06066 1.06066 
C -0.77937 1.341951 -0.397805 1.5 0 1.5 
z
" id="m94a6dff671" style="stroke:#ff7f0e;"/>
    </defs>
    <g clip-path="url(#p6818747435)">
     <use style="fill:#ff7f0e;stroke:#ff7f0e;" x="41.725311" xlink:href="#m94a6dff671" y="135.156216"/>
     <use style="fill:#ff7f0e;stroke:#ff7f0e;" x="46.240057" xlink:href="#m94a6dff671" y="134.524356"/>
     <use style="fill:#ff7f0e;stroke:#ff7f0e;" x="50.754804" xlink:href="#m94a6dff671" y="133.892496"/>
     <use style="fill:#ff7f0e;stroke:#ff7f0e;" x="55.269551" xlink:href="#m94a6dff671" y="133.260636"/>
     <use style="fill:#ff7f0e;stroke:#ff7f0e;" x="59.784298" xlink:href="#m94a6dff671" y="132.628775"/>
     <use style="fill:#ff7f0e;stroke:#ff7f0e;" x="64.299045" xlink:href="#m94a6dff671" y="131.996915"/>
     <use style="fill:#ff7f0e;stroke:#ff7f0e;" x="68.813792" xlink:href="#m94a6dff671" y="131.365055"/>
     <use style="fill:#ff7f0e;stroke:#ff7f0e;" x="73.328539" xlink:href="#m94a6dff671" y="130.733195"/>
     <use style="fill:#ff7f0e;stroke:#ff7f0e;" x="77.843286" xlink:href="#m94a6dff671" y="130.101335"/>
     <use style="fill:#ff7f0e;stroke:#ff7f0e;" x="82.358033" xlink:href="#m94a6dff671" y="129.469475"/>
     <use style="fill:#ff7f0e;stroke:#ff7f0e;" x="86.87278" xlink:href="#m94a6dff671" y="128.837614"/>
     <use style="fill:#ff7f0e;stroke:#ff7f0e;" x="91.387526" xlink:href="#m94a6dff671" y="128.205754"/>
     <use style="fill:#ff7f0e;stroke:#ff7f0e;" x="95.902273" xlink:href="#m94a6dff671" y="127.573894"/>
     <use style="fill:#ff7f0e;stroke:#ff7f0e;" x="100.41702" xlink:href="#m94a6dff671" y="126.942034"/>
     <use style="fill:#ff7f0e;stroke:#ff7f0e;" x="104.931767" xlink:href="#m94a6dff671" y="126.310174"/>
     <use style="fill:#ff7f0e;stroke:#ff7f0e;" x="109.446514" xlink:href="#m94a6dff671" y="125.678314"/>
     <use style="fill:#ff7f0e;stroke:#ff7f0e;" x="113.961261" xlink:href="#m94a6dff671" y="125.046453"/>
     <use style="fill:#ff7f0e;stroke:#ff7f0e;" x="118.476008" xlink:href="#m94a6dff671" y="124.414593"/>
     <use style="fill:#ff7f0e;stroke:#ff7f0e;" x="122.990755" xlink:href="#m94a6dff671" y="123.782733"/>
     <use style="fill:#ff7f0e;stroke:#ff7f0e;" x="127.505502" xlink:href="#m94a6dff671" y="123.150873"/>
     <use style="fill:#ff7f0e;stroke:#ff7f0e;" x="132.020248" xlink:href="#m94a6dff671" y="122.519013"/>
     <use style="fill:#ff7f0e;stroke:#ff7f0e;" x="136.534995" xlink:href="#m94a6dff671" y="121.887153"/>
     <use style="fill:#ff7f0e;stroke:#ff7f0e;" x="141.049742" xlink:href="#m94a6dff671" y="121.255292"/>
     <use style="fill:#ff7f0e;stroke:#ff7f0e;" x="145.564489" xlink:href="#m94a6dff671" y="120.623432"/>
     <use style="fill:#ff7f0e;stroke:#ff7f0e;" x="150.079236" xlink:href="#m94a6dff671" y="119.991572"/>
     <use style="fill:#ff7f0e;stroke:#ff7f0e;" x="154.593983" xlink:href="#m94a6dff671" y="119.359712"/>
     <use style="fill:#ff7f0e;stroke:#ff7f0e;" x="159.10873" xlink:href="#m94a6dff671" y="118.727852"/>
     <use style="fill:#ff7f0e;stroke:#ff7f0e;" x="163.623477" xlink:href="#m94a6dff671" y="118.095992"/>
     <use style="fill:#ff7f0e;stroke:#ff7f0e;" x="168.138224" xlink:href="#m94a6dff671" y="117.464131"/>
     <use style="fill:#ff7f0e;stroke:#ff7f0e;" x="172.652971" xlink:href="#m94a6dff671" y="116.832271"/>
     <use style="fill:#ff7f0e;stroke:#ff7f0e;" x="177.167717" xlink:href="#m94a6dff671" y="116.200411"/>
     <use style="fill:#ff7f0e;stroke:#ff7f0e;" x="181.682464" xlink:href="#m94a6dff671" y="115.568551"/>
     <use style="fill:#ff7f0e;stroke:#ff7f0e;" x="186.197211" xlink:href="#m94a6dff671" y="114.936691"/>
     <use style="fill:#ff7f0e;stroke:#ff7f0e;" x="190.711958" xlink:href="#m94a6dff671" y="114.304831"/>
     <use style="fill:#ff7f0e;stroke:#ff7f0e;" x="195.226705" xlink:href="#m94a6dff671" y="113.672971"/>
     <use style="fill:#ff7f0e;stroke:#ff7f0e;" x="199.741452" xlink:href="#m94a6dff671" y="113.04111"/>
     <use style="fill:#ff7f0e;stroke:#ff7f0e;" x="204.256199" xlink:href="#m94a6dff671" y="112.40925"/>
     <use style="fill:#ff7f0e;stroke:#ff7f0e;" x="208.770946" xlink:href="#m94a6dff671" y="111.77739"/>
     <use style="fill:#ff7f0e;stroke:#ff7f0e;" x="213.285693" xlink:href="#m94a6dff671" y="111.14553"/>
     <use style="fill:#ff7f0e;stroke:#ff7f0e;" x="217.800439" xlink:href="#m94a6dff671" y="110.51367"/>
     <use style="fill:#ff7f0e;stroke:#ff7f0e;" x="222.315186" xlink:href="#m94a6dff671" y="109.88181"/>
     <use style="fill:#ff7f0e;stroke:#ff7f0e;" x="226.829933" xlink:href="#m94a6dff671" y="109.249949"/>
     <use style="fill:#ff7f0e;stroke:#ff7f0e;" x="231.34468" xlink:href="#m94a6dff671" y="108.618089"/>
     <use style="fill:#ff7f0e;stroke:#ff7f0e;" x="235.859427" xlink:href="#m94a6dff671" y="107.986229"/>
     <use style="fill:#ff7f0e;stroke:#ff7f0e;" x="240.374174" xlink:href="#m94a6dff671" y="107.354369"/>
     <use style="fill:#ff7f0e;stroke:#ff7f0e;" x="244.888921" xlink:href="#m94a6dff671" y="106.722509"/>
     <use style="fill:#ff7f0e;stroke:#ff7f0e;" x="249.403668" xlink:href="#m94a6dff671" y="106.090649"/>
     <use style="fill:#ff7f0e;stroke:#ff7f0e;" x="253.918415" xlink:href="#m94a6dff671" y="105.458788"/>
     <use style="fill:#ff7f0e;stroke:#ff7f0e;" x="258.433162" xlink:href="#m94a6dff671" y="104.826928"/>
     <use style="fill:#ff7f0e;stroke:#ff7f0e;" x="262.947908" xlink:href="#m94a6dff671" y="104.195068"/>
     <use style="fill:#ff7f0e;stroke:#ff7f0e;" x="267.462655" xlink:href="#m94a6dff671" y="103.563208"/>
     <use style="fill:#ff7f0e;stroke:#ff7f0e;" x="271.977402" xlink:href="#m94a6dff671" y="102.931348"/>
     <use style="fill:#ff7f0e;stroke:#ff7f0e;" x="276.492149" xlink:href="#m94a6dff671" y="102.299488"/>
     <use style="fill:#ff7f0e;stroke:#ff7f0e;" x="281.006896" xlink:href="#m94a6dff671" y="101.667628"/>
     <use style="fill:#ff7f0e;stroke:#ff7f0e;" x="285.521643" xlink:href="#m94a6dff671" y="101.035768"/>
     <use style="fill:#ff7f0e;stroke:#ff7f0e;" x="290.03639" xlink:href="#m94a6dff671" y="100.403908"/>
     <use style="fill:#ff7f0e;stroke:#ff7f0e;" x="294.551137" xlink:href="#m94a6dff671" y="99.77205"/>
     <use style="fill:#ff7f0e;stroke:#ff7f0e;" x="299.065884" xlink:href="#m94a6dff671" y="99.140193"/>
     <use style="fill:#ff7f0e;stroke:#ff7f0e;" x="303.58063" xlink:href="#m94a6dff671" y="98.508341"/>
     <use style="fill:#ff7f0e;stroke:#ff7f0e;" x="308.095377" xlink:href="#m94a6dff671" y="97.8765"/>
     <use style="fill:#ff7f0e;stroke:#ff7f0e;" x="312.610124" xlink:href="#m94a6dff671" y="97.244683"/>
     <use style="fill:#ff7f0e;stroke:#ff7f0e;" x="317.124871" xlink:href="#m94a6dff671" y="96.61292"/>
     <use style="fill:#ff7f0e;stroke:#ff7f0e;" x="321.639618" xlink:href="#m94a6dff671" y="95.981278"/>
     <use style="fill:#ff7f0e;stroke:#ff7f0e;" x="326.154365" xlink:href="#m94a6dff671" y="95.349906"/>
     <use style="fill:#ff7f0e;stroke:#ff7f0e;" x="330.669112" xlink:href="#m94a6dff671" y="94.719138"/>
     <use style="fill:#ff7f0e;stroke:#ff7f0e;" x="335.183859" xlink:href="#m94a6dff671" y="94.089711"/>
     <use style="fill:#ff7f0e;stroke:#ff7f0e;" x="339.698606" xlink:href="#m94a6dff671" y="93.46326"/>
     <use style="fill:#ff7f0e;stroke:#ff7f0e;" x="344.213352" xlink:href="#m94a6dff671" y="92.8434"/>
     <use style="fill:#ff7f0e;stroke:#ff7f0e;" x="348.728099" xlink:href="#m94a6dff671" y="92.2381"/>
     <use style="fill:#ff7f0e;stroke:#ff7f0e;" x="353.242846" xlink:href="#m94a6dff671" y="91.664893"/>
     <use style="fill:#ff7f0e;stroke:#ff7f0e;" x="357.757593" xlink:href="#m94a6dff671" y="91.162192"/>
     <use style="fill:#ff7f0e;stroke:#ff7f0e;" x="362.27234" xlink:href="#m94a6dff671" y="90.813601"/>
     <use style="fill:#ff7f0e;stroke:#ff7f0e;" x="366.787087" xlink:href="#m94a6dff671" y="90.798663"/>
     <use style="fill:#ff7f0e;stroke:#ff7f0e;" x="371.301834" xlink:href="#m94a6dff671" y="91.492244"/>
     <use style="fill:#ff7f0e;stroke:#ff7f0e;" x="375.816581" xlink:href="#m94a6dff671" y="93.629649"/>
     <use style="fill:#ff7f0e;stroke:#ff7f0e;" x="380.331328" xlink:href="#m94a6dff671" y="98.455533"/>
     <use style="fill:#ff7f0e;stroke:#ff7f0e;" x="384.846075" xlink:href="#m94a6dff671" y="107.364296"/>
     <use style="fill:#ff7f0e;stroke:#ff7f0e;" x="389.360821" xlink:href="#m94a6dff671" y="120.002748"/>
     <use style="fill:#ff7f0e;stroke:#ff7f0e;" x="393.875568" xlink:href="#m94a6dff671" y="132.357981"/>
     <use style="fill:#ff7f0e;stroke:#ff7f0e;" x="398.390315" xlink:href="#m94a6dff671" y="140.482644"/>
     <use style="fill:#ff7f0e;stroke:#ff7f0e;" x="402.905062" xlink:href="#m94a6dff671" y="144.362982"/>
     <use style="fill:#ff7f0e;stroke:#ff7f0e;" x="407.419809" xlink:href="#m94a6dff671" y="145.743452"/>
     <use style="fill:#ff7f0e;stroke:#ff7f0e;" x="411.934556" xlink:href="#m94a6dff671" y="145.953246"/>
     <use style="fill:#ff7f0e;stroke:#ff7f0e;" x="416.449303" xlink:href="#m94a6dff671" y="145.664709"/>
     <use style="fill:#ff7f0e;stroke:#ff7f0e;" x="420.96405" xlink:href="#m94a6dff671" y="145.171743"/>
     <use style="fill:#ff7f0e;stroke:#ff7f0e;" x="425.478797" xlink:href="#m94a6dff671" y="144.595986"/>
     <use style="fill:#ff7f0e;stroke:#ff7f0e;" x="429.993543" xlink:href="#m94a6dff671" y="143.986806"/>
     <use style="fill:#ff7f0e;stroke:#ff7f0e;" x="434.50829" xlink:href="#m94a6dff671" y="143.364129"/>
     <use style="fill:#ff7f0e;stroke:#ff7f0e;" x="439.023037" xlink:href="#m94a6dff671" y="142.735993"/>
     <use style="fill:#ff7f0e;stroke:#ff7f0e;" x="443.537784" xlink:href="#m94a6dff671" y="142.105645"/>
     <use style="fill:#ff7f0e;stroke:#ff7f0e;" x="448.052531" xlink:href="#m94a6dff671" y="141.474398"/>
     <use style="fill:#ff7f0e;stroke:#ff7f0e;" x="452.567278" xlink:href="#m94a6dff671" y="140.842788"/>
     <use style="fill:#ff7f0e;stroke:#ff7f0e;" x="457.082025" xlink:href="#m94a6dff671" y="140.211029"/>
     <use style="fill:#ff7f0e;stroke:#ff7f0e;" x="461.596772" xlink:href="#m94a6dff671" y="139.579209"/>
     <use style="fill:#ff7f0e;stroke:#ff7f0e;" x="466.111519" xlink:href="#m94a6dff671" y="138.947366"/>
     <use style="fill:#ff7f0e;stroke:#ff7f0e;" x="470.626266" xlink:href="#m94a6dff671" y="138.315512"/>
     <use style="fill:#ff7f0e;stroke:#ff7f0e;" x="475.141012" xlink:href="#m94a6dff671" y="137.683655"/>
     <use style="fill:#ff7f0e;stroke:#ff7f0e;" x="479.655759" xlink:href="#m94a6dff671" y="137.051796"/>
     <use style="fill:#ff7f0e;stroke:#ff7f0e;" x="484.170506" xlink:href="#m94a6dff671" y="136.419936"/>
     <use style="fill:#ff7f0e;stroke:#ff7f0e;" x="488.685253" xlink:href="#m94a6dff671" y="135.788076"/>
     <use style="fill:#ff7f0e;stroke:#ff7f0e;" x="493.2" xlink:href="#m94a6dff671" y="135.156216"/>
    </g>
   </g>
   <g id="line2d_29">
    <path clip-path="url(#p6818747435)" d="M 41.725311 135.226838 
L 46.240057 134.596087 
L 50.754804 133.965336 
L 55.269551 133.334586 
L 59.784298 132.703835 
L 64.299045 132.073084 
L 68.813792 131.442333 
L 73.328539 130.811582 
L 77.843286 130.180831 
L 82.358033 129.550081 
L 86.87278 128.91933 
L 91.387526 128.288579 
L 95.902273 127.657828 
L 100.41702 127.027077 
L 104.931767 126.396327 
L 109.446514 125.765576 
L 113.961261 125.134825 
L 118.476008 124.504074 
L 122.990755 123.873323 
L 127.505502 123.242572 
L 132.020248 122.611822 
L 136.534995 121.981071 
L 141.049742 121.35032 
L 145.564489 120.719569 
L 150.079236 120.088818 
L 154.593983 119.458067 
L 159.10873 118.827317 
L 163.623477 118.196566 
L 168.138224 117.565815 
L 172.652971 116.935064 
L 177.167717 116.304313 
L 181.682464 115.673562 
L 186.197211 115.042812 
L 190.711958 114.412061 
L 195.226705 113.78131 
L 199.741452 113.150559 
L 204.256199 112.519808 
L 208.770946 111.889057 
L 213.285693 111.258307 
L 217.800439 110.627556 
L 222.315186 109.996805 
L 226.829933 109.366054 
L 231.34468 108.735303 
L 235.859427 108.104552 
L 240.374174 107.473802 
L 244.888921 106.843051 
L 249.403668 106.2123 
L 253.918415 105.581549 
L 258.433162 104.950798 
L 262.947908 104.320047 
L 267.462655 103.689297 
L 271.977402 103.058546 
L 276.492149 102.427795 
L 281.006896 101.797044 
L 285.521643 101.166293 
L 290.03639 100.535542 
L 294.551137 99.904792 
L 299.065884 99.274041 
L 303.58063 98.64329 
L 308.095377 98.012539 
L 312.610124 97.381788 
L 317.124871 96.751037 
L 321.639618 96.120287 
L 326.154365 95.489536 
L 330.669112 94.858785 
L 335.183859 94.228034 
L 339.698606 93.597283 
L 344.213352 92.966532 
L 348.728099 92.335782 
L 353.242846 91.705031 
L 357.757593 91.07428 
L 362.27234 90.443529 
L 366.787087 89.812779 
L 371.301834 89.182033 
L 375.816581 88.551312 
L 380.331328 87.920759 
L 384.846075 87.291309 
L 389.360821 86.669115 
L 393.875568 86.094587 
L 398.390315 85.831171 
L 402.905062 87.513859 
L 407.419809 98.674013 
L 411.934556 125.344298 
L 416.449303 141.431135 
L 420.96405 144.587492 
L 425.478797 144.57581 
L 429.993543 144.040253 
L 434.50829 143.423999 
L 439.023037 142.795453 
L 443.537784 142.165037 
L 448.052531 141.534337 
L 452.567278 140.903594 
L 457.082025 140.272845 
L 461.596772 139.642094 
L 466.111519 139.011343 
L 470.626266 138.380592 
L 475.141012 137.749841 
L 479.655759 137.119091 
L 484.170506 136.48834 
L 488.685253 135.857589 
L 493.2 135.226838 
" style="fill:none;stroke:#2ca02c;stroke-linecap:square;stroke-width:1.5;"/>
   </g>
   <g id="patch_3">
    <path d="M 41.725311 175.381683 
L 41.725311 25.10218 
" style="fill:none;stroke:#000000;stroke-linecap:square;stroke-linejoin:miter;stroke-width:0.8;"/>
   </g>
   <g id="patch_4">
    <path d="M 493.2 175.381683 
L 493.2 25.10218 
" style="fill:none;stroke:#000000;stroke-linecap:square;stroke-linejoin:miter;stroke-width:0.8;"/>
   </g>
   <g id="patch_5">
    <path d="M 41.725311 175.381683 
L 493.2 175.381683 
" style="fill:none;stroke:#000000;stroke-linecap:square;stroke-linejoin:miter;stroke-width:0.8;"/>
   </g>
   <g id="patch_6">
    <path d="M 41.725311 25.10218 
L 493.2 25.10218 
" style="fill:none;stroke:#000000;stroke-linecap:square;stroke-linejoin:miter;stroke-width:0.8;"/>
   </g>
   <g id="text_16">
    <!-- Student -->
    <defs>
     <path d="M 43.796875 67.03125 
C 43.796875 68.8125 43.703125 68.921875 43.09375 68.921875 
C 42.5 68.921875 42.296875 68.515625 41.90625 67.625 
L 38.90625 61.046875 
C 35.09375 66.515625 29.296875 69 23 69 
C 12.796875 69 4.59375 60.953125 4.59375 50.828125 
C 4.59375 47.75 5.296875 43.375 8.703125 39.21875 
C 12.40625 34.65625 15.90625 33.859375 23.90625 31.765625 
C 26.90625 30.96875 31.90625 29.671875 32.90625 29.28125 
C 38.59375 26.90625 41.59375 20.953125 41.59375 15.390625 
C 41.59375 8.234375 36.5 0.59375 27.796875 0.59375 
C 17.09375 0.59375 7.09375 6.546875 6.40625 20.484375 
C 6.296875 22.078125 6.203125 22.171875 5.5 22.171875 
C 4.703125 22.171875 4.59375 22.078125 4.59375 20.078125 
L 4.59375 -0.015625 
C 4.59375 -1.796875 4.703125 -1.90625 5.296875 -1.90625 
C 6 -1.90625 6.203125 -1.40625 7.59375 1.6875 
C 7.703125 1.984375 7.703125 2.1875 9.59375 5.953125 
C 14.59375 -0.609375 23 -2 27.796875 -2 
C 38.703125 -2 46.40625 7.046875 46.40625 17.5625 
C 46.40625 22.71875 44.5 26.6875 43.40625 28.484375 
C 39.203125 34.84375 34.703125 36.03125 29.90625 37.21875 
C 29.203125 37.53125 29 37.53125 23.40625 38.90625 
C 18 40.296875 15.703125 41 13.203125 43.6875 
C 10.40625 46.75 9.40625 49.9375 9.40625 53.109375 
C 9.40625 59.5625 14.59375 66.609375 23.09375 66.609375 
C 33.703125 66.609375 40.296875 59.15625 41.796875 46.765625 
C 42.09375 44.96875 42.203125 44.875 42.90625 44.875 
C 43.796875 44.875 43.796875 45.171875 43.796875 46.859375 
z
" id="CMR17-83"/>
     <path d="M 29.40625 42.078125 
L 29.40625 39.5 
C 35.296875 39.5 36.203125 38.890625 36.203125 34.15625 
L 36.203125 16.125 
C 36.203125 7.8125 31.703125 0.59375 24.296875 0.59375 
C 16.09375 0.59375 15.40625 5.4375 15.40625 10.59375 
L 15.40625 43.171875 
L 3.296875 42.078125 
L 3.296875 39.5 
C 7.296875 39.5 10 39.5 10.09375 35.53125 
L 10.09375 16.53125 
C 10.09375 9.890625 10.09375 5.640625 12.703125 2.859375 
C 14 1.578125 16.5 -1 23.703125 -1 
C 32.203125 -1 35.5 5.890625 36.296875 7.90625 
L 36.40625 7.90625 
L 36.40625 -0.984375 
L 48.296875 -0.984375 
L 48.296875 2 
C 42.40625 2 41.5 2.59375 41.5 7.390625 
L 41.5 43.171875 
z
" id="CMR17-117"/>
     <path d="M 29.203125 67.59375 
L 29.203125 65 
C 35.09375 65 36 64.40625 36 59.6875 
L 36 36.640625 
C 35.59375 37.140625 31.5 43.59375 23.40625 43.59375 
C 13.203125 43.59375 3.296875 34.5 3.296875 21.3125 
C 3.296875 8.203125 12.59375 -1 22.40625 -1 
C 30.90625 -1 35.296875 5.265625 35.796875 5.9375 
L 35.796875 -0.984375 
L 47.90625 -0.984375 
L 47.90625 2 
C 42 2 41.09375 2.59375 41.09375 7.390625 
L 41.09375 68.6875 
z
M 35.796875 11.796875 
C 35.796875 8.796875 34 6.09375 31.703125 4.09375 
C 28.296875 1.09375 24.90625 0.59375 23 0.59375 
C 20.09375 0.59375 9.703125 2.09375 9.703125 21.1875 
C 9.703125 40.8125 21.296875 42 23.90625 42 
C 28.5 42 32.203125 39.40625 34.5 35.796875 
C 35.796875 33.703125 35.796875 33.40625 35.796875 31.609375 
z
" id="CMR17-100"/>
    </defs>
    <g transform="translate(247.464939 19.10218)scale(0.12 -0.12)">
     <use transform="scale(0.996264)" xlink:href="#CMR17-83"/>
     <use transform="translate(50.89537 0)scale(0.996264)" xlink:href="#CMR17-116"/>
     <use transform="translate(86.176138 0)scale(0.996264)" xlink:href="#CMR17-117"/>
     <use transform="translate(137.071507 0)scale(0.996264)" xlink:href="#CMR17-100"/>
     <use transform="translate(187.966877 0)scale(0.996264)" xlink:href="#CMR17-101"/>
     <use transform="translate(228.452538 0)scale(0.996264)" xlink:href="#CMR17-110"/>
     <use transform="translate(276.745453 0)scale(0.996264)" xlink:href="#CMR17-116"/>
    </g>
   </g>
   <g id="legend_1">
    <g id="patch_7">
     <path d="M 357.700545 74.913715 
L 486.2 74.913715 
Q 488.2 74.913715 488.2 72.913715 
L 488.2 32.10218 
Q 488.2 30.10218 486.2 30.10218 
L 357.700545 30.10218 
Q 355.700545 30.10218 355.700545 32.10218 
L 355.700545 72.913715 
Q 355.700545 74.913715 357.700545 74.913715 
z
" style="fill:#ffffff;opacity:0.8;stroke:#cccccc;stroke-linejoin:miter;"/>
    </g>
    <g id="line2d_30">
     <path d="M 359.700545 37.60218 
L 379.700545 37.60218 
" style="fill:none;stroke:#1f77b4;stroke-linecap:square;stroke-width:1.5;"/>
    </g>
    <g id="line2d_31">
     <g>
      <use style="fill:#1f77b4;stroke:#1f77b4;" x="369.700545" xlink:href="#m55f36fa046" y="37.60218"/>
     </g>
    </g>
    <g id="text_17">
     <!-- Initial -->
     <defs>
      <path d="M 19.703125 61.015625 
C 19.703125 65.5 20.90625 65.5 28.09375 65.5 
L 28.09375 68 
C 24.90625 68 19.796875 68 16.40625 68 
C 13 68 7.90625 68 4.703125 68 
L 4.703125 65.5 
C 11.90625 65.5 13.09375 65.5 13.09375 61.015625 
L 13.09375 6.984375 
C 13.09375 2.5 11.90625 2.5 4.703125 2.5 
L 4.703125 0 
C 7.90625 0 13 0 16.40625 0 
C 19.796875 0 24.90625 0 28.09375 0 
L 28.09375 2.5 
C 20.90625 2.5 19.703125 2.5 19.703125 6.984375 
z
" id="CMR17-73"/>
      <path d="M 36 25.828125 
C 36 32.375 36 35.84375 31.796875 39.734375 
C 28.09375 43 23.796875 44 20.40625 44 
C 12.5 44 6.796875 37.609375 6.796875 30.796875 
C 6.796875 27 9.796875 27 10.40625 27 
C 11.703125 27 14 27.78125 14 30.53125 
C 14 33 12.09375 34.078125 10.40625 34.078125 
C 10 34.078125 9.5 33.96875 9.203125 33.875 
C 11.296875 40.5 16.703125 42.40625 20.203125 42.40625 
C 25.203125 42.40625 30.703125 37.953125 30.703125 29.453125 
L 30.703125 25 
C 24.796875 25 17.703125 24.203125 12.09375 21.203125 
C 5.796875 17.703125 4 12.703125 4 8.90625 
C 4 1.203125 13 -1 18.296875 -1 
C 23.796875 -1 28.90625 2.171875 31.09375 7.984375 
C 31.296875 3.640625 34.09375 -0.28125 38.5 -0.28125 
C 40.59375 -0.28125 45.90625 1.09375 45.90625 8.859375 
L 45.90625 14.375 
L 44.09375 14.375 
L 44.09375 8.78125 
C 44.09375 2.78125 41.40625 2 40.09375 2 
C 36 2 36 7.15625 36 11.53125 
z
M 30.703125 13.59375 
C 30.703125 4.953125 24.5 0.59375 19 0.59375 
C 14 0.59375 10.09375 4.296875 10.09375 8.90625 
C 10.09375 11.890625 11.40625 17.1875 17.203125 20.390625 
C 22 23.09375 27.5 23.5 30.703125 23.5 
z
" id="CMR17-97"/>
     </defs>
     <g transform="translate(387.700545 41.10218)scale(0.1 -0.1)">
      <use transform="scale(0.996264)" xlink:href="#CMR17-73"/>
      <use transform="translate(32.638409 0)scale(0.996264)" xlink:href="#CMR17-110"/>
      <use transform="translate(83.533779 0)scale(0.996264)" xlink:href="#CMR17-105"/>
      <use transform="translate(108.404837 0)scale(0.996264)" xlink:href="#CMR17-116"/>
      <use transform="translate(143.685605 0)scale(0.996264)" xlink:href="#CMR17-105"/>
      <use transform="translate(168.556664 0)scale(0.996264)" xlink:href="#CMR17-97"/>
      <use transform="translate(214.247141 0)scale(0.996264)" xlink:href="#CMR17-108"/>
     </g>
    </g>
    <g id="line2d_32">
     <path d="M 359.700545 51.539358 
L 379.700545 51.539358 
" style="fill:none;stroke:#ff7f0e;stroke-linecap:square;stroke-width:1.5;"/>
    </g>
    <g id="line2d_33">
     <g>
      <use style="fill:#ff7f0e;stroke:#ff7f0e;" x="369.700545" xlink:href="#m94a6dff671" y="51.539358"/>
     </g>
    </g>
    <g id="text_18">
     <!-- Computational Result -->
     <defs>
      <path d="M 62.09375 67.015625 
C 62.09375 68.796875 62 68.90625 61.40625 68.90625 
C 61 68.90625 60.90625 68.796875 60.203125 67.609375 
L 55.796875 59.25 
C 50.90625 65.421875 44.90625 69 37.203125 69 
C 20.09375 69 4.59375 54 4.59375 33.5625 
C 4.59375 12.90625 20.09375 -2 37.296875 -2 
C 52.59375 -2 62.09375 11.40625 62.09375 22.828125 
C 62.09375 23.8125 62.09375 24.21875 61.203125 24.21875 
C 60.40625 24.21875 60.40625 23.921875 60.296875 23.03125 
C 59.5 9.140625 49.5 0.59375 38.703125 0.59375 
C 28.5 0.59375 12.203125 7.734375 12.203125 33.546875 
C 12.203125 59.453125 28.796875 66.40625 38.5 66.40625 
C 49.796875 66.40625 58 56.6875 59.90625 42.890625 
C 60.09375 41.6875 60.09375 41.484375 61 41.484375 
C 62.09375 41.484375 62.09375 41.6875 62.09375 43.484375 
z
" id="CMR17-67"/>
      <path d="M 22 -16.609375 
C 15.59375 -16.609375 15.203125 -16.203125 15.203125 -12.328125 
L 15.203125 6.28125 
C 18.09375 2.09375 22.296875 -0.59375 27.59375 -0.59375 
C 37.59375 -0.59375 47.703125 8.171875 47.703125 21.6875 
C 47.703125 34.234375 39 43.78125 28.703125 43.78125 
C 22.703125 43.78125 17.796875 40.5 15 36.53125 
L 15 43.78125 
L 3.09375 42.6875 
L 3.09375 40.109375 
C 9 40.109375 9.90625 39.5 9.90625 34.734375 
L 9.90625 -12.328125 
C 9.90625 -16.109375 9.5 -16.609375 3.09375 -16.609375 
L 3.09375 -19.1875 
C 5.5 -19 9.90625 -19 12.5 -19 
C 15.09375 -19 19.59375 -19 22 -19.1875 
z
M 15.203125 31.4375 
C 15.203125 32.84375 15.203125 34.921875 19.09375 38.609375 
C 19.59375 39.015625 23 42 28 42 
C 35.296875 42 41.296875 32.9375 41.296875 21.59375 
C 41.296875 10.25 34.90625 1 27 1 
C 23.40625 1 19.5 2.6875 16.5 7.375 
C 15.203125 9.5625 15.203125 10.15625 15.203125 11.75 
z
" id="CMR17-112"/>
      <path d="M 39.203125 33.53125 
C 48.703125 35.4375 56.703125 41.8125 56.703125 49.78125 
C 56.703125 59.140625 46.09375 67.59375 32.09375 67.59375 
L 5.203125 67.59375 
L 5.203125 65 
C 12.09375 65 13.203125 65 13.203125 60.515625 
L 13.203125 6.484375 
C 13.203125 2 12.09375 2 5.203125 2 
L 5.203125 -0.40625 
C 8.09375 -0.40625 13.296875 -0.40625 16.40625 -0.40625 
C 19.5 -0.40625 24.703125 -0.40625 27.59375 -0.40625 
L 27.59375 2 
C 20.703125 2 19.59375 2 19.59375 6.515625 
L 19.59375 33 
L 31.296875 33 
C 37 33 40.203125 30.6875 41.59375 29.390625 
C 45.59375 25.5 45.59375 22.796875 45.59375 16 
C 45.59375 9.296875 45.59375 5.890625 48.59375 2.5 
C 52.40625 -1.59375 57.5 -2 59.703125 -2 
C 67.09375 -2 68.203125 6.1875 68.203125 7.859375 
C 68.203125 8.4375 68.203125 9.140625 67.296875 9.140625 
C 66.5 9.140625 66.40625 8.546875 66.40625 8.15625 
C 65.90625 1.75 63 -0.40625 59.90625 -0.40625 
C 54.40625 -0.40625 53.796875 5.859375 53.203125 11.9375 
C 52.90625 14.03125 52.703125 15.515625 52.5 17.703125 
C 51.90625 22.6875 51.09375 29.953125 39.203125 33.53125 
z
M 31 34.59375 
L 19.59375 34.59375 
L 19.59375 61.140625 
C 19.59375 64.515625 19.796875 65 23.796875 65 
L 31.09375 65 
C 39.40625 65 49.09375 62.140625 49.09375 49.84375 
C 49.09375 37.0625 38.5 34.59375 31 34.59375 
z
" id="CMR17-82"/>
     </defs>
     <g transform="translate(387.700545 55.039358)scale(0.1 -0.1)">
      <use transform="scale(0.996264)" xlink:href="#CMR17-67"/>
      <use transform="translate(66.509881 0)scale(0.996264)" xlink:href="#CMR17-111"/>
      <use transform="translate(112.200358 0)scale(0.996264)" xlink:href="#CMR17-109"/>
      <use transform="translate(189.119948 0)scale(0.996264)" xlink:href="#CMR17-112"/>
      <use transform="translate(240.015317 0)scale(0.996264)" xlink:href="#CMR17-117"/>
      <use transform="translate(290.910687 0)scale(0.996264)" xlink:href="#CMR17-116"/>
      <use transform="translate(326.191455 0)scale(0.996264)" xlink:href="#CMR17-97"/>
      <use transform="translate(371.881932 0)scale(0.996264)" xlink:href="#CMR17-116"/>
      <use transform="translate(407.1627 0)scale(0.996264)" xlink:href="#CMR17-105"/>
      <use transform="translate(432.033758 0)scale(0.996264)" xlink:href="#CMR17-111"/>
      <use transform="translate(477.724235 0)scale(0.996264)" xlink:href="#CMR17-110"/>
      <use transform="translate(528.619605 0)scale(0.996264)" xlink:href="#CMR17-97"/>
      <use transform="translate(574.310082 0)scale(0.996264)" xlink:href="#CMR17-108"/>
      <use transform="translate(629.257107 0)scale(0.996264)" xlink:href="#CMR17-82"/>
      <use transform="translate(697.048209 0)scale(0.996264)" xlink:href="#CMR17-101"/>
      <use transform="translate(737.53387 0)scale(0.996264)" xlink:href="#CMR17-115"/>
      <use transform="translate(773.335207 0)scale(0.996264)" xlink:href="#CMR17-117"/>
      <use transform="translate(824.230577 0)scale(0.996264)" xlink:href="#CMR17-108"/>
      <use transform="translate(849.101635 0)scale(0.996264)" xlink:href="#CMR17-116"/>
     </g>
    </g>
    <g id="line2d_34">
     <path d="M 359.700545 65.476536 
L 379.700545 65.476536 
" style="fill:none;stroke:#2ca02c;stroke-linecap:square;stroke-width:1.5;"/>
    </g>
    <g id="line2d_35"/>
    <g id="text_19">
     <!-- Analytical Result -->
     <defs>
      <path d="M 36.296875 68.40625 
C 35.796875 69.703125 35.59375 70 34.59375 70 
C 33.59375 70 33.40625 69.703125 32.90625 68.40625 
L 11.703125 8.84375 
C 9.796875 3.484375 5.796875 2.390625 2.296875 2.390625 
L 2.296875 -0.203125 
C 4.09375 0 8.09375 0 10 0 
C 12.5 0 16.5 0 18.90625 -0.203125 
L 18.90625 2.390625 
C 14.203125 2.390625 13.5 5.640625 13.5 6.859375 
C 13.5 7.765625 13.703125 8.28125 13.90625 8.890625 
L 19.203125 24 
L 45.40625 24 
L 51.40625 6.90625 
C 51.90625 5.703125 51.90625 5.5 51.90625 5.109375 
C 51.90625 2.390625 47.59375 2.390625 45.703125 2.390625 
L 45.703125 0 
C 48.59375 0 53.796875 0 56.90625 0 
C 59.5 0 64.5 0 66.90625 -0.203125 
L 66.90625 2.390625 
C 61.59375 2.390625 59.796875 2.390625 58.5 6.046875 
z
M 32.296875 60.828125 
L 44.5 26.59375 
L 20.09375 26.59375 
z
" id="CMR17-65"/>
     </defs>
     <g transform="translate(387.700545 68.976536)scale(0.1 -0.1)">
      <use transform="scale(0.996264)" xlink:href="#CMR17-65"/>
      <use transform="translate(69.07243 0)scale(0.996264)" xlink:href="#CMR17-110"/>
      <use transform="translate(119.9678 0)scale(0.996264)" xlink:href="#CMR17-97"/>
      <use transform="translate(165.658277 0)scale(0.996264)" xlink:href="#CMR17-108"/>
      <use transform="translate(190.529335 0)scale(0.996264)" xlink:href="#CMR17-121"/>
      <use transform="translate(238.822251 0)scale(0.996264)" xlink:href="#CMR17-116"/>
      <use transform="translate(274.103019 0)scale(0.996264)" xlink:href="#CMR17-105"/>
      <use transform="translate(298.974077 0)scale(0.996264)" xlink:href="#CMR17-99"/>
      <use transform="translate(339.459738 0)scale(0.996264)" xlink:href="#CMR17-97"/>
      <use transform="translate(385.150215 0)scale(0.996264)" xlink:href="#CMR17-108"/>
      <use transform="translate(440.09724 0)scale(0.996264)" xlink:href="#CMR17-82"/>
      <use transform="translate(507.888342 0)scale(0.996264)" xlink:href="#CMR17-101"/>
      <use transform="translate(548.374002 0)scale(0.996264)" xlink:href="#CMR17-115"/>
      <use transform="translate(584.17534 0)scale(0.996264)" xlink:href="#CMR17-117"/>
      <use transform="translate(635.07071 0)scale(0.996264)" xlink:href="#CMR17-108"/>
      <use transform="translate(659.941768 0)scale(0.996264)" xlink:href="#CMR17-116"/>
     </g>
    </g>
   </g>
  </g>
 </g>
 <defs>
  <clipPath id="p6818747435">
   <rect height="100%" width="100%" x="41.725311" y="25.10218"/>
  </clipPath>
 </defs>
</svg>
