<?xml version="1.0" encoding="utf-8" standalone="no"?>
<!DOCTYPE svg PUBLIC "-//W3C//DTD SVG 1.1//EN"
  "http://www.w3.org/Graphics/SVG/1.1/DTD/svg11.dtd">
<!-- Created with matplotlib (https://matplotlib.org/) -->
<svg height="50%" version="1.1" viewBox="0 0 648 360" width="50%" xmlns="http://www.w3.org/2000/svg"  xmlns:xlink="http://www.w3.org/1999/xlink">
 <defs>
  <style type="text/css">
*{stroke-linecap:butt;stroke-linejoin:round;}
  </style>
 </defs>
 <g id="figure_1">
  <g id="patch_1">
   <path d="M 0 360 
L 648 360 
L 648 0 
L 0 0 
z
" style="fill:none;"/>
  </g>
  <g id="axes_1">
   <g id="patch_2">
    <path d="M 35.511414 333.344323 
L 628.344293 333.344323 
L 628.344293 25.10218 
L 35.511414 25.10218 
z
" style="fill:none;"/>
   </g>
   <g id="Quiver_1">
    <path clip-path="url(#p9bbaa672d8)" d="M 36.78177 319.333317 
L 36.146592 318.233156 
L 34.876236 318.233156 
L 34.241058 319.333317 
L 34.876236 320.433477 
L 36.146592 320.433477 
L 36.78177 319.333317 
L 36.146592 318.233156 
"/>
    <path clip-path="url(#p9bbaa672d8)" d="M 81.244236 319.333317 
L 80.609058 318.233156 
L 79.338702 318.233156 
L 78.703524 319.333317 
L 79.338702 320.433477 
L 80.609058 320.433477 
L 81.244236 319.333317 
L 80.609058 318.233156 
"/>
    <path clip-path="url(#p9bbaa672d8)" d="M 125.706702 319.333317 
L 125.071524 318.233156 
L 123.801168 318.233156 
L 123.16599 319.333317 
L 123.801168 320.433477 
L 125.071524 320.433477 
L 125.706702 319.333317 
L 125.071524 318.233156 
"/>
    <path clip-path="url(#p9bbaa672d8)" d="M 170.169168 319.333317 
L 169.53399 318.233156 
L 168.263634 318.233156 
L 167.628456 319.333317 
L 168.263634 320.433477 
L 169.53399 320.433477 
L 170.169168 319.333317 
L 169.53399 318.233156 
"/>
    <path clip-path="url(#p9bbaa672d8)" d="M 214.631634 319.333317 
L 213.996456 318.233156 
L 212.7261 318.233156 
L 212.090922 319.333317 
L 212.7261 320.433477 
L 213.996456 320.433477 
L 214.631634 319.333317 
L 213.996456 318.233156 
"/>
    <path clip-path="url(#p9bbaa672d8)" d="M 259.0941 319.333317 
L 258.458922 318.233156 
L 257.188566 318.233156 
L 256.553388 319.333317 
L 257.188566 320.433477 
L 258.458922 320.433477 
L 259.0941 319.333317 
L 258.458922 318.233156 
"/>
    <path clip-path="url(#p9bbaa672d8)" d="M 303.556566 319.333317 
L 302.921388 318.233156 
L 301.651032 318.233156 
L 301.015853 319.333317 
L 301.651032 320.433477 
L 302.921388 320.433477 
L 303.556566 319.333317 
L 302.921388 318.233156 
"/>
    <path clip-path="url(#p9bbaa672d8)" d="M 348.019032 319.333317 
L 347.383854 318.233156 
L 346.113497 318.233156 
L 345.478319 319.333317 
L 346.113497 320.433477 
L 347.383854 320.433477 
L 348.019032 319.333317 
L 347.383854 318.233156 
"/>
    <path clip-path="url(#p9bbaa672d8)" d="M 392.481498 319.333317 
L 391.84632 318.233156 
L 390.575963 318.233156 
L 389.940785 319.333317 
L 390.575963 320.433477 
L 391.84632 320.433477 
L 392.481498 319.333317 
L 391.84632 318.233156 
"/>
    <path clip-path="url(#p9bbaa672d8)" d="M 436.943963 319.333317 
L 436.308785 318.233156 
L 435.038429 318.233156 
L 434.403251 319.333317 
L 435.038429 320.433477 
L 436.308785 320.433477 
L 436.943963 319.333317 
L 436.308785 318.233156 
"/>
    <path clip-path="url(#p9bbaa672d8)" d="M 481.406429 319.333317 
L 480.771251 318.233156 
L 479.500895 318.233156 
L 478.865717 319.333317 
L 479.500895 320.433477 
L 480.771251 320.433477 
L 481.406429 319.333317 
L 480.771251 318.233156 
"/>
    <path clip-path="url(#p9bbaa672d8)" d="M 525.868895 319.333317 
L 525.233717 318.233156 
L 523.963361 318.233156 
L 523.328183 319.333317 
L 523.963361 320.433477 
L 525.233717 320.433477 
L 525.868895 319.333317 
L 525.233717 318.233156 
"/>
    <path clip-path="url(#p9bbaa672d8)" d="M 570.331361 319.333317 
L 569.696183 318.233156 
L 568.425827 318.233156 
L 567.790649 319.333317 
L 568.425827 320.433477 
L 569.696183 320.433477 
L 570.331361 319.333317 
L 569.696183 318.233156 
"/>
    <path clip-path="url(#p9bbaa672d8)" d="M 614.793827 319.333317 
L 614.158649 318.233156 
L 612.888293 318.233156 
L 612.253115 319.333317 
L 612.888293 320.433477 
L 614.158649 320.433477 
L 614.793827 319.333317 
L 614.158649 318.233156 
"/>
    <path clip-path="url(#p9bbaa672d8)" d="M 35.511414 296.698226 
L 36.59111 296.698226 
L 35.511414 294.538834 
L 46.308373 297.777922 
L 35.511414 301.01701 
L 36.59111 298.857618 
L 35.511414 298.857618 
L 35.511414 296.698226 
"/>
    <path clip-path="url(#p9bbaa672d8)" d="M 79.97388 296.698226 
L 81.053576 296.698226 
L 79.97388 294.538834 
L 90.770839 297.777922 
L 79.97388 301.01701 
L 81.053576 298.857618 
L 79.97388 298.857618 
L 79.97388 296.698226 
"/>
    <path clip-path="url(#p9bbaa672d8)" d="M 124.436346 296.698226 
L 125.516042 296.698226 
L 124.436346 294.538834 
L 135.233305 297.777922 
L 124.436346 301.01701 
L 125.516042 298.857618 
L 124.436346 298.857618 
L 124.436346 296.698226 
"/>
    <path clip-path="url(#p9bbaa672d8)" d="M 168.898812 296.698226 
L 169.978508 296.698226 
L 168.898812 294.538834 
L 179.695771 297.777922 
L 168.898812 301.01701 
L 169.978508 298.857618 
L 168.898812 298.857618 
L 168.898812 296.698226 
"/>
    <path clip-path="url(#p9bbaa672d8)" d="M 213.361278 296.698226 
L 214.440974 296.698226 
L 213.361278 294.538834 
L 224.158237 297.777922 
L 213.361278 301.01701 
L 214.440974 298.857618 
L 213.361278 298.857618 
L 213.361278 296.698226 
"/>
    <path clip-path="url(#p9bbaa672d8)" d="M 257.823744 296.698226 
L 258.90344 296.698226 
L 257.823744 294.538834 
L 268.620703 297.777922 
L 257.823744 301.01701 
L 258.90344 298.857618 
L 257.823744 298.857618 
L 257.823744 296.698226 
"/>
    <path clip-path="url(#p9bbaa672d8)" d="M 302.28621 296.698226 
L 303.365906 296.698226 
L 302.28621 294.538834 
L 313.083169 297.777922 
L 302.28621 301.01701 
L 303.365906 298.857618 
L 302.28621 298.857618 
L 302.28621 296.698226 
"/>
    <path clip-path="url(#p9bbaa672d8)" d="M 346.748676 296.698226 
L 347.828371 296.698226 
L 346.748676 294.538834 
L 357.545635 297.777922 
L 346.748676 301.01701 
L 347.828371 298.857618 
L 346.748676 298.857618 
L 346.748676 296.698226 
"/>
    <path clip-path="url(#p9bbaa672d8)" d="M 391.211141 296.698226 
L 392.290837 296.698226 
L 391.211141 294.538834 
L 402.008101 297.777922 
L 391.211141 301.01701 
L 392.290837 298.857618 
L 391.211141 298.857618 
L 391.211141 296.698226 
"/>
    <path clip-path="url(#p9bbaa672d8)" d="M 435.673607 296.698226 
L 436.753303 296.698226 
L 435.673607 294.538834 
L 446.470566 297.777922 
L 435.673607 301.01701 
L 436.753303 298.857618 
L 435.673607 298.857618 
L 435.673607 296.698226 
"/>
    <path clip-path="url(#p9bbaa672d8)" d="M 480.136073 296.698226 
L 481.215769 296.698226 
L 480.136073 294.538834 
L 490.933032 297.777922 
L 480.136073 301.01701 
L 481.215769 298.857618 
L 480.136073 298.857618 
L 480.136073 296.698226 
"/>
    <path clip-path="url(#p9bbaa672d8)" d="M 524.598539 296.698226 
L 525.678235 296.698226 
L 524.598539 294.538834 
L 535.395498 297.777922 
L 524.598539 301.01701 
L 525.678235 298.857618 
L 524.598539 298.857618 
L 524.598539 296.698226 
"/>
    <path clip-path="url(#p9bbaa672d8)" d="M 569.061005 296.698226 
L 570.140701 296.698226 
L 569.061005 294.538834 
L 579.857964 297.777922 
L 569.061005 301.01701 
L 570.140701 298.857618 
L 569.061005 298.857618 
L 569.061005 296.698226 
"/>
    <path clip-path="url(#p9bbaa672d8)" d="M 613.523471 296.698226 
L 614.603167 296.698226 
L 613.523471 294.538834 
L 624.32043 297.777922 
L 613.523471 301.01701 
L 614.603167 298.857618 
L 613.523471 298.857618 
L 613.523471 296.698226 
"/>
    <path clip-path="url(#p9bbaa672d8)" d="M 35.511414 274.952171 
L 43.529873 274.952171 
L 42.259517 272.411459 
L 54.963079 276.222527 
L 42.259517 280.033596 
L 43.529873 277.492884 
L 35.511414 277.492884 
L 35.511414 274.952171 
"/>
    <path clip-path="url(#p9bbaa672d8)" d="M 79.97388 274.952171 
L 87.992339 274.952171 
L 86.721983 272.411459 
L 99.425545 276.222527 
L 86.721983 280.033596 
L 87.992339 277.492884 
L 79.97388 277.492884 
L 79.97388 274.952171 
"/>
    <path clip-path="url(#p9bbaa672d8)" d="M 124.436346 274.952171 
L 132.454805 274.952171 
L 131.184449 272.411459 
L 143.888011 276.222527 
L 131.184449 280.033596 
L 132.454805 277.492884 
L 124.436346 277.492884 
L 124.436346 274.952171 
"/>
    <path clip-path="url(#p9bbaa672d8)" d="M 168.898812 274.952171 
L 176.917271 274.952171 
L 175.646915 272.411459 
L 188.350477 276.222527 
L 175.646915 280.033596 
L 176.917271 277.492884 
L 168.898812 277.492884 
L 168.898812 274.952171 
"/>
    <path clip-path="url(#p9bbaa672d8)" d="M 213.361278 274.952171 
L 221.379737 274.952171 
L 220.109381 272.411459 
L 232.812942 276.222527 
L 220.109381 280.033596 
L 221.379737 277.492884 
L 213.361278 277.492884 
L 213.361278 274.952171 
"/>
    <path clip-path="url(#p9bbaa672d8)" d="M 257.823744 274.952171 
L 265.842203 274.952171 
L 264.571847 272.411459 
L 277.275408 276.222527 
L 264.571847 280.033596 
L 265.842203 277.492884 
L 257.823744 277.492884 
L 257.823744 274.952171 
"/>
    <path clip-path="url(#p9bbaa672d8)" d="M 302.28621 274.952171 
L 310.304669 274.952171 
L 309.034313 272.411459 
L 321.737874 276.222527 
L 309.034313 280.033596 
L 310.304669 277.492884 
L 302.28621 277.492884 
L 302.28621 274.952171 
"/>
    <path clip-path="url(#p9bbaa672d8)" d="M 346.748676 274.952171 
L 354.767135 274.952171 
L 353.496778 272.411459 
L 366.20034 276.222527 
L 353.496778 280.033596 
L 354.767135 277.492884 
L 346.748676 277.492884 
L 346.748676 274.952171 
"/>
    <path clip-path="url(#p9bbaa672d8)" d="M 391.211141 274.952171 
L 399.2296 274.952171 
L 397.959244 272.411459 
L 410.662806 276.222527 
L 397.959244 280.033596 
L 399.2296 277.492884 
L 391.211141 277.492884 
L 391.211141 274.952171 
"/>
    <path clip-path="url(#p9bbaa672d8)" d="M 435.673607 274.952171 
L 443.692066 274.952171 
L 442.42171 272.411459 
L 455.125272 276.222527 
L 442.42171 280.033596 
L 443.692066 277.492884 
L 435.673607 277.492884 
L 435.673607 274.952171 
"/>
    <path clip-path="url(#p9bbaa672d8)" d="M 480.136073 274.952171 
L 488.154532 274.952171 
L 486.884176 272.411459 
L 499.587738 276.222527 
L 486.884176 280.033596 
L 488.154532 277.492884 
L 480.136073 277.492884 
L 480.136073 274.952171 
"/>
    <path clip-path="url(#p9bbaa672d8)" d="M 524.598539 274.952171 
L 532.616998 274.952171 
L 531.346642 272.411459 
L 544.050204 276.222527 
L 531.346642 280.033596 
L 532.616998 277.492884 
L 524.598539 277.492884 
L 524.598539 274.952171 
"/>
    <path clip-path="url(#p9bbaa672d8)" d="M 569.061005 274.952171 
L 577.079464 274.952171 
L 575.809108 272.411459 
L 588.51267 276.222527 
L 575.809108 280.033596 
L 577.079464 277.492884 
L 569.061005 277.492884 
L 569.061005 274.952171 
"/>
    <path clip-path="url(#p9bbaa672d8)" d="M 613.523471 274.952171 
L 621.54193 274.952171 
L 620.271574 272.411459 
L 632.975136 276.222527 
L 620.271574 280.033596 
L 621.54193 277.492884 
L 613.523471 277.492884 
L 613.523471 274.952171 
"/>
    <path clip-path="url(#p9bbaa672d8)" d="M 35.511414 253.396777 
L 50.233474 253.396777 
L 48.963118 250.856064 
L 61.666679 254.667133 
L 48.963118 258.478201 
L 50.233474 255.937489 
L 35.511414 255.937489 
L 35.511414 253.396777 
"/>
    <path clip-path="url(#p9bbaa672d8)" d="M 79.97388 253.396777 
L 94.69594 253.396777 
L 93.425584 250.856064 
L 106.129145 254.667133 
L 93.425584 258.478201 
L 94.69594 255.937489 
L 79.97388 255.937489 
L 79.97388 253.396777 
"/>
    <path clip-path="url(#p9bbaa672d8)" d="M 124.436346 253.396777 
L 139.158406 253.396777 
L 137.888049 250.856064 
L 150.591611 254.667133 
L 137.888049 258.478201 
L 139.158406 255.937489 
L 124.436346 255.937489 
L 124.436346 253.396777 
"/>
    <path clip-path="url(#p9bbaa672d8)" d="M 168.898812 253.396777 
L 183.620872 253.396777 
L 182.350515 250.856064 
L 195.054077 254.667133 
L 182.350515 258.478201 
L 183.620872 255.937489 
L 168.898812 255.937489 
L 168.898812 253.396777 
"/>
    <path clip-path="url(#p9bbaa672d8)" d="M 213.361278 253.396777 
L 228.083337 253.396777 
L 226.812981 250.856064 
L 239.516543 254.667133 
L 226.812981 258.478201 
L 228.083337 255.937489 
L 213.361278 255.937489 
L 213.361278 253.396777 
"/>
    <path clip-path="url(#p9bbaa672d8)" d="M 257.823744 253.396777 
L 272.545803 253.396777 
L 271.275447 250.856064 
L 283.979009 254.667133 
L 271.275447 258.478201 
L 272.545803 255.937489 
L 257.823744 255.937489 
L 257.823744 253.396777 
"/>
    <path clip-path="url(#p9bbaa672d8)" d="M 302.28621 253.396777 
L 317.008269 253.396777 
L 315.737913 250.856064 
L 328.441475 254.667133 
L 315.737913 258.478201 
L 317.008269 255.937489 
L 302.28621 255.937489 
L 302.28621 253.396777 
"/>
    <path clip-path="url(#p9bbaa672d8)" d="M 346.748676 253.396777 
L 361.470735 253.396777 
L 360.200379 250.856064 
L 372.903941 254.667133 
L 360.200379 258.478201 
L 361.470735 255.937489 
L 346.748676 255.937489 
L 346.748676 253.396777 
"/>
    <path clip-path="url(#p9bbaa672d8)" d="M 391.211141 253.396777 
L 405.933201 253.396777 
L 404.662845 250.856064 
L 417.366407 254.667133 
L 404.662845 258.478201 
L 405.933201 255.937489 
L 391.211141 255.937489 
L 391.211141 253.396777 
"/>
    <path clip-path="url(#p9bbaa672d8)" d="M 435.673607 253.396777 
L 450.395667 253.396777 
L 449.125311 250.856064 
L 461.828872 254.667133 
L 449.125311 258.478201 
L 450.395667 255.937489 
L 435.673607 255.937489 
L 435.673607 253.396777 
"/>
    <path clip-path="url(#p9bbaa672d8)" d="M 480.136073 253.396777 
L 494.858133 253.396777 
L 493.587777 250.856064 
L 506.291338 254.667133 
L 493.587777 258.478201 
L 494.858133 255.937489 
L 480.136073 255.937489 
L 480.136073 253.396777 
"/>
    <path clip-path="url(#p9bbaa672d8)" d="M 524.598539 253.396777 
L 539.320599 253.396777 
L 538.050243 250.856064 
L 550.753804 254.667133 
L 538.050243 258.478201 
L 539.320599 255.937489 
L 524.598539 255.937489 
L 524.598539 253.396777 
"/>
    <path clip-path="url(#p9bbaa672d8)" d="M 569.061005 253.396777 
L 583.783065 253.396777 
L 582.512708 250.856064 
L 595.21627 254.667133 
L 582.512708 258.478201 
L 583.783065 255.937489 
L 569.061005 255.937489 
L 569.061005 253.396777 
"/>
    <path clip-path="url(#p9bbaa672d8)" d="M 613.523471 253.396777 
L 628.245531 253.396777 
L 626.975174 250.856064 
L 639.678736 254.667133 
L 626.975174 258.478201 
L 628.245531 255.937489 
L 613.523471 255.937489 
L 613.523471 253.396777 
"/>
    <path clip-path="url(#p9bbaa672d8)" d="M 35.511414 231.841382 
L 55.155369 231.841382 
L 53.885012 229.30067 
L 66.588574 233.111738 
L 53.885012 236.922807 
L 55.155369 234.382094 
L 35.511414 234.382094 
L 35.511414 231.841382 
"/>
    <path clip-path="url(#p9bbaa672d8)" d="M 79.97388 231.841382 
L 99.617834 231.841382 
L 98.347478 229.30067 
L 111.05104 233.111738 
L 98.347478 236.922807 
L 99.617834 234.382094 
L 79.97388 234.382094 
L 79.97388 231.841382 
"/>
    <path clip-path="url(#p9bbaa672d8)" d="M 124.436346 231.841382 
L 144.0803 231.841382 
L 142.809944 229.30067 
L 155.513506 233.111738 
L 142.809944 236.922807 
L 144.0803 234.382094 
L 124.436346 234.382094 
L 124.436346 231.841382 
"/>
    <path clip-path="url(#p9bbaa672d8)" d="M 168.898812 231.841382 
L 188.542766 231.841382 
L 187.27241 229.30067 
L 199.975972 233.111738 
L 187.27241 236.922807 
L 188.542766 234.382094 
L 168.898812 234.382094 
L 168.898812 231.841382 
"/>
    <path clip-path="url(#p9bbaa672d8)" d="M 213.361278 231.841382 
L 233.005232 231.841382 
L 231.734876 229.30067 
L 244.438438 233.111738 
L 231.734876 236.922807 
L 233.005232 234.382094 
L 213.361278 234.382094 
L 213.361278 231.841382 
"/>
    <path clip-path="url(#p9bbaa672d8)" d="M 257.823744 231.841382 
L 277.467698 231.841382 
L 276.197342 229.30067 
L 288.900904 233.111738 
L 276.197342 236.922807 
L 277.467698 234.382094 
L 257.823744 234.382094 
L 257.823744 231.841382 
"/>
    <path clip-path="url(#p9bbaa672d8)" d="M 302.28621 231.841382 
L 321.930164 231.841382 
L 320.659808 229.30067 
L 333.363369 233.111738 
L 320.659808 236.922807 
L 321.930164 234.382094 
L 302.28621 234.382094 
L 302.28621 231.841382 
"/>
    <path clip-path="url(#p9bbaa672d8)" d="M 346.748676 231.841382 
L 366.39263 231.841382 
L 365.122274 229.30067 
L 377.825835 233.111738 
L 365.122274 236.922807 
L 366.39263 234.382094 
L 346.748676 234.382094 
L 346.748676 231.841382 
"/>
    <path clip-path="url(#p9bbaa672d8)" d="M 391.211141 231.841382 
L 410.855096 231.841382 
L 409.58474 229.30067 
L 422.288301 233.111738 
L 409.58474 236.922807 
L 410.855096 234.382094 
L 391.211141 234.382094 
L 391.211141 231.841382 
"/>
    <path clip-path="url(#p9bbaa672d8)" d="M 435.673607 231.841382 
L 455.317562 231.841382 
L 454.047205 229.30067 
L 466.750767 233.111738 
L 454.047205 236.922807 
L 455.317562 234.382094 
L 435.673607 234.382094 
L 435.673607 231.841382 
"/>
    <path clip-path="url(#p9bbaa672d8)" d="M 480.136073 231.841382 
L 499.780028 231.841382 
L 498.509671 229.30067 
L 511.213233 233.111738 
L 498.509671 236.922807 
L 499.780028 234.382094 
L 480.136073 234.382094 
L 480.136073 231.841382 
"/>
    <path clip-path="url(#p9bbaa672d8)" d="M 524.598539 231.841382 
L 544.242493 231.841382 
L 542.972137 229.30067 
L 555.675699 233.111738 
L 542.972137 236.922807 
L 544.242493 234.382094 
L 524.598539 234.382094 
L 524.598539 231.841382 
"/>
    <path clip-path="url(#p9bbaa672d8)" d="M 569.061005 231.841382 
L 588.704959 231.841382 
L 587.434603 229.30067 
L 600.138165 233.111738 
L 587.434603 236.922807 
L 588.704959 234.382094 
L 569.061005 234.382094 
L 569.061005 231.841382 
"/>
    <path clip-path="url(#p9bbaa672d8)" d="M 613.523471 231.841382 
L 633.167425 231.841382 
L 631.897069 229.30067 
L 644.600631 233.111738 
L 631.897069 236.922807 
L 633.167425 234.382094 
L 613.523471 234.382094 
L 613.523471 231.841382 
"/>
    <path clip-path="url(#p9bbaa672d8)" d="M 35.511414 210.285987 
L 58.433846 210.285987 
L 57.16349 207.745275 
L 69.867052 211.556344 
L 57.16349 215.367412 
L 58.433846 212.8267 
L 35.511414 212.8267 
L 35.511414 210.285987 
"/>
    <path clip-path="url(#p9bbaa672d8)" d="M 79.97388 210.285987 
L 102.896312 210.285987 
L 101.625956 207.745275 
L 114.329518 211.556344 
L 101.625956 215.367412 
L 102.896312 212.8267 
L 79.97388 212.8267 
L 79.97388 210.285987 
"/>
    <path clip-path="url(#p9bbaa672d8)" d="M 124.436346 210.285987 
L 147.358778 210.285987 
L 146.088422 207.745275 
L 158.791984 211.556344 
L 146.088422 215.367412 
L 147.358778 212.8267 
L 124.436346 212.8267 
L 124.436346 210.285987 
"/>
    <path clip-path="url(#p9bbaa672d8)" d="M 168.898812 210.285987 
L 191.821244 210.285987 
L 190.550888 207.745275 
L 203.25445 211.556344 
L 190.550888 215.367412 
L 191.821244 212.8267 
L 168.898812 212.8267 
L 168.898812 210.285987 
"/>
    <path clip-path="url(#p9bbaa672d8)" d="M 213.361278 210.285987 
L 236.28371 210.285987 
L 235.013354 207.745275 
L 247.716916 211.556344 
L 235.013354 215.367412 
L 236.28371 212.8267 
L 213.361278 212.8267 
L 213.361278 210.285987 
"/>
    <path clip-path="url(#p9bbaa672d8)" d="M 257.823744 210.285987 
L 280.746176 210.285987 
L 279.47582 207.745275 
L 292.179381 211.556344 
L 279.47582 215.367412 
L 280.746176 212.8267 
L 257.823744 212.8267 
L 257.823744 210.285987 
"/>
    <path clip-path="url(#p9bbaa672d8)" d="M 302.28621 210.285987 
L 325.208642 210.285987 
L 323.938286 207.745275 
L 336.641847 211.556344 
L 323.938286 215.367412 
L 325.208642 212.8267 
L 302.28621 212.8267 
L 302.28621 210.285987 
"/>
    <path clip-path="url(#p9bbaa672d8)" d="M 346.748676 210.285987 
L 369.671108 210.285987 
L 368.400752 207.745275 
L 381.104313 211.556344 
L 368.400752 215.367412 
L 369.671108 212.8267 
L 346.748676 212.8267 
L 346.748676 210.285987 
"/>
    <path clip-path="url(#p9bbaa672d8)" d="M 391.211141 210.285987 
L 414.133574 210.285987 
L 412.863217 207.745275 
L 425.566779 211.556344 
L 412.863217 215.367412 
L 414.133574 212.8267 
L 391.211141 212.8267 
L 391.211141 210.285987 
"/>
    <path clip-path="url(#p9bbaa672d8)" d="M 435.673607 210.285987 
L 458.59604 210.285987 
L 457.325683 207.745275 
L 470.029245 211.556344 
L 457.325683 215.367412 
L 458.59604 212.8267 
L 435.673607 212.8267 
L 435.673607 210.285987 
"/>
    <path clip-path="url(#p9bbaa672d8)" d="M 480.136073 210.285987 
L 503.058505 210.285987 
L 501.788149 207.745275 
L 514.491711 211.556344 
L 501.788149 215.367412 
L 503.058505 212.8267 
L 480.136073 212.8267 
L 480.136073 210.285987 
"/>
    <path clip-path="url(#p9bbaa672d8)" d="M 524.598539 210.285987 
L 547.520971 210.285987 
L 546.250615 207.745275 
L 558.954177 211.556344 
L 546.250615 215.367412 
L 547.520971 212.8267 
L 524.598539 212.8267 
L 524.598539 210.285987 
"/>
    <path clip-path="url(#p9bbaa672d8)" d="M 569.061005 210.285987 
L 591.983437 210.285987 
L 590.713081 207.745275 
L 603.416643 211.556344 
L 590.713081 215.367412 
L 591.983437 212.8267 
L 569.061005 212.8267 
L 569.061005 210.285987 
"/>
    <path clip-path="url(#p9bbaa672d8)" d="M 613.523471 210.285987 
L 636.445903 210.285987 
L 635.175547 207.745275 
L 647.879109 211.556344 
L 635.175547 215.367412 
L 636.445903 212.8267 
L 613.523471 212.8267 
L 613.523471 210.285987 
"/>
    <path clip-path="url(#p9bbaa672d8)" d="M 35.511414 188.730593 
L 60.168448 188.730593 
L 58.898092 186.18988 
L 71.601654 190.000949 
L 58.898092 193.812017 
L 60.168448 191.271305 
L 35.511414 191.271305 
L 35.511414 188.730593 
"/>
    <path clip-path="url(#p9bbaa672d8)" d="M 79.97388 188.730593 
L 104.630914 188.730593 
L 103.360558 186.18988 
L 116.06412 190.000949 
L 103.360558 193.812017 
L 104.630914 191.271305 
L 79.97388 191.271305 
L 79.97388 188.730593 
"/>
    <path clip-path="url(#p9bbaa672d8)" d="M 124.436346 188.730593 
L 149.09338 188.730593 
L 147.823024 186.18988 
L 160.526586 190.000949 
L 147.823024 193.812017 
L 149.09338 191.271305 
L 124.436346 191.271305 
L 124.436346 188.730593 
"/>
    <path clip-path="url(#p9bbaa672d8)" d="M 168.898812 188.730593 
L 193.555846 188.730593 
L 192.28549 186.18988 
L 204.989052 190.000949 
L 192.28549 193.812017 
L 193.555846 191.271305 
L 168.898812 191.271305 
L 168.898812 188.730593 
"/>
    <path clip-path="url(#p9bbaa672d8)" d="M 213.361278 188.730593 
L 238.018312 188.730593 
L 236.747956 186.18988 
L 249.451517 190.000949 
L 236.747956 193.812017 
L 238.018312 191.271305 
L 213.361278 191.271305 
L 213.361278 188.730593 
"/>
    <path clip-path="url(#p9bbaa672d8)" d="M 257.823744 188.730593 
L 282.480778 188.730593 
L 281.210422 186.18988 
L 293.913983 190.000949 
L 281.210422 193.812017 
L 282.480778 191.271305 
L 257.823744 191.271305 
L 257.823744 188.730593 
"/>
    <path clip-path="url(#p9bbaa672d8)" d="M 302.28621 188.730593 
L 326.943244 188.730593 
L 325.672888 186.18988 
L 338.376449 190.000949 
L 325.672888 193.812017 
L 326.943244 191.271305 
L 302.28621 191.271305 
L 302.28621 188.730593 
"/>
    <path clip-path="url(#p9bbaa672d8)" d="M 346.748676 188.730593 
L 371.40571 188.730593 
L 370.135353 186.18988 
L 382.838915 190.000949 
L 370.135353 193.812017 
L 371.40571 191.271305 
L 346.748676 191.271305 
L 346.748676 188.730593 
"/>
    <path clip-path="url(#p9bbaa672d8)" d="M 391.211141 188.730593 
L 415.868176 188.730593 
L 414.597819 186.18988 
L 427.301381 190.000949 
L 414.597819 193.812017 
L 415.868176 191.271305 
L 391.211141 191.271305 
L 391.211141 188.730593 
"/>
    <path clip-path="url(#p9bbaa672d8)" d="M 435.673607 188.730593 
L 460.330641 188.730593 
L 459.060285 186.18988 
L 471.763847 190.000949 
L 459.060285 193.812017 
L 460.330641 191.271305 
L 435.673607 191.271305 
L 435.673607 188.730593 
"/>
    <path clip-path="url(#p9bbaa672d8)" d="M 480.136073 188.730593 
L 504.793107 188.730593 
L 503.522751 186.18988 
L 516.226313 190.000949 
L 503.522751 193.812017 
L 504.793107 191.271305 
L 480.136073 191.271305 
L 480.136073 188.730593 
"/>
    <path clip-path="url(#p9bbaa672d8)" d="M 524.598539 188.730593 
L 549.255573 188.730593 
L 547.985217 186.18988 
L 560.688779 190.000949 
L 547.985217 193.812017 
L 549.255573 191.271305 
L 524.598539 191.271305 
L 524.598539 188.730593 
"/>
    <path clip-path="url(#p9bbaa672d8)" d="M 569.061005 188.730593 
L 593.718039 188.730593 
L 592.447683 186.18988 
L 605.151245 190.000949 
L 592.447683 193.812017 
L 593.718039 191.271305 
L 569.061005 191.271305 
L 569.061005 188.730593 
"/>
    <path clip-path="url(#p9bbaa672d8)" d="M 613.523471 188.730593 
L 638.180505 188.730593 
L 636.910149 186.18988 
L 649.613711 190.000949 
L 636.910149 193.812017 
L 638.180505 191.271305 
L 613.523471 191.271305 
L 613.523471 188.730593 
"/>
    <path clip-path="url(#p9bbaa672d8)" d="M 35.511414 167.175198 
L 60.41447 167.175198 
L 59.144113 164.634486 
L 71.847675 168.445554 
L 59.144113 172.256623 
L 60.41447 169.71591 
L 35.511414 169.71591 
L 35.511414 167.175198 
"/>
    <path clip-path="url(#p9bbaa672d8)" d="M 79.97388 167.175198 
L 104.876935 167.175198 
L 103.606579 164.634486 
L 116.310141 168.445554 
L 103.606579 172.256623 
L 104.876935 169.71591 
L 79.97388 169.71591 
L 79.97388 167.175198 
"/>
    <path clip-path="url(#p9bbaa672d8)" d="M 124.436346 167.175198 
L 149.339401 167.175198 
L 148.069045 164.634486 
L 160.772607 168.445554 
L 148.069045 172.256623 
L 149.339401 169.71591 
L 124.436346 169.71591 
L 124.436346 167.175198 
"/>
    <path clip-path="url(#p9bbaa672d8)" d="M 168.898812 167.175198 
L 193.801867 167.175198 
L 192.531511 164.634486 
L 205.235073 168.445554 
L 192.531511 172.256623 
L 193.801867 169.71591 
L 168.898812 169.71591 
L 168.898812 167.175198 
"/>
    <path clip-path="url(#p9bbaa672d8)" d="M 213.361278 167.175198 
L 238.264333 167.175198 
L 236.993977 164.634486 
L 249.697539 168.445554 
L 236.993977 172.256623 
L 238.264333 169.71591 
L 213.361278 169.71591 
L 213.361278 167.175198 
"/>
    <path clip-path="url(#p9bbaa672d8)" d="M 257.823744 167.175198 
L 282.726799 167.175198 
L 281.456443 164.634486 
L 294.160005 168.445554 
L 281.456443 172.256623 
L 282.726799 169.71591 
L 257.823744 169.71591 
L 257.823744 167.175198 
"/>
    <path clip-path="url(#p9bbaa672d8)" d="M 302.28621 167.175198 
L 327.189265 167.175198 
L 325.918909 164.634486 
L 338.62247 168.445554 
L 325.918909 172.256623 
L 327.189265 169.71591 
L 302.28621 169.71591 
L 302.28621 167.175198 
"/>
    <path clip-path="url(#p9bbaa672d8)" d="M 346.748676 167.175198 
L 371.651731 167.175198 
L 370.381375 164.634486 
L 383.084936 168.445554 
L 370.381375 172.256623 
L 371.651731 169.71591 
L 346.748676 169.71591 
L 346.748676 167.175198 
"/>
    <path clip-path="url(#p9bbaa672d8)" d="M 391.211141 167.175198 
L 416.114197 167.175198 
L 414.843841 164.634486 
L 427.547402 168.445554 
L 414.843841 172.256623 
L 416.114197 169.71591 
L 391.211141 169.71591 
L 391.211141 167.175198 
"/>
    <path clip-path="url(#p9bbaa672d8)" d="M 435.673607 167.175198 
L 460.576663 167.175198 
L 459.306306 164.634486 
L 472.009868 168.445554 
L 459.306306 172.256623 
L 460.576663 169.71591 
L 435.673607 169.71591 
L 435.673607 167.175198 
"/>
    <path clip-path="url(#p9bbaa672d8)" d="M 480.136073 167.175198 
L 505.039129 167.175198 
L 503.768772 164.634486 
L 516.472334 168.445554 
L 503.768772 172.256623 
L 505.039129 169.71591 
L 480.136073 169.71591 
L 480.136073 167.175198 
"/>
    <path clip-path="url(#p9bbaa672d8)" d="M 524.598539 167.175198 
L 549.501594 167.175198 
L 548.231238 164.634486 
L 560.9348 168.445554 
L 548.231238 172.256623 
L 549.501594 169.71591 
L 524.598539 169.71591 
L 524.598539 167.175198 
"/>
    <path clip-path="url(#p9bbaa672d8)" d="M 569.061005 167.175198 
L 593.96406 167.175198 
L 592.693704 164.634486 
L 605.397266 168.445554 
L 592.693704 172.256623 
L 593.96406 169.71591 
L 569.061005 169.71591 
L 569.061005 167.175198 
"/>
    <path clip-path="url(#p9bbaa672d8)" d="M 613.523471 167.175198 
L 638.426526 167.175198 
L 637.15617 164.634486 
L 649.859732 168.445554 
L 637.15617 172.256623 
L 638.426526 169.71591 
L 613.523471 169.71591 
L 613.523471 167.175198 
"/>
    <path clip-path="url(#p9bbaa672d8)" d="M 35.511414 145.619803 
L 59.179908 145.619803 
L 57.909551 143.079091 
L 70.613113 146.89016 
L 57.909551 150.701228 
L 59.179908 148.160516 
L 35.511414 148.160516 
L 35.511414 145.619803 
"/>
    <path clip-path="url(#p9bbaa672d8)" d="M 79.97388 145.619803 
L 103.642374 145.619803 
L 102.372017 143.079091 
L 115.075579 146.89016 
L 102.372017 150.701228 
L 103.642374 148.160516 
L 79.97388 148.160516 
L 79.97388 145.619803 
"/>
    <path clip-path="url(#p9bbaa672d8)" d="M 124.436346 145.619803 
L 148.104839 145.619803 
L 146.834483 143.079091 
L 159.538045 146.89016 
L 146.834483 150.701228 
L 148.104839 148.160516 
L 124.436346 148.160516 
L 124.436346 145.619803 
"/>
    <path clip-path="url(#p9bbaa672d8)" d="M 168.898812 145.619803 
L 192.567305 145.619803 
L 191.296949 143.079091 
L 204.000511 146.89016 
L 191.296949 150.701228 
L 192.567305 148.160516 
L 168.898812 148.160516 
L 168.898812 145.619803 
"/>
    <path clip-path="url(#p9bbaa672d8)" d="M 213.361278 145.619803 
L 237.029771 145.619803 
L 235.759415 143.079091 
L 248.462977 146.89016 
L 235.759415 150.701228 
L 237.029771 148.160516 
L 213.361278 148.160516 
L 213.361278 145.619803 
"/>
    <path clip-path="url(#p9bbaa672d8)" d="M 257.823744 145.619803 
L 281.492237 145.619803 
L 280.221881 143.079091 
L 292.925443 146.89016 
L 280.221881 150.701228 
L 281.492237 148.160516 
L 257.823744 148.160516 
L 257.823744 145.619803 
"/>
    <path clip-path="url(#p9bbaa672d8)" d="M 302.28621 145.619803 
L 325.954703 145.619803 
L 324.684347 143.079091 
L 337.387909 146.89016 
L 324.684347 150.701228 
L 325.954703 148.160516 
L 302.28621 148.160516 
L 302.28621 145.619803 
"/>
    <path clip-path="url(#p9bbaa672d8)" d="M 346.748676 145.619803 
L 370.417169 145.619803 
L 369.146813 143.079091 
L 381.850374 146.89016 
L 369.146813 150.701228 
L 370.417169 148.160516 
L 346.748676 148.160516 
L 346.748676 145.619803 
"/>
    <path clip-path="url(#p9bbaa672d8)" d="M 391.211141 145.619803 
L 414.879635 145.619803 
L 413.609279 143.079091 
L 426.31284 146.89016 
L 413.609279 150.701228 
L 414.879635 148.160516 
L 391.211141 148.160516 
L 391.211141 145.619803 
"/>
    <path clip-path="url(#p9bbaa672d8)" d="M 435.673607 145.619803 
L 459.342101 145.619803 
L 458.071745 143.079091 
L 470.775306 146.89016 
L 458.071745 150.701228 
L 459.342101 148.160516 
L 435.673607 148.160516 
L 435.673607 145.619803 
"/>
    <path clip-path="url(#p9bbaa672d8)" d="M 480.136073 145.619803 
L 503.804567 145.619803 
L 502.53421 143.079091 
L 515.237772 146.89016 
L 502.53421 150.701228 
L 503.804567 148.160516 
L 480.136073 148.160516 
L 480.136073 145.619803 
"/>
    <path clip-path="url(#p9bbaa672d8)" d="M 524.598539 145.619803 
L 548.267033 145.619803 
L 546.996676 143.079091 
L 559.700238 146.89016 
L 546.996676 150.701228 
L 548.267033 148.160516 
L 524.598539 148.160516 
L 524.598539 145.619803 
"/>
    <path clip-path="url(#p9bbaa672d8)" d="M 569.061005 145.619803 
L 592.729498 145.619803 
L 591.459142 143.079091 
L 604.162704 146.89016 
L 591.459142 150.701228 
L 592.729498 148.160516 
L 569.061005 148.160516 
L 569.061005 145.619803 
"/>
    <path clip-path="url(#p9bbaa672d8)" d="M 613.523471 145.619803 
L 637.191964 145.619803 
L 635.921608 143.079091 
L 648.62517 146.89016 
L 635.921608 150.701228 
L 637.191964 148.160516 
L 613.523471 148.160516 
L 613.523471 145.619803 
"/>
    <path clip-path="url(#p9bbaa672d8)" d="M 35.511414 124.064409 
L 56.425021 124.064409 
L 55.154665 121.523696 
L 67.858226 125.334765 
L 55.154665 129.145833 
L 56.425021 126.605121 
L 35.511414 126.605121 
L 35.511414 124.064409 
"/>
    <path clip-path="url(#p9bbaa672d8)" d="M 79.97388 124.064409 
L 100.887487 124.064409 
L 99.617131 121.523696 
L 112.320692 125.334765 
L 99.617131 129.145833 
L 100.887487 126.605121 
L 79.97388 126.605121 
L 79.97388 124.064409 
"/>
    <path clip-path="url(#p9bbaa672d8)" d="M 124.436346 124.064409 
L 145.349953 124.064409 
L 144.079596 121.523696 
L 156.783158 125.334765 
L 144.079596 129.145833 
L 145.349953 126.605121 
L 124.436346 126.605121 
L 124.436346 124.064409 
"/>
    <path clip-path="url(#p9bbaa672d8)" d="M 168.898812 124.064409 
L 189.812419 124.064409 
L 188.542062 121.523696 
L 201.245624 125.334765 
L 188.542062 129.145833 
L 189.812419 126.605121 
L 168.898812 126.605121 
L 168.898812 124.064409 
"/>
    <path clip-path="url(#p9bbaa672d8)" d="M 213.361278 124.064409 
L 234.274884 124.064409 
L 233.004528 121.523696 
L 245.70809 125.334765 
L 233.004528 129.145833 
L 234.274884 126.605121 
L 213.361278 126.605121 
L 213.361278 124.064409 
"/>
    <path clip-path="url(#p9bbaa672d8)" d="M 257.823744 124.064409 
L 278.73735 124.064409 
L 277.466994 121.523696 
L 290.170556 125.334765 
L 277.466994 129.145833 
L 278.73735 126.605121 
L 257.823744 126.605121 
L 257.823744 124.064409 
"/>
    <path clip-path="url(#p9bbaa672d8)" d="M 302.28621 124.064409 
L 323.199816 124.064409 
L 321.92946 121.523696 
L 334.633022 125.334765 
L 321.92946 129.145833 
L 323.199816 126.605121 
L 302.28621 126.605121 
L 302.28621 124.064409 
"/>
    <path clip-path="url(#p9bbaa672d8)" d="M 346.748676 124.064409 
L 367.662282 124.064409 
L 366.391926 121.523696 
L 379.095488 125.334765 
L 366.391926 129.145833 
L 367.662282 126.605121 
L 346.748676 126.605121 
L 346.748676 124.064409 
"/>
    <path clip-path="url(#p9bbaa672d8)" d="M 391.211141 124.064409 
L 412.124748 124.064409 
L 410.854392 121.523696 
L 423.557954 125.334765 
L 410.854392 129.145833 
L 412.124748 126.605121 
L 391.211141 126.605121 
L 391.211141 124.064409 
"/>
    <path clip-path="url(#p9bbaa672d8)" d="M 435.673607 124.064409 
L 456.587214 124.064409 
L 455.316858 121.523696 
L 468.020419 125.334765 
L 455.316858 129.145833 
L 456.587214 126.605121 
L 435.673607 126.605121 
L 435.673607 124.064409 
"/>
    <path clip-path="url(#p9bbaa672d8)" d="M 480.136073 124.064409 
L 501.04968 124.064409 
L 499.779324 121.523696 
L 512.482885 125.334765 
L 499.779324 129.145833 
L 501.04968 126.605121 
L 480.136073 126.605121 
L 480.136073 124.064409 
"/>
    <path clip-path="url(#p9bbaa672d8)" d="M 524.598539 124.064409 
L 545.512146 124.064409 
L 544.24179 121.523696 
L 556.945351 125.334765 
L 544.24179 129.145833 
L 545.512146 126.605121 
L 524.598539 126.605121 
L 524.598539 124.064409 
"/>
    <path clip-path="url(#p9bbaa672d8)" d="M 569.061005 124.064409 
L 589.974612 124.064409 
L 588.704255 121.523696 
L 601.407817 125.334765 
L 588.704255 129.145833 
L 589.974612 126.605121 
L 569.061005 126.605121 
L 569.061005 124.064409 
"/>
    <path clip-path="url(#p9bbaa672d8)" d="M 613.523471 124.064409 
L 634.437078 124.064409 
L 633.166721 121.523696 
L 645.870283 125.334765 
L 633.166721 129.145833 
L 634.437078 126.605121 
L 613.523471 126.605121 
L 613.523471 124.064409 
"/>
    <path clip-path="url(#p9bbaa672d8)" d="M 35.511414 102.509014 
L 52.064522 102.509014 
L 50.794166 99.968302 
L 63.497727 103.77937 
L 50.794166 107.590439 
L 52.064522 105.049726 
L 35.511414 105.049726 
L 35.511414 102.509014 
"/>
    <path clip-path="url(#p9bbaa672d8)" d="M 79.97388 102.509014 
L 96.526988 102.509014 
L 95.256632 99.968302 
L 107.960193 103.77937 
L 95.256632 107.590439 
L 96.526988 105.049726 
L 79.97388 105.049726 
L 79.97388 102.509014 
"/>
    <path clip-path="url(#p9bbaa672d8)" d="M 124.436346 102.509014 
L 140.989454 102.509014 
L 139.719098 99.968302 
L 152.422659 103.77937 
L 139.719098 107.590439 
L 140.989454 105.049726 
L 124.436346 105.049726 
L 124.436346 102.509014 
"/>
    <path clip-path="url(#p9bbaa672d8)" d="M 168.898812 102.509014 
L 185.45192 102.509014 
L 184.181563 99.968302 
L 196.885125 103.77937 
L 184.181563 107.590439 
L 185.45192 105.049726 
L 168.898812 105.049726 
L 168.898812 102.509014 
"/>
    <path clip-path="url(#p9bbaa672d8)" d="M 213.361278 102.509014 
L 229.914385 102.509014 
L 228.644029 99.968302 
L 241.347591 103.77937 
L 228.644029 107.590439 
L 229.914385 105.049726 
L 213.361278 105.049726 
L 213.361278 102.509014 
"/>
    <path clip-path="url(#p9bbaa672d8)" d="M 257.823744 102.509014 
L 274.376851 102.509014 
L 273.106495 99.968302 
L 285.810057 103.77937 
L 273.106495 107.590439 
L 274.376851 105.049726 
L 257.823744 105.049726 
L 257.823744 102.509014 
"/>
    <path clip-path="url(#p9bbaa672d8)" d="M 302.28621 102.509014 
L 318.839317 102.509014 
L 317.568961 99.968302 
L 330.272523 103.77937 
L 317.568961 107.590439 
L 318.839317 105.049726 
L 302.28621 105.049726 
L 302.28621 102.509014 
"/>
    <path clip-path="url(#p9bbaa672d8)" d="M 346.748676 102.509014 
L 363.301783 102.509014 
L 362.031427 99.968302 
L 374.734989 103.77937 
L 362.031427 107.590439 
L 363.301783 105.049726 
L 346.748676 105.049726 
L 346.748676 102.509014 
"/>
    <path clip-path="url(#p9bbaa672d8)" d="M 391.211141 102.509014 
L 407.764249 102.509014 
L 406.493893 99.968302 
L 419.197455 103.77937 
L 406.493893 107.590439 
L 407.764249 105.049726 
L 391.211141 105.049726 
L 391.211141 102.509014 
"/>
    <path clip-path="url(#p9bbaa672d8)" d="M 435.673607 102.509014 
L 452.226715 102.509014 
L 450.956359 99.968302 
L 463.65992 103.77937 
L 450.956359 107.590439 
L 452.226715 105.049726 
L 435.673607 105.049726 
L 435.673607 102.509014 
"/>
    <path clip-path="url(#p9bbaa672d8)" d="M 480.136073 102.509014 
L 496.689181 102.509014 
L 495.418825 99.968302 
L 508.122386 103.77937 
L 495.418825 107.590439 
L 496.689181 105.049726 
L 480.136073 105.049726 
L 480.136073 102.509014 
"/>
    <path clip-path="url(#p9bbaa672d8)" d="M 524.598539 102.509014 
L 541.151647 102.509014 
L 539.881291 99.968302 
L 552.584852 103.77937 
L 539.881291 107.590439 
L 541.151647 105.049726 
L 524.598539 105.049726 
L 524.598539 102.509014 
"/>
    <path clip-path="url(#p9bbaa672d8)" d="M 569.061005 102.509014 
L 585.614113 102.509014 
L 584.343756 99.968302 
L 597.047318 103.77937 
L 584.343756 107.590439 
L 585.614113 105.049726 
L 569.061005 105.049726 
L 569.061005 102.509014 
"/>
    <path clip-path="url(#p9bbaa672d8)" d="M 613.523471 102.509014 
L 630.076579 102.509014 
L 628.806222 99.968302 
L 641.509784 103.77937 
L 628.806222 107.590439 
L 630.076579 105.049726 
L 613.523471 105.049726 
L 613.523471 102.509014 
"/>
    <path clip-path="url(#p9bbaa672d8)" d="M 35.511414 80.953619 
L 45.972287 80.953619 
L 44.701931 78.412907 
L 57.405493 82.223976 
L 44.701931 86.035044 
L 45.972287 83.494332 
L 35.511414 83.494332 
L 35.511414 80.953619 
"/>
    <path clip-path="url(#p9bbaa672d8)" d="M 79.97388 80.953619 
L 90.434753 80.953619 
L 89.164397 78.412907 
L 101.867959 82.223976 
L 89.164397 86.035044 
L 90.434753 83.494332 
L 79.97388 83.494332 
L 79.97388 80.953619 
"/>
    <path clip-path="url(#p9bbaa672d8)" d="M 124.436346 80.953619 
L 134.897219 80.953619 
L 133.626863 78.412907 
L 146.330425 82.223976 
L 133.626863 86.035044 
L 134.897219 83.494332 
L 124.436346 83.494332 
L 124.436346 80.953619 
"/>
    <path clip-path="url(#p9bbaa672d8)" d="M 168.898812 80.953619 
L 179.359685 80.953619 
L 178.089329 78.412907 
L 190.79289 82.223976 
L 178.089329 86.035044 
L 179.359685 83.494332 
L 168.898812 83.494332 
L 168.898812 80.953619 
"/>
    <path clip-path="url(#p9bbaa672d8)" d="M 213.361278 80.953619 
L 223.822151 80.953619 
L 222.551795 78.412907 
L 235.255356 82.223976 
L 222.551795 86.035044 
L 223.822151 83.494332 
L 213.361278 83.494332 
L 213.361278 80.953619 
"/>
    <path clip-path="url(#p9bbaa672d8)" d="M 257.823744 80.953619 
L 268.284617 80.953619 
L 267.014261 78.412907 
L 279.717822 82.223976 
L 267.014261 86.035044 
L 268.284617 83.494332 
L 257.823744 83.494332 
L 257.823744 80.953619 
"/>
    <path clip-path="url(#p9bbaa672d8)" d="M 302.28621 80.953619 
L 312.747083 80.953619 
L 311.476726 78.412907 
L 324.180288 82.223976 
L 311.476726 86.035044 
L 312.747083 83.494332 
L 302.28621 83.494332 
L 302.28621 80.953619 
"/>
    <path clip-path="url(#p9bbaa672d8)" d="M 346.748676 80.953619 
L 357.209549 80.953619 
L 355.939192 78.412907 
L 368.642754 82.223976 
L 355.939192 86.035044 
L 357.209549 83.494332 
L 346.748676 83.494332 
L 346.748676 80.953619 
"/>
    <path clip-path="url(#p9bbaa672d8)" d="M 391.211141 80.953619 
L 401.672014 80.953619 
L 400.401658 78.412907 
L 413.10522 82.223976 
L 400.401658 86.035044 
L 401.672014 83.494332 
L 391.211141 83.494332 
L 391.211141 80.953619 
"/>
    <path clip-path="url(#p9bbaa672d8)" d="M 435.673607 80.953619 
L 446.13448 80.953619 
L 444.864124 78.412907 
L 457.567686 82.223976 
L 444.864124 86.035044 
L 446.13448 83.494332 
L 435.673607 83.494332 
L 435.673607 80.953619 
"/>
    <path clip-path="url(#p9bbaa672d8)" d="M 480.136073 80.953619 
L 490.596946 80.953619 
L 489.32659 78.412907 
L 502.030152 82.223976 
L 489.32659 86.035044 
L 490.596946 83.494332 
L 480.136073 83.494332 
L 480.136073 80.953619 
"/>
    <path clip-path="url(#p9bbaa672d8)" d="M 524.598539 80.953619 
L 535.059412 80.953619 
L 533.789056 78.412907 
L 546.492618 82.223976 
L 533.789056 86.035044 
L 535.059412 83.494332 
L 524.598539 83.494332 
L 524.598539 80.953619 
"/>
    <path clip-path="url(#p9bbaa672d8)" d="M 569.061005 80.953619 
L 579.521878 80.953619 
L 578.251522 78.412907 
L 590.955084 82.223976 
L 578.251522 86.035044 
L 579.521878 83.494332 
L 569.061005 83.494332 
L 569.061005 80.953619 
"/>
    <path clip-path="url(#p9bbaa672d8)" d="M 613.523471 80.953619 
L 623.984344 80.953619 
L 622.713988 78.412907 
L 635.417549 82.223976 
L 622.713988 86.035044 
L 623.984344 83.494332 
L 613.523471 83.494332 
L 613.523471 80.953619 
"/>
    <path clip-path="url(#p9bbaa672d8)" d="M 35.511414 59.398225 
L 37.988323 59.398225 
L 36.717967 56.857512 
L 49.421528 60.668581 
L 36.717967 64.479649 
L 37.988323 61.938937 
L 35.511414 61.938937 
L 35.511414 59.398225 
"/>
    <path clip-path="url(#p9bbaa672d8)" d="M 79.97388 59.398225 
L 82.450789 59.398225 
L 81.180433 56.857512 
L 93.883994 60.668581 
L 81.180433 64.479649 
L 82.450789 61.938937 
L 79.97388 61.938937 
L 79.97388 59.398225 
"/>
    <path clip-path="url(#p9bbaa672d8)" d="M 124.436346 59.398225 
L 126.913255 59.398225 
L 125.642899 56.857512 
L 138.34646 60.668581 
L 125.642899 64.479649 
L 126.913255 61.938937 
L 124.436346 61.938937 
L 124.436346 59.398225 
"/>
    <path clip-path="url(#p9bbaa672d8)" d="M 168.898812 59.398225 
L 171.375721 59.398225 
L 170.105364 56.857512 
L 182.808926 60.668581 
L 170.105364 64.479649 
L 171.375721 61.938937 
L 168.898812 61.938937 
L 168.898812 59.398225 
"/>
    <path clip-path="url(#p9bbaa672d8)" d="M 213.361278 59.398225 
L 215.838186 59.398225 
L 214.56783 56.857512 
L 227.271392 60.668581 
L 214.56783 64.479649 
L 215.838186 61.938937 
L 213.361278 61.938937 
L 213.361278 59.398225 
"/>
    <path clip-path="url(#p9bbaa672d8)" d="M 257.823744 59.398225 
L 260.300652 59.398225 
L 259.030296 56.857512 
L 271.733858 60.668581 
L 259.030296 64.479649 
L 260.300652 61.938937 
L 257.823744 61.938937 
L 257.823744 59.398225 
"/>
    <path clip-path="url(#p9bbaa672d8)" d="M 302.28621 59.398225 
L 304.763118 59.398225 
L 303.492762 56.857512 
L 316.196324 60.668581 
L 303.492762 64.479649 
L 304.763118 61.938937 
L 302.28621 61.938937 
L 302.28621 59.398225 
"/>
    <path clip-path="url(#p9bbaa672d8)" d="M 346.748676 59.398225 
L 349.225584 59.398225 
L 347.955228 56.857512 
L 360.65879 60.668581 
L 347.955228 64.479649 
L 349.225584 61.938937 
L 346.748676 61.938937 
L 346.748676 59.398225 
"/>
    <path clip-path="url(#p9bbaa672d8)" d="M 391.211141 59.398225 
L 393.68805 59.398225 
L 392.417694 56.857512 
L 405.121256 60.668581 
L 392.417694 64.479649 
L 393.68805 61.938937 
L 391.211141 61.938937 
L 391.211141 59.398225 
"/>
    <path clip-path="url(#p9bbaa672d8)" d="M 435.673607 59.398225 
L 438.150516 59.398225 
L 436.88016 56.857512 
L 449.583722 60.668581 
L 436.88016 64.479649 
L 438.150516 61.938937 
L 435.673607 61.938937 
L 435.673607 59.398225 
"/>
    <path clip-path="url(#p9bbaa672d8)" d="M 480.136073 59.398225 
L 482.612982 59.398225 
L 481.342626 56.857512 
L 494.046187 60.668581 
L 481.342626 64.479649 
L 482.612982 61.938937 
L 480.136073 61.938937 
L 480.136073 59.398225 
"/>
    <path clip-path="url(#p9bbaa672d8)" d="M 524.598539 59.398225 
L 527.075448 59.398225 
L 525.805092 56.857512 
L 538.508653 60.668581 
L 525.805092 64.479649 
L 527.075448 61.938937 
L 524.598539 61.938937 
L 524.598539 59.398225 
"/>
    <path clip-path="url(#p9bbaa672d8)" d="M 569.061005 59.398225 
L 571.537914 59.398225 
L 570.267558 56.857512 
L 582.971119 60.668581 
L 570.267558 64.479649 
L 571.537914 61.938937 
L 569.061005 61.938937 
L 569.061005 59.398225 
"/>
    <path clip-path="url(#p9bbaa672d8)" d="M 613.523471 59.398225 
L 616.00038 59.398225 
L 614.730023 56.857512 
L 627.433585 60.668581 
L 614.730023 64.479649 
L 616.00038 61.938937 
L 613.523471 61.938937 
L 613.523471 59.398225 
"/>
    <path clip-path="url(#p9bbaa672d8)" d="M 35.511414 38.728247 
L 35.896354 38.728247 
L 35.511414 37.958368 
L 39.36081 39.113186 
L 35.511414 40.268005 
L 35.896354 39.498126 
L 35.511414 39.498126 
L 35.511414 38.728247 
"/>
    <path clip-path="url(#p9bbaa672d8)" d="M 79.97388 38.728247 
L 80.35882 38.728247 
L 79.97388 37.958368 
L 83.823276 39.113186 
L 79.97388 40.268005 
L 80.35882 39.498126 
L 79.97388 39.498126 
L 79.97388 38.728247 
"/>
    <path clip-path="url(#p9bbaa672d8)" d="M 124.436346 38.728247 
L 124.821286 38.728247 
L 124.436346 37.958368 
L 128.285742 39.113186 
L 124.436346 40.268005 
L 124.821286 39.498126 
L 124.436346 39.498126 
L 124.436346 38.728247 
"/>
    <path clip-path="url(#p9bbaa672d8)" d="M 168.898812 38.728247 
L 169.283751 38.728247 
L 168.898812 37.958368 
L 172.748208 39.113186 
L 168.898812 40.268005 
L 169.283751 39.498126 
L 168.898812 39.498126 
L 168.898812 38.728247 
"/>
    <path clip-path="url(#p9bbaa672d8)" d="M 213.361278 38.728247 
L 213.746217 38.728247 
L 213.361278 37.958368 
L 217.210673 39.113186 
L 213.361278 40.268005 
L 213.746217 39.498126 
L 213.361278 39.498126 
L 213.361278 38.728247 
"/>
    <path clip-path="url(#p9bbaa672d8)" d="M 257.823744 38.728247 
L 258.208683 38.728247 
L 257.823744 37.958368 
L 261.673139 39.113186 
L 257.823744 40.268005 
L 258.208683 39.498126 
L 257.823744 39.498126 
L 257.823744 38.728247 
"/>
    <path clip-path="url(#p9bbaa672d8)" d="M 302.28621 38.728247 
L 302.671149 38.728247 
L 302.28621 37.958368 
L 306.135605 39.113186 
L 302.28621 40.268005 
L 302.671149 39.498126 
L 302.28621 39.498126 
L 302.28621 38.728247 
"/>
    <path clip-path="url(#p9bbaa672d8)" d="M 346.748676 38.728247 
L 347.133615 38.728247 
L 346.748676 37.958368 
L 350.598071 39.113186 
L 346.748676 40.268005 
L 347.133615 39.498126 
L 346.748676 39.498126 
L 346.748676 38.728247 
"/>
    <path clip-path="url(#p9bbaa672d8)" d="M 391.211141 38.728247 
L 391.596081 38.728247 
L 391.211141 37.958368 
L 395.060537 39.113186 
L 391.211141 40.268005 
L 391.596081 39.498126 
L 391.211141 39.498126 
L 391.211141 38.728247 
"/>
    <path clip-path="url(#p9bbaa672d8)" d="M 435.673607 38.728247 
L 436.058547 38.728247 
L 435.673607 37.958368 
L 439.523003 39.113186 
L 435.673607 40.268005 
L 436.058547 39.498126 
L 435.673607 39.498126 
L 435.673607 38.728247 
"/>
    <path clip-path="url(#p9bbaa672d8)" d="M 480.136073 38.728247 
L 480.521013 38.728247 
L 480.136073 37.958368 
L 483.985469 39.113186 
L 480.136073 40.268005 
L 480.521013 39.498126 
L 480.136073 39.498126 
L 480.136073 38.728247 
"/>
    <path clip-path="url(#p9bbaa672d8)" d="M 524.598539 38.728247 
L 524.983479 38.728247 
L 524.598539 37.958368 
L 528.447935 39.113186 
L 524.598539 40.268005 
L 524.983479 39.498126 
L 524.598539 39.498126 
L 524.598539 38.728247 
"/>
    <path clip-path="url(#p9bbaa672d8)" d="M 569.061005 38.728247 
L 569.445945 38.728247 
L 569.061005 37.958368 
L 572.910401 39.113186 
L 569.061005 40.268005 
L 569.445945 39.498126 
L 569.061005 39.498126 
L 569.061005 38.728247 
"/>
    <path clip-path="url(#p9bbaa672d8)" d="M 613.523471 38.728247 
L 613.90841 38.728247 
L 613.523471 37.958368 
L 617.372866 39.113186 
L 613.523471 40.268005 
L 613.90841 39.498126 
L 613.523471 39.498126 
L 613.523471 38.728247 
"/>
   </g>
   <g id="matplotlib.axis_1">
    <g id="xtick_1">
     <g id="line2d_1">
      <defs>
       <path d="M 0 0 
L 0 3.5 
" id="m5105ad2a3b" style="stroke:#000000;stroke-width:0.8;"/>
      </defs>
      <g>
       <use style="stroke:#000000;stroke-width:0.8;" x="35.511414" xlink:href="#m5105ad2a3b" y="333.344323"/>
      </g>
     </g>
     <g id="text_1">
      <!-- $0.00$ -->
      <defs>
       <path d="M 42 31.640625 
C 42 37.75 41.90625 48.125 37.703125 56.109375 
C 34 63.109375 28.09375 65.59375 22.90625 65.59375 
C 18.09375 65.59375 12 63.40625 8.203125 56.203125 
C 4.203125 48.71875 3.796875 39.4375 3.796875 31.640625 
C 3.796875 25.953125 3.90625 17.28125 7 9.671875 
C 11.296875 -0.609375 19 -2 22.90625 -2 
C 27.5 -2 34.5 -0.109375 38.59375 9.375 
C 41.59375 16.28125 42 24.359375 42 31.640625 
z
M 22.90625 -0.40625 
C 16.5 -0.40625 12.703125 5.078125 11.296875 12.6875 
C 10.203125 18.5625 10.203125 27.15625 10.203125 32.75 
C 10.203125 40.4375 10.203125 46.828125 11.5 52.921875 
C 13.40625 61.390625 19 64 22.90625 64 
C 27 64 32.296875 61.296875 34.203125 53.125 
C 35.5 47.4375 35.59375 40.734375 35.59375 32.75 
C 35.59375 26.25 35.59375 18.265625 34.40625 12.375 
C 32.296875 1.484375 26.40625 -0.40625 22.90625 -0.40625 
z
" id="CMR17-48"/>
       <path d="M 18.40625 4.796875 
C 18.40625 7.6875 16 9.671875 13.59375 9.671875 
C 10.703125 9.671875 8.703125 7.28125 8.703125 4.890625 
C 8.703125 2 11.09375 0 13.5 0 
C 16.40625 0 18.40625 2.390625 18.40625 4.796875 
z
" id="CMMI12-58"/>
      </defs>
      <g transform="translate(26.655707 347.262822)scale(0.1 -0.1)">
       <use transform="scale(0.996264)" xlink:href="#CMR17-48"/>
       <use transform="translate(45.690477 0)scale(0.996264)" xlink:href="#CMMI12-58"/>
       <use transform="translate(72.787654 0)scale(0.996264)" xlink:href="#CMR17-48"/>
       <use transform="translate(118.478131 0)scale(0.996264)" xlink:href="#CMR17-48"/>
      </g>
     </g>
    </g>
    <g id="xtick_2">
     <g id="line2d_2">
      <g>
       <use style="stroke:#000000;stroke-width:0.8;" x="109.615524" xlink:href="#m5105ad2a3b" y="333.344323"/>
      </g>
     </g>
     <g id="text_2">
      <!-- $0.25$ -->
      <defs>
       <path d="M 41.703125 15.453125 
L 39.90625 15.453125 
C 38.90625 8.375 38.09375 7.171875 37.703125 6.5625 
C 37.203125 5.765625 30 5.765625 28.59375 5.765625 
L 9.40625 5.765625 
C 13 9.671875 20 16.75 28.5 24.953125 
C 34.59375 30.734375 41.703125 37.53125 41.703125 47.421875 
C 41.703125 59.21875 32.296875 66 21.796875 66 
C 10.796875 66 4.09375 56.3125 4.09375 47.34375 
C 4.09375 43.4375 7 42.9375 8.203125 42.9375 
C 9.203125 42.9375 12.203125 43.546875 12.203125 47.03125 
C 12.203125 50.109375 9.59375 51 8.203125 51 
C 7.59375 51 7 50.90625 6.59375 50.703125 
C 8.5 59.21875 14.296875 63.40625 20.40625 63.40625 
C 29.09375 63.40625 34.796875 56.515625 34.796875 47.421875 
C 34.796875 38.734375 29.703125 31.25 24 24.75 
L 4.09375 2.28125 
L 4.09375 0 
L 39.296875 0 
z
" id="CMR17-50"/>
       <path d="M 11.40625 57.6875 
C 12.40625 57.28125 16.5 56 20.703125 56 
C 30 56 35.09375 61.109375 38 64.0625 
C 38 64.953125 38 65.5 37.40625 65.5 
C 37.296875 65.5 37.09375 65.5 36.296875 65.046875 
C 32.796875 63.40625 28.703125 62.078125 23.703125 62.078125 
C 20.703125 62.078125 16.203125 62.484375 11.296875 64.671875 
C 10.203125 65.171875 10 65.171875 9.90625 65.171875 
C 9.40625 65.171875 9.296875 65.0625 9.296875 63.078125 
L 9.296875 34.421875 
C 9.296875 32.640625 9.296875 32.140625 10.296875 32.140625 
C 10.796875 32.140625 11 32.34375 11.5 33.03125 
C 14.703125 37.515625 19.09375 39.40625 24.09375 39.40625 
C 27.59375 39.40625 35.09375 37.21875 35.09375 20.140625 
C 35.09375 16.953125 35.09375 11.171875 32.09375 6.578125 
C 29.59375 2.484375 25.703125 0.390625 21.40625 0.390625 
C 14.796875 0.390625 8.09375 5 6.296875 12.71875 
C 6.703125 12.609375 7.5 12.421875 7.90625 12.421875 
C 9.203125 12.421875 11.703125 13.125 11.703125 16.21875 
C 11.703125 18.90625 9.796875 20 7.90625 20 
C 5.59375 20 4.09375 18.59375 4.09375 15.796875 
C 4.09375 7.09375 11 -2 21.59375 -2 
C 31.90625 -2 41.703125 6.875 41.703125 19.75 
C 41.703125 31.71875 33.90625 41 24.203125 41 
C 19.09375 41 14.796875 39.109375 11.40625 35.53125 
z
" id="CMR17-53"/>
      </defs>
      <g transform="translate(100.759817 347.262822)scale(0.1 -0.1)">
       <use transform="scale(0.996264)" xlink:href="#CMR17-48"/>
       <use transform="translate(45.690477 0)scale(0.996264)" xlink:href="#CMMI12-58"/>
       <use transform="translate(72.787654 0)scale(0.996264)" xlink:href="#CMR17-50"/>
       <use transform="translate(118.478131 0)scale(0.996264)" xlink:href="#CMR17-53"/>
      </g>
     </g>
    </g>
    <g id="xtick_3">
     <g id="line2d_3">
      <g>
       <use style="stroke:#000000;stroke-width:0.8;" x="183.719634" xlink:href="#m5105ad2a3b" y="333.344323"/>
      </g>
     </g>
     <g id="text_3">
      <!-- $0.50$ -->
      <g transform="translate(174.863927 347.262822)scale(0.1 -0.1)">
       <use transform="scale(0.996264)" xlink:href="#CMR17-48"/>
       <use transform="translate(45.690477 0)scale(0.996264)" xlink:href="#CMMI12-58"/>
       <use transform="translate(72.787654 0)scale(0.996264)" xlink:href="#CMR17-53"/>
       <use transform="translate(118.478131 0)scale(0.996264)" xlink:href="#CMR17-48"/>
      </g>
     </g>
    </g>
    <g id="xtick_4">
     <g id="line2d_4">
      <g>
       <use style="stroke:#000000;stroke-width:0.8;" x="257.823744" xlink:href="#m5105ad2a3b" y="333.344323"/>
      </g>
     </g>
     <g id="text_4">
      <!-- $0.75$ -->
      <defs>
       <path d="M 45.09375 61.578125 
L 45.09375 63.765625 
L 21.59375 63.765625 
C 9.90625 63.765625 9.703125 65.078125 9.296875 67 
L 7.5 67 
L 4.59375 48.34375 
L 6.40625 48.34375 
C 6.703125 50.234375 7.40625 55.3125 8.59375 57.203125 
C 9.203125 58 16.59375 58 18.296875 58 
L 40.296875 58 
L 29.203125 41.578125 
C 21.796875 30.53125 16.703125 15.609375 16.703125 2.578125 
C 16.703125 1.390625 16.703125 -2 20.296875 -2 
C 23.90625 -2 23.90625 1.390625 23.90625 2.671875 
L 23.90625 7.265625 
C 23.90625 23.5625 26.703125 34.3125 31.296875 41.1875 
z
" id="CMR17-55"/>
      </defs>
      <g transform="translate(248.968037 347.262822)scale(0.1 -0.1)">
       <use transform="scale(0.996264)" xlink:href="#CMR17-48"/>
       <use transform="translate(45.690477 0)scale(0.996264)" xlink:href="#CMMI12-58"/>
       <use transform="translate(72.787654 0)scale(0.996264)" xlink:href="#CMR17-55"/>
       <use transform="translate(118.478131 0)scale(0.996264)" xlink:href="#CMR17-53"/>
      </g>
     </g>
    </g>
    <g id="xtick_5">
     <g id="line2d_5">
      <g>
       <use style="stroke:#000000;stroke-width:0.8;" x="331.927854" xlink:href="#m5105ad2a3b" y="333.344323"/>
      </g>
     </g>
     <g id="text_5">
      <!-- $1.00$ -->
      <defs>
       <path d="M 26.59375 63.40625 
C 26.59375 65.5 26.5 65.5 25.09375 65.5 
C 21.203125 61.1875 15.296875 59.796875 9.703125 59.796875 
C 9.40625 59.796875 8.90625 59.796875 8.796875 59.5 
C 8.703125 59.296875 8.703125 59.09375 8.703125 57 
C 11.796875 57 17 57.59375 21 59.984375 
L 21 7.203125 
C 21 3.6875 20.796875 2.5 12.203125 2.5 
L 9.203125 2.5 
L 9.203125 0 
C 14 0 19 0 23.796875 0 
C 28.59375 0 33.59375 0 38.40625 0 
L 38.40625 2.5 
L 35.40625 2.5 
C 26.796875 2.5 26.59375 3.59375 26.59375 7.15625 
z
" id="CMR17-49"/>
      </defs>
      <g transform="translate(323.072146 347.262822)scale(0.1 -0.1)">
       <use transform="scale(0.996264)" xlink:href="#CMR17-49"/>
       <use transform="translate(45.690477 0)scale(0.996264)" xlink:href="#CMMI12-58"/>
       <use transform="translate(72.787654 0)scale(0.996264)" xlink:href="#CMR17-48"/>
       <use transform="translate(118.478131 0)scale(0.996264)" xlink:href="#CMR17-48"/>
      </g>
     </g>
    </g>
    <g id="xtick_6">
     <g id="line2d_6">
      <g>
       <use style="stroke:#000000;stroke-width:0.8;" x="406.031963" xlink:href="#m5105ad2a3b" y="333.344323"/>
      </g>
     </g>
     <g id="text_6">
      <!-- $1.25$ -->
      <g transform="translate(397.176256 347.262822)scale(0.1 -0.1)">
       <use transform="scale(0.996264)" xlink:href="#CMR17-49"/>
       <use transform="translate(45.690477 0)scale(0.996264)" xlink:href="#CMMI12-58"/>
       <use transform="translate(72.787654 0)scale(0.996264)" xlink:href="#CMR17-50"/>
       <use transform="translate(118.478131 0)scale(0.996264)" xlink:href="#CMR17-53"/>
      </g>
     </g>
    </g>
    <g id="xtick_7">
     <g id="line2d_7">
      <g>
       <use style="stroke:#000000;stroke-width:0.8;" x="480.136073" xlink:href="#m5105ad2a3b" y="333.344323"/>
      </g>
     </g>
     <g id="text_7">
      <!-- $1.50$ -->
      <g transform="translate(471.280366 347.262822)scale(0.1 -0.1)">
       <use transform="scale(0.996264)" xlink:href="#CMR17-49"/>
       <use transform="translate(45.690477 0)scale(0.996264)" xlink:href="#CMMI12-58"/>
       <use transform="translate(72.787654 0)scale(0.996264)" xlink:href="#CMR17-53"/>
       <use transform="translate(118.478131 0)scale(0.996264)" xlink:href="#CMR17-48"/>
      </g>
     </g>
    </g>
    <g id="xtick_8">
     <g id="line2d_8">
      <g>
       <use style="stroke:#000000;stroke-width:0.8;" x="554.240183" xlink:href="#m5105ad2a3b" y="333.344323"/>
      </g>
     </g>
     <g id="text_8">
      <!-- $1.75$ -->
      <g transform="translate(545.384476 347.262822)scale(0.1 -0.1)">
       <use transform="scale(0.996264)" xlink:href="#CMR17-49"/>
       <use transform="translate(45.690477 0)scale(0.996264)" xlink:href="#CMMI12-58"/>
       <use transform="translate(72.787654 0)scale(0.996264)" xlink:href="#CMR17-55"/>
       <use transform="translate(118.478131 0)scale(0.996264)" xlink:href="#CMR17-53"/>
      </g>
     </g>
    </g>
    <g id="xtick_9">
     <g id="line2d_9">
      <g>
       <use style="stroke:#000000;stroke-width:0.8;" x="628.344293" xlink:href="#m5105ad2a3b" y="333.344323"/>
      </g>
     </g>
     <g id="text_9">
      <!-- $2.00$ -->
      <g transform="translate(619.488586 347.262822)scale(0.1 -0.1)">
       <use transform="scale(0.996264)" xlink:href="#CMR17-50"/>
       <use transform="translate(45.690477 0)scale(0.996264)" xlink:href="#CMMI12-58"/>
       <use transform="translate(72.787654 0)scale(0.996264)" xlink:href="#CMR17-48"/>
       <use transform="translate(118.478131 0)scale(0.996264)" xlink:href="#CMR17-48"/>
      </g>
     </g>
    </g>
   </g>
   <g id="matplotlib.axis_2">
    <g id="ytick_1">
     <g id="line2d_10">
      <defs>
       <path d="M 0 0 
L -3.5 0 
" id="m5f02444a48" style="stroke:#000000;stroke-width:0.8;"/>
      </defs>
      <g>
       <use style="stroke:#000000;stroke-width:0.8;" x="35.511414" xlink:href="#m5f02444a48" y="319.333317"/>
      </g>
     </g>
     <g id="text_10">
      <!-- $0.00$ -->
      <g transform="translate(10.8 322.792566)scale(0.1 -0.1)">
       <use transform="scale(0.996264)" xlink:href="#CMR17-48"/>
       <use transform="translate(45.690477 0)scale(0.996264)" xlink:href="#CMMI12-58"/>
       <use transform="translate(72.787654 0)scale(0.996264)" xlink:href="#CMR17-48"/>
       <use transform="translate(118.478131 0)scale(0.996264)" xlink:href="#CMR17-48"/>
      </g>
     </g>
    </g>
    <g id="ytick_2">
     <g id="line2d_11">
      <g>
       <use style="stroke:#000000;stroke-width:0.8;" x="35.511414" xlink:href="#m5f02444a48" y="283.407659"/>
      </g>
     </g>
     <g id="text_11">
      <!-- $0.25$ -->
      <g transform="translate(10.8 286.866908)scale(0.1 -0.1)">
       <use transform="scale(0.996264)" xlink:href="#CMR17-48"/>
       <use transform="translate(45.690477 0)scale(0.996264)" xlink:href="#CMMI12-58"/>
       <use transform="translate(72.787654 0)scale(0.996264)" xlink:href="#CMR17-50"/>
       <use transform="translate(118.478131 0)scale(0.996264)" xlink:href="#CMR17-53"/>
      </g>
     </g>
    </g>
    <g id="ytick_3">
     <g id="line2d_12">
      <g>
       <use style="stroke:#000000;stroke-width:0.8;" x="35.511414" xlink:href="#m5f02444a48" y="247.482001"/>
      </g>
     </g>
     <g id="text_12">
      <!-- $0.50$ -->
      <g transform="translate(10.8 250.94125)scale(0.1 -0.1)">
       <use transform="scale(0.996264)" xlink:href="#CMR17-48"/>
       <use transform="translate(45.690477 0)scale(0.996264)" xlink:href="#CMMI12-58"/>
       <use transform="translate(72.787654 0)scale(0.996264)" xlink:href="#CMR17-53"/>
       <use transform="translate(118.478131 0)scale(0.996264)" xlink:href="#CMR17-48"/>
      </g>
     </g>
    </g>
    <g id="ytick_4">
     <g id="line2d_13">
      <g>
       <use style="stroke:#000000;stroke-width:0.8;" x="35.511414" xlink:href="#m5f02444a48" y="211.556344"/>
      </g>
     </g>
     <g id="text_13">
      <!-- $0.75$ -->
      <g transform="translate(10.8 215.015593)scale(0.1 -0.1)">
       <use transform="scale(0.996264)" xlink:href="#CMR17-48"/>
       <use transform="translate(45.690477 0)scale(0.996264)" xlink:href="#CMMI12-58"/>
       <use transform="translate(72.787654 0)scale(0.996264)" xlink:href="#CMR17-55"/>
       <use transform="translate(118.478131 0)scale(0.996264)" xlink:href="#CMR17-53"/>
      </g>
     </g>
    </g>
    <g id="ytick_5">
     <g id="line2d_14">
      <g>
       <use style="stroke:#000000;stroke-width:0.8;" x="35.511414" xlink:href="#m5f02444a48" y="175.630686"/>
      </g>
     </g>
     <g id="text_14">
      <!-- $1.00$ -->
      <g transform="translate(10.8 179.089935)scale(0.1 -0.1)">
       <use transform="scale(0.996264)" xlink:href="#CMR17-49"/>
       <use transform="translate(45.690477 0)scale(0.996264)" xlink:href="#CMMI12-58"/>
       <use transform="translate(72.787654 0)scale(0.996264)" xlink:href="#CMR17-48"/>
       <use transform="translate(118.478131 0)scale(0.996264)" xlink:href="#CMR17-48"/>
      </g>
     </g>
    </g>
    <g id="ytick_6">
     <g id="line2d_15">
      <g>
       <use style="stroke:#000000;stroke-width:0.8;" x="35.511414" xlink:href="#m5f02444a48" y="139.705028"/>
      </g>
     </g>
     <g id="text_15">
      <!-- $1.25$ -->
      <g transform="translate(10.8 143.164277)scale(0.1 -0.1)">
       <use transform="scale(0.996264)" xlink:href="#CMR17-49"/>
       <use transform="translate(45.690477 0)scale(0.996264)" xlink:href="#CMMI12-58"/>
       <use transform="translate(72.787654 0)scale(0.996264)" xlink:href="#CMR17-50"/>
       <use transform="translate(118.478131 0)scale(0.996264)" xlink:href="#CMR17-53"/>
      </g>
     </g>
    </g>
    <g id="ytick_7">
     <g id="line2d_16">
      <g>
       <use style="stroke:#000000;stroke-width:0.8;" x="35.511414" xlink:href="#m5f02444a48" y="103.77937"/>
      </g>
     </g>
     <g id="text_16">
      <!-- $1.50$ -->
      <g transform="translate(10.8 107.238619)scale(0.1 -0.1)">
       <use transform="scale(0.996264)" xlink:href="#CMR17-49"/>
       <use transform="translate(45.690477 0)scale(0.996264)" xlink:href="#CMMI12-58"/>
       <use transform="translate(72.787654 0)scale(0.996264)" xlink:href="#CMR17-53"/>
       <use transform="translate(118.478131 0)scale(0.996264)" xlink:href="#CMR17-48"/>
      </g>
     </g>
    </g>
    <g id="ytick_8">
     <g id="line2d_17">
      <g>
       <use style="stroke:#000000;stroke-width:0.8;" x="35.511414" xlink:href="#m5f02444a48" y="67.853713"/>
      </g>
     </g>
     <g id="text_17">
      <!-- $1.75$ -->
      <g transform="translate(10.8 71.312962)scale(0.1 -0.1)">
       <use transform="scale(0.996264)" xlink:href="#CMR17-49"/>
       <use transform="translate(45.690477 0)scale(0.996264)" xlink:href="#CMMI12-58"/>
       <use transform="translate(72.787654 0)scale(0.996264)" xlink:href="#CMR17-55"/>
       <use transform="translate(118.478131 0)scale(0.996264)" xlink:href="#CMR17-53"/>
      </g>
     </g>
    </g>
    <g id="ytick_9">
     <g id="line2d_18">
      <g>
       <use style="stroke:#000000;stroke-width:0.8;" x="35.511414" xlink:href="#m5f02444a48" y="31.928055"/>
      </g>
     </g>
     <g id="text_18">
      <!-- $2.00$ -->
      <g transform="translate(10.8 35.387304)scale(0.1 -0.1)">
       <use transform="scale(0.996264)" xlink:href="#CMR17-50"/>
       <use transform="translate(45.690477 0)scale(0.996264)" xlink:href="#CMMI12-58"/>
       <use transform="translate(72.787654 0)scale(0.996264)" xlink:href="#CMR17-48"/>
       <use transform="translate(118.478131 0)scale(0.996264)" xlink:href="#CMR17-48"/>
      </g>
     </g>
    </g>
   </g>
   <g id="patch_3">
    <path d="M 35.511414 333.344323 
L 35.511414 25.10218 
" style="fill:none;stroke:#000000;stroke-linecap:square;stroke-linejoin:miter;stroke-width:0.8;"/>
   </g>
   <g id="patch_4">
    <path d="M 628.344293 333.344323 
L 628.344293 25.10218 
" style="fill:none;stroke:#000000;stroke-linecap:square;stroke-linejoin:miter;stroke-width:0.8;"/>
   </g>
   <g id="patch_5">
    <path d="M 35.511414 333.344323 
L 628.344293 333.344323 
" style="fill:none;stroke:#000000;stroke-linecap:square;stroke-linejoin:miter;stroke-width:0.8;"/>
   </g>
   <g id="patch_6">
    <path d="M 35.511414 25.10218 
L 628.344293 25.10218 
" style="fill:none;stroke:#000000;stroke-linecap:square;stroke-linejoin:miter;stroke-width:0.8;"/>
   </g>
   <g id="text_19">
    <!-- Professor -->
    <defs>
     <path d="M 19.796875 31.90625 
L 35.796875 31.90625 
C 48.703125 31.90625 58.09375 40.28125 58.09375 49.75 
C 58.09375 59.234375 48.90625 68 35.796875 68 
L 5.203125 68 
L 5.203125 65.40625 
C 12.09375 65.40625 13.203125 65.40625 13.203125 60.921875 
L 13.203125 6.96875 
C 13.203125 2.5 12.09375 2.5 5.203125 2.5 
L 5.203125 0 
C 8.09375 0 13.40625 0 16.5 0 
C 19.59375 0 24.90625 0 27.796875 0 
L 27.796875 2.5 
C 20.90625 2.5 19.796875 2.5 19.796875 6.96875 
z
M 19.59375 34 
L 19.59375 61.53125 
C 19.59375 64.921875 19.796875 65.40625 23.796875 65.40625 
L 33.90625 65.40625 
C 46.796875 65.40625 50.5 58.03125 50.5 49.75 
C 50.5 40.6875 46.09375 34 33.90625 34 
z
" id="CMR17-80"/>
     <path d="M 15 23.390625 
C 15 33 19.09375 42 26.59375 42 
C 27.296875 42 28 41.90625 28.703125 41.59375 
C 28.703125 41.59375 26.5 40.890625 26.5 38.3125 
C 26.5 35.90625 28.40625 34.90625 29.90625 34.90625 
C 31.09375 34.90625 33.296875 35.609375 33.296875 38.40625 
C 33.296875 41.609375 30.09375 43.59375 26.703125 43.59375 
C 19.09375 43.59375 15.796875 36.203125 14.796875 32.703125 
L 14.703125 32.703125 
L 14.703125 43.59375 
L 3.09375 42.5 
L 3.09375 39.90625 
C 9 39.90625 9.90625 39.296875 9.90625 34.5 
L 9.90625 6.6875 
C 9.90625 2.875 9.5 2.390625 3.09375 2.390625 
L 3.09375 -0.203125 
C 5.5 0 10.09375 0 12.703125 0 
C 15.59375 0 20.703125 0 23.40625 -0.203125 
L 23.40625 2.390625 
C 16.203125 2.390625 15 2.390625 15 6.875 
z
" id="CMR17-114"/>
     <path d="M 43.09375 21.1875 
C 43.09375 34 33.796875 44 22.90625 44 
C 12 44 2.703125 34 2.703125 21.1875 
C 2.703125 8.609375 12 -1 22.90625 -1 
C 33.796875 -1 43.09375 8.609375 43.09375 21.1875 
z
M 22.90625 0.796875 
C 18.203125 0.796875 14.203125 3.59375 11.90625 7.5 
C 9.40625 11.984375 9.09375 17.59375 9.09375 22 
C 9.09375 26.203125 9.296875 31.40625 11.90625 35.90625 
C 13.90625 39.203125 17.796875 42.40625 22.90625 42.40625 
C 27.40625 42.40625 31.203125 39.90625 33.59375 36.40625 
C 36.703125 31.703125 36.703125 25.109375 36.703125 22 
C 36.703125 18.09375 36.5 12.109375 33.796875 7.296875 
C 31 2.703125 26.703125 0.796875 22.90625 0.796875 
z
" id="CMR17-111"/>
     <path d="M 15.296875 40 
L 26.703125 40 
L 26.703125 42.578125 
L 15.09375 42.578125 
L 15.09375 54.59375 
C 15.09375 62.84375 19.296875 68 23.59375 68 
C 24.90625 68 26.40625 67.609375 27.40625 66.90625 
C 26.59375 66.703125 24.5 66.015625 24.5 63.546875 
C 24.5 60.953125 26.5 60.15625 27.90625 60.15625 
C 29.296875 60.15625 31.296875 60.953125 31.296875 63.546875 
C 31.296875 67.3125 27.703125 69.59375 23.703125 69.59375 
C 18 69.59375 10.203125 64.9375 10.203125 54.390625 
L 10.203125 42.578125 
L 2.203125 42.578125 
L 2.203125 40 
L 10.203125 40 
L 10.203125 6.671875 
C 10.203125 2.875 9.796875 2.390625 3.40625 2.390625 
L 3.40625 -0.203125 
C 5.796875 0 10.40625 0 13 0 
C 15.90625 0 21 0 23.703125 -0.203125 
L 23.703125 2.390625 
C 16.5 2.390625 15.296875 2.390625 15.296875 6.859375 
z
" id="CMR17-102"/>
     <path d="M 38.09375 23 
C 38.5 23.40625 38.5 23.609375 38.5 24.625 
C 38.5 34.96875 33.09375 44 21.703125 44 
C 11.09375 44 2.703125 33.890625 2.703125 21.609375 
C 2.703125 8.609375 12.203125 -1 22.796875 -1 
C 34 -1 38.40625 9.484375 38.40625 11.5625 
C 38.40625 12.25 37.796875 12.25 37.59375 12.25 
C 36.90625 12.25 36.796875 12.046875 36.40625 10.875 
C 34.203125 4.140625 28.703125 0.796875 23.5 0.796875 
C 19.203125 0.796875 14.90625 3.171875 12.203125 7.5 
C 9.09375 12.546875 9.09375 18.375 9.09375 23 
z
M 9.203125 24.5 
C 9.90625 39.140625 17.59375 42.40625 21.59375 42.40625 
C 28.40625 42.40625 33 35.890625 33.09375 24.5 
z
" id="CMR17-101"/>
     <path d="M 30.90625 42.140625 
C 30.90625 43.953125 30.796875 44.046875 30.203125 44.046875 
C 29.796875 44.046875 29.703125 43.953125 28.5 42.453125 
C 28.203125 42.046875 27.296875 41.03125 27 40.640625 
C 23.796875 44.046875 19.296875 44.046875 17.59375 44.046875 
C 6.5 44.046875 2.5 38.234375 2.5 32.4375 
C 2.5 23.40625 12.703125 21.328125 15.59375 20.703125 
C 21.90625 19.421875 24.09375 19.015625 26.203125 17.203125 
C 27.5 16.015625 29.703125 13.8125 29.703125 10.21875 
C 29.703125 6 27.296875 0.59375 18.09375 0.59375 
C 9.40625 0.59375 6.296875 7.1875 4.5 15.953125 
C 4.203125 17.34375 4.203125 17.453125 3.40625 17.453125 
C 2.59375 17.453125 2.5 17.34375 2.5 15.359375 
L 2.5 0.984375 
C 2.5 -0.796875 2.59375 -0.90625 3.203125 -0.90625 
C 3.703125 -0.90625 3.796875 -0.796875 4.296875 0 
C 4.90625 0.890625 6.40625 3.296875 7 4.3125 
C 9 1.609375 12.5 -1 18.09375 -1 
C 28 -1 33.296875 4.421875 33.296875 12.25 
C 33.296875 17.375 30.59375 20.078125 29.296875 21.28125 
C 26.296875 24.390625 22.796875 25.09375 18.59375 25.890625 
C 13.09375 27.109375 6.09375 28.515625 6.09375 34.640625 
C 6.09375 37.234375 7.5 42.765625 17.59375 42.765625 
C 28.296875 42.765625 28.90625 32.71875 29.09375 29.5 
C 29.203125 29 29.703125 28.890625 30 28.890625 
C 30.90625 28.890625 30.90625 29.203125 30.90625 30.90625 
z
" id="CMR17-115"/>
    </defs>
    <g transform="translate(308.533185 19.10218)scale(0.12 -0.12)">
     <use transform="scale(0.996264)" xlink:href="#CMR17-80"/>
     <use transform="translate(62.586301 0)scale(0.996264)" xlink:href="#CMR17-114"/>
     <use transform="translate(97.867068 0)scale(0.996264)" xlink:href="#CMR17-111"/>
     <use transform="translate(143.557545 0)scale(0.996264)" xlink:href="#CMR17-102"/>
     <use transform="translate(171.031058 0)scale(0.996264)" xlink:href="#CMR17-101"/>
     <use transform="translate(211.516718 0)scale(0.996264)" xlink:href="#CMR17-115"/>
     <use transform="translate(247.318056 0)scale(0.996264)" xlink:href="#CMR17-115"/>
     <use transform="translate(283.119394 0)scale(0.996264)" xlink:href="#CMR17-111"/>
     <use transform="translate(328.809871 0)scale(0.996264)" xlink:href="#CMR17-114"/>
    </g>
   </g>
  </g>
 </g>
 <defs>
  <clipPath id="p9bbaa672d8">
   <rect height="308.242143" width="592.832879" x="35.511414" y="25.10218"/>
  </clipPath>
 </defs>
</svg>
