<?xml version="1.0" encoding="utf-8" standalone="no"?>
<!DOCTYPE svg PUBLIC "-//W3C//DTD SVG 1.1//EN"
  "http://www.w3.org/Graphics/SVG/1.1/DTD/svg11.dtd">
<!-- Created with matplotlib (https://matplotlib.org/) -->
<svg height="144pt" version="1.1" viewBox="0 0 432 144" width="432pt" xmlns="http://www.w3.org/2000/svg" xmlns:xlink="http://www.w3.org/1999/xlink">
 <metadata>
  <rdf:RDF xmlns:cc="http://creativecommons.org/ns#" xmlns:dc="http://purl.org/dc/elements/1.1/" xmlns:rdf="http://www.w3.org/1999/02/22-rdf-syntax-ns#">
   <cc:Work>
    <dc:type rdf:resource="http://purl.org/dc/dcmitype/StillImage"/>
    <dc:date>2021-09-09T13:56:43.202765</dc:date>
    <dc:format>image/svg+xml</dc:format>
    <dc:creator>
     <cc:Agent>
      <dc:title>Matplotlib v3.3.2, https://matplotlib.org/</dc:title>
     </cc:Agent>
    </dc:creator>
   </cc:Work>
  </rdf:RDF>
 </metadata>
 <defs>
  <style type="text/css">*{stroke-linecap:butt;stroke-linejoin:round;}</style>
 </defs>
 <g id="figure_1">
  <g id="patch_1">
   <path d="M 0 144 
L 432 144 
L 432 0 
L 0 0 
z
" style="fill:#ffffff;"/>
  </g>
  <g id="axes_1">
   <g id="patch_2">
    <path d="M 26.482378 116.565118 
L 424.260122 116.565118 
L 424.260122 0.944882 
L 26.482378 0.944882 
z
" style="fill:#ffffff;"/>
   </g>
   <g id="matplotlib.axis_1">
    <g id="xtick_1">
     <g id="line2d_1">
      <path clip-path="url(#p8e60fab192)" d="M 26.482378 116.565118 
L 26.482378 0.944882 
" style="fill:none;stroke:#000000;stroke-linecap:square;stroke-opacity:0.1;stroke-width:0.5;"/>
     </g>
     <g id="line2d_2">
      <defs>
       <path d="M 0 0 
L 0 -2.5 
" id="m41d7210d59" style="stroke:#000000;stroke-width:0.5;"/>
      </defs>
      <g>
       <use style="stroke:#000000;stroke-width:0.5;" x="26.482378" xlink:href="#m41d7210d59" y="116.565118"/>
      </g>
     </g>
     <g id="text_1">
      <!-- $\mathregular{0}$ -->
      <g transform="translate(24.232378 126.311681)scale(0.09 -0.09)">
       <defs>
        <path d="M 46 32 
C 46 40 45.5 48 42 55.40625 
C 37.40625 65 29.203125 66.59375 25 66.59375 
C 19 66.59375 11.703125 64 7.59375 54.703125 
C 4.40625 47.796875 3.90625 40 3.90625 32 
C 3.90625 24.5 4.296875 15.5 8.40625 7.90625 
C 12.703125 -0.203125 20 -2.203125 24.90625 -2.203125 
C 30.296875 -2.203125 37.90625 -0.09375 42.296875 9.40625 
C 45.5 16.296875 46 24.09375 46 32 
z
M 37.703125 33.203125 
C 37.703125 25.703125 37.703125 18.90625 36.59375 12.5 
C 35.09375 3 29.40625 0 24.90625 0 
C 21 0 15.09375 2.5 13.296875 12.09375 
C 12.203125 18.09375 12.203125 27.296875 12.203125 33.203125 
C 12.203125 39.59375 12.203125 46.203125 13 51.59375 
C 14.90625 63.5 22.40625 64.40625 24.90625 64.40625 
C 28.203125 64.40625 34.796875 62.59375 36.703125 52.703125 
C 37.703125 47.09375 37.703125 39.5 37.703125 33.203125 
z
" id="LatinModernMath-Regular-48"/>
       </defs>
       <use transform="translate(0 0.40625)" xlink:href="#LatinModernMath-Regular-48"/>
      </g>
     </g>
    </g>
    <g id="xtick_2">
     <g id="line2d_3">
      <path clip-path="url(#p8e60fab192)" d="M 106.037927 116.565118 
L 106.037927 0.944882 
" style="fill:none;stroke:#000000;stroke-linecap:square;stroke-opacity:0.1;stroke-width:0.5;"/>
     </g>
     <g id="line2d_4">
      <g>
       <use style="stroke:#000000;stroke-width:0.5;" x="106.037927" xlink:href="#m41d7210d59" y="116.565118"/>
      </g>
     </g>
     <g id="text_2">
      <!-- $\mathregular{100}$ -->
      <g transform="translate(99.287927 126.311681)scale(0.09 -0.09)">
       <defs>
        <path d="M 41.90625 0 
L 41.90625 3.09375 
L 38.703125 3.09375 
C 29.703125 3.09375 29.40625 4.203125 29.40625 7.90625 
L 29.40625 64 
C 29.40625 66.40625 29.40625 66.59375 27.09375 66.59375 
C 20.90625 60.203125 12.09375 60.203125 8.90625 60.203125 
L 8.90625 57.09375 
C 10.90625 57.09375 16.796875 57.09375 22 59.703125 
L 22 7.90625 
C 22 4.296875 21.703125 3.09375 12.703125 3.09375 
L 9.5 3.09375 
L 9.5 0 
C 13 0.296875 21.703125 0.296875 25.703125 0.296875 
C 29.703125 0.296875 38.40625 0.296875 41.90625 0 
z
" id="LatinModernMath-Regular-49"/>
       </defs>
       <use transform="translate(0 0.40625)" xlink:href="#LatinModernMath-Regular-49"/>
       <use transform="translate(49.999985 0.40625)" xlink:href="#LatinModernMath-Regular-48"/>
       <use transform="translate(99.999969 0.40625)" xlink:href="#LatinModernMath-Regular-48"/>
      </g>
     </g>
    </g>
    <g id="xtick_3">
     <g id="line2d_5">
      <path clip-path="url(#p8e60fab192)" d="M 185.593476 116.565118 
L 185.593476 0.944882 
" style="fill:none;stroke:#000000;stroke-linecap:square;stroke-opacity:0.1;stroke-width:0.5;"/>
     </g>
     <g id="line2d_6">
      <g>
       <use style="stroke:#000000;stroke-width:0.5;" x="185.593476" xlink:href="#m41d7210d59" y="116.565118"/>
      </g>
     </g>
     <g id="text_3">
      <!-- $\mathregular{200}$ -->
      <g transform="translate(178.843476 126.311681)scale(0.09 -0.09)">
       <defs>
        <path d="M 44.90625 17.40625 
L 42.40625 17.40625 
C 41.90625 14.40625 41.203125 10 40.203125 8.5 
C 39.5 7.703125 32.90625 7.703125 30.703125 7.703125 
L 12.703125 7.703125 
L 23.296875 18 
C 38.90625 31.796875 44.90625 37.203125 44.90625 47.203125 
C 44.90625 58.59375 35.90625 66.59375 23.703125 66.59375 
C 12.40625 66.59375 5 57.40625 5 48.5 
C 5 42.90625 10 42.90625 10.296875 42.90625 
C 12 42.90625 15.5 44.09375 15.5 48.203125 
C 15.5 50.796875 13.703125 53.40625 10.203125 53.40625 
C 9.40625 53.40625 9.203125 53.40625 8.90625 53.296875 
C 11.203125 59.796875 16.59375 63.5 22.40625 63.5 
C 31.5 63.5 35.796875 55.40625 35.796875 47.203125 
C 35.796875 39.203125 30.796875 31.296875 25.296875 25.09375 
L 6.09375 3.703125 
C 5 2.59375 5 2.40625 5 0 
L 42.09375 0 
z
" id="LatinModernMath-Regular-50"/>
       </defs>
       <use transform="translate(0 0.40625)" xlink:href="#LatinModernMath-Regular-50"/>
       <use transform="translate(49.999985 0.40625)" xlink:href="#LatinModernMath-Regular-48"/>
       <use transform="translate(99.999969 0.40625)" xlink:href="#LatinModernMath-Regular-48"/>
      </g>
     </g>
    </g>
    <g id="xtick_4">
     <g id="line2d_7">
      <path clip-path="url(#p8e60fab192)" d="M 265.149024 116.565118 
L 265.149024 0.944882 
" style="fill:none;stroke:#000000;stroke-linecap:square;stroke-opacity:0.1;stroke-width:0.5;"/>
     </g>
     <g id="line2d_8">
      <g>
       <use style="stroke:#000000;stroke-width:0.5;" x="265.149024" xlink:href="#m41d7210d59" y="116.565118"/>
      </g>
     </g>
     <g id="text_4">
      <!-- $\mathregular{300}$ -->
      <g transform="translate(258.399024 126.311681)scale(0.09 -0.09)">
       <defs>
        <path d="M 45.703125 17.09375 
C 45.703125 25.296875 39.40625 33.09375 29 35.203125 
C 37.203125 37.90625 43 44.90625 43 52.796875 
C 43 61 34.203125 66.59375 24.59375 66.59375 
C 14.5 66.59375 6.90625 60.59375 6.90625 53 
C 6.90625 49.703125 9.09375 47.796875 12 47.796875 
C 15.09375 47.796875 17.09375 50 17.09375 52.90625 
C 17.09375 57.90625 12.40625 57.90625 10.90625 57.90625 
C 14 62.796875 20.59375 64.09375 24.203125 64.09375 
C 28.296875 64.09375 33.796875 61.90625 33.796875 52.90625 
C 33.796875 51.703125 33.59375 45.90625 31 41.5 
C 28 36.703125 24.59375 36.40625 22.09375 36.296875 
C 21.296875 36.203125 18.90625 36 18.203125 36 
C 17.40625 35.90625 16.703125 35.796875 16.703125 34.796875 
C 16.703125 33.703125 17.40625 33.703125 19.09375 33.703125 
L 23.5 33.703125 
C 31.703125 33.703125 35.40625 26.90625 35.40625 17.09375 
C 35.40625 3.5 28.5 0.59375 24.09375 0.59375 
C 19.796875 0.59375 12.296875 2.296875 8.796875 8.203125 
C 12.296875 7.703125 15.40625 9.90625 15.40625 13.703125 
C 15.40625 17.296875 12.703125 19.296875 9.796875 19.296875 
C 7.40625 19.296875 4.203125 17.90625 4.203125 13.5 
C 4.203125 4.40625 13.5 -2.203125 24.40625 -2.203125 
C 36.59375 -2.203125 45.703125 6.90625 45.703125 17.09375 
z
" id="LatinModernMath-Regular-51"/>
       </defs>
       <use transform="translate(0 0.40625)" xlink:href="#LatinModernMath-Regular-51"/>
       <use transform="translate(49.999985 0.40625)" xlink:href="#LatinModernMath-Regular-48"/>
       <use transform="translate(99.999969 0.40625)" xlink:href="#LatinModernMath-Regular-48"/>
      </g>
     </g>
    </g>
    <g id="xtick_5">
     <g id="line2d_9">
      <path clip-path="url(#p8e60fab192)" d="M 344.704573 116.565118 
L 344.704573 0.944882 
" style="fill:none;stroke:#000000;stroke-linecap:square;stroke-opacity:0.1;stroke-width:0.5;"/>
     </g>
     <g id="line2d_10">
      <g>
       <use style="stroke:#000000;stroke-width:0.5;" x="344.704573" xlink:href="#m41d7210d59" y="116.565118"/>
      </g>
     </g>
     <g id="text_5">
      <!-- $\mathregular{400}$ -->
      <g transform="translate(337.954573 126.311681)scale(0.09 -0.09)">
       <defs>
        <path d="M 47.09375 16.5 
L 47.09375 19.59375 
L 37.09375 19.59375 
L 37.09375 65.09375 
C 37.09375 67.09375 37.09375 67.703125 35.5 67.703125 
C 34.59375 67.703125 34.296875 67.703125 33.5 66.5 
L 2.796875 19.59375 
L 2.796875 16.5 
L 29.40625 16.5 
L 29.40625 7.796875 
C 29.40625 4.203125 29.203125 3.09375 21.796875 3.09375 
L 19.703125 3.09375 
L 19.703125 0 
C 23.796875 0.296875 29 0.296875 33.203125 0.296875 
C 37.40625 0.296875 42.703125 0.296875 46.796875 0 
L 46.796875 3.09375 
L 44.703125 3.09375 
C 37.296875 3.09375 37.09375 4.203125 37.09375 7.796875 
L 37.09375 16.5 
z
M 30 19.59375 
L 5.59375 19.59375 
L 30 56.90625 
z
" id="LatinModernMath-Regular-52"/>
       </defs>
       <use transform="translate(0 0.296875)" xlink:href="#LatinModernMath-Regular-52"/>
       <use transform="translate(49.999985 0.296875)" xlink:href="#LatinModernMath-Regular-48"/>
       <use transform="translate(99.999969 0.296875)" xlink:href="#LatinModernMath-Regular-48"/>
      </g>
     </g>
    </g>
    <g id="xtick_6">
     <g id="line2d_11">
      <path clip-path="url(#p8e60fab192)" d="M 424.260122 116.565118 
L 424.260122 0.944882 
" style="fill:none;stroke:#000000;stroke-linecap:square;stroke-opacity:0.1;stroke-width:0.5;"/>
     </g>
     <g id="line2d_12">
      <g>
       <use style="stroke:#000000;stroke-width:0.5;" x="424.260122" xlink:href="#m41d7210d59" y="116.565118"/>
      </g>
     </g>
     <g id="text_6">
      <!-- $\mathregular{500}$ -->
      <g transform="translate(417.510122 126.311681)scale(0.09 -0.09)">
       <defs>
        <path d="M 44.90625 20.09375 
C 44.90625 32 36.703125 42 25.90625 42 
C 21.09375 42 16.796875 40.40625 13.203125 36.90625 
L 13.203125 56.40625 
C 15.203125 55.796875 18.5 55.09375 21.703125 55.09375 
C 34 55.09375 41 64.203125 41 65.5 
C 41 66.09375 40.703125 66.59375 40 66.59375 
C 40 66.59375 39.703125 66.59375 39.203125 66.296875 
C 37.203125 65.40625 32.296875 63.40625 25.59375 63.40625 
C 21.59375 63.40625 17 64.09375 12.296875 66.203125 
C 11.5 66.5 11.09375 66.5 11.09375 66.5 
C 10.09375 66.5 10.09375 65.703125 10.09375 64.09375 
L 10.09375 34.5 
C 10.09375 32.703125 10.09375 31.90625 11.5 31.90625 
C 12.203125 31.90625 12.40625 32.203125 12.796875 32.796875 
C 13.90625 34.40625 17.59375 39.796875 25.703125 39.796875 
C 30.90625 39.796875 33.40625 35.203125 34.203125 33.40625 
C 35.796875 29.703125 36 25.796875 36 20.796875 
C 36 17.296875 36 11.296875 33.59375 7.09375 
C 31.203125 3.203125 27.5 0.59375 22.90625 0.59375 
C 15.59375 0.59375 9.90625 5.90625 8.203125 11.796875 
C 8.5 11.703125 8.796875 11.59375 9.90625 11.59375 
C 13.203125 11.59375 14.90625 14.09375 14.90625 16.5 
C 14.90625 18.90625 13.203125 21.40625 9.90625 21.40625 
C 8.5 21.40625 5 20.703125 5 16.09375 
C 5 7.5 11.90625 -2.203125 23.09375 -2.203125 
C 34.703125 -2.203125 44.90625 7.40625 44.90625 20.09375 
z
" id="LatinModernMath-Regular-53"/>
       </defs>
       <use transform="translate(0 0.40625)" xlink:href="#LatinModernMath-Regular-53"/>
       <use transform="translate(49.999985 0.40625)" xlink:href="#LatinModernMath-Regular-48"/>
       <use transform="translate(99.999969 0.40625)" xlink:href="#LatinModernMath-Regular-48"/>
      </g>
     </g>
    </g>
    <g id="text_7">
     <!-- Time ($t$) -->
     <g transform="translate(206.62125 139.558243)scale(0.1 -0.1)">
      <defs>
       <path d="M 68.5 45.203125 
L 66.59375 67.703125 
L 5.5 67.703125 
L 3.59375 45.203125 
L 6.09375 45.203125 
C 7.5 61.296875 9 64.59375 24.09375 64.59375 
C 25.90625 64.59375 28.5 64.59375 29.5 64.40625 
C 31.59375 64 31.59375 62.90625 31.59375 60.59375 
L 31.59375 7.90625 
C 31.59375 4.5 31.59375 3.09375 21.09375 3.09375 
L 17.09375 3.09375 
L 17.09375 0 
C 21.203125 0.296875 31.40625 0.296875 36 0.296875 
C 40.59375 0.296875 50.90625 0.296875 55 0 
L 55 3.09375 
L 51 3.09375 
C 40.5 3.09375 40.5 4.5 40.5 7.90625 
L 40.5 60.59375 
C 40.5 62.59375 40.5 64 42.296875 64.40625 
C 43.40625 64.59375 46.09375 64.59375 48 64.59375 
C 63.09375 64.59375 64.59375 61.296875 66 45.203125 
z
" id="LatinModernMath-Regular-84"/>
       <path d="M 24.703125 0 
L 24.703125 3.09375 
C 18.09375 3.09375 17.703125 3.59375 17.703125 7.5 
L 17.703125 44.203125 
L 3.703125 43.09375 
L 3.703125 40 
C 10.203125 40 11.09375 39.40625 11.09375 34.5 
L 11.09375 7.59375 
C 11.09375 3.09375 10 3.09375 3.296875 3.09375 
L 3.296875 0 
L 14.296875 0.296875 
C 17.796875 0.296875 21.296875 0.09375 24.703125 0 
z
M 19.203125 60.40625 
C 19.203125 63.09375 16.90625 65.703125 13.90625 65.703125 
C 10.5 65.703125 8.5 62.90625 8.5 60.40625 
C 8.5 57.703125 10.796875 55.09375 13.796875 55.09375 
C 17.203125 55.09375 19.203125 57.90625 19.203125 60.40625 
z
" id="LatinModernMath-Regular-105"/>
       <path d="M 81.296875 0 
L 81.296875 3.09375 
C 76.09375 3.09375 73.59375 3.09375 73.5 6.09375 
L 73.5 25.203125 
C 73.5 33.796875 73.5 36.90625 70.40625 40.5 
C 69 42.203125 65.703125 44.203125 59.90625 44.203125 
C 51.5 44.203125 47.09375 38.203125 45.40625 34.40625 
C 44 43.09375 36.59375 44.203125 32.09375 44.203125 
C 24.796875 44.203125 20.09375 39.90625 17.296875 33.703125 
L 17.296875 44.203125 
L 3.203125 43.09375 
L 3.203125 40 
C 10.203125 40 11 39.296875 11 34.40625 
L 11 7.59375 
C 11 3.09375 9.90625 3.09375 3.203125 3.09375 
L 3.203125 0 
L 14.5 0.296875 
L 25.703125 0 
L 25.703125 3.09375 
C 19 3.09375 17.90625 3.09375 17.90625 7.59375 
L 17.90625 26 
C 17.90625 36.40625 25 42 31.40625 42 
C 37.703125 42 38.796875 36.59375 38.796875 30.90625 
L 38.796875 7.59375 
C 38.796875 3.09375 37.703125 3.09375 31 3.09375 
L 31 0 
L 42.296875 0.296875 
L 53.5 0 
L 53.5 3.09375 
C 46.796875 3.09375 45.703125 3.09375 45.703125 7.59375 
L 45.703125 26 
C 45.703125 36.40625 52.796875 42 59.203125 42 
C 65.5 42 66.59375 36.59375 66.59375 30.90625 
L 66.59375 7.59375 
C 66.59375 3.09375 65.5 3.09375 58.796875 3.09375 
L 58.796875 0 
L 70.09375 0.296875 
z
" id="LatinModernMath-Regular-109"/>
       <path d="M 41.5 11.90625 
C 41.5 12.90625 40.703125 13.09375 40.203125 13.09375 
C 39.296875 13.09375 39.09375 12.5 38.90625 11.703125 
C 35.40625 1.40625 26.40625 1.40625 25.40625 1.40625 
C 20.40625 1.40625 16.40625 4.40625 14.09375 8.09375 
C 11.09375 12.90625 11.09375 19.5 11.09375 23.09375 
L 39 23.09375 
C 41.203125 23.09375 41.5 23.09375 41.5 25.203125 
C 41.5 35.09375 36.09375 44.796875 23.59375 44.796875 
C 12 44.796875 2.796875 34.5 2.796875 22 
C 2.796875 8.59375 13.296875 -1.09375 24.796875 -1.09375 
C 37 -1.09375 41.5 10 41.5 11.90625 
z
M 34.90625 25.203125 
L 11.203125 25.203125 
C 11.796875 40.09375 20.203125 42.59375 23.59375 42.59375 
C 33.90625 42.59375 34.90625 29.09375 34.90625 25.203125 
z
" id="LatinModernMath-Regular-101"/>
       <path id="LatinModernMath-Regular-32"/>
       <path d="M 33.203125 -23.796875 
C 33.203125 -23.5 33 -23.203125 32.796875 -23 
C 22.40625 -15.203125 15.5 4.796875 15.5 20.796875 
L 15.5 29.203125 
C 15.5 45.203125 22.40625 65.203125 32.796875 73 
C 33 73.203125 33.203125 73.5 33.203125 73.796875 
C 33.203125 74.296875 32.703125 74.796875 32.203125 74.796875 
C 32 74.796875 31.796875 74.703125 31.59375 74.59375 
C 20.59375 66.296875 10.09375 46.296875 10.09375 29.203125 
L 10.09375 20.796875 
C 10.09375 3.703125 20.59375 -16.296875 31.59375 -24.59375 
C 31.796875 -24.703125 32 -24.796875 32.203125 -24.796875 
C 32.703125 -24.796875 33.203125 -24.296875 33.203125 -23.796875 
z
" id="LatinModernMath-Regular-40"/>
       <path d="M 6.203125 8.109375 
Q 6.203125 9.578125 6.5 10.890625 
L 13.71875 39.59375 
L 3.21875 39.59375 
Q 2.203125 39.59375 2.203125 40.921875 
Q 2.59375 43.109375 3.515625 43.109375 
L 14.59375 43.109375 
L 18.609375 59.421875 
Q 19 60.75 20.171875 61.671875 
Q 21.34375 62.59375 22.796875 62.59375 
Q 24.078125 62.59375 24.921875 61.828125 
Q 25.78125 61.078125 25.78125 59.8125 
Q 25.78125 59.515625 25.75 59.34375 
Q 25.734375 59.1875 25.6875 58.984375 
L 21.6875 43.109375 
L 31.984375 43.109375 
Q 33.015625 43.109375 33.015625 41.796875 
Q 32.953125 41.546875 32.8125 40.953125 
Q 32.671875 40.375 32.421875 39.984375 
Q 32.171875 39.59375 31.6875 39.59375 
L 20.796875 39.59375 
L 13.625 10.6875 
Q 12.890625 7.859375 12.890625 5.8125 
Q 12.890625 1.515625 15.828125 1.515625 
Q 20.21875 1.515625 23.609375 5.640625 
Q 27 9.765625 28.8125 14.703125 
Q 29.203125 15.28125 29.59375 15.28125 
L 30.8125 15.28125 
Q 31.203125 15.28125 31.4375 15.015625 
Q 31.6875 14.75 31.6875 14.40625 
Q 31.6875 14.203125 31.59375 14.109375 
Q 29.390625 8.0625 25.1875 3.46875 
Q 21 -1.125 15.578125 -1.125 
Q 11.625 -1.125 8.90625 1.453125 
Q 6.203125 4.046875 6.203125 8.109375 
z
" id="Cmmi10-116"/>
       <path d="M 28.796875 20.796875 
L 28.796875 29.203125 
C 28.796875 46.296875 18.296875 66.296875 7.296875 74.59375 
C 7.09375 74.703125 6.90625 74.796875 6.703125 74.796875 
C 6.203125 74.796875 5.703125 74.296875 5.703125 73.796875 
C 5.703125 73.5 5.90625 73.203125 6.09375 73 
C 16.5 65.203125 23.40625 45.203125 23.40625 29.203125 
L 23.40625 20.796875 
C 23.40625 4.796875 16.5 -15.203125 6.09375 -23 
C 5.90625 -23.203125 5.703125 -23.5 5.703125 -23.796875 
C 5.703125 -24.296875 6.203125 -24.796875 6.703125 -24.796875 
C 6.90625 -24.796875 7.09375 -24.703125 7.296875 -24.59375 
C 18.296875 -16.296875 28.796875 3.703125 28.796875 20.796875 
z
" id="LatinModernMath-Regular-41"/>
      </defs>
      <use transform="translate(0 0.203125)" xlink:href="#LatinModernMath-Regular-84"/>
      <use transform="translate(72.199982 0.203125)" xlink:href="#LatinModernMath-Regular-105"/>
      <use transform="translate(99.999969 0.203125)" xlink:href="#LatinModernMath-Regular-109"/>
      <use transform="translate(183.299957 0.203125)" xlink:href="#LatinModernMath-Regular-101"/>
      <use transform="translate(227.699951 0.203125)" xlink:href="#LatinModernMath-Regular-32"/>
      <use transform="translate(260.899948 0.203125)" xlink:href="#LatinModernMath-Regular-40"/>
      <use transform="translate(299.799942 0.203125)" xlink:href="#Cmmi10-116"/>
      <use transform="translate(335.883926 0.203125)" xlink:href="#LatinModernMath-Regular-41"/>
     </g>
    </g>
   </g>
   <g id="matplotlib.axis_2">
    <g id="ytick_1">
     <g id="line2d_13">
      <path clip-path="url(#p8e60fab192)" d="M 26.482378 113.29287 
L 424.260122 113.29287 
" style="fill:none;stroke:#000000;stroke-linecap:square;stroke-opacity:0.1;stroke-width:0.5;"/>
     </g>
     <g id="line2d_14">
      <defs>
       <path d="M 0 0 
L 2.5 0 
" id="maef7ce1f4d" style="stroke:#000000;stroke-width:0.5;"/>
      </defs>
      <g>
       <use style="stroke:#000000;stroke-width:0.5;" x="26.482378" xlink:href="#maef7ce1f4d" y="113.29287"/>
      </g>
     </g>
     <g id="text_8">
      <!-- $\mathregular{0}$ -->
      <g transform="translate(18.482378 116.416151)scale(0.09 -0.09)">
       <use transform="translate(0 0.40625)" xlink:href="#LatinModernMath-Regular-48"/>
      </g>
     </g>
    </g>
    <g id="ytick_2">
     <g id="line2d_15">
      <path clip-path="url(#p8e60fab192)" d="M 26.482378 82.81343 
L 424.260122 82.81343 
" style="fill:none;stroke:#000000;stroke-linecap:square;stroke-opacity:0.1;stroke-width:0.5;"/>
     </g>
     <g id="line2d_16">
      <g>
       <use style="stroke:#000000;stroke-width:0.5;" x="26.482378" xlink:href="#maef7ce1f4d" y="82.81343"/>
      </g>
     </g>
     <g id="text_9">
      <!-- $\mathregular{5}$ -->
      <g transform="translate(18.482378 85.936711)scale(0.09 -0.09)">
       <use transform="translate(0 0.40625)" xlink:href="#LatinModernMath-Regular-53"/>
      </g>
     </g>
    </g>
    <g id="ytick_3">
     <g id="line2d_17">
      <path clip-path="url(#p8e60fab192)" d="M 26.482378 52.33399 
L 424.260122 52.33399 
" style="fill:none;stroke:#000000;stroke-linecap:square;stroke-opacity:0.1;stroke-width:0.5;"/>
     </g>
     <g id="line2d_18">
      <g>
       <use style="stroke:#000000;stroke-width:0.5;" x="26.482378" xlink:href="#maef7ce1f4d" y="52.33399"/>
      </g>
     </g>
     <g id="text_10">
      <!-- $\mathregular{10}$ -->
      <g transform="translate(13.982378 55.457272)scale(0.09 -0.09)">
       <use transform="translate(0 0.40625)" xlink:href="#LatinModernMath-Regular-49"/>
       <use transform="translate(49.999985 0.40625)" xlink:href="#LatinModernMath-Regular-48"/>
      </g>
     </g>
    </g>
    <g id="ytick_4">
     <g id="line2d_19">
      <path clip-path="url(#p8e60fab192)" d="M 26.482378 21.854551 
L 424.260122 21.854551 
" style="fill:none;stroke:#000000;stroke-linecap:square;stroke-opacity:0.1;stroke-width:0.5;"/>
     </g>
     <g id="line2d_20">
      <g>
       <use style="stroke:#000000;stroke-width:0.5;" x="26.482378" xlink:href="#maef7ce1f4d" y="21.854551"/>
      </g>
     </g>
     <g id="text_11">
      <!-- $\mathregular{15}$ -->
      <g transform="translate(13.982378 24.977832)scale(0.09 -0.09)">
       <use transform="translate(0 0.40625)" xlink:href="#LatinModernMath-Regular-49"/>
       <use transform="translate(49.999985 0.40625)" xlink:href="#LatinModernMath-Regular-53"/>
      </g>
     </g>
    </g>
    <g id="text_12">
     <!-- Population -->
     <g transform="translate(8.041753 82.72375)rotate(-90)scale(0.1 -0.1)">
      <defs>
       <path d="M 62.40625 49.703125 
C 62.40625 59.5 52.5 68.296875 38.796875 68.296875 
L 3.5 68.296875 
L 3.5 65.203125 
L 5.90625 65.203125 
C 13.59375 65.203125 13.796875 64.09375 13.796875 60.5 
L 13.796875 7.796875 
C 13.796875 4.203125 13.59375 3.09375 5.90625 3.09375 
L 3.5 3.09375 
L 3.5 0 
C 7 0.296875 14.40625 0.296875 18.203125 0.296875 
C 22 0.296875 29.5 0.296875 33 0 
L 33 3.09375 
L 30.59375 3.09375 
C 22.90625 3.09375 22.703125 4.203125 22.703125 7.796875 
L 22.703125 31.59375 
L 39.59375 31.59375 
C 51.59375 31.59375 62.40625 39.703125 62.40625 49.703125 
z
M 52.09375 49.703125 
C 52.09375 45 52.09375 34.203125 36.203125 34.203125 
L 22.40625 34.203125 
L 22.40625 61.203125 
C 22.40625 64.5 22.59375 65.203125 27.296875 65.203125 
L 36.203125 65.203125 
C 52.09375 65.203125 52.09375 54.59375 52.09375 49.703125 
z
" id="LatinModernMath-Regular-80"/>
       <path d="M 47.09375 21.40625 
C 47.09375 34.203125 37.09375 44.796875 25 44.796875 
C 12.5 44.796875 2.796875 33.90625 2.796875 21.40625 
C 2.796875 8.5 13.203125 -1.09375 24.90625 -1.09375 
C 37 -1.09375 47.09375 8.703125 47.09375 21.40625 
z
M 38.796875 22.203125 
C 38.796875 18.59375 38.796875 13.203125 36.59375 8.796875 
C 34.40625 4.296875 30 1.40625 25 1.40625 
C 20.703125 1.40625 16.296875 3.5 13.59375 8.09375 
C 11.09375 12.5 11.09375 18.59375 11.09375 22.203125 
C 11.09375 26.09375 11.09375 31.5 13.5 35.90625 
C 16.203125 40.5 20.90625 42.59375 24.90625 42.59375 
C 29.296875 42.59375 33.59375 40.40625 36.203125 36.09375 
C 38.796875 31.796875 38.796875 26 38.796875 22.203125 
z
" id="LatinModernMath-Regular-111"/>
       <path d="M 52.09375 21.59375 
C 52.09375 34.296875 42.40625 44.203125 31.203125 44.203125 
C 23.40625 44.203125 19.203125 39.796875 17.203125 37.59375 
L 17.203125 44.203125 
L 2.796875 43.09375 
L 2.796875 40 
C 9.90625 40 10.59375 39.40625 10.59375 35 
L 10.59375 -11.796875 
C 10.59375 -16.296875 9.5 -16.296875 2.796875 -16.296875 
L 2.796875 -19.40625 
L 14 -19.09375 
L 25.296875 -19.40625 
L 25.296875 -16.296875 
C 18.59375 -16.296875 17.5 -16.296875 17.5 -11.796875 
L 17.5 5 
L 17.5 5.90625 
C 18 4.296875 22.203125 -1.09375 29.796875 -1.09375 
C 41.703125 -1.09375 52.09375 8.703125 52.09375 21.59375 
z
M 43.796875 21.59375 
C 43.796875 9.5 36.796875 1.09375 29.40625 1.09375 
C 25.40625 1.09375 21.59375 3.09375 18.90625 7.203125 
C 17.5 9.296875 17.5 9.40625 17.5 11.40625 
L 17.5 33.703125 
C 20.40625 38.796875 25.296875 41.703125 30.40625 41.703125 
C 37.703125 41.703125 43.796875 32.90625 43.796875 21.59375 
z
" id="LatinModernMath-Regular-112"/>
       <path d="M 53.5 0 
L 53.5 3.09375 
C 46.5 3.09375 45.703125 3.796875 45.703125 8.703125 
L 45.703125 44.203125 
L 31 43.09375 
L 31 40 
C 38 40 38.796875 39.296875 38.796875 34.40625 
L 38.796875 16.59375 
C 38.796875 7.90625 34 1.09375 26.703125 1.09375 
C 18.296875 1.09375 17.90625 5.796875 17.90625 11 
L 17.90625 44.203125 
L 3.203125 43.09375 
L 3.203125 40 
C 11 40 11 39.703125 11 30.796875 
L 11 15.796875 
C 11 8 11 -1.09375 26.203125 -1.09375 
C 31.796875 -1.09375 36.203125 1.703125 39.09375 7.90625 
L 39.09375 -1.09375 
z
" id="LatinModernMath-Regular-117"/>
       <path d="M 25.5 0 
L 25.5 3.09375 
C 18.796875 3.09375 17.703125 3.09375 17.703125 7.59375 
L 17.703125 69.40625 
L 3.296875 68.296875 
L 3.296875 65.203125 
C 10.296875 65.203125 11.09375 64.5 11.09375 59.59375 
L 11.09375 7.59375 
C 11.09375 3.09375 10 3.09375 3.296875 3.09375 
L 3.296875 0 
L 14.40625 0.296875 
z
" id="LatinModernMath-Regular-108"/>
       <path d="M 48.296875 8.90625 
L 48.296875 14.5 
L 45.796875 14.5 
L 45.796875 8.90625 
C 45.796875 3.09375 43.296875 2.5 42.203125 2.5 
C 38.90625 2.5 38.5 7 38.5 7.5 
L 38.5 27.5 
C 38.5 31.703125 38.5 35.59375 34.90625 39.296875 
C 31 43.203125 26 44.796875 21.203125 44.796875 
C 13 44.796875 6.09375 40.09375 6.09375 33.5 
C 6.09375 30.5 8.09375 28.796875 10.703125 28.796875 
C 13.5 28.796875 15.296875 30.796875 15.296875 33.40625 
C 15.296875 34.59375 14.796875 37.90625 10.203125 38 
C 12.90625 41.5 17.796875 42.59375 21 42.59375 
C 25.90625 42.59375 31.59375 38.703125 31.59375 29.796875 
L 31.59375 26.09375 
C 26.5 25.796875 19.5 25.5 13.203125 22.5 
C 5.703125 19.09375 3.203125 13.90625 3.203125 9.5 
C 3.203125 1.40625 12.90625 -1.09375 19.203125 -1.09375 
C 25.796875 -1.09375 30.40625 2.90625 32.296875 7.59375 
C 32.703125 3.59375 35.40625 -0.59375 40.09375 -0.59375 
C 42.203125 -0.59375 48.296875 0.796875 48.296875 8.90625 
z
M 31.59375 14 
C 31.59375 4.5 24.40625 1.09375 19.90625 1.09375 
C 15 1.09375 10.90625 4.59375 10.90625 9.59375 
C 10.90625 15.09375 15.09375 23.40625 31.59375 24 
z
" id="LatinModernMath-Regular-97"/>
       <path d="M 33.203125 12.40625 
L 33.203125 18.09375 
L 30.703125 18.09375 
L 30.703125 12.59375 
C 30.703125 5.203125 27.703125 1.40625 24 1.40625 
C 17.296875 1.40625 17.296875 10.5 17.296875 12.203125 
L 17.296875 40 
L 31.59375 40 
L 31.59375 43.09375 
L 17.296875 43.09375 
L 17.296875 61.5 
L 14.796875 61.5 
C 14.703125 53.296875 11.703125 42.59375 1.90625 42.203125 
L 1.90625 40 
L 10.40625 40 
L 10.40625 12.40625 
C 10.40625 0.09375 19.703125 -1.09375 23.296875 -1.09375 
C 30.40625 -1.09375 33.203125 6 33.203125 12.40625 
z
" id="LatinModernMath-Regular-116"/>
       <path d="M 53.5 0 
L 53.5 3.09375 
C 48.296875 3.09375 45.796875 3.09375 45.703125 6.09375 
L 45.703125 25.203125 
C 45.703125 33.796875 45.703125 36.90625 42.59375 40.5 
C 41.203125 42.203125 37.90625 44.203125 32.09375 44.203125 
C 24.796875 44.203125 20.09375 39.90625 17.296875 33.703125 
L 17.296875 44.203125 
L 3.203125 43.09375 
L 3.203125 40 
C 10.203125 40 11 39.296875 11 34.40625 
L 11 7.59375 
C 11 3.09375 9.90625 3.09375 3.203125 3.09375 
L 3.203125 0 
L 14.5 0.296875 
L 25.703125 0 
L 25.703125 3.09375 
C 19 3.09375 17.90625 3.09375 17.90625 7.59375 
L 17.90625 26 
C 17.90625 36.40625 25 42 31.40625 42 
C 37.703125 42 38.796875 36.59375 38.796875 30.90625 
L 38.796875 7.59375 
C 38.796875 3.09375 37.703125 3.09375 31 3.09375 
L 31 0 
L 42.296875 0.296875 
z
" id="LatinModernMath-Regular-110"/>
      </defs>
      <use xlink:href="#LatinModernMath-Regular-80"/>
      <use x="68.099991" xlink:href="#LatinModernMath-Regular-111"/>
      <use x="118.099976" xlink:href="#LatinModernMath-Regular-112"/>
      <use x="173.699966" xlink:href="#LatinModernMath-Regular-117"/>
      <use x="229.299957" xlink:href="#LatinModernMath-Regular-108"/>
      <use x="257.099945" xlink:href="#LatinModernMath-Regular-97"/>
      <use x="307.09993" xlink:href="#LatinModernMath-Regular-116"/>
      <use x="345.999924" xlink:href="#LatinModernMath-Regular-105"/>
      <use x="373.799911" xlink:href="#LatinModernMath-Regular-111"/>
      <use x="423.799896" xlink:href="#LatinModernMath-Regular-110"/>
     </g>
    </g>
   </g>
   <g id="line2d_21">
    <path clip-path="url(#p8e60fab192)" d="M 26.482378 52.33399 
L 27.156959 90.808457 
L 27.606679 103.145954 
L 28.0564 108.660465 
L 28.50612 111.058519 
L 28.955841 112.138735 
L 29.405561 112.653834 
L 30.080142 112.995563 
L 31.204443 113.183162 
L 33.677906 113.263216 
L 45.820358 113.270172 
L 62.684875 113.119757 
L 70.330123 112.840818 
L 75.277048 112.451134 
L 79.099672 111.931942 
L 82.022855 111.32766 
L 84.496317 110.611085 
L 86.744919 109.735077 
L 88.768661 108.70463 
L 90.567543 107.540665 
L 92.141565 106.281971 
L 93.715586 104.748041 
L 95.289608 102.879015 
L 96.638769 100.954719 
L 97.987931 98.67408 
L 99.337092 95.971909 
L 100.686254 92.770823 
L 102.035415 88.979498 
L 103.384576 84.487199 
L 104.733738 79.162493 
L 106.082899 72.853245 
L 107.43206 65.379851 
L 108.781222 56.526286 
L 110.130383 46.041347 
L 111.479544 33.649424 
L 113.053566 16.68707 
L 113.953007 7.182303 
L 114.402727 4.495838 
L 114.627588 4.73699 
L 114.852448 6.821296 
L 115.077308 11.518889 
L 115.527029 31.298784 
L 116.426469 86.845531 
L 116.87619 101.276597 
L 117.32591 107.850679 
L 117.775631 110.700872 
L 118.225351 111.973637 
L 118.675072 112.572823 
L 119.349652 112.964444 
L 120.249093 113.151714 
L 122.272835 113.25266 
L 130.367804 113.277586 
L 150.380364 113.152414 
L 158.700192 112.893889 
L 163.871978 112.528687 
L 167.694601 112.057338 
L 170.842645 111.457605 
L 173.540967 110.716611 
L 175.78957 109.875083 
L 177.813312 108.885152 
L 179.612194 107.767018 
L 181.411075 106.364772 
L 182.985097 104.848963 
L 184.559119 103.002017 
L 185.90828 101.100437 
L 187.257441 98.846722 
L 188.606603 96.176473 
L 189.955764 93.013217 
L 191.304925 89.266681 
L 192.654087 84.827395 
L 194.003248 79.565523 
L 195.35241 73.330836 
L 196.701571 65.945678 
L 198.050732 57.196554 
L 199.399894 46.83482 
L 200.749055 34.584907 
L 202.098216 20.296369 
L 203.447378 6.132274 
L 203.672238 4.818182 
L 203.897098 4.504619 
L 204.121958 5.73855 
L 204.346819 9.239681 
L 204.571679 15.888372 
L 205.021399 39.638249 
L 205.69598 82.454726 
L 206.1457 99.114159 
L 206.595421 106.902556 
L 207.045141 110.285692 
L 207.494862 111.783927 
L 207.944582 112.480797 
L 208.394303 112.825328 
L 209.068883 113.063578 
L 210.418045 113.214735 
L 214.015808 113.273417 
L 233.353788 113.229296 
L 244.5968 113.034048 
L 250.892886 112.722056 
L 255.39009 112.28835 
L 258.762994 111.757995 
L 261.686177 111.076513 
L 264.159639 110.268267 
L 266.183381 109.392225 
L 268.207123 108.262483 
L 270.006005 106.985994 
L 271.580027 105.606183 
L 273.154048 103.924916 
L 274.72807 101.875414 
L 276.077231 99.764852 
L 277.426393 97.264524 
L 278.775554 94.302998 
L 280.124716 90.794605 
L 281.473877 86.636471 
L 282.823038 81.708485 
L 284.1722 75.871112 
L 285.521361 68.955471 
L 286.870522 60.76196 
L 288.219684 51.056567 
L 289.568845 39.570261 
L 290.918006 26.05388 
L 292.941749 5.110344 
L 293.166609 4.407758 
L 293.391469 5.029371 
L 293.616329 7.649625 
L 293.841189 13.159984 
L 294.29091 34.682577 
L 295.190351 89.029867 
L 295.640071 102.473266 
L 296.089792 108.384338 
L 296.539512 110.942488 
L 296.989233 112.08582 
L 297.438953 112.628727 
L 298.113534 112.986468 
L 299.012975 113.159468 
L 301.036717 113.254083 
L 309.581405 113.277339 
L 329.369106 113.149113 
L 337.464074 112.895839 
L 342.635859 112.532422 
L 346.458483 112.063376 
L 349.606526 111.466569 
L 352.304849 110.729196 
L 354.553451 109.89177 
L 356.577193 108.906725 
L 358.376075 107.793988 
L 360.174957 106.398591 
L 361.748978 104.890251 
L 363.323 103.052401 
L 364.672161 101.159945 
L 366.021323 98.917111 
L 367.370484 96.259993 
L 368.719645 93.11256 
L 370.068807 89.384421 
L 371.417968 84.966271 
L 372.76713 79.729587 
L 374.116291 73.525954 
L 375.465452 66.176904 
L 376.814614 57.470384 
L 378.163775 47.158833 
L 379.512936 34.966078 
L 380.862098 20.723182 
L 382.211259 6.33126 
L 382.436119 4.830788 
L 382.66098 4.217153 
L 382.88584 5.018984 
L 383.1107 7.915191 
L 383.33556 13.746784 
L 383.785281 36.022483 
L 384.684722 90.193575 
L 385.134442 102.883389 
L 385.584163 108.558171 
L 386.033883 111.016403 
L 386.483603 112.121328 
L 386.933324 112.646366 
L 387.607905 112.993435 
L 388.732206 113.183044 
L 391.205668 113.263434 
L 403.348121 113.270552 
L 420.212638 113.122729 
L 424.260122 113.010128 
L 424.260122 113.010128 
" style="fill:none;stroke:#009afa;"/>
   </g>
   <g id="line2d_22">
    <path clip-path="url(#p8e60fab192)" d="M 26.482378 52.33399 
L 26.932099 29.748594 
L 27.156959 23.669783 
L 27.381819 20.968145 
L 27.606679 20.843375 
L 27.83154 22.467475 
L 28.28126 28.519022 
L 30.305002 60.088547 
L 31.429303 73.048088 
L 32.328744 81.150573 
L 33.228185 87.634815 
L 34.127626 92.816018 
L 35.027067 96.953092 
L 35.926508 100.255308 
L 36.825949 102.890624 
L 37.95025 105.449003 
L 39.074551 107.378368 
L 40.198852 108.832995 
L 41.323153 109.930002 
L 42.672315 110.896124 
L 44.021476 111.584736 
L 45.595498 112.14215 
L 47.61924 112.600256 
L 50.092702 112.92035 
L 53.690466 113.141566 
L 59.761692 113.259632 
L 77.52565 113.29242 
L 112.154125 113.198148 
L 112.828706 113.00861 
L 113.278426 112.684096 
L 113.728147 111.888772 
L 113.953007 111.139339 
L 114.177867 109.975421 
L 114.402727 108.117395 
L 114.627588 105.170882 
L 115.077308 93.873316 
L 115.527029 72.156982 
L 116.201609 33.464995 
L 116.65133 21.734445 
L 116.87619 20.630059 
L 117.10105 21.61284 
L 117.550771 27.05449 
L 120.024233 64.555136 
L 120.923674 74.330882 
L 121.823115 82.178213 
L 122.722556 88.456306 
L 123.621997 93.472101 
L 124.521438 97.476856 
L 125.420879 100.673292 
L 126.54518 103.776882 
L 127.669481 106.117372 
L 128.793782 107.882271 
L 129.918083 109.21305 
L 131.042384 110.216464 
L 132.391546 111.10035 
L 133.740707 111.730175 
L 135.539589 112.297923 
L 137.563331 112.693977 
L 140.261654 112.988361 
L 144.309138 113.182319 
L 151.729525 113.275462 
L 182.310516 113.292842 
L 201.423636 113.211 
L 202.098216 113.051203 
L 202.547937 112.77597 
L 202.997657 112.114307 
L 203.222518 111.490835 
L 203.447378 110.520594 
L 203.672238 108.979719 
L 203.897098 106.530057 
L 204.121958 102.719707 
L 204.571679 88.609195 
L 205.24626 50.125969 
L 205.69598 28.55898 
L 205.92084 23.061794 
L 206.1457 20.817122 
L 206.370561 21.041706 
L 206.595421 22.874637 
L 207.270002 32.818515 
L 208.844023 57.587537 
L 209.968324 71.129738 
L 210.867765 79.612692 
L 211.767206 86.405085 
L 212.666647 91.833737 
L 213.566088 96.168909 
L 214.465529 99.629403 
L 215.36497 102.391154 
L 216.489271 105.072347 
L 217.613572 107.094301 
L 218.737873 108.61887 
L 219.862174 109.768477 
L 220.986476 110.63519 
L 222.335637 111.398765 
L 223.909659 112.016932 
L 225.70854 112.480346 
L 227.957143 112.830578 
L 231.105186 113.082793 
L 236.052111 113.23189 
L 247.295122 113.28909 
L 290.693146 113.219956 
L 291.367727 113.080875 
L 291.817447 112.842529 
L 292.267168 112.272175 
L 292.492028 111.738676 
L 292.716888 110.912555 
L 292.941749 109.597119 
L 293.166609 107.496445 
L 293.391469 104.21753 
L 293.841189 91.777448 
L 294.29091 68.775571 
L 294.965491 31.271222 
L 295.415211 21.270522 
L 295.640071 20.594407 
L 295.864932 21.944274 
L 296.314652 27.834584 
L 298.563254 62.455178 
L 299.462695 72.639913 
L 300.362136 80.82399 
L 301.261577 87.37397 
L 302.161018 92.607813 
L 303.060459 96.786981 
L 303.9599 100.122768 
L 304.859341 102.784908 
L 305.983642 105.369309 
L 307.107943 107.318288 
L 308.232244 108.787736 
L 309.356545 109.895865 
L 310.705707 110.871842 
L 312.054868 111.567408 
L 313.62889 112.130521 
L 315.652632 112.593256 
L 318.126094 112.916588 
L 321.723858 113.140053 
L 327.795084 113.259306 
L 345.334182 113.292393 
L 380.412377 113.187562 
L 381.086958 112.973353 
L 381.536678 112.59605 
L 381.986399 111.672832 
L 382.211259 110.802437 
L 382.436119 109.429549 
L 382.66098 107.240084 
L 382.88584 103.799054 
L 383.33556 90.850553 
L 383.785281 67.295908 
L 384.459861 30.136934 
L 384.684722 23.789533 
L 384.909582 20.854171 
L 385.134442 20.598918 
L 385.359302 22.128808 
L 385.809023 28.125101 
L 387.832765 59.805021 
L 388.957066 72.833145 
L 389.856507 80.978992 
L 390.755948 87.497938 
L 391.655389 92.706849 
L 392.55483 96.866098 
L 393.454271 100.185895 
L 394.353711 102.835276 
L 395.478013 105.407382 
L 396.602314 107.346898 
L 397.726615 108.809423 
L 398.850916 109.912101 
L 400.200077 110.883532 
L 401.549239 111.57564 
L 403.12326 112.136122 
L 405.147002 112.596651 
L 407.620465 112.918402 
L 411.218229 113.140801 
L 417.289455 113.259471 
L 424.260122 113.286919 
L 424.260122 113.286919 
" style="fill:none;stroke:#e36f47;"/>
   </g>
   <g id="patch_3">
    <path d="M 26.482378 116.565118 
L 26.482378 0.944882 
" style="fill:none;stroke:#000000;stroke-linecap:square;stroke-linejoin:miter;"/>
   </g>
   <g id="patch_4">
    <path d="M 26.482378 116.565118 
L 424.260122 116.565118 
" style="fill:none;stroke:#000000;stroke-linecap:square;stroke-linejoin:miter;"/>
   </g>
   <g id="legend_1">
    <g id="patch_5">
     <path d="M 346.851684 40.438007 
L 419.760122 40.438007 
L 419.760122 5.444882 
L 346.851684 5.444882 
z
" style="fill:#ffffff;stroke:#000000;stroke-linejoin:miter;"/>
    </g>
    <g id="line2d_23">
     <path d="M 354.051684 15.794882 
L 372.051684 15.794882 
" style="fill:none;stroke:#009afa;stroke-linejoin:miter;stroke-width:1.125;"/>
    </g>
    <g id="line2d_24"/>
    <g id="text_13">
     <!-- Wabbits -->
     <g transform="translate(379.251684 18.944882)scale(0.09 -0.09)">
      <defs>
       <path d="M 100.90625 65.203125 
L 100.90625 68.296875 
C 97.90625 68.09375 94.796875 68 91.796875 68 
L 79.90625 68.296875 
L 79.90625 65.203125 
C 86.59375 65.09375 88.59375 61.796875 88.59375 59.90625 
C 88.59375 59.296875 88.296875 58.5 88.09375 57.90625 
L 73.09375 11.703125 
L 57.09375 60.703125 
C 57 61.09375 56.796875 61.703125 56.796875 62.203125 
C 56.796875 65.203125 62.59375 65.203125 65.203125 65.203125 
L 65.203125 68.296875 
C 61.59375 68 54.796875 68 51 68 
L 38.796875 68.296875 
L 38.796875 65.203125 
C 44.5 65.203125 46.59375 65.203125 47.796875 61.59375 
L 50 54.59375 
L 36.09375 11.703125 
L 20 60.90625 
C 19.90625 61.203125 19.796875 61.90625 19.796875 62.203125 
C 19.796875 65.203125 25.59375 65.203125 28.203125 65.203125 
L 28.203125 68.296875 
C 24.59375 68 17.796875 68 14 68 
L 1.796875 68.296875 
L 1.796875 65.203125 
C 9.296875 65.203125 9.703125 64.703125 10.90625 61 
L 30.90625 -0.296875 
C 31.203125 -1.203125 31.5 -2.203125 32.796875 -2.203125 
C 34.203125 -2.203125 34.40625 -1.5 34.796875 -0.203125 
L 51.296875 50.59375 
L 67.90625 -0.296875 
C 68.203125 -1.203125 68.5 -2.203125 69.796875 -2.203125 
C 71.203125 -2.203125 71.40625 -1.5 71.796875 -0.203125 
L 90.90625 58.5 
C 92.703125 64.203125 97 65.203125 100.90625 65.203125 
z
" id="LatinModernMath-Regular-87"/>
       <path d="M 52.09375 21.59375 
C 52.09375 34.296875 42.296875 44.203125 30.90625 44.203125 
C 23.09375 44.203125 18.796875 39.5 17.203125 37.703125 
L 17.203125 69.40625 
L 2.796875 68.296875 
L 2.796875 65.203125 
C 9.796875 65.203125 10.59375 64.5 10.59375 59.59375 
L 10.59375 0 
L 13.09375 0 
L 16.703125 6.203125 
C 18.203125 3.90625 22.40625 -1.09375 29.796875 -1.09375 
C 41.703125 -1.09375 52.09375 8.703125 52.09375 21.59375 
z
M 43.796875 21.703125 
C 43.796875 18 43.59375 12 40.703125 7.5 
C 38.59375 4.40625 34.796875 1.09375 29.40625 1.09375 
C 24.90625 1.09375 21.296875 3.5 18.90625 7.203125 
C 17.5 9.296875 17.5 9.59375 17.5 11.40625 
L 17.5 32 
C 17.5 33.90625 17.5 34 18.59375 35.59375 
C 22.5 41.203125 28 42 30.40625 42 
C 34.90625 42 38.5 39.40625 40.90625 35.59375 
C 43.5 31.5 43.796875 25.796875 43.796875 21.703125 
z
" id="LatinModernMath-Regular-98"/>
       <path d="M 36 12.796875 
C 36 18.09375 33 21.09375 31.796875 22.296875 
C 28.5 25.5 24.59375 26.296875 20.40625 27.09375 
C 14.796875 28.203125 8.09375 29.5 8.09375 35.296875 
C 8.09375 38.796875 10.703125 42.90625 19.296875 42.90625 
C 30.296875 42.90625 30.796875 33.90625 31 30.796875 
C 31.09375 29.90625 32.203125 29.90625 32.203125 29.90625 
C 33.5 29.90625 33.5 30.40625 33.5 32.296875 
L 33.5 42.40625 
C 33.5 44.09375 33.5 44.796875 32.40625 44.796875 
C 31.90625 44.796875 31.703125 44.796875 30.40625 43.59375 
C 30.09375 43.203125 29.09375 42.296875 28.703125 42 
C 24.90625 44.796875 20.796875 44.796875 19.296875 44.796875 
C 7.09375 44.796875 3.296875 38.09375 3.296875 32.5 
C 3.296875 29 4.90625 26.203125 7.59375 24 
C 10.796875 21.40625 13.59375 20.796875 20.796875 19.40625 
C 23 19 31.203125 17.40625 31.203125 10.203125 
C 31.203125 5.09375 27.703125 1.09375 19.90625 1.09375 
C 11.5 1.09375 7.90625 6.796875 6 15.296875 
C 5.703125 16.59375 5.59375 17 4.59375 17 
C 3.296875 17 3.296875 16.296875 3.296875 14.5 
L 3.296875 1.296875 
C 3.296875 -0.40625 3.296875 -1.09375 4.40625 -1.09375 
C 4.90625 -1.09375 5 -1 6.90625 0.90625 
C 7.09375 1.09375 7.09375 1.296875 8.90625 3.203125 
C 13.296875 -1 17.796875 -1.09375 19.90625 -1.09375 
C 31.40625 -1.09375 36 5.59375 36 12.796875 
z
" id="LatinModernMath-Regular-115"/>
      </defs>
      <use xlink:href="#LatinModernMath-Regular-87"/>
      <use x="102.799988" xlink:href="#LatinModernMath-Regular-97"/>
      <use x="152.799973" xlink:href="#LatinModernMath-Regular-98"/>
      <use x="208.399963" xlink:href="#LatinModernMath-Regular-98"/>
      <use x="263.999954" xlink:href="#LatinModernMath-Regular-105"/>
      <use x="291.799942" xlink:href="#LatinModernMath-Regular-116"/>
      <use x="330.699936" xlink:href="#LatinModernMath-Regular-115"/>
     </g>
    </g>
    <g id="line2d_25">
     <path d="M 354.051684 28.341444 
L 372.051684 28.341444 
" style="fill:none;stroke:#e36f47;stroke-linejoin:miter;stroke-width:1.125;"/>
    </g>
    <g id="line2d_26"/>
    <g id="text_14">
     <!-- Foxes -->
     <g transform="translate(379.251684 31.491444)scale(0.09 -0.09)">
      <defs>
       <path d="M 61 45.5 
L 58.203125 68 
L 3.296875 68 
L 3.296875 64.90625 
L 5.703125 64.90625 
C 13.40625 64.90625 13.59375 63.796875 13.59375 60.203125 
L 13.59375 7.796875 
C 13.59375 4.203125 13.40625 3.09375 5.703125 3.09375 
L 3.296875 3.09375 
L 3.296875 0 
C 6.796875 0.296875 14.59375 0.296875 18.5 0.296875 
C 22.59375 0.296875 31.703125 0.296875 35.296875 0 
L 35.296875 3.09375 
L 32 3.09375 
C 22.5 3.09375 22.5 4.40625 22.5 7.90625 
L 22.5 32.5 
L 31.09375 32.5 
C 40.703125 32.5 41.703125 29.296875 41.703125 20.796875 
L 44.203125 20.796875 
L 44.203125 47.296875 
L 41.703125 47.296875 
C 41.703125 38.90625 40.703125 35.59375 31.09375 35.59375 
L 22.5 35.59375 
L 22.5 60.90625 
C 22.5 64.203125 22.703125 64.90625 27.40625 64.90625 
L 39.40625 64.90625 
C 54.40625 64.90625 56.90625 59.296875 58.5 45.5 
z
" id="LatinModernMath-Regular-70"/>
       <path d="M 51.59375 0 
L 51.59375 3.09375 
C 46.203125 3.09375 44.40625 3.296875 42.09375 6.203125 
L 28.703125 23.5 
C 31.703125 27.296875 35.5 32.203125 37.90625 34.796875 
C 41 38.40625 45.09375 39.90625 49.796875 40 
L 49.796875 43.09375 
C 47.203125 42.90625 44.203125 42.796875 41.59375 42.796875 
C 38.59375 42.796875 33.296875 43 32 43.09375 
L 32 40 
C 34.09375 39.796875 34.90625 38.5 34.90625 36.90625 
C 34.90625 35.296875 33.90625 34 33.40625 33.40625 
L 27.203125 25.59375 
L 19.40625 35.703125 
C 18.5 36.703125 18.5 36.90625 18.5 37.5 
C 18.5 39 20 39.90625 22 40 
L 22 43.09375 
L 11.203125 42.796875 
C 9.09375 42.796875 4.40625 42.90625 1.703125 43.09375 
L 1.703125 40 
C 8.703125 40 8.796875 39.90625 13.5 33.90625 
L 23.40625 21 
C 18.703125 15 18.703125 14.796875 14 9.09375 
C 9.203125 3.296875 3.296875 3.09375 1.203125 3.09375 
L 1.203125 0 
C 3.796875 0.203125 6.90625 0.296875 9.5 0.296875 
L 19 0 
L 19 3.09375 
C 16.796875 3.40625 16.09375 4.703125 16.09375 6.203125 
C 16.09375 8.40625 19 11.703125 25.09375 18.90625 
L 32.703125 8.90625 
C 33.5 7.796875 34.796875 6.203125 34.796875 5.59375 
C 34.796875 4.703125 33.90625 3.203125 31.203125 3.09375 
L 31.203125 0 
L 42 0.296875 
C 44.703125 0.296875 48.59375 0.203125 51.59375 0 
z
" id="LatinModernMath-Regular-120"/>
      </defs>
      <use xlink:href="#LatinModernMath-Regular-70"/>
      <use x="65.299988" xlink:href="#LatinModernMath-Regular-111"/>
      <use x="115.299973" xlink:href="#LatinModernMath-Regular-120"/>
      <use x="168.09996" xlink:href="#LatinModernMath-Regular-101"/>
      <use x="212.499954" xlink:href="#LatinModernMath-Regular-115"/>
     </g>
    </g>
   </g>
  </g>
 </g>
 <defs>
  <clipPath id="p8e60fab192">
   <rect height="115.620236" width="397.777744" x="26.482378" y="0.944882"/>
  </clipPath>
 </defs>
</svg>
